<?xml version="1.0" encoding="utf-8"?>
<!-- Generator: Adobe Illustrator 20.0.0, SVG Export Plug-In . SVG Version: 6.00 Build 0)  -->
<svg version="1.1" id="Layer_1" xmlns="http://www.w3.org/2000/svg" xmlns:xlink="http://www.w3.org/1999/xlink" x="0px" y="0px"
	 viewBox="0 0 120 70" style="enable-background:new 0 0 120 70;" xml:space="preserve">
<style type="text/css">
	.st0{fill:none;stroke:#000000;}
	.st1{fill:none;stroke:#000000;stroke-width:0.5;stroke-dasharray:4,3;}
	.st2{fill:none;stroke:#000000;stroke-width:0.5;}
	.st3{fill:none;stroke:#000000;stroke-width:0.63;}
	.st4{fill:none;stroke:#000000;stroke-width:0.63;stroke-dasharray:1,1.5;}
	.st5{fill:none;stroke:#BCBEC0;stroke-width:0.63;}
</style>
<g>
	<ellipse class="st0" cx="60" cy="36" rx="55.3" ry="29"/>
	<g>
		<path class="st0" d="M84,30.5c0.8,0.8,1.3,1.7,1.3,2.7c0,4.7-11.3,8.4-25.3,8.4s-25.3-3.8-25.3-8.4c0-0.6,0.2-1.2,0.5-1.7"/>
		<path class="st0" d="M38,37.2c4.3-2.5,12.9-4.3,22.8-4.3c9.2,0,17.3,1.5,21.9,3.8"/>
	</g>
	<g>
		<path class="st1" d="M43.1,40c1.5,0.1,2.4,5.3,1.9,11.7C44.5,58,43,63.1,41.4,63"/>
		<path class="st2" d="M41.4,63c-1.5-0.1-2.4-5.3-1.9-11.7c0.4-6.3,2-11.4,3.6-11.3"/>
	</g>
	<ellipse class="st2" cx="59.9" cy="31" rx="36.4" ry="15.3"/>
	<g>
		<line class="st3" x1="104.4" y1="39.8" x2="102.2" y2="42.4"/>
		<line class="st3" x1="102.2" y1="42.4" x2="104.2" y2="45.1"/>
		<line class="st3" x1="104.2" y1="45.1" x2="108" y2="45"/>
		<line class="st3" x1="108" y1="45" x2="109.3" y2="40.4"/>
		<line class="st3" x1="109.3" y1="40.4" x2="106.4" y2="39.4"/>
		<line class="st3" x1="106.4" y1="39.4" x2="104.4" y2="39.8"/>
	</g>
	<line class="st3" x1="61" y1="60.1" x2="60.1" y2="61.3"/>
	<line class="st3" x1="60.1" y1="61.3" x2="60.8" y2="62.9"/>
	<line class="st3" x1="60.8" y1="62.9" x2="62.5" y2="62.8"/>
	<line class="st3" x1="62.5" y1="62.8" x2="63.1" y2="61"/>
	<line class="st3" x1="63.1" y1="61" x2="61" y2="60.1"/>
	<g>
		<line class="st3" x1="74.4" y1="54.5" x2="79.6" y2="55.8"/>
		<line class="st3" x1="74.4" y1="54.5" x2="75.2" y2="56.3"/>
		<line class="st3" x1="74.8" y1="58.1" x2="79.6" y2="55.8"/>
		<line class="st3" x1="74.8" y1="58.1" x2="75.2" y2="56.3"/>
	</g>
	<path class="st4" d="M81.8,55.5c0,0,6.7-1.3,12.2-3.8c4.8-2.2,8.5-5.8,8.5-5.8"/>
	<g>
		<g>
			<line class="st3" x1="85.2" y1="42.4" x2="85.7" y2="39.9"/>
			<line class="st3" x1="85.7" y1="39.9" x2="88.3" y2="38.8"/>
			<line class="st3" x1="88.3" y1="38.8" x2="90.6" y2="39.3"/>
		</g>
		<g>
			<line class="st3" x1="90.4" y1="39.1" x2="90.1" y2="41.7"/>
			<line class="st3" x1="90.1" y1="41.7" x2="87.9" y2="43.4"/>
			<line class="st3" x1="87.9" y1="43.4" x2="85" y2="42.2"/>
		</g>
	</g>
	<g>
		<line class="st3" x1="39.7" y1="49.2" x2="38.2" y2="49.9"/>
		<line class="st3" x1="38.2" y1="49.9" x2="38" y2="51.6"/>
		<line class="st3" x1="38" y1="51.6" x2="38.9" y2="52.9"/>
		<line class="st3" x1="38.9" y1="52.9" x2="39.6" y2="53.1"/>
	</g>
	<g>
		<line class="st3" x1="39.4" y1="53" x2="40.5" y2="53.2"/>
		<line class="st3" x1="40.5" y1="53.2" x2="41.5" y2="51.1"/>
		<line class="st3" x1="41.5" y1="51.1" x2="40.8" y2="49.6"/>
		<line class="st3" x1="40.8" y1="49.6" x2="39.4" y2="49.1"/>
	</g>
	<g>
		<line class="st5" x1="104.3" y1="50.2" x2="102.3" y2="49"/>
		<line class="st5" x1="102.3" y1="49" x2="102.8" y2="47.7"/>
		<line class="st5" x1="102.8" y1="47.7" x2="104.8" y2="46.8"/>
		<line class="st5" x1="104.8" y1="46.8" x2="106.2" y2="48.5"/>
		<line class="st5" x1="106.2" y1="48.5" x2="105.5" y2="49.8"/>
		<line class="st5" x1="105.5" y1="49.8" x2="104.3" y2="50.2"/>
	</g>
</g>
</svg>
