<?xml version="1.0" encoding="utf-8"?>
<!-- Generator: Adobe Illustrator 20.0.0, SVG Export Plug-In . SVG Version: 6.00 Build 0)  -->
<svg version="1.1" id="Layer_1" xmlns="http://www.w3.org/2000/svg" xmlns:xlink="http://www.w3.org/1999/xlink" x="0px" y="0px"
	 viewBox="0 0 410 580" style="enable-background:new 0 0 410 580;" xml:space="preserve">
<style type="text/css">
	.st0{fill:#BCBEC0;}
	.st1{fill:none;stroke:#0F8140;stroke-width:0.6344;stroke-linecap:square;stroke-miterlimit:10;}
	.st2{fill:#0F8140;}
	.st3{font-family:'TimesNewRomanPSMT';}
	.st4{font-size:16px;}
	.st5{font-size:12px;}
	.st6{fill:none;stroke:#0F8140;stroke-width:0.635;}
	.st7{fill:none;stroke:#0F8140;stroke-width:0.635;stroke-dasharray:3,3;}
	.st8{fill:none;stroke:#000000;}
	.st9{fill:#FFFFFF;}
	.st10{fill:none;stroke:#282A74;stroke-width:0.6344;stroke-linecap:square;stroke-miterlimit:10;stroke-dasharray:3,3;}
	.st11{fill:#282A74;}
	
		.st12{fill-rule:evenodd;clip-rule:evenodd;fill:#ED2224;stroke:#010101;stroke-width:0;stroke-linecap:square;stroke-miterlimit:10;}
</style>
<rect x="17.6" y="216.3" class="st0" width="61.5" height="145.5"/>
<g>
	<g>
		<polyline class="st1" points="17.6,289.8 17.6,216.3 48.3,216.3 		"/>
		<path class="st2" d="M17.6,289.5c0.8-0.8,2.4-1.2,3.5-1.2c-1.5,1.1-2.7,2.5-3.5,4.2c-0.7-1.7-2-3.1-3.5-4.2
			C15.3,288.4,16.7,288.7,17.6,289.5z"/>
	</g>
	<g>
		<polyline class="st1" points="47,361.8 17.6,361.8 17.6,289.8 		"/>
		<path class="st2" d="M46.7,361.8c-0.8-0.8-1.2-2.4-1.2-3.5c1.1,1.5,2.5,2.7,4.2,3.5c-1.7,0.7-3.1,2-4.2,3.5
			C45.6,364,45.9,362.6,46.7,361.8z"/>
	</g>
	<g>
		<polyline class="st1" points="79.1,289.2 79.1,361.8 47,361.8 		"/>
		<path class="st2" d="M79.1,289.5c-0.8,0.8-2.4,1.2-3.5,1.2c1.5-1.1,2.7-2.5,3.5-4.2c0.7,1.7,2,3.1,3.5,4.2
			C81.4,290.6,80,290.3,79.1,289.5z"/>
	</g>
	<g>
		<g>
			<polyline class="st1" points="48.3,216.3 79.1,216.3 79.1,289.2 			"/>
		</g>
		<path class="st2" d="M48.6,216.3c0.8,0.8,1.2,2.4,1.2,3.5c-1.1-1.5-2.5-2.7-4.2-3.5c1.7-0.7,3.1-2,4.2-3.5
			C49.8,214,49.5,215.4,48.6,216.3z"/>
	</g>
</g>
<text transform="matrix(1 0 0 1 45.3149 377.8296)" class="st3 st4">b</text>
<text transform="matrix(1 0 0 1 82.4824 298.248)"><tspan x="0" y="0" class="st3 st4">s</tspan><tspan x="6.2" y="3" class="st3 st5">1</tspan></text>
<text transform="matrix(1 0 0 1 47.3989 210.5811)" class="st3 st4">c</text>
<text transform="matrix(1 0 0 1 2.7319 296.248)"><tspan x="0" y="0" class="st3 st4">a</tspan><tspan x="7.1" y="3" class="st3 st5">1</tspan></text>
<text transform="matrix(1 0 0 1 45.668 293.2485)" class="st3 st4">1</text>
<rect x="114.6" y="216.3" class="st0" width="61.5" height="145.5"/>
<g>
	<g>
		<polyline class="st1" points="114.6,289.8 114.6,216.3 145.3,216.3 		"/>
		<path class="st2" d="M145,216.3c-0.8-0.8-1.2-2.4-1.2-3.5c1.1,1.5,2.5,2.7,4.2,3.5c-1.7,0.7-3.1,2-4.2,3.5
			C143.9,218.6,144.2,217.1,145,216.3z"/>
	</g>
	<path class="st2" d="M114.6,289.5c0.8-0.8,2.4-1.2,3.5-1.2c-1.5,1.1-2.7,2.5-3.5,4.2c-0.7-1.7-2-3.1-3.5-4.2
		C112.3,288.4,113.7,288.7,114.6,289.5z"/>
</g>
<g>
	<polyline class="st1" points="144,361.8 114.6,361.8 114.6,289.8 	"/>
</g>
<g>
	<g>
		<polyline class="st1" points="176.1,289.2 176.1,361.8 144,361.8 		"/>
		<path class="st2" d="M176.1,289.5c-0.8,0.8-2.4,1.2-3.5,1.2c1.5-1.1,2.7-2.5,3.5-4.2c0.7,1.7,2,3.1,3.5,4.2
			C178.4,290.6,177,290.3,176.1,289.5z"/>
	</g>
	<path class="st2" d="M144.3,361.8c0.8,0.8,1.2,2.4,1.2,3.5c-1.1-1.5-2.5-2.7-4.2-3.5c1.7-0.7,3.1-2,4.2-3.5
		C145.4,359.5,145.1,360.9,144.3,361.8z"/>
</g>
<g>
	<g>
		<g>
			<polyline class="st1" points="145.3,216.3 176.1,216.3 176.1,289.2 			"/>
		</g>
	</g>
</g>
<text transform="matrix(1 0 0 1 142.3149 377.8301)" class="st3 st4">b</text>
<text transform="matrix(1 0 0 1 182.4824 292.4155)"><tspan x="0" y="0" class="st3 st4">a</tspan><tspan x="7.1" y="3" class="st3 st5">1</tspan></text>
<text transform="matrix(1 0 0 1 144.3989 210.5815)" class="st3 st4">c</text>
<text transform="matrix(1 0 0 1 101.2319 296.9155)"><tspan x="0" y="0" class="st3 st4">s</tspan><tspan x="6.2" y="3" class="st3 st5">2</tspan></text>
<text transform="matrix(1 0 0 1 139.0015 293.9155)" class="st3 st4">2</text>
<rect x="227.9" y="216.3" class="st0" width="61.5" height="145.5"/>
<g>
	<g>
		<polyline class="st1" points="227.9,289.8 227.9,216.3 258.7,216.3 		"/>
		<path class="st2" d="M227.9,289.5c0.8-0.8,2.4-1.2,3.5-1.2c-1.5,1.1-2.7,2.5-3.5,4.2c-0.7-1.7-2-3.1-3.5-4.2
			C225.6,288.4,227.1,288.7,227.9,289.5z"/>
	</g>
	<g>
		<polyline class="st1" points="257.3,361.8 227.9,361.8 227.9,289.8 		"/>
		<path class="st2" d="M257,361.8c-0.8-0.8-1.2-2.4-1.2-3.5c1.1,1.5,2.5,2.7,4.2,3.5c-1.7,0.7-3.1,2-4.2,3.5
			C255.9,364,256.2,362.6,257,361.8z"/>
	</g>
	<polyline class="st1" points="289.4,289.2 289.4,361.8 257.3,361.8 	"/>
	<g>
		<g>
			<polyline class="st1" points="258.7,216.3 289.4,216.3 289.4,289.2 			"/>
			<path class="st2" d="M289.4,288.9c0.8-0.8,2.4-1.2,3.5-1.2c-1.5,1.1-2.7,2.5-3.5,4.2c-0.7-1.7-2-3.1-3.5-4.2
				C287.1,287.7,288.6,288,289.4,288.9z"/>
		</g>
		<path class="st2" d="M259,216.3c0.8,0.8,1.2,2.4,1.2,3.5c-1.1-1.5-2.5-2.7-4.2-3.5c1.7-0.7,3.1-2,4.2-3.5
			C260.1,214,259.8,215.4,259,216.3z"/>
	</g>
</g>
<text transform="matrix(1 0 0 1 255.6484 377.8301)" class="st3 st4">d</text>
<text transform="matrix(1 0 0 1 295.8159 289.0825)"><tspan x="0" y="0" class="st3 st4">s</tspan><tspan x="6.2" y="3" class="st3 st5">1</tspan></text>
<text transform="matrix(1 0 0 1 257.7324 210.5815)" class="st3 st4">e</text>
<text transform="matrix(1 0 0 1 210.3989 290.582)"><tspan x="0" y="0" class="st3 st4">a</tspan><tspan x="7.1" y="3" class="st3 st5">2</tspan></text>
<text transform="matrix(1 0 0 1 253.0015 290.582)" class="st3 st4">3</text>
<rect x="324.6" y="216.3" class="st0" width="61.5" height="145.5"/>
<g>
	<g>
		<g>
			<polyline class="st1" points="324.6,289.5 324.6,215.9 355.3,215.9 			"/>
			<path class="st2" d="M355,215.9c-0.8-0.8-1.2-2.4-1.2-3.5c1.1,1.5,2.5,2.7,4.2,3.5c-1.7,0.7-3.1,2-4.2,3.5
				C353.9,218.2,354.2,216.8,355,215.9z"/>
		</g>
	</g>
	<g>
		<g>
			<polyline class="st1" points="354,361.4 324.6,361.4 324.6,289.5 			"/>
			<path class="st2" d="M324.6,289.8c-0.8,0.8-2.4,1.2-3.5,1.2c1.5-1.1,2.7-2.5,3.5-4.2c0.7,1.7,2,3.1,3.5,4.2
				C326.9,290.9,325.5,290.6,324.6,289.8z"/>
		</g>
	</g>
	<g>
		<g>
			<polyline class="st1" points="386.1,288.8 386.1,361.4 354,361.4 			"/>
			<path class="st2" d="M386.1,289.1c-0.8,0.8-2.4,1.2-3.5,1.2c1.5-1.1,2.7-2.5,3.5-4.2c0.7,1.7,2,3.1,3.5,4.2
				C388.4,290.3,387,290,386.1,289.1z"/>
		</g>
		<path class="st2" d="M354.3,361.4c0.8,0.8,1.2,2.4,1.2,3.5c-1.1-1.5-2.5-2.7-4.2-3.5c1.7-0.7,3.1-2,4.2-3.5
			C355.4,359.1,355.1,360.5,354.3,361.4z"/>
	</g>
	<g>
		<g>
			<g>
				<polyline class="st1" points="355.3,215.9 386.1,215.9 386.1,288.8 				"/>
			</g>
		</g>
	</g>
</g>
<text transform="matrix(1 0 0 1 352.3149 377.8296)" class="st3 st4">d</text>
<text transform="matrix(1 0 0 1 390.4824 289.248)"><tspan x="0" y="0" class="st3 st4">a</tspan><tspan x="7.1" y="3" class="st3 st5">2</tspan></text>
<text transform="matrix(1 0 0 1 354.3989 210.5811)" class="st3 st4">e</text>
<text transform="matrix(1 0 0 1 309.7319 298.248)"><tspan x="0" y="0" class="st3 st4">s</tspan><tspan x="6.2" y="3" class="st3 st5">2</tspan></text>
<text transform="matrix(1 0 0 1 354.335 289.248)" class="st3 st4">4</text>
<rect x="87.1" y="412.6" class="st0" width="246.5" height="145.3"/>
<g>
	<line class="st6" x1="177.3" y1="558.2" x2="116" y2="558.2"/>
	<path class="st2" d="M116.3,558.2c0.8,0.8,1.2,2.4,1.2,3.5c-1.1-1.5-2.5-2.7-4.2-3.5c1.7-0.7,3.1-2,4.2-3.5
		C117.4,555.9,117.1,557.3,116.3,558.2z"/>
</g>
<g>
	<line class="st6" x1="239.3" y1="558.2" x2="177.3" y2="558.2"/>
	<path class="st2" d="M177.6,558.2c0.8,0.8,1.2,2.4,1.2,3.5c-1.1-1.5-2.5-2.7-4.2-3.5c1.7-0.7,3.1-2,4.2-3.5
		C178.8,555.9,178.5,557.3,177.6,558.2z"/>
</g>
<g>
	<line class="st6" x1="302" y1="558.2" x2="239.3" y2="558.2"/>
	<path class="st2" d="M239.6,558.2c0.8,0.8,1.2,2.4,1.2,3.5c-1.1-1.5-2.5-2.7-4.2-3.5c1.7-0.7,3.1-2,4.2-3.5
		C240.8,555.9,240.5,557.3,239.6,558.2z"/>
</g>
<g>
	<polyline class="st6" points="332.9,488.8 332.9,558.2 302,558.2 	"/>
	<path class="st2" d="M302.3,558.2c0.8,0.8,1.2,2.4,1.2,3.5c-1.1-1.5-2.5-2.7-4.2-3.5c1.7-0.7,3.1-2,4.2-3.5
		C303.4,555.9,303.1,557.3,302.3,558.2z"/>
</g>
<g>
	<polyline class="st6" points="302,412.9 332.9,412.9 332.9,488.8 	"/>
	<path class="st2" d="M332.9,488.5c0.8-0.8,2.4-1.2,3.5-1.2c-1.5,1.1-2.7,2.5-3.5,4.2c-0.7-1.7-2-3.1-3.5-4.2
		C330.7,487.4,332.1,487.7,332.9,488.5z"/>
</g>
<g>
	<line class="st6" x1="242.7" y1="412.9" x2="302" y2="412.9"/>
	<path class="st2" d="M301.7,412.9c-0.8-0.8-1.2-2.4-1.2-3.5c1.1,1.5,2.5,2.7,4.2,3.5c-1.7,0.7-3.1,2-4.2,3.5
		C300.6,415.2,300.9,413.8,301.7,412.9z"/>
</g>
<g>
	<line class="st6" x1="180" y1="412.9" x2="242.7" y2="412.9"/>
	<path class="st2" d="M242.4,412.9c-0.8-0.8-1.2-2.4-1.2-3.5c1.1,1.5,2.5,2.7,4.2,3.5c-1.7,0.7-3.1,2-4.2,3.5
		C241.2,415.2,241.5,413.8,242.4,412.9z"/>
</g>
<g>
	<line class="st6" x1="118" y1="412.9" x2="180" y2="412.9"/>
	<path class="st2" d="M179.7,412.9c-0.8-0.8-1.2-2.4-1.2-3.5c1.1,1.5,2.5,2.7,4.2,3.5c-1.7,0.7-3.1,2-4.2,3.5
		C178.6,415.2,178.9,413.8,179.7,412.9z"/>
</g>
<g>
	<polyline class="st6" points="86.4,486.2 86.4,412.9 118,412.9 	"/>
	<path class="st2" d="M117.7,412.9c-0.8-0.8-1.2-2.4-1.2-3.5c1.1,1.5,2.5,2.7,4.2,3.5c-1.7,0.7-3.1,2-4.2,3.5
		C116.6,415.2,116.9,413.8,117.7,412.9z"/>
	<path class="st2" d="M86.4,485.9c0.8-0.8,2.4-1.2,3.5-1.2c-1.5,1.1-2.7,2.5-3.5,4.2c-0.7-1.7-2-3.1-3.5-4.2
		C84.1,484.7,85.6,485,86.4,485.9z"/>
</g>
<polyline class="st6" points="116,558.2 86.4,558.2 86.4,486.2 "/>
<g>
	<line class="st7" x1="148" y1="485.5" x2="148" y2="557.8"/>
	<path class="st2" d="M148,485.8c-0.8,0.8-2.4,1.2-3.5,1.2c1.5-1.1,2.7-2.5,3.5-4.2c0.7,1.7,2,3.1,3.5,4.2
		C150.3,486.9,148.9,486.6,148,485.8z"/>
</g>
<line class="st7" x1="148" y1="412.8" x2="148" y2="485.5"/>
<g>
	<line class="st7" x1="272" y1="485.5" x2="272" y2="558.5"/>
	<path class="st2" d="M272,485.8c-0.8,0.8-2.4,1.2-3.5,1.2c1.5-1.1,2.7-2.5,3.5-4.2c0.7,1.7,2,3.1,3.5,4.2
		C274.3,486.9,272.9,486.6,272,485.8z"/>
</g>
<line class="st7" x1="272" y1="413.5" x2="272" y2="485.5"/>
<g>
	<line class="st7" x1="209.7" y1="485.5" x2="209.7" y2="558.5"/>
	<path class="st2" d="M209.7,485.8c-0.8,0.8-2.4,1.2-3.5,1.2c1.5-1.1,2.7-2.5,3.5-4.2c0.7,1.7,2,3.1,3.5,4.2
		C212,486.9,210.5,486.6,209.7,485.8z"/>
</g>
<line class="st7" x1="209.7" y1="413.5" x2="209.7" y2="485.5"/>
<text transform="matrix(1 0 0 1 115.666 571.835)" class="st3 st4">c</text>
<text transform="matrix(1 0 0 1 174.666 571.835)" class="st3 st4">d</text>
<text transform="matrix(1 0 0 1 234.9995 571.835)" class="st3 st4">e</text>
<text transform="matrix(1 0 0 1 299 571.835)" class="st3 st4">b</text>
<text transform="matrix(1 0 0 1 297.999 407.835)" class="st3 st4">c</text>
<text transform="matrix(1 0 0 1 239.332 407.835)" class="st3 st4">d</text>
<text transform="matrix(1 0 0 1 177.666 407.835)" class="st3 st4">e</text>
<text transform="matrix(1 0 0 1 114.999 407.835)" class="st3 st4">b</text>
<text transform="matrix(1 0 0 1 69.9995 488.4346)"><tspan x="0" y="0" class="st3 st4">a</tspan><tspan x="7.1" y="3" class="st3 st5">1</tspan></text>
<text transform="matrix(1 0 0 1 257.666 488.4346)"><tspan x="0" y="0" class="st3 st4">s</tspan><tspan x="6.2" y="3" class="st3 st5">1</tspan></text>
<text transform="matrix(1 0 0 1 192.6655 487.9346)"><tspan x="0" y="0" class="st3 st4">a</tspan><tspan x="7.1" y="3" class="st3 st5">2</tspan></text>
<text transform="matrix(1 0 0 1 133.166 488.4346)"><tspan x="0" y="0" class="st3 st4">s</tspan><tspan x="6.2" y="3" class="st3 st5">2</tspan></text>
<text transform="matrix(1 0 0 1 338.999 488.4346)"><tspan x="0" y="0" class="st3 st4">a</tspan><tspan x="7.1" y="3" class="st3 st5">1</tspan></text>
<text transform="matrix(1 0 0 1 111 487.667)" class="st3 st4">2</text>
<text transform="matrix(1 0 0 1 174.3335 487.667)" class="st3 st4">4</text>
<text transform="matrix(1 0 0 1 235 487)" class="st3 st4">3</text>
<text transform="matrix(1 0 0 1 297.667 486.333)" class="st3 st4">1</text>
<g>
	<path class="st8" d="M112.3,511.2c5.9,0,10.7,4.8,10.7,10.7c0,5.9-4.8,10.7-10.7,10.7"/>
	<path d="M112.8,532.5c1.3,1.3,1.9,3.7,1.9,5.5c-1.7-2.3-4-4.3-6.7-5.5c2.7-1.1,4.8-3.2,6.7-5.5
		C114.6,528.9,114.1,531.1,112.8,532.5z"/>
</g>
<g>
	<line class="st8" x1="231" y1="527.3" x2="261" y2="527.3"/>
	<g>
		<path class="st8" d="M245,537.9c0,0,3.3-5.5,3.3-10.7c0-4.8-3.3-9.3-3.3-9.3"/>
		<path d="M245.3,518.3c-0.3,1.8-1.9,3.7-3.3,4.8c0.9-2.8,1.2-5.7,0.5-8.6c2.5,1.5,5.5,2,8.3,2.2
			C249.2,517.6,247.2,518.6,245.3,518.3z"/>
	</g>
</g>
<g>
	<line class="st8" x1="301.1" y1="537.9" x2="301.1" y2="507.9"/>
	<g>
		<path class="st8" d="M311.7,523.9c0,0-5.5-3.3-10.7-3.3c-4.8,0-9.3,3.3-9.3,3.3"/>
		<path d="M292.1,523.7c1.8,0.3,3.7,1.9,4.8,3.3c-2.8-0.9-5.7-1.2-8.6-0.5c1.5-2.5,2-5.5,2.2-8.3
			C291.4,519.7,292.4,521.8,292.1,523.7z"/>
	</g>
</g>
<g>
	<g id="XMLID_3_">
		<g>
			<path class="st0" d="M51.4,41.2C63.9,28.7,81.2,21,100.3,21c38.3,0,69,30.7,69,69c0,38.4-30.7,69-69,69c-0.6,0-1.2,0-1.9,0
				c-37.5-1-67.2-31.3-67.2-69C31.3,70.9,39,53.6,51.4,41.2z"/>
		</g>
		<g>
			<path class="st1" d="M98.5,159.1c-37.5-1-67.2-31.3-67.2-69c0-19.2,7.7-36.4,20.1-48.9C63.9,28.7,81.2,21,100.3,21"/>
			<path class="st1" d="M100.3,21c38.3,0,69,30.7,69,69c0,38.4-30.7,69-69,69c-0.6,0-1.2,0-1.9,0"/>
		</g>
	</g>
</g>
<g>
	<g id="XMLID_2_">
		<g>
			<path class="st9" d="M100.3,63.7c14.8,0,26.7,11.9,26.7,26.8c0,14.9-11.9,26.7-26.7,26.7c-14.9,0-26.7-11.9-26.7-26.7
				c0-7.4,3-14.1,7.8-18.9C86.2,66.6,92.9,63.7,100.3,63.7z"/>
		</g>
		<g>
		</g>
	</g>
</g>
<g>
	<g id="XMLID_1_">
		<g>
			<path class="st0" d="M252.3,43c12.5-12.5,29.7-20.1,48.9-20.1c38.4,0,69,30.7,69,69c0,38.4-30.7,69-69,69c-0.6,0-1.2,0-1.9,0
				c-37.5-1-67.2-31.3-67.2-69C232.1,72.7,239.8,55.5,252.3,43z"/>
		</g>
		<g>
		</g>
	</g>
</g>
<g>
	<g>
		<path class="st1" d="M100,117.2c-14.9,0-26.7-11.9-26.7-26.7l0,0c0-14.9,11.9-26.7,26.7-26.7"/>
		<path class="st2" d="M99.7,63.7c-0.8-0.8-1.2-2.4-1.2-3.5c1.1,1.5,2.5,2.7,4.2,3.5c-1.7,0.7-3.1,2-4.2,3.5
			C98.6,66,98.9,64.5,99.7,63.7z"/>
	</g>
</g>
<g>
	<g>
		<path class="st1" d="M100,63.7c14.9,0,26.7,11.9,26.7,26.7c0,14.9-11.9,26.7-26.7,26.7"/>
		<path class="st2" d="M100.3,117.2c0.8,0.8,1.2,2.4,1.2,3.5c-1.1-1.5-2.5-2.7-4.2-3.5c1.7-0.7,3.1-2,4.2-3.5
			C101.4,114.9,101.1,116.3,100.3,117.2z"/>
	</g>
</g>
<g>
	<g>
		<path class="st1" d="M101.9,159.4c37.5-1,67.2-31.3,67.2-69l0,0c0-38.4-30.7-69-69-69"/>
		<path class="st2" d="M100.3,21.4c0.8,0.8,1.2,2.4,1.2,3.5c-1.1-1.5-2.5-2.7-4.2-3.5c1.7-0.7,3.1-2,4.2-3.5
			C101.4,19.1,101.1,20.5,100.3,21.4z"/>
	</g>
</g>
<g>
	<g>
		<path class="st1" d="M100,21.4c-38.3,0-69,30.7-69,69c0,38.4,30.7,69,69,69c0.6,0,1.2,0,1.9,0"/>
		<path class="st2" d="M101.5,159.4c-0.8-0.8-1.2-2.3-1.3-3.4c1.1,1.4,2.6,2.7,4.3,3.3c-1.7,0.7-3,2.1-4.1,3.6
			C100.5,161.8,100.7,160.3,101.5,159.4z"/>
	</g>
</g>
<line class="st10" x1="51.1" y1="90.4" x2="73.3" y2="90.4"/>
<g>
	<g>
		<line class="st10" x1="31" y1="90.4" x2="51.1" y2="90.4"/>
		<path class="st11" d="M50.8,90.4C50,89.6,49.6,88,49.6,87c1.1,1.5,2.5,2.7,4.2,3.5c-1.7,0.7-3.1,2-4.2,3.5
			C49.7,92.7,50,91.3,50.8,90.4z"/>
	</g>
</g>
<line class="st10" x1="147.7" y1="90.4" x2="169" y2="90.4"/>
<g>
	<g>
		<line class="st10" x1="126.7" y1="90.4" x2="147.7" y2="90.4"/>
		<path class="st11" d="M147.4,90.4c-0.8-0.8-1.2-2.4-1.2-3.5c1.1,1.5,2.5,2.7,4.2,3.5c-1.7,0.7-3.1,2-4.2,3.5
			C146.3,92.7,146.6,91.3,147.4,90.4z"/>
	</g>
</g>
<path class="st12" d="M168,90.4c0-0.5,0.4-1,1-1c0.5,0,1,0.4,1,1c0,0.5-0.4,1-1,1C168.5,91.4,168,91,168,90.4L168,90.4z"/>
<path class="st12" d="M30,90.4c0-0.5,0.4-1,1-1c0.5,0,1,0.4,1,1c0,0.5-0.4,1-1,1C30.4,91.4,30,91,30,90.4L30,90.4z"/>
<g>
	<g id="XMLID_4_">
		<g>
			<path class="st9" d="M301.2,65.2c14.9,0,26.7,11.9,26.7,26.8c0,14.9-11.9,26.7-26.7,26.7c-14.8,0-26.7-11.9-26.7-26.7
				c0-7.4,3-14.1,7.8-18.9C287,68.1,293.7,65.2,301.2,65.2z"/>
		</g>
		<g>
		</g>
	</g>
</g>
<g>
	<g>
		<path class="st1" d="M301,118.7c-14.9,0-26.7-11.9-26.7-26.7l0,0c0-14.9,11.9-26.7,26.7-26.7"/>
		<path class="st2" d="M300.7,118.7c-0.8-0.8-1.2-2.4-1.2-3.5c1.1,1.5,2.5,2.7,4.2,3.5c-1.7,0.7-3.1,2-4.2,3.5
			C299.6,120.9,299.9,119.5,300.7,118.7z"/>
	</g>
</g>
<g>
	<g>
		<path class="st1" d="M301,65.2c14.9,0,26.7,11.9,26.7,26.7c0,14.9-11.9,26.7-26.7,26.7"/>
		<path class="st2" d="M301.3,65.2c0.8,0.8,1.2,2.4,1.2,3.5c-1.1-1.5-2.5-2.7-4.2-3.5c1.7-0.7,3.1-2,4.2-3.5
			C302.4,62.9,302.1,64.3,301.3,65.2z"/>
	</g>
</g>
<g>
	<g>
		<path class="st1" d="M301,161c38.3,0,69-30.7,69-69l0,0c0-38.4-30.7-69-69-69"/>
		<path class="st2" d="M301.3,22.9c0.8,0.8,1.2,2.4,1.2,3.5c-1.1-1.5-2.5-2.7-4.2-3.5c1.7-0.7,3.1-2,4.2-3.5
			C302.4,20.6,302.1,22,301.3,22.9z"/>
	</g>
</g>
<g>
	<g>
		<path class="st1" d="M301,22.9c-38.3,0-69,30.7-69,69c0,38.4,30.7,69,69,69"/>
		<path class="st2" d="M300.7,161c-0.8-0.8-1.2-2.4-1.2-3.5c1.1,1.5,2.5,2.7,4.2,3.5c-1.7,0.7-3.1,2-4.2,3.5
			C299.6,163.3,299.9,161.8,300.7,161z"/>
	</g>
</g>
<line class="st10" x1="254" y1="91.9" x2="274.3" y2="91.9"/>
<g>
	<g>
		<line class="st10" x1="232" y1="91.9" x2="254" y2="91.9"/>
		<path class="st11" d="M253.7,91.9c-0.8-0.8-1.2-2.4-1.2-3.5c1.1,1.5,2.5,2.7,4.2,3.5c-1.7,0.7-3.1,2-4.2,3.5
			C252.6,94.2,252.9,92.8,253.7,91.9z"/>
	</g>
</g>
<line class="st10" x1="348.6" y1="91.9" x2="370" y2="91.9"/>
<g>
	<g>
		<line class="st10" x1="327.7" y1="91.9" x2="348.6" y2="91.9"/>
		<path class="st11" d="M348.3,91.9c-0.8-0.8-1.2-2.4-1.2-3.5c1.1,1.5,2.5,2.7,4.2,3.5c-1.7,0.7-3.1,2-4.2,3.5
			C347.2,94.2,347.4,92.8,348.3,91.9z"/>
	</g>
</g>
<path class="st12" d="M326.8,91.9c0-0.5,0.4-1,1-1c0.5,0,1,0.4,1,1c0,0.5-0.4,1-1,1C327.2,92.9,326.8,92.5,326.8,91.9L326.8,91.9z"
	/>
<path class="st12" d="M273.3,91.9c0-0.5,0.4-1,1-1c0.5,0,1,0.4,1,1c0,0.5-0.4,1-1,1C273.7,92.9,273.3,92.5,273.3,91.9L273.3,91.9z"
	/>
<path class="st12" d="M369,91.9c0-0.5,0.4-1,1-1c0.5,0,1,0.4,1,1c0,0.5-0.4,1-1,1C369.5,92.9,369,92.5,369,91.9L369,91.9z"/>
<path class="st12" d="M231,91.9c0-0.5,0.4-1,1-1c0.5,0,1,0.4,1,1c0,0.5-0.4,1-1,1C231.4,92.9,231,92.5,231,91.9L231,91.9z"/>
<text transform="matrix(1 0 0 1 96.5659 14.7476)"><tspan x="0" y="0" class="st3 st4">a</tspan><tspan x="7.1" y="3" class="st3 st5">1</tspan></text>
<text transform="matrix(1 0 0 1 94.0659 171.3306)"><tspan x="0" y="0" class="st3 st4">a</tspan><tspan x="7.1" y="3" class="st3 st5">1</tspan></text>
<text transform="matrix(1 0 0 1 48.6489 105.9971)" class="st3 st4">b</text>
<text transform="matrix(1 0 0 1 145.2324 102.5815)" class="st3 st4">c</text>
<text transform="matrix(1 0 0 1 97.8159 74.6646)"><tspan x="0" y="0" class="st3 st4">s</tspan><tspan x="6.2" y="3" class="st3 st5">1</tspan></text>
<text transform="matrix(1 0 0 1 96.6494 126.9146)"><tspan x="0" y="0" class="st3 st4">s</tspan><tspan x="6.2" y="3" class="st3 st5">2</tspan></text>
<text transform="matrix(1 0 0 1 299.0698 129.748)"><tspan x="0" y="0" class="st3 st4">s</tspan><tspan x="6.2" y="3" class="st3 st5">2</tspan></text>
<text transform="matrix(1 0 0 1 300.0688 60.4131)"><tspan x="0" y="0" class="st3 st4">s</tspan><tspan x="6.2" y="3" class="st3 st5">1</tspan></text>
<text transform="matrix(1 0 0 1 297.4023 18.2476)"><tspan x="0" y="0" class="st3 st4">a</tspan><tspan x="7.1" y="3" class="st3 st5">2</tspan></text>
<text transform="matrix(1 0 0 1 299.4023 171.5806)"><tspan x="0" y="0" class="st3 st4">a</tspan><tspan x="7.1" y="3" class="st3 st5">2</tspan></text>
<text transform="matrix(1 0 0 1 250.9009 105.915)" class="st3 st4">d</text>
<text transform="matrix(1 0 0 1 345.4014 103.415)" class="st3 st4">e</text>
<text transform="matrix(1 0 0 1 81.835 50.5)" class="st3 st4">1</text>
<text transform="matrix(1 0 0 1 78.168 142.8335)" class="st3 st4">2</text>
<text transform="matrix(1 0 0 1 275.335 55)" class="st3 st4">3</text>
<text transform="matrix(1 0 0 1 281.168 145)" class="st3 st4">4</text>
<path class="st12" d="M72.4,90.4c0-0.5,0.4-1,1-1c0.5,0,1,0.4,1,1c0,0.5-0.4,1-1,1C72.8,91.3,72.4,90.9,72.4,90.4L72.4,90.4z"/>
<path class="st12" d="M125.7,90.5c0-0.5,0.4-1,1-1c0.5,0,1,0.4,1,1c0,0.5-0.4,1-1,1C126.2,91.5,125.7,91.1,125.7,90.5L125.7,90.5z"
	/>
</svg>
