<?xml version="1.0" encoding="utf-8"?>
<!-- Generator: Adobe Illustrator 20.0.0, SVG Export Plug-In . SVG Version: 6.00 Build 0)  -->
<svg version="1.1" id="Layer_1" xmlns="http://www.w3.org/2000/svg" xmlns:xlink="http://www.w3.org/1999/xlink" x="0px" y="0px"
	 viewBox="0 0 180 140" style="enable-background:new 0 0 180 140;" xml:space="preserve">
<style type="text/css">
	.st0{fill:none;stroke:#010101;stroke-width:0.6362;stroke-linecap:square;stroke-miterlimit:10;}
	.st1{fill:#010101;}
	.st2{font-family:'TimesNewRomanPSMT';}
	.st3{font-size:7.6342px;}
	.st4{clip-path:url(#SVGID_2_);fill:none;stroke:#3A53A4;stroke-width:0.6362;stroke-linecap:square;stroke-miterlimit:10;}
	.st5{clip-path:url(#SVGID_4_);fill:none;stroke:#3A53A4;stroke-width:0.6362;stroke-linecap:square;stroke-miterlimit:10;}
	
		.st6{clip-path:url(#SVGID_6_);fill-rule:evenodd;clip-rule:evenodd;fill:#010101;stroke:#010101;stroke-width:0.6362;stroke-linecap:square;stroke-miterlimit:10;}
</style>
<g>
	<line class="st0" x1="8.7" y1="66.2" x2="8.7" y2="71.2"/>
	<line class="st0" x1="48.6" y1="66.2" x2="48.6" y2="71.2"/>
	<line class="st0" x1="88.6" y1="66.2" x2="88.6" y2="71.2"/>
	<line class="st0" x1="128.5" y1="66.2" x2="128.5" y2="71.2"/>
	<line class="st0" x1="169.1" y1="66.2" x2="169.1" y2="71.2"/>
	<line class="st0" x1="86" y1="129.8" x2="91.1" y2="129.8"/>
	<line class="st0" x1="86" y1="99.2" x2="91.1" y2="99.2"/>
	<line class="st0" x1="86" y1="68.7" x2="91.1" y2="68.7"/>
	<line class="st0" x1="86" y1="38.2" x2="91.1" y2="38.2"/>
	<line class="st0" x1="86" y1="7.6" x2="91.1" y2="7.6"/>
	<line class="st0" x1="8.7" y1="68.7" x2="169.1" y2="68.7"/>
	<line class="st0" x1="4.2" y1="75.1" x2="7.4" y2="75.1"/>
	<text transform="matrix(0.9965 0 0 1 8.0495 78.8741)" class="st1 st2 st3">10</text>
	<line class="st0" x1="46.1" y1="75.1" x2="49.3" y2="75.1"/>
	<text transform="matrix(0.9965 0 0 1 49.8908 78.8741)" class="st1 st2 st3">5</text>
	<text transform="matrix(0.9965 0 0 1 89.8335 78.8741)" class="st1 st2 st3">0</text>
	<text transform="matrix(0.9965 0 0 1 127.8729 78.8741)" class="st1 st2 st3">5</text>
	<text transform="matrix(0.9965 0 0 1 166.5465 78.8741)" class="st1 st2 st3">10</text>
	<line class="st0" x1="88.6" y1="7.6" x2="88.6" y2="129.8"/>
	<line class="st0" x1="75.3" y1="129.8" x2="78.4" y2="129.8"/>
	<text transform="matrix(0.9965 0 0 1 79.0552 133.5852)" class="st1 st2 st3">10</text>
	<line class="st0" x1="79.1" y1="99.2" x2="82.2" y2="99.2"/>
	<text transform="matrix(0.9965 0 0 1 82.8607 103.0518)" class="st1 st2 st3">5</text>
	<text transform="matrix(0.9965 0 0 1 83.4948 41.9773)" class="st1 st2 st3">5</text>
	<text transform="matrix(0.9965 0 0 1 79.6893 11.4401)" class="st1 st2 st3">10</text>
	<g>
		<defs>
			<polygon id="SVGID_1_" points="8.7,7.6 169.7,7.6 169.7,130.4 8.7,130.4 8.7,7.6 			"/>
		</defs>
		<clipPath id="SVGID_2_">
			<use xlink:href="#SVGID_1_"  style="overflow:visible;"/>
		</clipPath>
		<line class="st4" x1="8.7" y1="68.7" x2="8.7" y2="67.4"/>
		<line class="st4" x1="8.7" y1="64.9" x2="8.7" y2="64.9"/>
		<line class="st4" x1="8.7" y1="64.9" x2="8.7" y2="63.6"/>
		<line class="st4" x1="8.7" y1="61.1" x2="8.7" y2="61.1"/>
		<line class="st4" x1="8.7" y1="61.1" x2="9.3" y2="60.4"/>
		<line class="st4" x1="9.3" y1="60.4" x2="9.3" y2="59.8"/>
		<line class="st4" x1="10" y1="57.2" x2="10" y2="57.2"/>
		<line class="st4" x1="10" y1="57.2" x2="10" y2="56.6"/>
		<line class="st4" x1="10.6" y1="54.7" x2="10.6" y2="54.7"/>
		<line class="st4" x1="10.6" y1="54.7" x2="10.6" y2="54.1"/>
		<line class="st4" x1="10.6" y1="54.1" x2="10.6" y2="53.4"/>
		<line class="st4" x1="11.9" y1="51.5" x2="11.9" y2="51.5"/>
		<line class="st4" x1="11.9" y1="51.5" x2="11.9" y2="50.9"/>
		<line class="st4" x1="11.9" y1="50.9" x2="11.9" y2="50.2"/>
		<line class="st4" x1="13.1" y1="48.3" x2="13.1" y2="48.3"/>
		<line class="st4" x1="13.1" y1="48.3" x2="13.1" y2="47.7"/>
		<line class="st4" x1="13.1" y1="47.7" x2="13.1" y2="47.1"/>
		<line class="st4" x1="14.4" y1="45.8" x2="14.4" y2="45.8"/>
		<line class="st4" x1="14.4" y1="45.8" x2="14.4" y2="45.2"/>
		<line class="st4" x1="14.4" y1="45.2" x2="14.4" y2="44.5"/>
		<line class="st4" x1="15.7" y1="43.3" x2="15.7" y2="43.3"/>
		<line class="st4" x1="15.7" y1="43.3" x2="15.7" y2="42.6"/>
		<line class="st4" x1="15.7" y1="42.6" x2="16.3" y2="42"/>
		<line class="st4" x1="17.6" y1="40.1" x2="17.6" y2="40.1"/>
		<line class="st4" x1="17.6" y1="40.1" x2="17.6" y2="39.4"/>
		<line class="st4" x1="18.8" y1="38.2" x2="18.8" y2="38.2"/>
		<line class="st4" x1="18.8" y1="38.2" x2="18.8" y2="37.5"/>
		<line class="st4" x1="18.8" y1="37.5" x2="19.5" y2="37.5"/>
		<line class="st4" x1="20.7" y1="36.3" x2="20.7" y2="36.3"/>
		<line class="st4" x1="20.7" y1="36.3" x2="20.7" y2="35.6"/>
		<line class="st4" x1="20.7" y1="35.6" x2="21.4" y2="35"/>
		<line class="st4" x1="23.3" y1="33.1" x2="23.3" y2="33.1"/>
		<line class="st4" x1="23.3" y1="33.1" x2="23.3" y2="32.4"/>
		<line class="st4" x1="23.3" y1="32.4" x2="23.9" y2="32.4"/>
		<line class="st4" x1="25.2" y1="31.2" x2="25.2" y2="31.2"/>
		<line class="st4" x1="25.2" y1="31.2" x2="25.2" y2="30.5"/>
		<line class="st4" x1="25.2" y1="30.5" x2="25.8" y2="30.5"/>
		<line class="st4" x1="27.1" y1="29.3" x2="27.1" y2="29.3"/>
		<line class="st4" x1="27.1" y1="29.3" x2="27.7" y2="28.6"/>
		<line class="st4" x1="29.6" y1="27.3" x2="29.6" y2="27.3"/>
		<line class="st4" x1="29.6" y1="27.3" x2="29.6" y2="26.7"/>
		<line class="st4" x1="29.6" y1="26.7" x2="30.2" y2="26.7"/>
		<line class="st4" x1="31.5" y1="25.4" x2="31.5" y2="25.4"/>
		<line class="st4" x1="31.5" y1="25.4" x2="32.1" y2="25.4"/>
		<line class="st4" x1="32.1" y1="25.4" x2="32.1" y2="24.8"/>
		<line class="st4" x1="33.4" y1="23.5" x2="33.4" y2="23.5"/>
		<line class="st4" x1="33.4" y1="23.5" x2="34" y2="23.5"/>
		<line class="st4" x1="34" y1="23.5" x2="34.7" y2="23.5"/>
		<line class="st4" x1="35.9" y1="22.3" x2="35.9" y2="22.3"/>
		<line class="st4" x1="35.9" y1="22.3" x2="36.6" y2="22.3"/>
		<line class="st4" x1="36.6" y1="22.3" x2="36.6" y2="21.6"/>
		<line class="st4" x1="38.5" y1="20.3" x2="38.5" y2="20.3"/>
		<line class="st4" x1="38.5" y1="20.3" x2="39.1" y2="20.3"/>
		<line class="st4" x1="39.1" y1="20.3" x2="39.7" y2="20.3"/>
		<line class="st4" x1="41.7" y1="19.1" x2="41.7" y2="19.1"/>
		<line class="st4" x1="41.7" y1="19.1" x2="41.7" y2="18.4"/>
		<line class="st4" x1="41.7" y1="18.4" x2="42.3" y2="18.4"/>
		<line class="st4" x1="44.2" y1="17.8" x2="44.2" y2="17.8"/>
		<line class="st4" x1="44.2" y1="17.8" x2="44.2" y2="17.2"/>
		<line class="st4" x1="44.2" y1="17.2" x2="44.8" y2="17.2"/>
		<line class="st4" x1="46.7" y1="16.5" x2="46.7" y2="16.5"/>
		<line class="st4" x1="46.7" y1="16.5" x2="46.7" y2="15.9"/>
		<line class="st4" x1="46.7" y1="15.9" x2="47.4" y2="15.9"/>
		<line class="st4" x1="49.3" y1="15.3" x2="49.3" y2="15.3"/>
		<line class="st4" x1="49.3" y1="15.3" x2="49.9" y2="15.3"/>
		<line class="st4" x1="49.9" y1="15.3" x2="49.9" y2="14.6"/>
		<line class="st4" x1="51.8" y1="14" x2="51.8" y2="14"/>
		<line class="st4" x1="51.8" y1="14" x2="52.4" y2="14"/>
		<line class="st4" x1="52.4" y1="14" x2="53.1" y2="14"/>
		<line class="st4" x1="55" y1="12.7" x2="55" y2="12.7"/>
		<line class="st4" x1="55" y1="12.7" x2="55.6" y2="12.7"/>
		<line class="st4" x1="58.1" y1="12.1" x2="58.1" y2="12.1"/>
		<line class="st4" x1="58.1" y1="12.1" x2="58.8" y2="11.4"/>
		<line class="st4" x1="60.7" y1="10.8" x2="60.7" y2="10.8"/>
		<line class="st4" x1="60.7" y1="10.8" x2="61.3" y2="10.8"/>
		<line class="st4" x1="61.3" y1="10.8" x2="61.9" y2="10.8"/>
		<line class="st4" x1="63.8" y1="10.2" x2="63.8" y2="10.2"/>
		<line class="st4" x1="63.8" y1="10.2" x2="64.5" y2="10.2"/>
		<line class="st4" x1="64.5" y1="10.2" x2="65.1" y2="10.2"/>
		<line class="st4" x1="67" y1="9.5" x2="67" y2="9.5"/>
		<line class="st4" x1="67" y1="9.5" x2="67.6" y2="9.5"/>
		<line class="st4" x1="67.6" y1="9.5" x2="68.3" y2="9.5"/>
		<line class="st4" x1="70.8" y1="8.9" x2="70.8" y2="8.9"/>
		<line class="st4" x1="70.8" y1="8.9" x2="71.4" y2="8.9"/>
		<line class="st4" x1="71.4" y1="8.9" x2="72.1" y2="8.9"/>
		<line class="st4" x1="74" y1="8.3" x2="74" y2="8.3"/>
		<line class="st4" x1="74" y1="8.3" x2="74.6" y2="8.3"/>
		<line class="st4" x1="74.6" y1="8.3" x2="75.3" y2="8.3"/>
		<line class="st4" x1="77.2" y1="7.6" x2="77.2" y2="7.6"/>
		<line class="st4" x1="77.2" y1="7.6" x2="77.8" y2="7.6"/>
		<line class="st4" x1="77.8" y1="7.6" x2="78.4" y2="7.6"/>
		<line class="st4" x1="81" y1="7.6" x2="81" y2="7.6"/>
		<line class="st4" x1="81" y1="7.6" x2="81.6" y2="7.6"/>
		<line class="st4" x1="81.6" y1="7.6" x2="82.2" y2="7.6"/>
		<line class="st4" x1="84.8" y1="7.6" x2="84.8" y2="7.6"/>
		<line class="st4" x1="84.8" y1="7.6" x2="85.4" y2="7.6"/>
		<line class="st4" x1="85.4" y1="7.6" x2="86" y2="7.6"/>
		<line class="st4" x1="88.6" y1="7.6" x2="88.6" y2="7.6"/>
		<line class="st4" x1="88.6" y1="7.6" x2="89.2" y2="7.6"/>
		<line class="st4" x1="89.2" y1="7.6" x2="89.8" y2="7.6"/>
		<line class="st4" x1="92.4" y1="7.6" x2="92.4" y2="7.6"/>
		<line class="st4" x1="92.4" y1="7.6" x2="93" y2="7.6"/>
		<line class="st4" x1="93" y1="7.6" x2="93.6" y2="7.6"/>
		<line class="st4" x1="96.2" y1="7.6" x2="96.2" y2="7.6"/>
		<line class="st4" x1="96.2" y1="7.6" x2="96.8" y2="7.6"/>
		<line class="st4" x1="96.8" y1="7.6" x2="97.4" y2="7.6"/>
		<line class="st4" x1="100" y1="7.6" x2="100" y2="7.6"/>
		<line class="st4" x1="100" y1="7.6" x2="100" y2="8.3"/>
		<line class="st4" x1="100" y1="8.3" x2="100.6" y2="8.3"/>
		<line class="st4" x1="103.1" y1="8.3" x2="103.1" y2="8.3"/>
		<line class="st4" x1="103.1" y1="8.3" x2="103.8" y2="8.3"/>
		<line class="st4" x1="103.8" y1="8.3" x2="104.4" y2="8.3"/>
		<line class="st4" x1="106.3" y1="8.9" x2="106.3" y2="8.9"/>
		<line class="st4" x1="106.3" y1="8.9" x2="107" y2="8.9"/>
		<line class="st4" x1="107" y1="8.9" x2="107.6" y2="8.9"/>
		<line class="st4" x1="109.5" y1="9.5" x2="109.5" y2="9.5"/>
		<line class="st4" x1="109.5" y1="9.5" x2="110.1" y2="9.5"/>
		<line class="st4" x1="110.1" y1="9.5" x2="110.8" y2="9.5"/>
		<line class="st4" x1="112.7" y1="10.2" x2="112.7" y2="10.2"/>
		<line class="st4" x1="112.7" y1="10.2" x2="113.3" y2="10.2"/>
		<line class="st4" x1="113.3" y1="10.2" x2="113.9" y2="10.2"/>
		<line class="st4" x1="115.8" y1="10.8" x2="115.8" y2="10.8"/>
		<line class="st4" x1="115.8" y1="10.8" x2="116.5" y2="10.8"/>
		<line class="st4" x1="116.5" y1="10.8" x2="116.5" y2="11.4"/>
		<line class="st4" x1="119" y1="12.1" x2="119" y2="12.1"/>
		<line class="st4" x1="119" y1="12.1" x2="119.6" y2="12.1"/>
		<line class="st4" x1="119.6" y1="12.1" x2="120.3" y2="12.1"/>
		<line class="st4" x1="122.8" y1="13.3" x2="122.8" y2="13.3"/>
		<line class="st4" x1="122.8" y1="13.3" x2="123.4" y2="13.3"/>
		<line class="st4" x1="125.3" y1="14" x2="125.3" y2="14"/>
		<line class="st4" x1="125.3" y1="14" x2="126" y2="14"/>
		<line class="st4" x1="126" y1="14" x2="126" y2="14.6"/>
		<line class="st4" x1="127.9" y1="15.3" x2="127.9" y2="15.3"/>
		<line class="st4" x1="127.9" y1="15.3" x2="128.5" y2="15.3"/>
		<line class="st4" x1="128.5" y1="15.3" x2="129.1" y2="15.3"/>
		<line class="st4" x1="130.4" y1="16.5" x2="130.4" y2="16.5"/>
		<line class="st4" x1="130.4" y1="16.5" x2="131" y2="16.5"/>
		<line class="st4" x1="131" y1="16.5" x2="131.7" y2="16.5"/>
		<line class="st4" x1="132.9" y1="17.8" x2="132.9" y2="17.8"/>
		<line class="st4" x1="132.9" y1="17.8" x2="133.6" y2="17.8"/>
		<line class="st4" x1="133.6" y1="17.8" x2="134.2" y2="17.8"/>
		<line class="st4" x1="135.5" y1="19.1" x2="135.5" y2="19.1"/>
		<line class="st4" x1="135.5" y1="19.1" x2="136.1" y2="19.1"/>
		<line class="st4" x1="136.1" y1="19.1" x2="136.7" y2="19.7"/>
		<line class="st4" x1="138.6" y1="20.3" x2="138.6" y2="20.3"/>
		<line class="st4" x1="138.6" y1="20.3" x2="138.6" y2="21"/>
		<line class="st4" x1="138.6" y1="21" x2="139.3" y2="21"/>
		<line class="st4" x1="140.6" y1="22.3" x2="140.6" y2="22.3"/>
		<line class="st4" x1="140.6" y1="22.3" x2="141.2" y2="22.3"/>
		<line class="st4" x1="141.2" y1="22.3" x2="141.8" y2="22.9"/>
		<line class="st4" x1="143.7" y1="23.5" x2="143.7" y2="23.5"/>
		<line class="st4" x1="143.7" y1="23.5" x2="143.7" y2="24.2"/>
		<line class="st4" x1="143.7" y1="24.2" x2="144.4" y2="24.2"/>
		<line class="st4" x1="145.6" y1="25.4" x2="145.6" y2="25.4"/>
		<line class="st4" x1="145.6" y1="25.4" x2="146.3" y2="25.4"/>
		<line class="st4" x1="146.3" y1="25.4" x2="146.3" y2="26.1"/>
		<line class="st4" x1="147.5" y1="27.3" x2="147.5" y2="27.3"/>
		<line class="st4" x1="147.5" y1="27.3" x2="148.2" y2="27.3"/>
		<line class="st4" x1="148.2" y1="27.3" x2="148.2" y2="28"/>
		<line class="st4" x1="150.1" y1="29.3" x2="150.1" y2="29.3"/>
		<line class="st4" x1="150.1" y1="29.3" x2="150.7" y2="29.3"/>
		<line class="st4" x1="150.7" y1="29.3" x2="150.7" y2="29.9"/>
		<line class="st4" x1="152" y1="31.2" x2="152" y2="31.2"/>
		<line class="st4" x1="152" y1="31.2" x2="152.6" y2="31.2"/>
		<line class="st4" x1="152.6" y1="31.2" x2="152.6" y2="31.8"/>
		<line class="st4" x1="153.9" y1="33.1" x2="153.9" y2="33.1"/>
		<line class="st4" x1="153.9" y1="33.1" x2="154.5" y2="33.7"/>
		<line class="st4" x1="156.4" y1="36.3" x2="156.4" y2="36.3"/>
		<line class="st4" x1="156.4" y1="36.3" x2="157" y2="36.3"/>
		<line class="st4" x1="157" y1="36.3" x2="157" y2="36.9"/>
		<line class="st4" x1="158.3" y1="38.2" x2="158.3" y2="38.2"/>
		<line class="st4" x1="158.3" y1="38.2" x2="158.3" y2="38.8"/>
		<line class="st4" x1="158.3" y1="38.8" x2="158.9" y2="38.8"/>
		<line class="st4" x1="160.2" y1="40.7" x2="160.2" y2="40.7"/>
		<line class="st4" x1="160.2" y1="40.7" x2="160.2" y2="41.3"/>
		<line class="st4" x1="161.5" y1="43.3" x2="161.5" y2="43.3"/>
		<line class="st4" x1="161.5" y1="43.3" x2="162.1" y2="43.9"/>
		<line class="st4" x1="162.7" y1="45.8" x2="162.7" y2="45.8"/>
		<line class="st4" x1="162.7" y1="45.8" x2="163.4" y2="45.8"/>
		<line class="st4" x1="163.4" y1="45.8" x2="163.4" y2="46.4"/>
		<line class="st4" x1="164" y1="48.3" x2="164" y2="48.3"/>
		<line class="st4" x1="164" y1="48.3" x2="164.6" y2="48.3"/>
		<line class="st4" x1="164.6" y1="48.3" x2="164.6" y2="49"/>
		<line class="st4" x1="165.3" y1="51.5" x2="165.3" y2="51.5"/>
		<line class="st4" x1="165.3" y1="51.5" x2="165.9" y2="51.5"/>
		<line class="st4" x1="165.9" y1="51.5" x2="165.9" y2="52.2"/>
		<line class="st4" x1="166.5" y1="54.1" x2="166.5" y2="54.1"/>
		<line class="st4" x1="166.5" y1="54.1" x2="166.5" y2="54.7"/>
		<line class="st4" x1="166.5" y1="54.7" x2="166.5" y2="55.3"/>
		<line class="st4" x1="167.2" y1="57.2" x2="167.2" y2="57.2"/>
		<line class="st4" x1="167.2" y1="57.2" x2="167.8" y2="58.5"/>
		<line class="st4" x1="167.8" y1="61.1" x2="167.8" y2="61.1"/>
		<line class="st4" x1="167.8" y1="61.1" x2="168.4" y2="62.3"/>
		<line class="st4" x1="168.4" y1="64.9" x2="168.4" y2="66.2"/>
	</g>
	<g>
		<defs>
			<polygon id="SVGID_3_" points="8.7,7.6 169.7,7.6 169.7,130.4 8.7,130.4 8.7,7.6 			"/>
		</defs>
		<clipPath id="SVGID_4_">
			<use xlink:href="#SVGID_3_"  style="overflow:visible;"/>
		</clipPath>
		<line class="st5" x1="8.7" y1="68.7" x2="8.7" y2="70"/>
		<line class="st5" x1="8.7" y1="72.5" x2="8.7" y2="73.2"/>
		<line class="st5" x1="8.7" y1="73.2" x2="8.7" y2="73.8"/>
		<line class="st5" x1="9.3" y1="76.3" x2="9.3" y2="76.3"/>
		<line class="st5" x1="9.3" y1="76.3" x2="9.3" y2="77"/>
		<line class="st5" x1="9.3" y1="77" x2="9.3" y2="77.6"/>
		<line class="st5" x1="10" y1="79.5" x2="10" y2="79.5"/>
		<line class="st5" x1="10" y1="79.5" x2="10" y2="80.1"/>
		<line class="st5" x1="10" y1="80.1" x2="10" y2="80.8"/>
		<line class="st5" x1="10.6" y1="82.7" x2="10.6" y2="82.7"/>
		<line class="st5" x1="10.6" y1="82.7" x2="10.6" y2="83.3"/>
		<line class="st5" x1="10.6" y1="83.3" x2="11.2" y2="84"/>
		<line class="st5" x1="11.9" y1="85.9" x2="11.9" y2="85.9"/>
		<line class="st5" x1="11.9" y1="85.9" x2="11.9" y2="86.5"/>
		<line class="st5" x1="11.9" y1="86.5" x2="12.5" y2="87.1"/>
		<line class="st5" x1="13.1" y1="89.1" x2="13.1" y2="89.1"/>
		<line class="st5" x1="13.1" y1="89.1" x2="13.1" y2="89.7"/>
		<line class="st5" x1="13.1" y1="89.7" x2="13.8" y2="89.7"/>
		<line class="st5" x1="14.4" y1="91.6" x2="14.4" y2="91.6"/>
		<line class="st5" x1="14.4" y1="91.6" x2="14.4" y2="92.2"/>
		<line class="st5" x1="14.4" y1="92.2" x2="15" y2="92.2"/>
		<line class="st5" x1="15.7" y1="94.1" x2="15.7" y2="94.1"/>
		<line class="st5" x1="15.7" y1="94.1" x2="16.3" y2="94.8"/>
		<line class="st5" x1="16.3" y1="94.8" x2="16.3" y2="95.4"/>
		<line class="st5" x1="17.6" y1="96.7" x2="17.6" y2="96.7"/>
		<line class="st5" x1="17.6" y1="96.7" x2="17.6" y2="97.3"/>
		<line class="st5" x1="17.6" y1="97.3" x2="18.2" y2="97.3"/>
		<line class="st5" x1="18.8" y1="99.2" x2="18.8" y2="99.2"/>
		<line class="st5" x1="18.8" y1="99.2" x2="19.5" y2="99.2"/>
		<line class="st5" x1="19.5" y1="99.2" x2="19.5" y2="99.9"/>
		<line class="st5" x1="20.7" y1="101.1" x2="20.7" y2="101.1"/>
		<line class="st5" x1="20.7" y1="101.1" x2="21.4" y2="101.8"/>
		<line class="st5" x1="23.3" y1="104.3" x2="23.3" y2="104.3"/>
		<line class="st5" x1="23.3" y1="104.3" x2="23.9" y2="104.3"/>
		<line class="st5" x1="23.9" y1="104.3" x2="23.9" y2="105"/>
		<line class="st5" x1="25.2" y1="106.2" x2="25.2" y2="106.2"/>
		<line class="st5" x1="25.2" y1="106.2" x2="25.8" y2="106.2"/>
		<line class="st5" x1="25.8" y1="106.2" x2="25.8" y2="106.9"/>
		<line class="st5" x1="27.7" y1="108.1" x2="27.7" y2="108.1"/>
		<line class="st5" x1="27.7" y1="108.1" x2="28.3" y2="108.8"/>
		<line class="st5" x1="29.6" y1="110" x2="29.6" y2="110"/>
		<line class="st5" x1="29.6" y1="110" x2="30.2" y2="110"/>
		<line class="st5" x1="30.2" y1="110" x2="30.2" y2="110.7"/>
		<line class="st5" x1="32.1" y1="111.3" x2="32.1" y2="111.3"/>
		<line class="st5" x1="32.1" y1="111.3" x2="32.1" y2="112"/>
		<line class="st5" x1="32.1" y1="112" x2="32.8" y2="112"/>
		<line class="st5" x1="34" y1="113.2" x2="34" y2="113.2"/>
		<line class="st5" x1="34" y1="113.2" x2="34.7" y2="113.2"/>
		<line class="st5" x1="34.7" y1="113.2" x2="34.7" y2="113.9"/>
		<line class="st5" x1="36.6" y1="114.5" x2="36.6" y2="114.5"/>
		<line class="st5" x1="36.6" y1="114.5" x2="36.6" y2="115.1"/>
		<line class="st5" x1="36.6" y1="115.1" x2="37.2" y2="115.1"/>
		<line class="st5" x1="39.1" y1="116.4" x2="39.1" y2="116.4"/>
		<line class="st5" x1="39.1" y1="116.4" x2="39.7" y2="116.4"/>
		<line class="st5" x1="39.7" y1="116.4" x2="39.7" y2="117"/>
		<line class="st5" x1="41.7" y1="118.3" x2="41.7" y2="118.3"/>
		<line class="st5" x1="41.7" y1="118.3" x2="42.3" y2="118.3"/>
		<line class="st5" x1="42.3" y1="118.3" x2="42.9" y2="118.3"/>
		<line class="st5" x1="44.2" y1="119.6" x2="44.2" y2="119.6"/>
		<line class="st5" x1="44.2" y1="119.6" x2="44.8" y2="119.6"/>
		<line class="st5" x1="44.8" y1="119.6" x2="45.5" y2="119.6"/>
		<line class="st5" x1="46.7" y1="120.9" x2="46.7" y2="120.9"/>
		<line class="st5" x1="46.7" y1="120.9" x2="47.4" y2="120.9"/>
		<line class="st5" x1="47.4" y1="120.9" x2="48" y2="120.9"/>
		<line class="st5" x1="49.9" y1="121.5" x2="49.9" y2="121.5"/>
		<line class="st5" x1="49.9" y1="121.5" x2="49.9" y2="122.1"/>
		<line class="st5" x1="49.9" y1="122.1" x2="50.5" y2="122.1"/>
		<line class="st5" x1="52.4" y1="122.8" x2="52.4" y2="122.8"/>
		<line class="st5" x1="52.4" y1="122.8" x2="53.1" y2="122.8"/>
		<line class="st5" x1="53.1" y1="122.8" x2="53.1" y2="123.4"/>
		<line class="st5" x1="55" y1="124" x2="55" y2="124"/>
		<line class="st5" x1="55" y1="124" x2="55.6" y2="124"/>
		<line class="st5" x1="55.6" y1="124" x2="56.2" y2="124"/>
		<line class="st5" x1="58.8" y1="125.3" x2="58.8" y2="125.3"/>
		<line class="st5" x1="58.8" y1="125.3" x2="59.4" y2="125.3"/>
		<line class="st5" x1="61.3" y1="126" x2="61.3" y2="126"/>
		<line class="st5" x1="61.3" y1="126" x2="61.9" y2="126"/>
		<line class="st5" x1="61.9" y1="126" x2="62.6" y2="126"/>
		<line class="st5" x1="64.5" y1="126.6" x2="64.5" y2="126.6"/>
		<line class="st5" x1="64.5" y1="126.6" x2="65.1" y2="126.6"/>
		<line class="st5" x1="65.1" y1="126.6" x2="65.7" y2="126.6"/>
		<line class="st5" x1="67.6" y1="127.2" x2="67.6" y2="127.2"/>
		<line class="st5" x1="67.6" y1="127.2" x2="68.3" y2="127.2"/>
		<line class="st5" x1="68.3" y1="127.2" x2="68.9" y2="127.9"/>
		<line class="st5" x1="71.4" y1="127.9" x2="71.4" y2="127.9"/>
		<line class="st5" x1="71.4" y1="127.9" x2="72.1" y2="127.9"/>
		<line class="st5" x1="72.1" y1="127.9" x2="72.1" y2="128.5"/>
		<line class="st5" x1="74.6" y1="128.5" x2="74.6" y2="128.5"/>
		<line class="st5" x1="74.6" y1="128.5" x2="75.3" y2="128.5"/>
		<line class="st5" x1="75.3" y1="128.5" x2="75.9" y2="128.5"/>
		<line class="st5" x1="77.8" y1="129.1" x2="77.8" y2="129.1"/>
		<line class="st5" x1="77.8" y1="129.1" x2="78.4" y2="129.1"/>
		<line class="st5" x1="78.4" y1="129.1" x2="79.1" y2="129.1"/>
		<line class="st5" x1="81.6" y1="129.1" x2="81.6" y2="129.1"/>
		<line class="st5" x1="81.6" y1="129.1" x2="82.2" y2="129.1"/>
		<line class="st5" x1="82.2" y1="129.1" x2="82.9" y2="129.1"/>
		<line class="st5" x1="85.4" y1="129.1" x2="85.4" y2="129.1"/>
		<line class="st5" x1="85.4" y1="129.1" x2="86" y2="129.1"/>
		<line class="st5" x1="86" y1="129.1" x2="86.7" y2="129.1"/>
		<line class="st5" x1="88.6" y1="129.8" x2="88.6" y2="129.8"/>
		<line class="st5" x1="88.6" y1="129.8" x2="88.6" y2="129.1"/>
		<line class="st5" x1="88.6" y1="129.1" x2="89.2" y2="129.1"/>
		<line class="st5" x1="91.7" y1="129.1" x2="91.7" y2="129.1"/>
		<line class="st5" x1="91.7" y1="129.1" x2="92.4" y2="129.1"/>
		<line class="st5" x1="92.4" y1="129.1" x2="93" y2="129.1"/>
		<line class="st5" x1="95.5" y1="129.1" x2="95.5" y2="129.1"/>
		<line class="st5" x1="95.5" y1="129.1" x2="96.2" y2="129.1"/>
		<line class="st5" x1="96.2" y1="129.1" x2="96.8" y2="129.1"/>
		<line class="st5" x1="99.3" y1="129.1" x2="99.3" y2="129.1"/>
		<line class="st5" x1="99.3" y1="129.1" x2="100" y2="129.1"/>
		<line class="st5" x1="100" y1="129.1" x2="100" y2="128.5"/>
		<line class="st5" x1="102.5" y1="128.5" x2="102.5" y2="128.5"/>
		<line class="st5" x1="102.5" y1="128.5" x2="103.1" y2="128.5"/>
		<line class="st5" x1="103.1" y1="128.5" x2="103.8" y2="128.5"/>
		<line class="st5" x1="105.7" y1="127.9" x2="105.7" y2="127.9"/>
		<line class="st5" x1="105.7" y1="127.9" x2="106.3" y2="127.9"/>
		<line class="st5" x1="106.3" y1="127.9" x2="107" y2="127.9"/>
		<line class="st5" x1="108.9" y1="127.2" x2="108.9" y2="127.2"/>
		<line class="st5" x1="108.9" y1="127.2" x2="109.5" y2="127.2"/>
		<line class="st5" x1="109.5" y1="127.2" x2="110.1" y2="127.2"/>
		<line class="st5" x1="112" y1="126.6" x2="112" y2="126.6"/>
		<line class="st5" x1="112" y1="126.6" x2="112.7" y2="126.6"/>
		<line class="st5" x1="112.7" y1="126.6" x2="113.3" y2="126.6"/>
		<line class="st5" x1="115.2" y1="126" x2="115.2" y2="126"/>
		<line class="st5" x1="115.2" y1="126" x2="115.8" y2="126"/>
		<line class="st5" x1="115.8" y1="126" x2="116.5" y2="126"/>
		<line class="st5" x1="118.4" y1="125.3" x2="118.4" y2="125.3"/>
		<line class="st5" x1="118.4" y1="125.3" x2="119" y2="124.7"/>
		<line class="st5" x1="119" y1="124.7" x2="119.6" y2="124.7"/>
		<line class="st5" x1="122.2" y1="124" x2="122.2" y2="124"/>
		<line class="st5" x1="122.2" y1="124" x2="122.8" y2="123.4"/>
		<line class="st5" x1="124.7" y1="122.8" x2="124.7" y2="122.8"/>
		<line class="st5" x1="124.7" y1="122.8" x2="125.3" y2="122.8"/>
		<line class="st5" x1="125.3" y1="122.8" x2="126" y2="122.8"/>
		<line class="st5" x1="127.2" y1="121.5" x2="127.2" y2="121.5"/>
		<line class="st5" x1="127.2" y1="121.5" x2="127.9" y2="121.5"/>
		<line class="st5" x1="127.9" y1="121.5" x2="128.5" y2="121.5"/>
		<line class="st5" x1="130.4" y1="120.9" x2="130.4" y2="120.9"/>
		<line class="st5" x1="130.4" y1="120.9" x2="130.4" y2="120.2"/>
		<line class="st5" x1="130.4" y1="120.2" x2="131" y2="120.2"/>
		<line class="st5" x1="132.9" y1="119.6" x2="132.9" y2="119.6"/>
		<line class="st5" x1="132.9" y1="119.6" x2="132.9" y2="119"/>
		<line class="st5" x1="132.9" y1="119" x2="133.6" y2="119"/>
		<line class="st5" x1="135.5" y1="118.3" x2="135.5" y2="118.3"/>
		<line class="st5" x1="135.5" y1="118.3" x2="135.5" y2="117.7"/>
		<line class="st5" x1="135.5" y1="117.7" x2="136.1" y2="117.7"/>
		<line class="st5" x1="138" y1="116.4" x2="138" y2="116.4"/>
		<line class="st5" x1="138" y1="116.4" x2="138.6" y2="116.4"/>
		<line class="st5" x1="138.6" y1="116.4" x2="138.6" y2="115.8"/>
		<line class="st5" x1="140.6" y1="115.1" x2="140.6" y2="115.1"/>
		<line class="st5" x1="140.6" y1="115.1" x2="140.6" y2="114.5"/>
		<line class="st5" x1="140.6" y1="114.5" x2="141.2" y2="114.5"/>
		<line class="st5" x1="143.1" y1="113.2" x2="143.1" y2="113.2"/>
		<line class="st5" x1="143.1" y1="113.2" x2="143.7" y2="113.2"/>
		<line class="st5" x1="143.7" y1="113.2" x2="143.7" y2="112.6"/>
		<line class="st5" x1="145" y1="111.3" x2="145" y2="111.3"/>
		<line class="st5" x1="145" y1="111.3" x2="145.6" y2="111.3"/>
		<line class="st5" x1="145.6" y1="111.3" x2="146.3" y2="111.3"/>
		<line class="st5" x1="147.5" y1="110" x2="147.5" y2="110"/>
		<line class="st5" x1="147.5" y1="110" x2="147.5" y2="109.4"/>
		<line class="st5" x1="147.5" y1="109.4" x2="148.2" y2="109.4"/>
		<line class="st5" x1="150.1" y1="107.5" x2="150.1" y2="107.5"/>
		<line class="st5" x1="150.1" y1="107.5" x2="150.7" y2="107.5"/>
		<line class="st5" x1="152" y1="106.2" x2="152" y2="106.2"/>
		<line class="st5" x1="152" y1="106.2" x2="152" y2="105.6"/>
		<line class="st5" x1="152" y1="105.6" x2="152.6" y2="105.6"/>
		<line class="st5" x1="153.9" y1="104.3" x2="153.9" y2="104.3"/>
		<line class="st5" x1="153.9" y1="104.3" x2="153.9" y2="103.7"/>
		<line class="st5" x1="153.9" y1="103.7" x2="154.5" y2="103.1"/>
		<line class="st5" x1="156.4" y1="101.1" x2="156.4" y2="101.1"/>
		<line class="st5" x1="156.4" y1="101.1" x2="156.4" y2="100.5"/>
		<line class="st5" x1="156.4" y1="100.5" x2="157" y2="100.5"/>
		<line class="st5" x1="158.3" y1="99.2" x2="158.3" y2="99.2"/>
		<line class="st5" x1="158.3" y1="99.2" x2="158.3" y2="98.6"/>
		<line class="st5" x1="158.3" y1="98.6" x2="158.3" y2="98"/>
		<line class="st5" x1="159.6" y1="96.7" x2="159.6" y2="96.7"/>
		<line class="st5" x1="159.6" y1="96.7" x2="160.2" y2="96.1"/>
		<line class="st5" x1="161.5" y1="94.1" x2="161.5" y2="94.1"/>
		<line class="st5" x1="161.5" y1="94.1" x2="161.5" y2="93.5"/>
		<line class="st5" x1="162.7" y1="91.6" x2="162.7" y2="91.6"/>
		<line class="st5" x1="162.7" y1="91.6" x2="162.7" y2="91"/>
		<line class="st5" x1="162.7" y1="91" x2="163.4" y2="91"/>
		<line class="st5" x1="164" y1="89.1" x2="164" y2="89.1"/>
		<line class="st5" x1="164" y1="89.1" x2="164" y2="88.4"/>
		<line class="st5" x1="164" y1="88.4" x2="164.6" y2="88.4"/>
		<line class="st5" x1="165.3" y1="85.9" x2="165.3" y2="85.9"/>
		<line class="st5" x1="165.3" y1="85.9" x2="165.3" y2="85.2"/>
		<line class="st5" x1="165.3" y1="85.2" x2="165.9" y2="85.2"/>
		<line class="st5" x1="166.5" y1="83.3" x2="166.5" y2="83.3"/>
		<line class="st5" x1="166.5" y1="83.3" x2="166.5" y2="82.7"/>
		<line class="st5" x1="166.5" y1="82.7" x2="166.5" y2="82.1"/>
		<line class="st5" x1="167.2" y1="80.1" x2="167.2" y2="80.1"/>
		<line class="st5" x1="167.2" y1="80.1" x2="167.2" y2="79.5"/>
		<line class="st5" x1="167.2" y1="79.5" x2="167.8" y2="78.9"/>
		<line class="st5" x1="167.8" y1="76.3" x2="167.8" y2="75.7"/>
		<line class="st5" x1="167.8" y1="75.7" x2="168.4" y2="75.1"/>
		<line class="st5" x1="168.4" y1="72.5" x2="168.4" y2="71.2"/>
	</g>
	<g>
		<defs>
			<polygon id="SVGID_5_" points="8.7,7.6 169.7,7.6 169.7,130.4 8.7,130.4 8.7,7.6 			"/>
		</defs>
		<clipPath id="SVGID_6_">
			<use xlink:href="#SVGID_5_"  style="overflow:visible;"/>
		</clipPath>
		<path class="st6" d="M9.3,64.2c0-0.4,0.3-0.6,0.6-0.6c0.4,0,0.6,0.3,0.6,0.6c0,0.4-0.3,0.6-0.6,0.6C9.6,64.9,9.3,64.6,9.3,64.2
			L9.3,64.2z"/>
		<path class="st6" d="M11.9,81.4c0-0.4,0.3-0.6,0.6-0.6c0.4,0,0.6,0.3,0.6,0.6c0,0.4-0.3,0.6-0.6,0.6
			C12.1,82.1,11.9,81.8,11.9,81.4L11.9,81.4z"/>
		<path class="st6" d="M11.9,59.8c0-0.4,0.3-0.6,0.6-0.6c0.4,0,0.6,0.3,0.6,0.6s-0.3,0.6-0.6,0.6C12.1,60.4,11.9,60.1,11.9,59.8
			L11.9,59.8z"/>
		<path class="st6" d="M11.9,56.6c0-0.4,0.3-0.6,0.6-0.6c0.4,0,0.6,0.3,0.6,0.6c0,0.4-0.3,0.6-0.6,0.6C12.1,57.2,11.9,57,11.9,56.6
			L11.9,56.6z"/>
		<path class="st6" d="M13.1,74.4c0-0.4,0.3-0.6,0.6-0.6c0.4,0,0.6,0.3,0.6,0.6s-0.3,0.6-0.6,0.6C13.4,75.1,13.1,74.8,13.1,74.4
			L13.1,74.4z"/>
		<path class="st6" d="M13.1,80.8c0-0.4,0.3-0.6,0.6-0.6c0.4,0,0.6,0.3,0.6,0.6c0,0.4-0.3,0.6-0.6,0.6
			C13.4,81.4,13.1,81.1,13.1,80.8L13.1,80.8z"/>
		<path class="st6" d="M15.7,77.6c0-0.4,0.3-0.6,0.6-0.6c0.4,0,0.6,0.3,0.6,0.6s-0.3,0.6-0.6,0.6C15.9,78.2,15.7,78,15.7,77.6
			L15.7,77.6z"/>
		<path class="st6" d="M15.7,72.5c0-0.4,0.3-0.6,0.6-0.6c0.4,0,0.6,0.3,0.6,0.6c0,0.4-0.3,0.6-0.6,0.6
			C15.9,73.2,15.7,72.9,15.7,72.5L15.7,72.5z"/>
		<path class="st6" d="M20.1,85.9c0-0.4,0.3-0.6,0.6-0.6c0.4,0,0.6,0.3,0.6,0.6s-0.3,0.6-0.6,0.6C20.4,86.5,20.1,86.2,20.1,85.9
			L20.1,85.9z"/>
		<path class="st6" d="M20.1,82.7c0-0.4,0.3-0.6,0.6-0.6c0.4,0,0.6,0.3,0.6,0.6c0,0.4-0.3,0.6-0.6,0.6C20.4,83.3,20.1,83,20.1,82.7
			L20.1,82.7z"/>
		<path class="st6" d="M20.7,50.9c0-0.4,0.3-0.6,0.6-0.6c0.4,0,0.6,0.3,0.6,0.6c0,0.4-0.3,0.6-0.6,0.6C21,51.5,20.7,51.2,20.7,50.9
			L20.7,50.9z"/>
		<path class="st6" d="M22,42.6c0-0.4,0.3-0.6,0.6-0.6c0.4,0,0.6,0.3,0.6,0.6c0,0.4-0.3,0.6-0.6,0.6C22.3,43.3,22,43,22,42.6
			L22,42.6z"/>
		<path class="st6" d="M23.9,42.6c0-0.4,0.3-0.6,0.6-0.6c0.4,0,0.6,0.3,0.6,0.6c0,0.4-0.3,0.6-0.6,0.6C24.2,43.3,23.9,43,23.9,42.6
			L23.9,42.6z"/>
		<path class="st6" d="M24.5,72.5c0-0.4,0.3-0.6,0.6-0.6c0.4,0,0.6,0.3,0.6,0.6c0,0.4-0.3,0.6-0.6,0.6
			C24.8,73.2,24.5,72.9,24.5,72.5L24.5,72.5z"/>
		<path class="st6" d="M24.5,61.1c0-0.4,0.3-0.6,0.6-0.6c0.4,0,0.6,0.3,0.6,0.6s-0.3,0.6-0.6,0.6C24.8,61.7,24.5,61.4,24.5,61.1
			L24.5,61.1z"/>
		<path class="st6" d="M25.2,91c0-0.4,0.3-0.6,0.6-0.6c0.4,0,0.6,0.3,0.6,0.6s-0.3,0.6-0.6,0.6C25.4,91.6,25.2,91.3,25.2,91L25.2,91
			z"/>
		<path class="st6" d="M25.8,91.6c0-0.4,0.3-0.6,0.6-0.6c0.4,0,0.6,0.3,0.6,0.6s-0.3,0.6-0.6,0.6C26.1,92.2,25.8,92,25.8,91.6
			L25.8,91.6z"/>
		<path class="st6" d="M27.7,78.9c0-0.4,0.3-0.6,0.6-0.6c0.4,0,0.6,0.3,0.6,0.6c0,0.4-0.3,0.6-0.6,0.6C28,79.5,27.7,79.2,27.7,78.9
			L27.7,78.9z"/>
		<path class="st6" d="M28.3,33.7c0-0.4,0.3-0.6,0.6-0.6c0.4,0,0.6,0.3,0.6,0.6c0,0.4-0.3,0.6-0.6,0.6
			C28.6,34.3,28.3,34.1,28.3,33.7L28.3,33.7z"/>
		<path class="st6" d="M29,107.5c0-0.4,0.3-0.6,0.6-0.6c0.4,0,0.6,0.3,0.6,0.6s-0.3,0.6-0.6,0.6C29.3,108.1,29,107.9,29,107.5
			L29,107.5z"/>
		<path class="st6" d="M29.6,60.4c0-0.4,0.3-0.6,0.6-0.6c0.4,0,0.6,0.3,0.6,0.6c0,0.4-0.3,0.6-0.6,0.6
			C29.9,61.1,29.6,60.8,29.6,60.4L29.6,60.4z"/>
		<path class="st6" d="M30.2,62.3c0-0.4,0.3-0.6,0.6-0.6c0.4,0,0.6,0.3,0.6,0.6c0,0.4-0.3,0.6-0.6,0.6C30.5,63,30.2,62.7,30.2,62.3
			L30.2,62.3z"/>
		<path class="st6" d="M30.9,91.6c0-0.4,0.3-0.6,0.6-0.6c0.4,0,0.6,0.3,0.6,0.6s-0.3,0.6-0.6,0.6C31.2,92.2,30.9,92,30.9,91.6
			L30.9,91.6z"/>
		<path class="st6" d="M30.9,80.1c0-0.4,0.3-0.6,0.6-0.6c0.4,0,0.6,0.3,0.6,0.6s-0.3,0.6-0.6,0.6C31.2,80.8,30.9,80.5,30.9,80.1
			L30.9,80.1z"/>
		<path class="st6" d="M32.1,59.8c0-0.4,0.3-0.6,0.6-0.6c0.4,0,0.6,0.3,0.6,0.6s-0.3,0.6-0.6,0.6C32.4,60.4,32.1,60.1,32.1,59.8
			L32.1,59.8z"/>
		<path class="st6" d="M32.8,47.7c0-0.4,0.3-0.6,0.6-0.6c0.4,0,0.6,0.3,0.6,0.6c0,0.4-0.3,0.6-0.6,0.6
			C33.1,48.3,32.8,48.1,32.8,47.7L32.8,47.7z"/>
		<path class="st6" d="M34.7,87.8c0-0.4,0.3-0.6,0.6-0.6c0.4,0,0.6,0.3,0.6,0.6s-0.3,0.6-0.6,0.6C35,88.4,34.7,88.1,34.7,87.8
			L34.7,87.8z"/>
		<path class="st6" d="M34.7,91.6c0-0.4,0.3-0.6,0.6-0.6c0.4,0,0.6,0.3,0.6,0.6s-0.3,0.6-0.6,0.6C35,92.2,34.7,92,34.7,91.6
			L34.7,91.6z"/>
		<path class="st6" d="M35.3,99.9c0-0.4,0.3-0.6,0.6-0.6c0.4,0,0.6,0.3,0.6,0.6s-0.3,0.6-0.6,0.6C35.6,100.5,35.3,100.2,35.3,99.9
			L35.3,99.9z"/>
		<path class="st6" d="M35.3,35c0-0.4,0.3-0.6,0.6-0.6c0.4,0,0.6,0.3,0.6,0.6c0,0.4-0.3,0.6-0.6,0.6C35.6,35.6,35.3,35.3,35.3,35
			L35.3,35z"/>
		<path class="st6" d="M35.3,102.4c0-0.4,0.3-0.6,0.6-0.6c0.4,0,0.6,0.3,0.6,0.6c0,0.4-0.3,0.6-0.6,0.6
			C35.6,103.1,35.3,102.8,35.3,102.4L35.3,102.4z"/>
		<path class="st6" d="M36.6,73.8c0-0.4,0.3-0.6,0.6-0.6c0.4,0,0.6,0.3,0.6,0.6s-0.3,0.6-0.6,0.6C36.9,74.4,36.6,74.1,36.6,73.8
			L36.6,73.8z"/>
		<path class="st6" d="M36.6,71.9c0-0.4,0.3-0.6,0.6-0.6c0.4,0,0.6,0.3,0.6,0.6s-0.3,0.6-0.6,0.6C36.9,72.5,36.6,72.2,36.6,71.9
			L36.6,71.9z"/>
		<path class="st6" d="M37.2,74.4c0-0.4,0.3-0.6,0.6-0.6c0.4,0,0.6,0.3,0.6,0.6s-0.3,0.6-0.6,0.6C37.5,75.1,37.2,74.8,37.2,74.4
			L37.2,74.4z"/>
		<path class="st6" d="M37.2,61.7c0-0.4,0.3-0.6,0.6-0.6c0.4,0,0.6,0.3,0.6,0.6s-0.3,0.6-0.6,0.6C37.5,62.3,37.2,62.1,37.2,61.7
			L37.2,61.7z"/>
		<path class="st6" d="M38.5,21c0-0.4,0.3-0.6,0.6-0.6c0.4,0,0.6,0.3,0.6,0.6c0,0.4-0.3,0.6-0.6,0.6C38.8,21.6,38.5,21.3,38.5,21
			L38.5,21z"/>
		<path class="st6" d="M39.1,50.9c0-0.4,0.3-0.6,0.6-0.6c0.4,0,0.6,0.3,0.6,0.6c0,0.4-0.3,0.6-0.6,0.6
			C39.4,51.5,39.1,51.2,39.1,50.9L39.1,50.9z"/>
		<path class="st6" d="M39.1,31.8c0-0.4,0.3-0.6,0.6-0.6c0.4,0,0.6,0.3,0.6,0.6c0,0.4-0.3,0.6-0.6,0.6
			C39.4,32.4,39.1,32.2,39.1,31.8L39.1,31.8z"/>
		<path class="st6" d="M39.7,46.4c0-0.4,0.3-0.6,0.6-0.6c0.4,0,0.6,0.3,0.6,0.6c0,0.4-0.3,0.6-0.6,0.6C40,47.1,39.7,46.8,39.7,46.4
			L39.7,46.4z"/>
		<path class="st6" d="M40.4,49.6c0-0.4,0.3-0.6,0.6-0.6c0.4,0,0.6,0.3,0.6,0.6c0,0.4-0.3,0.6-0.6,0.6C40.7,50.2,40.4,50,40.4,49.6
			L40.4,49.6z"/>
		<path class="st6" d="M40.4,105.6c0-0.4,0.3-0.6,0.6-0.6c0.4,0,0.6,0.3,0.6,0.6s-0.3,0.6-0.6,0.6C40.7,106.2,40.4,106,40.4,105.6
			L40.4,105.6z"/>
		<path class="st6" d="M41.7,70c0-0.4,0.3-0.6,0.6-0.6c0.4,0,0.6,0.3,0.6,0.6c0,0.4-0.3,0.6-0.6,0.6C41.9,70.6,41.7,70.3,41.7,70
			L41.7,70z"/>
		<path class="st6" d="M41.7,31.8c0-0.4,0.3-0.6,0.6-0.6c0.4,0,0.6,0.3,0.6,0.6c0,0.4-0.3,0.6-0.6,0.6
			C41.9,32.4,41.7,32.2,41.7,31.8L41.7,31.8z"/>
		<path class="st6" d="M42.3,35c0-0.4,0.3-0.6,0.6-0.6c0.4,0,0.6,0.3,0.6,0.6c0,0.4-0.3,0.6-0.6,0.6C42.6,35.6,42.3,35.3,42.3,35
			L42.3,35z"/>
		<path class="st6" d="M42.9,91c0-0.4,0.3-0.6,0.6-0.6c0.4,0,0.6,0.3,0.6,0.6s-0.3,0.6-0.6,0.6C43.2,91.6,42.9,91.3,42.9,91L42.9,91
			z"/>
		<path class="st6" d="M43.6,61.1c0-0.4,0.3-0.6,0.6-0.6c0.4,0,0.6,0.3,0.6,0.6s-0.3,0.6-0.6,0.6C43.8,61.7,43.6,61.4,43.6,61.1
			L43.6,61.1z"/>
		<path class="st6" d="M43.6,50.9c0-0.4,0.3-0.6,0.6-0.6c0.4,0,0.6,0.3,0.6,0.6c0,0.4-0.3,0.6-0.6,0.6
			C43.8,51.5,43.6,51.2,43.6,50.9L43.6,50.9z"/>
		<path class="st6" d="M43.6,43.9c0-0.4,0.3-0.6,0.6-0.6c0.4,0,0.6,0.3,0.6,0.6c0,0.4-0.3,0.6-0.6,0.6
			C43.8,44.5,43.6,44.2,43.6,43.9L43.6,43.9z"/>
		<path class="st6" d="M44.2,79.5c0-0.4,0.3-0.6,0.6-0.6c0.4,0,0.6,0.3,0.6,0.6s-0.3,0.6-0.6,0.6C44.5,80.1,44.2,79.9,44.2,79.5
			L44.2,79.5z"/>
		<path class="st6" d="M44.2,84c0-0.4,0.3-0.6,0.6-0.6c0.4,0,0.6,0.3,0.6,0.6s-0.3,0.6-0.6,0.6C44.5,84.6,44.2,84.3,44.2,84L44.2,84
			z"/>
		<path class="st6" d="M44.2,101.1c0-0.4,0.3-0.6,0.6-0.6c0.4,0,0.6,0.3,0.6,0.6c0,0.4-0.3,0.6-0.6,0.6
			C44.5,101.8,44.2,101.5,44.2,101.1L44.2,101.1z"/>
		<path class="st6" d="M44.2,110c0-0.4,0.3-0.6,0.6-0.6c0.4,0,0.6,0.3,0.6,0.6s-0.3,0.6-0.6,0.6C44.5,110.7,44.2,110.4,44.2,110
			L44.2,110z"/>
		<path class="st6" d="M44.8,22.9c0-0.4,0.3-0.6,0.6-0.6c0.4,0,0.6,0.3,0.6,0.6s-0.3,0.6-0.6,0.6C45.1,23.5,44.8,23.2,44.8,22.9
			L44.8,22.9z"/>
		<path class="st6" d="M44.8,100.5c0-0.4,0.3-0.6,0.6-0.6c0.4,0,0.6,0.3,0.6,0.6c0,0.4-0.3,0.6-0.6,0.6
			C45.1,101.1,44.8,100.9,44.8,100.5L44.8,100.5z"/>
		<path class="st6" d="M45.5,64.2c0-0.4,0.3-0.6,0.6-0.6c0.4,0,0.6,0.3,0.6,0.6c0,0.4-0.3,0.6-0.6,0.6
			C45.7,64.9,45.5,64.6,45.5,64.2L45.5,64.2z"/>
		<path class="st6" d="M46.1,19.1c0-0.4,0.3-0.6,0.6-0.6c0.4,0,0.6,0.3,0.6,0.6s-0.3,0.6-0.6,0.6C46.4,19.7,46.1,19.4,46.1,19.1
			L46.1,19.1z"/>
		<path class="st6" d="M46.7,55.3c0-0.4,0.3-0.6,0.6-0.6c0.4,0,0.6,0.3,0.6,0.6c0,0.4-0.3,0.6-0.6,0.6C47,56,46.7,55.7,46.7,55.3
			L46.7,55.3z"/>
		<path class="st6" d="M47.4,69.3c0-0.4,0.3-0.6,0.6-0.6c0.4,0,0.6,0.3,0.6,0.6S48.3,70,48,70C47.6,70,47.4,69.7,47.4,69.3
			L47.4,69.3z"/>
		<path class="st6" d="M47.4,95.4c0-0.4,0.3-0.6,0.6-0.6c0.4,0,0.6,0.3,0.6,0.6c0,0.4-0.3,0.6-0.6,0.6
			C47.6,96.1,47.4,95.8,47.4,95.4L47.4,95.4z"/>
		<path class="st6" d="M47.4,112c0-0.4,0.3-0.6,0.6-0.6c0.4,0,0.6,0.3,0.6,0.6s-0.3,0.6-0.6,0.6C47.6,112.6,47.4,112.3,47.4,112
			L47.4,112z"/>
		<path class="st6" d="M48,87.1c0-0.4,0.3-0.6,0.6-0.6c0.4,0,0.6,0.3,0.6,0.6c0,0.4-0.3,0.6-0.6,0.6C48.3,87.8,48,87.5,48,87.1
			L48,87.1z"/>
		<path class="st6" d="M48,67.4c0-0.4,0.3-0.6,0.6-0.6c0.4,0,0.6,0.3,0.6,0.6s-0.3,0.6-0.6,0.6C48.3,68.1,48,67.8,48,67.4L48,67.4z"
			/>
		<path class="st6" d="M48.6,86.5c0-0.4,0.3-0.6,0.6-0.6c0.4,0,0.6,0.3,0.6,0.6c0,0.4-0.3,0.6-0.6,0.6
			C48.9,87.1,48.6,86.9,48.6,86.5L48.6,86.5z"/>
		<path class="st6" d="M48.6,32.4c0-0.4,0.3-0.6,0.6-0.6c0.4,0,0.6,0.3,0.6,0.6c0,0.4-0.3,0.6-0.6,0.6
			C48.9,33.1,48.6,32.8,48.6,32.4L48.6,32.4z"/>
		<path class="st6" d="M48.6,43.3c0-0.4,0.3-0.6,0.6-0.6c0.4,0,0.6,0.3,0.6,0.6c0,0.4-0.3,0.6-0.6,0.6
			C48.9,43.9,48.6,43.6,48.6,43.3L48.6,43.3z"/>
		<path class="st6" d="M49.3,115.1c0-0.4,0.3-0.6,0.6-0.6c0.4,0,0.6,0.3,0.6,0.6c0,0.4-0.3,0.6-0.6,0.6
			C49.5,115.8,49.3,115.5,49.3,115.1L49.3,115.1z"/>
		<path class="st6" d="M49.3,101.8c0-0.4,0.3-0.6,0.6-0.6c0.4,0,0.6,0.3,0.6,0.6s-0.3,0.6-0.6,0.6C49.5,102.4,49.3,102.1,49.3,101.8
			L49.3,101.8z"/>
		<path class="st6" d="M49.3,24.2c0-0.4,0.3-0.6,0.6-0.6c0.4,0,0.6,0.3,0.6,0.6c0,0.4-0.3,0.6-0.6,0.6
			C49.5,24.8,49.3,24.5,49.3,24.2L49.3,24.2z"/>
		<path class="st6" d="M50.5,26.7c0-0.4,0.3-0.6,0.6-0.6c0.4,0,0.6,0.3,0.6,0.6c0,0.4-0.3,0.6-0.6,0.6
			C50.8,27.3,50.5,27.1,50.5,26.7L50.5,26.7z"/>
		<path class="st6" d="M50.5,64.9c0-0.4,0.3-0.6,0.6-0.6c0.4,0,0.6,0.3,0.6,0.6c0,0.4-0.3,0.6-0.6,0.6
			C50.8,65.5,50.5,65.2,50.5,64.9L50.5,64.9z"/>
		<path class="st6" d="M50.5,46.4c0-0.4,0.3-0.6,0.6-0.6c0.4,0,0.6,0.3,0.6,0.6c0,0.4-0.3,0.6-0.6,0.6
			C50.8,47.1,50.5,46.8,50.5,46.4L50.5,46.4z"/>
		<path class="st6" d="M51.2,22.9c0-0.4,0.3-0.6,0.6-0.6c0.4,0,0.6,0.3,0.6,0.6s-0.3,0.6-0.6,0.6C51.4,23.5,51.2,23.2,51.2,22.9
			L51.2,22.9z"/>
		<path class="st6" d="M51.8,26.7c0-0.4,0.3-0.6,0.6-0.6c0.4,0,0.6,0.3,0.6,0.6c0,0.4-0.3,0.6-0.6,0.6
			C52.1,27.3,51.8,27.1,51.8,26.7L51.8,26.7z"/>
		<path class="st6" d="M51.8,100.5c0-0.4,0.3-0.6,0.6-0.6c0.4,0,0.6,0.3,0.6,0.6c0,0.4-0.3,0.6-0.6,0.6
			C52.1,101.1,51.8,100.9,51.8,100.5L51.8,100.5z"/>
		<path class="st6" d="M52.4,22.9c0-0.4,0.3-0.6,0.6-0.6c0.4,0,0.6,0.3,0.6,0.6s-0.3,0.6-0.6,0.6C52.7,23.5,52.4,23.2,52.4,22.9
			L52.4,22.9z"/>
		<path class="st6" d="M52.4,33.1c0-0.4,0.3-0.6,0.6-0.6c0.4,0,0.6,0.3,0.6,0.6c0,0.4-0.3,0.6-0.6,0.6
			C52.7,33.7,52.4,33.4,52.4,33.1L52.4,33.1z"/>
		<path class="st6" d="M53.1,20.3c0-0.4,0.3-0.6,0.6-0.6c0.4,0,0.6,0.3,0.6,0.6c0,0.4-0.3,0.6-0.6,0.6C53.3,21,53.1,20.7,53.1,20.3
			L53.1,20.3z"/>
		<path class="st6" d="M53.7,112.6c0-0.4,0.3-0.6,0.6-0.6c0.4,0,0.6,0.3,0.6,0.6c0,0.4-0.3,0.6-0.6,0.6
			C54,113.2,53.7,112.9,53.7,112.6L53.7,112.6z"/>
		<path class="st6" d="M54.3,19.7c0-0.4,0.3-0.6,0.6-0.6c0.4,0,0.6,0.3,0.6,0.6s-0.3,0.6-0.6,0.6C54.6,20.3,54.3,20.1,54.3,19.7
			L54.3,19.7z"/>
		<path class="st6" d="M54.3,16.5c0-0.4,0.3-0.6,0.6-0.6c0.4,0,0.6,0.3,0.6,0.6c0,0.4-0.3,0.6-0.6,0.6
			C54.6,17.2,54.3,16.9,54.3,16.5L54.3,16.5z"/>
		<path class="st6" d="M56.2,23.5c0-0.4,0.3-0.6,0.6-0.6c0.4,0,0.6,0.3,0.6,0.6s-0.3,0.6-0.6,0.6C56.5,24.2,56.2,23.9,56.2,23.5
			L56.2,23.5z"/>
		<path class="st6" d="M56.9,79.5c0-0.4,0.3-0.6,0.6-0.6c0.4,0,0.6,0.3,0.6,0.6s-0.3,0.6-0.6,0.6C57.1,80.1,56.9,79.9,56.9,79.5
			L56.9,79.5z"/>
		<path class="st6" d="M56.9,116.4c0-0.4,0.3-0.6,0.6-0.6c0.4,0,0.6,0.3,0.6,0.6c0,0.4-0.3,0.6-0.6,0.6
			C57.1,117,56.9,116.8,56.9,116.4L56.9,116.4z"/>
		<path class="st6" d="M56.9,71.9c0-0.4,0.3-0.6,0.6-0.6c0.4,0,0.6,0.3,0.6,0.6s-0.3,0.6-0.6,0.6C57.1,72.5,56.9,72.2,56.9,71.9
			L56.9,71.9z"/>
		<path class="st6" d="M57.5,30.5c0-0.4,0.3-0.6,0.6-0.6c0.4,0,0.6,0.3,0.6,0.6c0,0.4-0.3,0.6-0.6,0.6
			C57.8,31.2,57.5,30.9,57.5,30.5L57.5,30.5z"/>
		<path class="st6" d="M59.4,109.4c0-0.4,0.3-0.6,0.6-0.6c0.4,0,0.6,0.3,0.6,0.6c0,0.4-0.3,0.6-0.6,0.6
			C59.7,110,59.4,109.8,59.4,109.4L59.4,109.4z"/>
		<path class="st6" d="M60,105c0-0.4,0.3-0.6,0.6-0.6c0.4,0,0.6,0.3,0.6,0.6c0,0.4-0.3,0.6-0.6,0.6C60.3,105.6,60,105.3,60,105
			L60,105z"/>
		<path class="st6" d="M60.7,73.2c0-0.4,0.3-0.6,0.6-0.6c0.4,0,0.6,0.3,0.6,0.6s-0.3,0.6-0.6,0.6C61,73.8,60.7,73.5,60.7,73.2
			L60.7,73.2z"/>
		<path class="st6" d="M61.3,49.6c0-0.4,0.3-0.6,0.6-0.6c0.4,0,0.6,0.3,0.6,0.6c0,0.4-0.3,0.6-0.6,0.6C61.6,50.2,61.3,50,61.3,49.6
			L61.3,49.6z"/>
		<path class="st6" d="M61.3,94.8c0-0.4,0.3-0.6,0.6-0.6c0.4,0,0.6,0.3,0.6,0.6c0,0.4-0.3,0.6-0.6,0.6
			C61.6,95.4,61.3,95.1,61.3,94.8L61.3,94.8z"/>
		<path class="st6" d="M61.3,52.8c0-0.4,0.3-0.6,0.6-0.6c0.4,0,0.6,0.3,0.6,0.6s-0.3,0.6-0.6,0.6C61.6,53.4,61.3,53.1,61.3,52.8
			L61.3,52.8z"/>
		<path class="st6" d="M61.9,80.8c0-0.4,0.3-0.6,0.6-0.6c0.4,0,0.6,0.3,0.6,0.6c0,0.4-0.3,0.6-0.6,0.6
			C62.2,81.4,61.9,81.1,61.9,80.8L61.9,80.8z"/>
		<path class="st6" d="M61.9,13.3c0-0.4,0.3-0.6,0.6-0.6c0.4,0,0.6,0.3,0.6,0.6c0,0.4-0.3,0.6-0.6,0.6C62.2,14,61.9,13.7,61.9,13.3
			L61.9,13.3z"/>
		<path class="st6" d="M61.9,66.8c0-0.4,0.3-0.6,0.6-0.6c0.4,0,0.6,0.3,0.6,0.6c0,0.4-0.3,0.6-0.6,0.6
			C62.2,67.4,61.9,67.1,61.9,66.8L61.9,66.8z"/>
		<path class="st6" d="M62.6,96.1c0-0.4,0.3-0.6,0.6-0.6c0.4,0,0.6,0.3,0.6,0.6s-0.3,0.6-0.6,0.6C62.9,96.7,62.6,96.4,62.6,96.1
			L62.6,96.1z"/>
		<path class="st6" d="M62.6,70.6c0-0.4,0.3-0.6,0.6-0.6c0.4,0,0.6,0.3,0.6,0.6c0,0.4-0.3,0.6-0.6,0.6C62.9,71.2,62.6,71,62.6,70.6
			L62.6,70.6z"/>
		<path class="st6" d="M62.6,55.3c0-0.4,0.3-0.6,0.6-0.6c0.4,0,0.6,0.3,0.6,0.6c0,0.4-0.3,0.6-0.6,0.6C62.9,56,62.6,55.7,62.6,55.3
			L62.6,55.3z"/>
		<path class="st6" d="M63.2,31.8c0-0.4,0.3-0.6,0.6-0.6c0.4,0,0.6,0.3,0.6,0.6c0,0.4-0.3,0.6-0.6,0.6
			C63.5,32.4,63.2,32.2,63.2,31.8L63.2,31.8z"/>
		<path class="st6" d="M63.8,36.3c0-0.4,0.3-0.6,0.6-0.6c0.4,0,0.6,0.3,0.6,0.6c0,0.4-0.3,0.6-0.6,0.6
			C64.1,36.9,63.8,36.6,63.8,36.3L63.8,36.3z"/>
		<path class="st6" d="M64.5,94.1c0-0.4,0.3-0.6,0.6-0.6c0.4,0,0.6,0.3,0.6,0.6s-0.3,0.6-0.6,0.6C64.8,94.8,64.5,94.5,64.5,94.1
			L64.5,94.1z"/>
		<path class="st6" d="M65.1,110c0-0.4,0.3-0.6,0.6-0.6c0.4,0,0.6,0.3,0.6,0.6s-0.3,0.6-0.6,0.6C65.4,110.7,65.1,110.4,65.1,110
			L65.1,110z"/>
		<path class="st6" d="M65.7,119.6c0-0.4,0.3-0.6,0.6-0.6c0.4,0,0.6,0.3,0.6,0.6c0,0.4-0.3,0.6-0.6,0.6
			C66,120.2,65.7,119.9,65.7,119.6L65.7,119.6z"/>
		<path class="st6" d="M66.4,24.2c0-0.4,0.3-0.6,0.6-0.6c0.4,0,0.6,0.3,0.6,0.6c0,0.4-0.3,0.6-0.6,0.6
			C66.7,24.8,66.4,24.5,66.4,24.2L66.4,24.2z"/>
		<path class="st6" d="M66.4,103.1c0-0.4,0.3-0.6,0.6-0.6c0.4,0,0.6,0.3,0.6,0.6c0,0.4-0.3,0.6-0.6,0.6
			C66.7,103.7,66.4,103.4,66.4,103.1L66.4,103.1z"/>
		<path class="st6" d="M66.4,31.2c0-0.4,0.3-0.6,0.6-0.6c0.4,0,0.6,0.3,0.6,0.6c0,0.4-0.3,0.6-0.6,0.6
			C66.7,31.8,66.4,31.5,66.4,31.2L66.4,31.2z"/>
		<path class="st6" d="M67,115.8c0-0.4,0.3-0.6,0.6-0.6c0.4,0,0.6,0.3,0.6,0.6s-0.3,0.6-0.6,0.6C67.3,116.4,67,116.1,67,115.8
			L67,115.8z"/>
		<path class="st6" d="M67,101.1c0-0.4,0.3-0.6,0.6-0.6c0.4,0,0.6,0.3,0.6,0.6c0,0.4-0.3,0.6-0.6,0.6C67.3,101.8,67,101.5,67,101.1
			L67,101.1z"/>
		<path class="st6" d="M67.6,123.4c0-0.4,0.3-0.6,0.6-0.6c0.4,0,0.6,0.3,0.6,0.6c0,0.4-0.3,0.6-0.6,0.6
			C67.9,124,67.6,123.8,67.6,123.4L67.6,123.4z"/>
		<path class="st6" d="M67.6,25.4c0-0.4,0.3-0.6,0.6-0.6c0.4,0,0.6,0.3,0.6,0.6c0,0.4-0.3,0.6-0.6,0.6
			C67.9,26.1,67.6,25.8,67.6,25.4L67.6,25.4z"/>
		<path class="st6" d="M67.6,17.8c0-0.4,0.3-0.6,0.6-0.6c0.4,0,0.6,0.3,0.6,0.6c0,0.4-0.3,0.6-0.6,0.6
			C67.9,18.4,67.6,18.2,67.6,17.8L67.6,17.8z"/>
		<path class="st6" d="M68.3,46.4c0-0.4,0.3-0.6,0.6-0.6c0.4,0,0.6,0.3,0.6,0.6c0,0.4-0.3,0.6-0.6,0.6
			C68.6,47.1,68.3,46.8,68.3,46.4L68.3,46.4z"/>
		<path class="st6" d="M68.9,104.3c0-0.4,0.3-0.6,0.6-0.6c0.4,0,0.6,0.3,0.6,0.6c0,0.4-0.3,0.6-0.6,0.6
			C69.2,105,68.9,104.7,68.9,104.3L68.9,104.3z"/>
		<path class="st6" d="M68.9,61.7c0-0.4,0.3-0.6,0.6-0.6c0.4,0,0.6,0.3,0.6,0.6s-0.3,0.6-0.6,0.6C69.2,62.3,68.9,62.1,68.9,61.7
			L68.9,61.7z"/>
		<path class="st6" d="M68.9,24.2c0-0.4,0.3-0.6,0.6-0.6c0.4,0,0.6,0.3,0.6,0.6c0,0.4-0.3,0.6-0.6,0.6
			C69.2,24.8,68.9,24.5,68.9,24.2L68.9,24.2z"/>
		<path class="st6" d="M69.5,100.5c0-0.4,0.3-0.6,0.6-0.6c0.4,0,0.6,0.3,0.6,0.6c0,0.4-0.3,0.6-0.6,0.6
			C69.8,101.1,69.5,100.9,69.5,100.5L69.5,100.5z"/>
		<path class="st6" d="M70.2,86.5c0-0.4,0.3-0.6,0.6-0.6c0.4,0,0.6,0.3,0.6,0.6c0,0.4-0.3,0.6-0.6,0.6
			C70.5,87.1,70.2,86.9,70.2,86.5L70.2,86.5z"/>
		<path class="st6" d="M70.2,58.5c0-0.4,0.3-0.6,0.6-0.6c0.4,0,0.6,0.3,0.6,0.6c0,0.4-0.3,0.6-0.6,0.6
			C70.5,59.2,70.2,58.9,70.2,58.5L70.2,58.5z"/>
		<path class="st6" d="M70.2,47.1c0-0.4,0.3-0.6,0.6-0.6c0.4,0,0.6,0.3,0.6,0.6c0,0.4-0.3,0.6-0.6,0.6
			C70.5,47.7,70.2,47.4,70.2,47.1L70.2,47.1z"/>
		<path class="st6" d="M70.8,106.9c0-0.4,0.3-0.6,0.6-0.6c0.4,0,0.6,0.3,0.6,0.6c0,0.4-0.3,0.6-0.6,0.6
			C71.1,107.5,70.8,107.2,70.8,106.9L70.8,106.9z"/>
		<path class="st6" d="M70.8,19.1c0-0.4,0.3-0.6,0.6-0.6c0.4,0,0.6,0.3,0.6,0.6s-0.3,0.6-0.6,0.6C71.1,19.7,70.8,19.4,70.8,19.1
			L70.8,19.1z"/>
		<path class="st6" d="M70.8,91c0-0.4,0.3-0.6,0.6-0.6c0.4,0,0.6,0.3,0.6,0.6s-0.3,0.6-0.6,0.6C71.1,91.6,70.8,91.3,70.8,91L70.8,91
			z"/>
		<path class="st6" d="M70.8,70c0-0.4,0.3-0.6,0.6-0.6c0.4,0,0.6,0.3,0.6,0.6c0,0.4-0.3,0.6-0.6,0.6C71.1,70.6,70.8,70.3,70.8,70
			L70.8,70z"/>
		<path class="st6" d="M70.8,122.8c0-0.4,0.3-0.6,0.6-0.6c0.4,0,0.6,0.3,0.6,0.6c0,0.4-0.3,0.6-0.6,0.6
			C71.1,123.4,70.8,123.1,70.8,122.8L70.8,122.8z"/>
		<path class="st6" d="M72.1,26.7c0-0.4,0.3-0.6,0.6-0.6c0.4,0,0.6,0.3,0.6,0.6c0,0.4-0.3,0.6-0.6,0.6
			C72.4,27.3,72.1,27.1,72.1,26.7L72.1,26.7z"/>
		<path class="st6" d="M72.1,54.7c0-0.4,0.3-0.6,0.6-0.6c0.4,0,0.6,0.3,0.6,0.6c0,0.4-0.3,0.6-0.6,0.6
			C72.4,55.3,72.1,55.1,72.1,54.7L72.1,54.7z"/>
		<path class="st6" d="M72.1,49c0-0.4,0.3-0.6,0.6-0.6c0.4,0,0.6,0.3,0.6,0.6c0,0.4-0.3,0.6-0.6,0.6C72.4,49.6,72.1,49.3,72.1,49
			L72.1,49z"/>
		<path class="st6" d="M72.7,96.1c0-0.4,0.3-0.6,0.6-0.6c0.4,0,0.6,0.3,0.6,0.6s-0.3,0.6-0.6,0.6C73,96.7,72.7,96.4,72.7,96.1
			L72.7,96.1z"/>
		<path class="st6" d="M73.3,92.9c0-0.4,0.3-0.6,0.6-0.6c0.4,0,0.6,0.3,0.6,0.6c0,0.4-0.3,0.6-0.6,0.6
			C73.6,93.5,73.3,93.2,73.3,92.9L73.3,92.9z"/>
		<path class="st6" d="M74,56c0-0.4,0.3-0.6,0.6-0.6c0.4,0,0.6,0.3,0.6,0.6c0,0.4-0.3,0.6-0.6,0.6C74.3,56.6,74,56.3,74,56L74,56z"
			/>
		<path class="st6" d="M74,114.5c0-0.4,0.3-0.6,0.6-0.6c0.4,0,0.6,0.3,0.6,0.6s-0.3,0.6-0.6,0.6C74.3,115.1,74,114.9,74,114.5
			L74,114.5z"/>
		<path class="st6" d="M74,118.3c0-0.4,0.3-0.6,0.6-0.6c0.4,0,0.6,0.3,0.6,0.6S75,119,74.6,119C74.3,119,74,118.7,74,118.3L74,118.3
			z"/>
		<path class="st6" d="M74,96.7c0-0.4,0.3-0.6,0.6-0.6c0.4,0,0.6,0.3,0.6,0.6c0,0.4-0.3,0.6-0.6,0.6C74.3,97.3,74,97,74,96.7
			L74,96.7z"/>
		<path class="st6" d="M74.6,34.3c0-0.4,0.3-0.6,0.6-0.6c0.4,0,0.6,0.3,0.6,0.6c0,0.4-0.3,0.6-0.6,0.6C74.9,35,74.6,34.7,74.6,34.3
			L74.6,34.3z"/>
		<path class="st6" d="M74.6,58.5c0-0.4,0.3-0.6,0.6-0.6c0.4,0,0.6,0.3,0.6,0.6c0,0.4-0.3,0.6-0.6,0.6
			C74.9,59.2,74.6,58.9,74.6,58.5L74.6,58.5z"/>
		<path class="st6" d="M75.9,24.2c0-0.4,0.3-0.6,0.6-0.6c0.4,0,0.6,0.3,0.6,0.6c0,0.4-0.3,0.6-0.6,0.6
			C76.2,24.8,75.9,24.5,75.9,24.2L75.9,24.2z"/>
		<path class="st6" d="M75.9,66.2c0-0.4,0.3-0.6,0.6-0.6c0.4,0,0.6,0.3,0.6,0.6s-0.3,0.6-0.6,0.6C76.2,66.8,75.9,66.5,75.9,66.2
			L75.9,66.2z"/>
		<path class="st6" d="M75.9,73.2c0-0.4,0.3-0.6,0.6-0.6c0.4,0,0.6,0.3,0.6,0.6s-0.3,0.6-0.6,0.6C76.2,73.8,75.9,73.5,75.9,73.2
			L75.9,73.2z"/>
		<path class="st6" d="M76.5,46.4c0-0.4,0.3-0.6,0.6-0.6c0.4,0,0.6,0.3,0.6,0.6c0,0.4-0.3,0.6-0.6,0.6
			C76.8,47.1,76.5,46.8,76.5,46.4L76.5,46.4z"/>
		<path class="st6" d="M77.2,99.9c0-0.4,0.3-0.6,0.6-0.6c0.4,0,0.6,0.3,0.6,0.6s-0.3,0.6-0.6,0.6C77.4,100.5,77.2,100.2,77.2,99.9
			L77.2,99.9z"/>
		<path class="st6" d="M77.2,82.7c0-0.4,0.3-0.6,0.6-0.6c0.4,0,0.6,0.3,0.6,0.6c0,0.4-0.3,0.6-0.6,0.6C77.4,83.3,77.2,83,77.2,82.7
			L77.2,82.7z"/>
		<path class="st6" d="M77.8,128.5c0-0.4,0.3-0.6,0.6-0.6c0.4,0,0.6,0.3,0.6,0.6s-0.3,0.6-0.6,0.6C78.1,129.1,77.8,128.9,77.8,128.5
			L77.8,128.5z"/>
		<path class="st6" d="M77.8,59.2c0-0.4,0.3-0.6,0.6-0.6c0.4,0,0.6,0.3,0.6,0.6s-0.3,0.6-0.6,0.6C78.1,59.8,77.8,59.5,77.8,59.2
			L77.8,59.2z"/>
		<path class="st6" d="M77.8,44.5c0-0.4,0.3-0.6,0.6-0.6c0.4,0,0.6,0.3,0.6,0.6c0,0.4-0.3,0.6-0.6,0.6
			C78.1,45.2,77.8,44.9,77.8,44.5L77.8,44.5z"/>
		<path class="st6" d="M78.4,102.4c0-0.4,0.3-0.6,0.6-0.6c0.4,0,0.6,0.3,0.6,0.6c0,0.4-0.3,0.6-0.6,0.6
			C78.7,103.1,78.4,102.8,78.4,102.4L78.4,102.4z"/>
		<path class="st6" d="M78.4,55.3c0-0.4,0.3-0.6,0.6-0.6c0.4,0,0.6,0.3,0.6,0.6c0,0.4-0.3,0.6-0.6,0.6C78.7,56,78.4,55.7,78.4,55.3
			L78.4,55.3z"/>
		<path class="st6" d="M78.4,86.5c0-0.4,0.3-0.6,0.6-0.6c0.4,0,0.6,0.3,0.6,0.6c0,0.4-0.3,0.6-0.6,0.6
			C78.7,87.1,78.4,86.9,78.4,86.5L78.4,86.5z"/>
		<path class="st6" d="M78.4,80.8c0-0.4,0.3-0.6,0.6-0.6c0.4,0,0.6,0.3,0.6,0.6c0,0.4-0.3,0.6-0.6,0.6
			C78.7,81.4,78.4,81.1,78.4,80.8L78.4,80.8z"/>
		<path class="st6" d="M78.4,83.3c0-0.4,0.3-0.6,0.6-0.6c0.4,0,0.6,0.3,0.6,0.6S79.4,84,79.1,84C78.7,84,78.4,83.7,78.4,83.3
			L78.4,83.3z"/>
		<path class="st6" d="M79.1,7.6c0-0.4,0.3-0.6,0.6-0.6c0.4,0,0.6,0.3,0.6,0.6c0,0.4-0.3,0.6-0.6,0.6C79.3,8.3,79.1,8,79.1,7.6
			L79.1,7.6z"/>
		<path class="st6" d="M80.3,122.8c0-0.4,0.3-0.6,0.6-0.6c0.4,0,0.6,0.3,0.6,0.6c0,0.4-0.3,0.6-0.6,0.6
			C80.6,123.4,80.3,123.1,80.3,122.8L80.3,122.8z"/>
		<path class="st6" d="M81,112.6c0-0.4,0.3-0.6,0.6-0.6c0.4,0,0.6,0.3,0.6,0.6c0,0.4-0.3,0.6-0.6,0.6C81.2,113.2,81,112.9,81,112.6
			L81,112.6z"/>
		<path class="st6" d="M81,9.5c0-0.4,0.3-0.6,0.6-0.6c0.4,0,0.6,0.3,0.6,0.6c0,0.4-0.3,0.6-0.6,0.6C81.2,10.2,81,9.9,81,9.5L81,9.5z
			"/>
		<path class="st6" d="M81,123.4c0-0.4,0.3-0.6,0.6-0.6c0.4,0,0.6,0.3,0.6,0.6c0,0.4-0.3,0.6-0.6,0.6C81.2,124,81,123.8,81,123.4
			L81,123.4z"/>
		<path class="st6" d="M81,38.8c0-0.4,0.3-0.6,0.6-0.6c0.4,0,0.6,0.3,0.6,0.6s-0.3,0.6-0.6,0.6C81.2,39.4,81,39.2,81,38.8L81,38.8z"
			/>
		<path class="st6" d="M81.6,86.5c0-0.4,0.3-0.6,0.6-0.6c0.4,0,0.6,0.3,0.6,0.6c0,0.4-0.3,0.6-0.6,0.6
			C81.9,87.1,81.6,86.9,81.6,86.5L81.6,86.5z"/>
		<path class="st6" d="M82.2,92.9c0-0.4,0.3-0.6,0.6-0.6c0.4,0,0.6,0.3,0.6,0.6c0,0.4-0.3,0.6-0.6,0.6
			C82.5,93.5,82.2,93.2,82.2,92.9L82.2,92.9z"/>
		<path class="st6" d="M82.2,110.7c0-0.4,0.3-0.6,0.6-0.6c0.4,0,0.6,0.3,0.6,0.6c0,0.4-0.3,0.6-0.6,0.6
			C82.5,111.3,82.2,111,82.2,110.7L82.2,110.7z"/>
		<path class="st6" d="M82.9,76.3c0-0.4,0.3-0.6,0.6-0.6c0.4,0,0.6,0.3,0.6,0.6S83.8,77,83.5,77C83.1,77,82.9,76.7,82.9,76.3
			L82.9,76.3z"/>
		<path class="st6" d="M83.5,26.1c0-0.4,0.3-0.6,0.6-0.6c0.4,0,0.6,0.3,0.6,0.6c0,0.4-0.3,0.6-0.6,0.6
			C83.8,26.7,83.5,26.4,83.5,26.1L83.5,26.1z"/>
		<path class="st6" d="M83.5,89.1c0-0.4,0.3-0.6,0.6-0.6c0.4,0,0.6,0.3,0.6,0.6c0,0.4-0.3,0.6-0.6,0.6
			C83.8,89.7,83.5,89.4,83.5,89.1L83.5,89.1z"/>
		<path class="st6" d="M83.5,126c0-0.4,0.3-0.6,0.6-0.6c0.4,0,0.6,0.3,0.6,0.6s-0.3,0.6-0.6,0.6C83.8,126.6,83.5,126.3,83.5,126
			L83.5,126z"/>
		<path class="st6" d="M84.1,13.3c0-0.4,0.3-0.6,0.6-0.6c0.4,0,0.6,0.3,0.6,0.6c0,0.4-0.3,0.6-0.6,0.6C84.4,14,84.1,13.7,84.1,13.3
			L84.1,13.3z"/>
		<path class="st6" d="M84.1,80.1c0-0.4,0.3-0.6,0.6-0.6c0.4,0,0.6,0.3,0.6,0.6s-0.3,0.6-0.6,0.6C84.4,80.8,84.1,80.5,84.1,80.1
			L84.1,80.1z"/>
		<path class="st6" d="M84.8,13.3c0-0.4,0.3-0.6,0.6-0.6S86,13,86,13.3c0,0.4-0.3,0.6-0.6,0.6S84.8,13.7,84.8,13.3L84.8,13.3z"/>
		<path class="st6" d="M84.8,78.9c0-0.4,0.3-0.6,0.6-0.6s0.6,0.3,0.6,0.6c0,0.4-0.3,0.6-0.6,0.6S84.8,79.2,84.8,78.9L84.8,78.9z"/>
		<path class="st6" d="M85.4,38.8c0-0.4,0.3-0.6,0.6-0.6c0.4,0,0.6,0.3,0.6,0.6s-0.3,0.6-0.6,0.6C85.7,39.4,85.4,39.2,85.4,38.8
			L85.4,38.8z"/>
		<path class="st6" d="M86.7,38.2c0-0.4,0.3-0.6,0.6-0.6c0.4,0,0.6,0.3,0.6,0.6c0,0.4-0.3,0.6-0.6,0.6
			C86.9,38.8,86.7,38.5,86.7,38.2L86.7,38.2z"/>
		<path class="st6" d="M86.7,43.9c0-0.4,0.3-0.6,0.6-0.6c0.4,0,0.6,0.3,0.6,0.6c0,0.4-0.3,0.6-0.6,0.6
			C86.9,44.5,86.7,44.2,86.7,43.9L86.7,43.9z"/>
		<path class="st6" d="M87.3,123.4c0-0.4,0.3-0.6,0.6-0.6c0.4,0,0.6,0.3,0.6,0.6c0,0.4-0.3,0.6-0.6,0.6
			C87.6,124,87.3,123.8,87.3,123.4L87.3,123.4z"/>
		<path class="st6" d="M87.3,47.7c0-0.4,0.3-0.6,0.6-0.6c0.4,0,0.6,0.3,0.6,0.6c0,0.4-0.3,0.6-0.6,0.6
			C87.6,48.3,87.3,48.1,87.3,47.7L87.3,47.7z"/>
		<path class="st6" d="M87.3,67.4c0-0.4,0.3-0.6,0.6-0.6c0.4,0,0.6,0.3,0.6,0.6s-0.3,0.6-0.6,0.6C87.6,68.1,87.3,67.8,87.3,67.4
			L87.3,67.4z"/>
		<path class="st6" d="M87.3,31.2c0-0.4,0.3-0.6,0.6-0.6c0.4,0,0.6,0.3,0.6,0.6c0,0.4-0.3,0.6-0.6,0.6
			C87.6,31.8,87.3,31.5,87.3,31.2L87.3,31.2z"/>
		<path class="st6" d="M87.9,22.9c0-0.4,0.3-0.6,0.6-0.6c0.4,0,0.6,0.3,0.6,0.6s-0.3,0.6-0.6,0.6C88.2,23.5,87.9,23.2,87.9,22.9
			L87.9,22.9z"/>
		<path class="st6" d="M87.9,96.7c0-0.4,0.3-0.6,0.6-0.6c0.4,0,0.6,0.3,0.6,0.6c0,0.4-0.3,0.6-0.6,0.6C88.2,97.3,87.9,97,87.9,96.7
			L87.9,96.7z"/>
		<path class="st6" d="M87.9,37.5c0-0.4,0.3-0.6,0.6-0.6c0.4,0,0.6,0.3,0.6,0.6s-0.3,0.6-0.6,0.6C88.2,38.2,87.9,37.9,87.9,37.5
			L87.9,37.5z"/>
		<path class="st6" d="M88.6,74.4c0-0.4,0.3-0.6,0.6-0.6c0.4,0,0.6,0.3,0.6,0.6s-0.3,0.6-0.6,0.6C88.8,75.1,88.6,74.8,88.6,74.4
			L88.6,74.4z"/>
		<path class="st6" d="M89.2,120.9c0-0.4,0.3-0.6,0.6-0.6c0.4,0,0.6,0.3,0.6,0.6c0,0.4-0.3,0.6-0.6,0.6
			C89.5,121.5,89.2,121.2,89.2,120.9L89.2,120.9z"/>
		<path class="st6" d="M90.5,112c0-0.4,0.3-0.6,0.6-0.6c0.4,0,0.6,0.3,0.6,0.6s-0.3,0.6-0.6,0.6C90.7,112.6,90.5,112.3,90.5,112
			L90.5,112z"/>
		<path class="st6" d="M90.5,77.6c0-0.4,0.3-0.6,0.6-0.6c0.4,0,0.6,0.3,0.6,0.6s-0.3,0.6-0.6,0.6C90.7,78.2,90.5,78,90.5,77.6
			L90.5,77.6z"/>
		<path class="st6" d="M91.1,128.5c0-0.4,0.3-0.6,0.6-0.6c0.4,0,0.6,0.3,0.6,0.6s-0.3,0.6-0.6,0.6C91.4,129.1,91.1,128.9,91.1,128.5
			L91.1,128.5z"/>
		<path class="st6" d="M91.7,7.6C91.7,7.3,92,7,92.4,7C92.7,7,93,7.3,93,7.6c0,0.4-0.3,0.6-0.6,0.6C92,8.3,91.7,8,91.7,7.6L91.7,7.6
			z"/>
		<path class="st6" d="M91.7,117.7c0-0.4,0.3-0.6,0.6-0.6c0.4,0,0.6,0.3,0.6,0.6c0,0.4-0.3,0.6-0.6,0.6
			C92,118.3,91.7,118,91.7,117.7L91.7,117.7z"/>
		<path class="st6" d="M91.7,66.2c0-0.4,0.3-0.6,0.6-0.6c0.4,0,0.6,0.3,0.6,0.6s-0.3,0.6-0.6,0.6C92,66.8,91.7,66.5,91.7,66.2
			L91.7,66.2z"/>
		<path class="st6" d="M91.7,80.8c0-0.4,0.3-0.6,0.6-0.6c0.4,0,0.6,0.3,0.6,0.6c0,0.4-0.3,0.6-0.6,0.6C92,81.4,91.7,81.1,91.7,80.8
			L91.7,80.8z"/>
		<path class="st6" d="M92.4,31.8c0-0.4,0.3-0.6,0.6-0.6c0.4,0,0.6,0.3,0.6,0.6c0,0.4-0.3,0.6-0.6,0.6
			C92.7,32.4,92.4,32.2,92.4,31.8L92.4,31.8z"/>
		<path class="st6" d="M93,112c0-0.4,0.3-0.6,0.6-0.6c0.4,0,0.6,0.3,0.6,0.6s-0.3,0.6-0.6,0.6C93.3,112.6,93,112.3,93,112L93,112z"
			/>
		<path class="st6" d="M93,26.7c0-0.4,0.3-0.6,0.6-0.6c0.4,0,0.6,0.3,0.6,0.6c0,0.4-0.3,0.6-0.6,0.6C93.3,27.3,93,27.1,93,26.7
			L93,26.7z"/>
		<path class="st6" d="M93.6,122.8c0-0.4,0.3-0.6,0.6-0.6c0.4,0,0.6,0.3,0.6,0.6c0,0.4-0.3,0.6-0.6,0.6
			C93.9,123.4,93.6,123.1,93.6,122.8L93.6,122.8z"/>
		<path class="st6" d="M93.6,34.3c0-0.4,0.3-0.6,0.6-0.6c0.4,0,0.6,0.3,0.6,0.6c0,0.4-0.3,0.6-0.6,0.6C93.9,35,93.6,34.7,93.6,34.3
			L93.6,34.3z"/>
		<path class="st6" d="M94.3,117c0-0.4,0.3-0.6,0.6-0.6c0.4,0,0.6,0.3,0.6,0.6c0,0.4-0.3,0.6-0.6,0.6
			C94.6,117.7,94.3,117.4,94.3,117L94.3,117z"/>
		<path class="st6" d="M94.3,23.5c0-0.4,0.3-0.6,0.6-0.6c0.4,0,0.6,0.3,0.6,0.6s-0.3,0.6-0.6,0.6C94.6,24.2,94.3,23.9,94.3,23.5
			L94.3,23.5z"/>
		<path class="st6" d="M94.3,73.2c0-0.4,0.3-0.6,0.6-0.6c0.4,0,0.6,0.3,0.6,0.6s-0.3,0.6-0.6,0.6C94.6,73.8,94.3,73.5,94.3,73.2
			L94.3,73.2z"/>
		<path class="st6" d="M94.9,122.8c0-0.4,0.3-0.6,0.6-0.6c0.4,0,0.6,0.3,0.6,0.6c0,0.4-0.3,0.6-0.6,0.6
			C95.2,123.4,94.9,123.1,94.9,122.8L94.9,122.8z"/>
		<path class="st6" d="M94.9,81.4c0-0.4,0.3-0.6,0.6-0.6c0.4,0,0.6,0.3,0.6,0.6c0,0.4-0.3,0.6-0.6,0.6
			C95.2,82.1,94.9,81.8,94.9,81.4L94.9,81.4z"/>
		<path class="st6" d="M94.9,79.5c0-0.4,0.3-0.6,0.6-0.6c0.4,0,0.6,0.3,0.6,0.6s-0.3,0.6-0.6,0.6C95.2,80.1,94.9,79.9,94.9,79.5
			L94.9,79.5z"/>
		<path class="st6" d="M96.2,65.5c0-0.4,0.3-0.6,0.6-0.6c0.4,0,0.6,0.3,0.6,0.6s-0.3,0.6-0.6,0.6C96.5,66.2,96.2,65.9,96.2,65.5
			L96.2,65.5z"/>
		<path class="st6" d="M96.2,115.8c0-0.4,0.3-0.6,0.6-0.6c0.4,0,0.6,0.3,0.6,0.6s-0.3,0.6-0.6,0.6C96.5,116.4,96.2,116.1,96.2,115.8
			L96.2,115.8z"/>
		<path class="st6" d="M96.8,25.4c0-0.4,0.3-0.6,0.6-0.6c0.4,0,0.6,0.3,0.6,0.6c0,0.4-0.3,0.6-0.6,0.6
			C97.1,26.1,96.8,25.8,96.8,25.4L96.8,25.4z"/>
		<path class="st6" d="M97.4,27.3c0-0.4,0.3-0.6,0.6-0.6c0.4,0,0.6,0.3,0.6,0.6S98.4,28,98.1,28C97.7,28,97.4,27.7,97.4,27.3
			L97.4,27.3z"/>
		<path class="st6" d="M97.4,87.1c0-0.4,0.3-0.6,0.6-0.6c0.4,0,0.6,0.3,0.6,0.6c0,0.4-0.3,0.6-0.6,0.6
			C97.7,87.8,97.4,87.5,97.4,87.1L97.4,87.1z"/>
		<path class="st6" d="M97.4,83.3c0-0.4,0.3-0.6,0.6-0.6c0.4,0,0.6,0.3,0.6,0.6S98.4,84,98.1,84C97.7,84,97.4,83.7,97.4,83.3
			L97.4,83.3z"/>
		<path class="st6" d="M98.7,62.3c0-0.4,0.3-0.6,0.6-0.6c0.4,0,0.6,0.3,0.6,0.6c0,0.4-0.3,0.6-0.6,0.6C99,63,98.7,62.7,98.7,62.3
			L98.7,62.3z"/>
		<path class="st6" d="M98.7,66.8c0-0.4,0.3-0.6,0.6-0.6c0.4,0,0.6,0.3,0.6,0.6c0,0.4-0.3,0.6-0.6,0.6C99,67.4,98.7,67.1,98.7,66.8
			L98.7,66.8z"/>
		<path class="st6" d="M98.7,51.5c0-0.4,0.3-0.6,0.6-0.6c0.4,0,0.6,0.3,0.6,0.6s-0.3,0.6-0.6,0.6C99,52.2,98.7,51.9,98.7,51.5
			L98.7,51.5z"/>
		<path class="st6" d="M98.7,102.4c0-0.4,0.3-0.6,0.6-0.6c0.4,0,0.6,0.3,0.6,0.6c0,0.4-0.3,0.6-0.6,0.6
			C99,103.1,98.7,102.8,98.7,102.4L98.7,102.4z"/>
		<path class="st6" d="M99.3,47.1c0-0.4,0.3-0.6,0.6-0.6c0.4,0,0.6,0.3,0.6,0.6c0,0.4-0.3,0.6-0.6,0.6
			C99.6,47.7,99.3,47.4,99.3,47.1L99.3,47.1z"/>
		<path class="st6" d="M99.3,115.8c0-0.4,0.3-0.6,0.6-0.6c0.4,0,0.6,0.3,0.6,0.6s-0.3,0.6-0.6,0.6C99.6,116.4,99.3,116.1,99.3,115.8
			L99.3,115.8z"/>
		<path class="st6" d="M99.3,87.1c0-0.4,0.3-0.6,0.6-0.6c0.4,0,0.6,0.3,0.6,0.6c0,0.4-0.3,0.6-0.6,0.6
			C99.6,87.8,99.3,87.5,99.3,87.1L99.3,87.1z"/>
		<path class="st6" d="M99.3,110.7c0-0.4,0.3-0.6,0.6-0.6c0.4,0,0.6,0.3,0.6,0.6c0,0.4-0.3,0.6-0.6,0.6
			C99.6,111.3,99.3,111,99.3,110.7L99.3,110.7z"/>
		<path class="st6" d="M100,62.3c0-0.4,0.3-0.6,0.6-0.6c0.4,0,0.6,0.3,0.6,0.6c0,0.4-0.3,0.6-0.6,0.6C100.3,63,100,62.7,100,62.3
			L100,62.3z"/>
		<path class="st6" d="M100,52.8c0-0.4,0.3-0.6,0.6-0.6c0.4,0,0.6,0.3,0.6,0.6s-0.3,0.6-0.6,0.6C100.3,53.4,100,53.1,100,52.8
			L100,52.8z"/>
		<path class="st6" d="M100.6,40.1c0-0.4,0.3-0.6,0.6-0.6c0.4,0,0.6,0.3,0.6,0.6c0,0.4-0.3,0.6-0.6,0.6
			C100.9,40.7,100.6,40.4,100.6,40.1L100.6,40.1z"/>
		<path class="st6" d="M101.2,79.5c0-0.4,0.3-0.6,0.6-0.6s0.6,0.3,0.6,0.6s-0.3,0.6-0.6,0.6S101.2,79.9,101.2,79.5L101.2,79.5z"/>
		<path class="st6" d="M101.2,69.3c0-0.4,0.3-0.6,0.6-0.6s0.6,0.3,0.6,0.6s-0.3,0.6-0.6,0.6S101.2,69.7,101.2,69.3L101.2,69.3z"/>
		<path class="st6" d="M101.9,86.5c0-0.4,0.3-0.6,0.6-0.6c0.4,0,0.6,0.3,0.6,0.6c0,0.4-0.3,0.6-0.6,0.6
			C102.2,87.1,101.9,86.9,101.9,86.5L101.9,86.5z"/>
		<path class="st6" d="M101.9,45.8c0-0.4,0.3-0.6,0.6-0.6c0.4,0,0.6,0.3,0.6,0.6s-0.3,0.6-0.6,0.6C102.2,46.4,101.9,46.1,101.9,45.8
			L101.9,45.8z"/>
		<path class="st6" d="M101.9,27.3c0-0.4,0.3-0.6,0.6-0.6c0.4,0,0.6,0.3,0.6,0.6s-0.3,0.6-0.6,0.6C102.2,28,101.9,27.7,101.9,27.3
			L101.9,27.3z"/>
		<path class="st6" d="M102.5,105.6c0-0.4,0.3-0.6,0.6-0.6c0.4,0,0.6,0.3,0.6,0.6s-0.3,0.6-0.6,0.6
			C102.8,106.2,102.5,106,102.5,105.6L102.5,105.6z"/>
		<path class="st6" d="M102.5,13.3c0-0.4,0.3-0.6,0.6-0.6c0.4,0,0.6,0.3,0.6,0.6c0,0.4-0.3,0.6-0.6,0.6
			C102.8,14,102.5,13.7,102.5,13.3L102.5,13.3z"/>
		<path class="st6" d="M102.5,127.2c0-0.4,0.3-0.6,0.6-0.6c0.4,0,0.6,0.3,0.6,0.6c0,0.4-0.3,0.6-0.6,0.6
			C102.8,127.9,102.5,127.6,102.5,127.2L102.5,127.2z"/>
		<path class="st6" d="M103.1,105.6c0-0.4,0.3-0.6,0.6-0.6c0.4,0,0.6,0.3,0.6,0.6s-0.3,0.6-0.6,0.6
			C103.4,106.2,103.1,106,103.1,105.6L103.1,105.6z"/>
		<path class="st6" d="M103.1,113.2c0-0.4,0.3-0.6,0.6-0.6c0.4,0,0.6,0.3,0.6,0.6s-0.3,0.6-0.6,0.6
			C103.4,113.9,103.1,113.6,103.1,113.2L103.1,113.2z"/>
		<path class="st6" d="M103.8,24.8c0-0.4,0.3-0.6,0.6-0.6c0.4,0,0.6,0.3,0.6,0.6c0,0.4-0.3,0.6-0.6,0.6
			C104.1,25.4,103.8,25.2,103.8,24.8L103.8,24.8z"/>
		<path class="st6" d="M103.8,39.4c0-0.4,0.3-0.6,0.6-0.6c0.4,0,0.6,0.3,0.6,0.6s-0.3,0.6-0.6,0.6C104.1,40.1,103.8,39.8,103.8,39.4
			L103.8,39.4z"/>
		<path class="st6" d="M103.8,85.9c0-0.4,0.3-0.6,0.6-0.6c0.4,0,0.6,0.3,0.6,0.6s-0.3,0.6-0.6,0.6C104.1,86.5,103.8,86.2,103.8,85.9
			L103.8,85.9z"/>
		<path class="st6" d="M104.4,108.1c0-0.4,0.3-0.6,0.6-0.6c0.4,0,0.6,0.3,0.6,0.6s-0.3,0.6-0.6,0.6
			C104.7,108.8,104.4,108.5,104.4,108.1L104.4,108.1z"/>
		<path class="st6" d="M104.4,59.2c0-0.4,0.3-0.6,0.6-0.6c0.4,0,0.6,0.3,0.6,0.6s-0.3,0.6-0.6,0.6C104.7,59.8,104.4,59.5,104.4,59.2
			L104.4,59.2z"/>
		<path class="st6" d="M104.4,109.4c0-0.4,0.3-0.6,0.6-0.6c0.4,0,0.6,0.3,0.6,0.6c0,0.4-0.3,0.6-0.6,0.6
			C104.7,110,104.4,109.8,104.4,109.4L104.4,109.4z"/>
		<path class="st6" d="M104.4,20.3c0-0.4,0.3-0.6,0.6-0.6c0.4,0,0.6,0.3,0.6,0.6c0,0.4-0.3,0.6-0.6,0.6
			C104.7,21,104.4,20.7,104.4,20.3L104.4,20.3z"/>
		<path class="st6" d="M104.4,78.9c0-0.4,0.3-0.6,0.6-0.6c0.4,0,0.6,0.3,0.6,0.6c0,0.4-0.3,0.6-0.6,0.6
			C104.7,79.5,104.4,79.2,104.4,78.9L104.4,78.9z"/>
		<path class="st6" d="M104.4,85.2c0-0.4,0.3-0.6,0.6-0.6c0.4,0,0.6,0.3,0.6,0.6c0,0.4-0.3,0.6-0.6,0.6
			C104.7,85.9,104.4,85.6,104.4,85.2L104.4,85.2z"/>
		<path class="st6" d="M104.4,94.1c0-0.4,0.3-0.6,0.6-0.6c0.4,0,0.6,0.3,0.6,0.6s-0.3,0.6-0.6,0.6C104.7,94.8,104.4,94.5,104.4,94.1
			L104.4,94.1z"/>
		<path class="st6" d="M105,33.7c0-0.4,0.3-0.6,0.6-0.6c0.4,0,0.6,0.3,0.6,0.6c0,0.4-0.3,0.6-0.6,0.6C105.3,34.3,105,34.1,105,33.7
			L105,33.7z"/>
		<path class="st6" d="M105,12.7c0-0.4,0.3-0.6,0.6-0.6c0.4,0,0.6,0.3,0.6,0.6c0,0.4-0.3,0.6-0.6,0.6C105.3,13.3,105,13.1,105,12.7
			L105,12.7z"/>
		<path class="st6" d="M105,105.6c0-0.4,0.3-0.6,0.6-0.6c0.4,0,0.6,0.3,0.6,0.6s-0.3,0.6-0.6,0.6C105.3,106.2,105,106,105,105.6
			L105,105.6z"/>
		<path class="st6" d="M105.7,120.9c0-0.4,0.3-0.6,0.6-0.6c0.4,0,0.6,0.3,0.6,0.6c0,0.4-0.3,0.6-0.6,0.6
			C106,121.5,105.7,121.2,105.7,120.9L105.7,120.9z"/>
		<path class="st6" d="M106.3,95.4c0-0.4,0.3-0.6,0.6-0.6c0.4,0,0.6,0.3,0.6,0.6c0,0.4-0.3,0.6-0.6,0.6
			C106.6,96.1,106.3,95.8,106.3,95.4L106.3,95.4z"/>
		<path class="st6" d="M106.3,40.1c0-0.4,0.3-0.6,0.6-0.6c0.4,0,0.6,0.3,0.6,0.6c0,0.4-0.3,0.6-0.6,0.6
			C106.6,40.7,106.3,40.4,106.3,40.1L106.3,40.1z"/>
		<path class="st6" d="M107,98.6c0-0.4,0.3-0.6,0.6-0.6c0.4,0,0.6,0.3,0.6,0.6s-0.3,0.6-0.6,0.6C107.2,99.2,107,99,107,98.6
			L107,98.6z"/>
		<path class="st6" d="M107.6,45.2c0-0.4,0.3-0.6,0.6-0.6c0.4,0,0.6,0.3,0.6,0.6s-0.3,0.6-0.6,0.6C107.9,45.8,107.6,45.5,107.6,45.2
			L107.6,45.2z"/>
		<path class="st6" d="M107.6,122.8c0-0.4,0.3-0.6,0.6-0.6c0.4,0,0.6,0.3,0.6,0.6c0,0.4-0.3,0.6-0.6,0.6
			C107.9,123.4,107.6,123.1,107.6,122.8L107.6,122.8z"/>
		<path class="st6" d="M108.2,60.4c0-0.4,0.3-0.6,0.6-0.6c0.4,0,0.6,0.3,0.6,0.6c0,0.4-0.3,0.6-0.6,0.6
			C108.5,61.1,108.2,60.8,108.2,60.4L108.2,60.4z"/>
		<path class="st6" d="M108.2,58.5c0-0.4,0.3-0.6,0.6-0.6c0.4,0,0.6,0.3,0.6,0.6c0,0.4-0.3,0.6-0.6,0.6
			C108.5,59.2,108.2,58.9,108.2,58.5L108.2,58.5z"/>
		<path class="st6" d="M108.2,74.4c0-0.4,0.3-0.6,0.6-0.6c0.4,0,0.6,0.3,0.6,0.6s-0.3,0.6-0.6,0.6C108.5,75.1,108.2,74.8,108.2,74.4
			L108.2,74.4z"/>
		<path class="st6" d="M108.9,68.1c0-0.4,0.3-0.6,0.6-0.6c0.4,0,0.6,0.3,0.6,0.6s-0.3,0.6-0.6,0.6C109.1,68.7,108.9,68.4,108.9,68.1
			L108.9,68.1z"/>
		<path class="st6" d="M108.9,57.2c0-0.4,0.3-0.6,0.6-0.6c0.4,0,0.6,0.3,0.6,0.6c0,0.4-0.3,0.6-0.6,0.6
			C109.1,57.9,108.9,57.6,108.9,57.2L108.9,57.2z"/>
		<path class="st6" d="M108.9,112c0-0.4,0.3-0.6,0.6-0.6c0.4,0,0.6,0.3,0.6,0.6s-0.3,0.6-0.6,0.6C109.1,112.6,108.9,112.3,108.9,112
			L108.9,112z"/>
		<path class="st6" d="M108.9,45.8c0-0.4,0.3-0.6,0.6-0.6c0.4,0,0.6,0.3,0.6,0.6s-0.3,0.6-0.6,0.6C109.1,46.4,108.9,46.1,108.9,45.8
			L108.9,45.8z"/>
		<path class="st6" d="M108.9,73.8c0-0.4,0.3-0.6,0.6-0.6c0.4,0,0.6,0.3,0.6,0.6s-0.3,0.6-0.6,0.6C109.1,74.4,108.9,74.1,108.9,73.8
			L108.9,73.8z"/>
		<path class="st6" d="M110.8,61.7c0-0.4,0.3-0.6,0.6-0.6c0.4,0,0.6,0.3,0.6,0.6s-0.3,0.6-0.6,0.6C111,62.3,110.8,62.1,110.8,61.7
			L110.8,61.7z"/>
		<path class="st6" d="M110.8,89.1c0-0.4,0.3-0.6,0.6-0.6c0.4,0,0.6,0.3,0.6,0.6c0,0.4-0.3,0.6-0.6,0.6
			C111,89.7,110.8,89.4,110.8,89.1L110.8,89.1z"/>
		<path class="st6" d="M111.4,55.3c0-0.4,0.3-0.6,0.6-0.6c0.4,0,0.6,0.3,0.6,0.6c0,0.4-0.3,0.6-0.6,0.6
			C111.7,56,111.4,55.7,111.4,55.3L111.4,55.3z"/>
		<path class="st6" d="M111.4,119c0-0.4,0.3-0.6,0.6-0.6c0.4,0,0.6,0.3,0.6,0.6c0,0.4-0.3,0.6-0.6,0.6
			C111.7,119.6,111.4,119.3,111.4,119L111.4,119z"/>
		<path class="st6" d="M111.4,28c0-0.4,0.3-0.6,0.6-0.6c0.4,0,0.6,0.3,0.6,0.6c0,0.4-0.3,0.6-0.6,0.6
			C111.7,28.6,111.4,28.3,111.4,28L111.4,28z"/>
		<path class="st6" d="M111.4,97.3c0-0.4,0.3-0.6,0.6-0.6c0.4,0,0.6,0.3,0.6,0.6S112.4,98,112,98C111.7,98,111.4,97.7,111.4,97.3
			L111.4,97.3z"/>
		<path class="st6" d="M111.4,17.8c0-0.4,0.3-0.6,0.6-0.6c0.4,0,0.6,0.3,0.6,0.6c0,0.4-0.3,0.6-0.6,0.6
			C111.7,18.4,111.4,18.2,111.4,17.8L111.4,17.8z"/>
		<path class="st6" d="M111.4,108.1c0-0.4,0.3-0.6,0.6-0.6c0.4,0,0.6,0.3,0.6,0.6s-0.3,0.6-0.6,0.6
			C111.7,108.8,111.4,108.5,111.4,108.1L111.4,108.1z"/>
		<path class="st6" d="M112,40.1c0-0.4,0.3-0.6,0.6-0.6c0.4,0,0.6,0.3,0.6,0.6c0,0.4-0.3,0.6-0.6,0.6C112.3,40.7,112,40.4,112,40.1
			L112,40.1z"/>
		<path class="st6" d="M112.7,51.5c0-0.4,0.3-0.6,0.6-0.6c0.4,0,0.6,0.3,0.6,0.6s-0.3,0.6-0.6,0.6C112.9,52.2,112.7,51.9,112.7,51.5
			L112.7,51.5z"/>
		<path class="st6" d="M112.7,116.4c0-0.4,0.3-0.6,0.6-0.6c0.4,0,0.6,0.3,0.6,0.6c0,0.4-0.3,0.6-0.6,0.6
			C112.9,117,112.7,116.8,112.7,116.4L112.7,116.4z"/>
		<path class="st6" d="M112.7,117.7c0-0.4,0.3-0.6,0.6-0.6c0.4,0,0.6,0.3,0.6,0.6c0,0.4-0.3,0.6-0.6,0.6
			C112.9,118.3,112.7,118,112.7,117.7L112.7,117.7z"/>
		<path class="st6" d="M113.3,26.7c0-0.4,0.3-0.6,0.6-0.6c0.4,0,0.6,0.3,0.6,0.6c0,0.4-0.3,0.6-0.6,0.6
			C113.6,27.3,113.3,27.1,113.3,26.7L113.3,26.7z"/>
		<path class="st6" d="M113.3,33.7c0-0.4,0.3-0.6,0.6-0.6c0.4,0,0.6,0.3,0.6,0.6c0,0.4-0.3,0.6-0.6,0.6
			C113.6,34.3,113.3,34.1,113.3,33.7L113.3,33.7z"/>
		<path class="st6" d="M113.3,67.4c0-0.4,0.3-0.6,0.6-0.6c0.4,0,0.6,0.3,0.6,0.6s-0.3,0.6-0.6,0.6C113.6,68.1,113.3,67.8,113.3,67.4
			L113.3,67.4z"/>
		<path class="st6" d="M113.9,69.3c0-0.4,0.3-0.6,0.6-0.6c0.4,0,0.6,0.3,0.6,0.6s-0.3,0.6-0.6,0.6C114.2,70,113.9,69.7,113.9,69.3
			L113.9,69.3z"/>
		<path class="st6" d="M114.6,15.3c0-0.4,0.3-0.6,0.6-0.6c0.4,0,0.6,0.3,0.6,0.6c0,0.4-0.3,0.6-0.6,0.6
			C114.8,15.9,114.6,15.6,114.6,15.3L114.6,15.3z"/>
		<path class="st6" d="M114.6,91c0-0.4,0.3-0.6,0.6-0.6c0.4,0,0.6,0.3,0.6,0.6s-0.3,0.6-0.6,0.6C114.8,91.6,114.6,91.3,114.6,91
			L114.6,91z"/>
		<path class="st6" d="M115.2,30.5c0-0.4,0.3-0.6,0.6-0.6c0.4,0,0.6,0.3,0.6,0.6c0,0.4-0.3,0.6-0.6,0.6
			C115.5,31.2,115.2,30.9,115.2,30.5L115.2,30.5z"/>
		<path class="st6" d="M115.2,53.4c0-0.4,0.3-0.6,0.6-0.6c0.4,0,0.6,0.3,0.6,0.6s-0.3,0.6-0.6,0.6C115.5,54.1,115.2,53.8,115.2,53.4
			L115.2,53.4z"/>
		<path class="st6" d="M115.2,21c0-0.4,0.3-0.6,0.6-0.6c0.4,0,0.6,0.3,0.6,0.6c0,0.4-0.3,0.6-0.6,0.6
			C115.5,21.6,115.2,21.3,115.2,21L115.2,21z"/>
		<path class="st6" d="M116.5,28.6c0-0.4,0.3-0.6,0.6-0.6c0.4,0,0.6,0.3,0.6,0.6c0,0.4-0.3,0.6-0.6,0.6
			C116.7,29.3,116.5,29,116.5,28.6L116.5,28.6z"/>
		<path class="st6" d="M116.5,17.2c0-0.4,0.3-0.6,0.6-0.6c0.4,0,0.6,0.3,0.6,0.6c0,0.4-0.3,0.6-0.6,0.6
			C116.7,17.8,116.5,17.5,116.5,17.2L116.5,17.2z"/>
		<path class="st6" d="M117.1,41.3c0-0.4,0.3-0.6,0.6-0.6c0.4,0,0.6,0.3,0.6,0.6s-0.3,0.6-0.6,0.6C117.4,42,117.1,41.7,117.1,41.3
			L117.1,41.3z"/>
		<path class="st6" d="M117.7,110.7c0-0.4,0.3-0.6,0.6-0.6s0.6,0.3,0.6,0.6c0,0.4-0.3,0.6-0.6,0.6S117.7,111,117.7,110.7
			L117.7,110.7z"/>
		<path class="st6" d="M117.7,119.6c0-0.4,0.3-0.6,0.6-0.6s0.6,0.3,0.6,0.6c0,0.4-0.3,0.6-0.6,0.6S117.7,119.9,117.7,119.6
			L117.7,119.6z"/>
		<path class="st6" d="M118.4,55.3c0-0.4,0.3-0.6,0.6-0.6c0.4,0,0.6,0.3,0.6,0.6c0,0.4-0.3,0.6-0.6,0.6
			C118.6,56,118.4,55.7,118.4,55.3L118.4,55.3z"/>
		<path class="st6" d="M118.4,69.3c0-0.4,0.3-0.6,0.6-0.6c0.4,0,0.6,0.3,0.6,0.6S119.3,70,119,70C118.6,70,118.4,69.7,118.4,69.3
			L118.4,69.3z"/>
		<path class="st6" d="M119,77.6c0-0.4,0.3-0.6,0.6-0.6c0.4,0,0.6,0.3,0.6,0.6s-0.3,0.6-0.6,0.6C119.3,78.2,119,78,119,77.6
			L119,77.6z"/>
		<path class="st6" d="M119,98c0-0.4,0.3-0.6,0.6-0.6c0.4,0,0.6,0.3,0.6,0.6s-0.3,0.6-0.6,0.6C119.3,98.6,119,98.3,119,98L119,98z"
			/>
		<path class="st6" d="M119.6,106.2c0-0.4,0.3-0.6,0.6-0.6c0.4,0,0.6,0.3,0.6,0.6s-0.3,0.6-0.6,0.6
			C119.9,106.9,119.6,106.6,119.6,106.2L119.6,106.2z"/>
		<path class="st6" d="M119.6,49c0-0.4,0.3-0.6,0.6-0.6c0.4,0,0.6,0.3,0.6,0.6c0,0.4-0.3,0.6-0.6,0.6
			C119.9,49.6,119.6,49.3,119.6,49L119.6,49z"/>
		<path class="st6" d="M120.3,56c0-0.4,0.3-0.6,0.6-0.6c0.4,0,0.6,0.3,0.6,0.6c0,0.4-0.3,0.6-0.6,0.6
			C120.5,56.6,120.3,56.3,120.3,56L120.3,56z"/>
		<path class="st6" d="M120.3,113.9c0-0.4,0.3-0.6,0.6-0.6c0.4,0,0.6,0.3,0.6,0.6s-0.3,0.6-0.6,0.6
			C120.5,114.5,120.3,114.2,120.3,113.9L120.3,113.9z"/>
		<path class="st6" d="M120.9,40.1c0-0.4,0.3-0.6,0.6-0.6c0.4,0,0.6,0.3,0.6,0.6c0,0.4-0.3,0.6-0.6,0.6
			C121.2,40.7,120.9,40.4,120.9,40.1L120.9,40.1z"/>
		<path class="st6" d="M120.9,93.5c0-0.4,0.3-0.6,0.6-0.6c0.4,0,0.6,0.3,0.6,0.6s-0.3,0.6-0.6,0.6C121.2,94.1,120.9,93.9,120.9,93.5
			L120.9,93.5z"/>
		<path class="st6" d="M121.5,103.1c0-0.4,0.3-0.6,0.6-0.6c0.4,0,0.6,0.3,0.6,0.6c0,0.4-0.3,0.6-0.6,0.6
			C121.8,103.7,121.5,103.4,121.5,103.1L121.5,103.1z"/>
		<path class="st6" d="M121.5,92.2c0-0.4,0.3-0.6,0.6-0.6c0.4,0,0.6,0.3,0.6,0.6s-0.3,0.6-0.6,0.6C121.8,92.9,121.5,92.6,121.5,92.2
			L121.5,92.2z"/>
		<path class="st6" d="M122.2,35c0-0.4,0.3-0.6,0.6-0.6c0.4,0,0.6,0.3,0.6,0.6c0,0.4-0.3,0.6-0.6,0.6
			C122.4,35.6,122.2,35.3,122.2,35L122.2,35z"/>
		<path class="st6" d="M122.2,42c0-0.4,0.3-0.6,0.6-0.6c0.4,0,0.6,0.3,0.6,0.6c0,0.4-0.3,0.6-0.6,0.6
			C122.4,42.6,122.2,42.3,122.2,42L122.2,42z"/>
		<path class="st6" d="M122.8,50.9c0-0.4,0.3-0.6,0.6-0.6c0.4,0,0.6,0.3,0.6,0.6c0,0.4-0.3,0.6-0.6,0.6
			C123.1,51.5,122.8,51.2,122.8,50.9L122.8,50.9z"/>
		<path class="st6" d="M122.8,21c0-0.4,0.3-0.6,0.6-0.6c0.4,0,0.6,0.3,0.6,0.6c0,0.4-0.3,0.6-0.6,0.6
			C123.1,21.6,122.8,21.3,122.8,21L122.8,21z"/>
		<path class="st6" d="M124.1,44.5c0-0.4,0.3-0.6,0.6-0.6c0.4,0,0.6,0.3,0.6,0.6c0,0.4-0.3,0.6-0.6,0.6
			C124.3,45.2,124.1,44.9,124.1,44.5L124.1,44.5z"/>
		<path class="st6" d="M124.1,20.3c0-0.4,0.3-0.6,0.6-0.6c0.4,0,0.6,0.3,0.6,0.6c0,0.4-0.3,0.6-0.6,0.6
			C124.3,21,124.1,20.7,124.1,20.3L124.1,20.3z"/>
		<path class="st6" d="M124.7,46.4c0-0.4,0.3-0.6,0.6-0.6c0.4,0,0.6,0.3,0.6,0.6c0,0.4-0.3,0.6-0.6,0.6
			C125,47.1,124.7,46.8,124.7,46.4L124.7,46.4z"/>
		<path class="st6" d="M124.7,52.8c0-0.4,0.3-0.6,0.6-0.6c0.4,0,0.6,0.3,0.6,0.6s-0.3,0.6-0.6,0.6C125,53.4,124.7,53.1,124.7,52.8
			L124.7,52.8z"/>
		<path class="st6" d="M125.3,95.4c0-0.4,0.3-0.6,0.6-0.6c0.4,0,0.6,0.3,0.6,0.6c0,0.4-0.3,0.6-0.6,0.6
			C125.6,96.1,125.3,95.8,125.3,95.4L125.3,95.4z"/>
		<path class="st6" d="M125.3,70c0-0.4,0.3-0.6,0.6-0.6c0.4,0,0.6,0.3,0.6,0.6c0,0.4-0.3,0.6-0.6,0.6
			C125.6,70.6,125.3,70.3,125.3,70L125.3,70z"/>
		<path class="st6" d="M125.3,119.6c0-0.4,0.3-0.6,0.6-0.6c0.4,0,0.6,0.3,0.6,0.6c0,0.4-0.3,0.6-0.6,0.6
			C125.6,120.2,125.3,119.9,125.3,119.6L125.3,119.6z"/>
		<path class="st6" d="M126,114.5c0-0.4,0.3-0.6,0.6-0.6c0.4,0,0.6,0.3,0.6,0.6s-0.3,0.6-0.6,0.6C126.3,115.1,126,114.9,126,114.5
			L126,114.5z"/>
		<path class="st6" d="M126,28.6c0-0.4,0.3-0.6,0.6-0.6c0.4,0,0.6,0.3,0.6,0.6c0,0.4-0.3,0.6-0.6,0.6C126.3,29.3,126,29,126,28.6
			L126,28.6z"/>
		<path class="st6" d="M126.6,105.6c0-0.4,0.3-0.6,0.6-0.6c0.4,0,0.6,0.3,0.6,0.6s-0.3,0.6-0.6,0.6
			C126.9,106.2,126.6,106,126.6,105.6L126.6,105.6z"/>
		<path class="st6" d="M126.6,53.4c0-0.4,0.3-0.6,0.6-0.6c0.4,0,0.6,0.3,0.6,0.6s-0.3,0.6-0.6,0.6C126.9,54.1,126.6,53.8,126.6,53.4
			L126.6,53.4z"/>
		<path class="st6" d="M126.6,50.2c0-0.4,0.3-0.6,0.6-0.6c0.4,0,0.6,0.3,0.6,0.6c0,0.4-0.3,0.6-0.6,0.6
			C126.9,50.9,126.6,50.6,126.6,50.2L126.6,50.2z"/>
		<path class="st6" d="M127.2,100.5c0-0.4,0.3-0.6,0.6-0.6c0.4,0,0.6,0.3,0.6,0.6c0,0.4-0.3,0.6-0.6,0.6
			C127.5,101.1,127.2,100.9,127.2,100.5L127.2,100.5z"/>
		<path class="st6" d="M127.2,85.2c0-0.4,0.3-0.6,0.6-0.6c0.4,0,0.6,0.3,0.6,0.6c0,0.4-0.3,0.6-0.6,0.6
			C127.5,85.9,127.2,85.6,127.2,85.2L127.2,85.2z"/>
		<path class="st6" d="M127.2,39.4c0-0.4,0.3-0.6,0.6-0.6c0.4,0,0.6,0.3,0.6,0.6s-0.3,0.6-0.6,0.6C127.5,40.1,127.2,39.8,127.2,39.4
			L127.2,39.4z"/>
		<path class="st6" d="M127.2,17.8c0-0.4,0.3-0.6,0.6-0.6c0.4,0,0.6,0.3,0.6,0.6c0,0.4-0.3,0.6-0.6,0.6
			C127.5,18.4,127.2,18.2,127.2,17.8L127.2,17.8z"/>
		<path class="st6" d="M127.9,61.1c0-0.4,0.3-0.6,0.6-0.6c0.4,0,0.6,0.3,0.6,0.6s-0.3,0.6-0.6,0.6C128.2,61.7,127.9,61.4,127.9,61.1
			L127.9,61.1z"/>
		<path class="st6" d="M128.5,108.8c0-0.4,0.3-0.6,0.6-0.6c0.4,0,0.6,0.3,0.6,0.6c0,0.4-0.3,0.6-0.6,0.6
			C128.8,109.4,128.5,109.1,128.5,108.8L128.5,108.8z"/>
		<path class="st6" d="M128.5,63c0-0.4,0.3-0.6,0.6-0.6c0.4,0,0.6,0.3,0.6,0.6c0,0.4-0.3,0.6-0.6,0.6
			C128.8,63.6,128.5,63.3,128.5,63L128.5,63z"/>
		<path class="st6" d="M129.1,117c0-0.4,0.3-0.6,0.6-0.6c0.4,0,0.6,0.3,0.6,0.6c0,0.4-0.3,0.6-0.6,0.6
			C129.4,117.7,129.1,117.4,129.1,117L129.1,117z"/>
		<path class="st6" d="M129.1,80.1c0-0.4,0.3-0.6,0.6-0.6c0.4,0,0.6,0.3,0.6,0.6s-0.3,0.6-0.6,0.6C129.4,80.8,129.1,80.5,129.1,80.1
			L129.1,80.1z"/>
		<path class="st6" d="M129.8,110c0-0.4,0.3-0.6,0.6-0.6c0.4,0,0.6,0.3,0.6,0.6s-0.3,0.6-0.6,0.6C130.1,110.7,129.8,110.4,129.8,110
			L129.8,110z"/>
		<path class="st6" d="M129.8,51.5c0-0.4,0.3-0.6,0.6-0.6c0.4,0,0.6,0.3,0.6,0.6s-0.3,0.6-0.6,0.6C130.1,52.2,129.8,51.9,129.8,51.5
			L129.8,51.5z"/>
		<path class="st6" d="M129.8,88.4c0-0.4,0.3-0.6,0.6-0.6c0.4,0,0.6,0.3,0.6,0.6c0,0.4-0.3,0.6-0.6,0.6
			C130.1,89.1,129.8,88.8,129.8,88.4L129.8,88.4z"/>
		<path class="st6" d="M131,41.3c0-0.4,0.3-0.6,0.6-0.6c0.4,0,0.6,0.3,0.6,0.6S132,42,131.7,42C131.3,42,131,41.7,131,41.3L131,41.3
			z"/>
		<path class="st6" d="M131.7,22.9c0-0.4,0.3-0.6,0.6-0.6c0.4,0,0.6,0.3,0.6,0.6s-0.3,0.6-0.6,0.6C132,23.5,131.7,23.2,131.7,22.9
			L131.7,22.9z"/>
		<path class="st6" d="M131.7,118.3c0-0.4,0.3-0.6,0.6-0.6c0.4,0,0.6,0.3,0.6,0.6s-0.3,0.6-0.6,0.6C132,119,131.7,118.7,131.7,118.3
			L131.7,118.3z"/>
		<path class="st6" d="M132.9,57.9c0-0.4,0.3-0.6,0.6-0.6c0.4,0,0.6,0.3,0.6,0.6c0,0.4-0.3,0.6-0.6,0.6
			C133.2,58.5,132.9,58.2,132.9,57.9L132.9,57.9z"/>
		<path class="st6" d="M133.6,66.2c0-0.4,0.3-0.6,0.6-0.6c0.4,0,0.6,0.3,0.6,0.6s-0.3,0.6-0.6,0.6C133.9,66.8,133.6,66.5,133.6,66.2
			L133.6,66.2z"/>
		<path class="st6" d="M133.6,60.4c0-0.4,0.3-0.6,0.6-0.6c0.4,0,0.6,0.3,0.6,0.6c0,0.4-0.3,0.6-0.6,0.6
			C133.9,61.1,133.6,60.8,133.6,60.4L133.6,60.4z"/>
		<path class="st6" d="M133.6,75.7c0-0.4,0.3-0.6,0.6-0.6c0.4,0,0.6,0.3,0.6,0.6s-0.3,0.6-0.6,0.6C133.9,76.3,133.6,76,133.6,75.7
			L133.6,75.7z"/>
		<path class="st6" d="M134.2,42c0-0.4,0.3-0.6,0.6-0.6c0.4,0,0.6,0.3,0.6,0.6c0,0.4-0.3,0.6-0.6,0.6
			C134.5,42.6,134.2,42.3,134.2,42L134.2,42z"/>
		<path class="st6" d="M134.8,57.2c0-0.4,0.3-0.6,0.6-0.6c0.4,0,0.6,0.3,0.6,0.6c0,0.4-0.3,0.6-0.6,0.6
			C135.1,57.9,134.8,57.6,134.8,57.2L134.8,57.2z"/>
		<path class="st6" d="M134.8,41.3c0-0.4,0.3-0.6,0.6-0.6c0.4,0,0.6,0.3,0.6,0.6s-0.3,0.6-0.6,0.6C135.1,42,134.8,41.7,134.8,41.3
			L134.8,41.3z"/>
		<path class="st6" d="M134.8,70c0-0.4,0.3-0.6,0.6-0.6c0.4,0,0.6,0.3,0.6,0.6c0,0.4-0.3,0.6-0.6,0.6
			C135.1,70.6,134.8,70.3,134.8,70L134.8,70z"/>
		<path class="st6" d="M135.5,52.2c0-0.4,0.3-0.6,0.6-0.6c0.4,0,0.6,0.3,0.6,0.6c0,0.4-0.3,0.6-0.6,0.6
			C135.8,52.8,135.5,52.5,135.5,52.2L135.5,52.2z"/>
		<path class="st6" d="M136.1,87.1c0-0.4,0.3-0.6,0.6-0.6c0.4,0,0.6,0.3,0.6,0.6c0,0.4-0.3,0.6-0.6,0.6
			C136.4,87.8,136.1,87.5,136.1,87.1L136.1,87.1z"/>
		<path class="st6" d="M136.7,59.2c0-0.4,0.3-0.6,0.6-0.6c0.4,0,0.6,0.3,0.6,0.6s-0.3,0.6-0.6,0.6C137,59.8,136.7,59.5,136.7,59.2
			L136.7,59.2z"/>
		<path class="st6" d="M136.7,103.7c0-0.4,0.3-0.6,0.6-0.6c0.4,0,0.6,0.3,0.6,0.6c0,0.4-0.3,0.6-0.6,0.6
			C137,104.3,136.7,104,136.7,103.7L136.7,103.7z"/>
		<path class="st6" d="M137.4,45.8c0-0.4,0.3-0.6,0.6-0.6c0.4,0,0.6,0.3,0.6,0.6s-0.3,0.6-0.6,0.6C137.7,46.4,137.4,46.1,137.4,45.8
			L137.4,45.8z"/>
		<path class="st6" d="M138,45.2c0-0.4,0.3-0.6,0.6-0.6c0.4,0,0.6,0.3,0.6,0.6s-0.3,0.6-0.6,0.6C138.3,45.8,138,45.5,138,45.2
			L138,45.2z"/>
		<path class="st6" d="M138,29.9c0-0.4,0.3-0.6,0.6-0.6c0.4,0,0.6,0.3,0.6,0.6c0,0.4-0.3,0.6-0.6,0.6C138.3,30.5,138,30.2,138,29.9
			L138,29.9z"/>
		<path class="st6" d="M138.6,110.7c0-0.4,0.3-0.6,0.6-0.6c0.4,0,0.6,0.3,0.6,0.6c0,0.4-0.3,0.6-0.6,0.6
			C138.9,111.3,138.6,111,138.6,110.7L138.6,110.7z"/>
		<path class="st6" d="M139.3,112.6c0-0.4,0.3-0.6,0.6-0.6c0.4,0,0.6,0.3,0.6,0.6c0,0.4-0.3,0.6-0.6,0.6
			C139.6,113.2,139.3,112.9,139.3,112.6L139.3,112.6z"/>
		<path class="st6" d="M139.3,106.2c0-0.4,0.3-0.6,0.6-0.6c0.4,0,0.6,0.3,0.6,0.6s-0.3,0.6-0.6,0.6
			C139.6,106.9,139.3,106.6,139.3,106.2L139.3,106.2z"/>
		<path class="st6" d="M139.9,52.8c0-0.4,0.3-0.6,0.6-0.6c0.4,0,0.6,0.3,0.6,0.6s-0.3,0.6-0.6,0.6C140.2,53.4,139.9,53.1,139.9,52.8
			L139.9,52.8z"/>
		<path class="st6" d="M139.9,108.1c0-0.4,0.3-0.6,0.6-0.6c0.4,0,0.6,0.3,0.6,0.6s-0.3,0.6-0.6,0.6
			C140.2,108.8,139.9,108.5,139.9,108.1L139.9,108.1z"/>
		<path class="st6" d="M141.8,56c0-0.4,0.3-0.6,0.6-0.6c0.4,0,0.6,0.3,0.6,0.6c0,0.4-0.3,0.6-0.6,0.6
			C142.1,56.6,141.8,56.3,141.8,56L141.8,56z"/>
		<path class="st6" d="M141.8,31.8c0-0.4,0.3-0.6,0.6-0.6c0.4,0,0.6,0.3,0.6,0.6c0,0.4-0.3,0.6-0.6,0.6
			C142.1,32.4,141.8,32.2,141.8,31.8L141.8,31.8z"/>
		<path class="st6" d="M142.5,63.6c0-0.4,0.3-0.6,0.6-0.6c0.4,0,0.6,0.3,0.6,0.6c0,0.4-0.3,0.6-0.6,0.6
			C142.7,64.2,142.5,64,142.5,63.6L142.5,63.6z"/>
		<path class="st6" d="M142.5,68.1c0-0.4,0.3-0.6,0.6-0.6c0.4,0,0.6,0.3,0.6,0.6s-0.3,0.6-0.6,0.6C142.7,68.7,142.5,68.4,142.5,68.1
			L142.5,68.1z"/>
		<path class="st6" d="M142.5,77c0-0.4,0.3-0.6,0.6-0.6c0.4,0,0.6,0.3,0.6,0.6c0,0.4-0.3,0.6-0.6,0.6
			C142.7,77.6,142.5,77.3,142.5,77L142.5,77z"/>
		<path class="st6" d="M143.1,68.7c0-0.4,0.3-0.6,0.6-0.6c0.4,0,0.6,0.3,0.6,0.6c0,0.4-0.3,0.6-0.6,0.6
			C143.4,69.3,143.1,69.1,143.1,68.7L143.1,68.7z"/>
		<path class="st6" d="M143.7,85.2c0-0.4,0.3-0.6,0.6-0.6c0.4,0,0.6,0.3,0.6,0.6c0,0.4-0.3,0.6-0.6,0.6
			C144,85.9,143.7,85.6,143.7,85.2L143.7,85.2z"/>
		<path class="st6" d="M143.7,52.8c0-0.4,0.3-0.6,0.6-0.6c0.4,0,0.6,0.3,0.6,0.6s-0.3,0.6-0.6,0.6C144,53.4,143.7,53.1,143.7,52.8
			L143.7,52.8z"/>
		<path class="st6" d="M144.4,110.7c0-0.4,0.3-0.6,0.6-0.6c0.4,0,0.6,0.3,0.6,0.6c0,0.4-0.3,0.6-0.6,0.6
			C144.6,111.3,144.4,111,144.4,110.7L144.4,110.7z"/>
		<path class="st6" d="M144.4,105.6c0-0.4,0.3-0.6,0.6-0.6c0.4,0,0.6,0.3,0.6,0.6s-0.3,0.6-0.6,0.6
			C144.6,106.2,144.4,106,144.4,105.6L144.4,105.6z"/>
		<path class="st6" d="M145.6,72.5c0-0.4,0.3-0.6,0.6-0.6c0.4,0,0.6,0.3,0.6,0.6c0,0.4-0.3,0.6-0.6,0.6
			C145.9,73.2,145.6,72.9,145.6,72.5L145.6,72.5z"/>
		<path class="st6" d="M145.6,43.3c0-0.4,0.3-0.6,0.6-0.6c0.4,0,0.6,0.3,0.6,0.6c0,0.4-0.3,0.6-0.6,0.6
			C145.9,43.9,145.6,43.6,145.6,43.3L145.6,43.3z"/>
		<path class="st6" d="M146.3,34.3c0-0.4,0.3-0.6,0.6-0.6c0.4,0,0.6,0.3,0.6,0.6c0,0.4-0.3,0.6-0.6,0.6
			C146.5,35,146.3,34.7,146.3,34.3L146.3,34.3z"/>
		<path class="st6" d="M146.3,38.2c0-0.4,0.3-0.6,0.6-0.6c0.4,0,0.6,0.3,0.6,0.6c0,0.4-0.3,0.6-0.6,0.6
			C146.5,38.8,146.3,38.5,146.3,38.2L146.3,38.2z"/>
		<path class="st6" d="M146.3,92.2c0-0.4,0.3-0.6,0.6-0.6c0.4,0,0.6,0.3,0.6,0.6s-0.3,0.6-0.6,0.6C146.5,92.9,146.3,92.6,146.3,92.2
			L146.3,92.2z"/>
		<path class="st6" d="M146.3,93.5c0-0.4,0.3-0.6,0.6-0.6c0.4,0,0.6,0.3,0.6,0.6s-0.3,0.6-0.6,0.6C146.5,94.1,146.3,93.9,146.3,93.5
			L146.3,93.5z"/>
		<path class="st6" d="M147.5,92.9c0-0.4,0.3-0.6,0.6-0.6c0.4,0,0.6,0.3,0.6,0.6c0,0.4-0.3,0.6-0.6,0.6
			C147.8,93.5,147.5,93.2,147.5,92.9L147.5,92.9z"/>
		<path class="st6" d="M148.2,56.6c0-0.4,0.3-0.6,0.6-0.6c0.4,0,0.6,0.3,0.6,0.6c0,0.4-0.3,0.6-0.6,0.6
			C148.4,57.2,148.2,57,148.2,56.6L148.2,56.6z"/>
		<path class="st6" d="M148.8,78.9c0-0.4,0.3-0.6,0.6-0.6c0.4,0,0.6,0.3,0.6,0.6c0,0.4-0.3,0.6-0.6,0.6
			C149.1,79.5,148.8,79.2,148.8,78.9L148.8,78.9z"/>
		<path class="st6" d="M150.1,76.3c0-0.4,0.3-0.6,0.6-0.6c0.4,0,0.6,0.3,0.6,0.6S151,77,150.7,77C150.3,77,150.1,76.7,150.1,76.3
			L150.1,76.3z"/>
		<path class="st6" d="M151.3,63c0-0.4,0.3-0.6,0.6-0.6c0.4,0,0.6,0.3,0.6,0.6c0,0.4-0.3,0.6-0.6,0.6
			C151.6,63.6,151.3,63.3,151.3,63L151.3,63z"/>
		<path class="st6" d="M151.3,40.7c0-0.4,0.3-0.6,0.6-0.6c0.4,0,0.6,0.3,0.6,0.6s-0.3,0.6-0.6,0.6C151.6,41.3,151.3,41.1,151.3,40.7
			L151.3,40.7z"/>
		<path class="st6" d="M152,96.7c0-0.4,0.3-0.6,0.6-0.6c0.4,0,0.6,0.3,0.6,0.6c0,0.4-0.3,0.6-0.6,0.6C152.2,97.3,152,97,152,96.7
			L152,96.7z"/>
		<path class="st6" d="M152,89.7c0-0.4,0.3-0.6,0.6-0.6c0.4,0,0.6,0.3,0.6,0.6c0,0.4-0.3,0.6-0.6,0.6C152.2,90.3,152,90,152,89.7
			L152,89.7z"/>
		<path class="st6" d="M152.6,35.6c0-0.4,0.3-0.6,0.6-0.6c0.4,0,0.6,0.3,0.6,0.6c0,0.4-0.3,0.6-0.6,0.6
			C152.9,36.3,152.6,36,152.6,35.6L152.6,35.6z"/>
		<path class="st6" d="M152.6,102.4c0-0.4,0.3-0.6,0.6-0.6c0.4,0,0.6,0.3,0.6,0.6c0,0.4-0.3,0.6-0.6,0.6
			C152.9,103.1,152.6,102.8,152.6,102.4L152.6,102.4z"/>
		<path class="st6" d="M152.6,73.8c0-0.4,0.3-0.6,0.6-0.6c0.4,0,0.6,0.3,0.6,0.6s-0.3,0.6-0.6,0.6C152.9,74.4,152.6,74.1,152.6,73.8
			L152.6,73.8z"/>
		<path class="st6" d="M153.9,84.6c0-0.4,0.3-0.6,0.6-0.6c0.4,0,0.6,0.3,0.6,0.6c0,0.4-0.3,0.6-0.6,0.6
			C154.1,85.2,153.9,85,153.9,84.6L153.9,84.6z"/>
		<path class="st6" d="M153.9,40.7c0-0.4,0.3-0.6,0.6-0.6c0.4,0,0.6,0.3,0.6,0.6s-0.3,0.6-0.6,0.6C154.1,41.3,153.9,41.1,153.9,40.7
			L153.9,40.7z"/>
		<path class="st6" d="M154.5,91.6c0-0.4,0.3-0.6,0.6-0.6c0.4,0,0.6,0.3,0.6,0.6s-0.3,0.6-0.6,0.6C154.8,92.2,154.5,92,154.5,91.6
			L154.5,91.6z"/>
		<path class="st6" d="M154.5,101.8c0-0.4,0.3-0.6,0.6-0.6c0.4,0,0.6,0.3,0.6,0.6s-0.3,0.6-0.6,0.6
			C154.8,102.4,154.5,102.1,154.5,101.8L154.5,101.8z"/>
		<path class="st6" d="M155.1,84.6c0-0.4,0.3-0.6,0.6-0.6c0.4,0,0.6,0.3,0.6,0.6c0,0.4-0.3,0.6-0.6,0.6
			C155.4,85.2,155.1,85,155.1,84.6L155.1,84.6z"/>
		<path class="st6" d="M158.9,58.5c0-0.4,0.3-0.6,0.6-0.6c0.4,0,0.6,0.3,0.6,0.6c0,0.4-0.3,0.6-0.6,0.6
			C159.2,59.2,158.9,58.9,158.9,58.5L158.9,58.5z"/>
		<path class="st6" d="M159.6,64.2c0-0.4,0.3-0.6,0.6-0.6c0.4,0,0.6,0.3,0.6,0.6c0,0.4-0.3,0.6-0.6,0.6
			C159.9,64.9,159.6,64.6,159.6,64.2L159.6,64.2z"/>
		<path class="st6" d="M159.6,71.9c0-0.4,0.3-0.6,0.6-0.6c0.4,0,0.6,0.3,0.6,0.6s-0.3,0.6-0.6,0.6C159.9,72.5,159.6,72.2,159.6,71.9
			L159.6,71.9z"/>
		<path class="st6" d="M160.2,62.3c0-0.4,0.3-0.6,0.6-0.6c0.4,0,0.6,0.3,0.6,0.6c0,0.4-0.3,0.6-0.6,0.6
			C160.5,63,160.2,62.7,160.2,62.3L160.2,62.3z"/>
		<path class="st6" d="M161.5,89.1c0-0.4,0.3-0.6,0.6-0.6c0.4,0,0.6,0.3,0.6,0.6c0,0.4-0.3,0.6-0.6,0.6
			C161.8,89.7,161.5,89.4,161.5,89.1L161.5,89.1z"/>
		<path class="st6" d="M161.5,85.2c0-0.4,0.3-0.6,0.6-0.6c0.4,0,0.6,0.3,0.6,0.6c0,0.4-0.3,0.6-0.6,0.6
			C161.8,85.9,161.5,85.6,161.5,85.2L161.5,85.2z"/>
		<path class="st6" d="M161.5,82.7c0-0.4,0.3-0.6,0.6-0.6c0.4,0,0.6,0.3,0.6,0.6c0,0.4-0.3,0.6-0.6,0.6
			C161.8,83.3,161.5,83,161.5,82.7L161.5,82.7z"/>
		<path class="st6" d="M162.1,75.1c0-0.4,0.3-0.6,0.6-0.6c0.4,0,0.6,0.3,0.6,0.6s-0.3,0.6-0.6,0.6C162.4,75.7,162.1,75.4,162.1,75.1
			L162.1,75.1z"/>
		<path class="st6" d="M162.1,87.8c0-0.4,0.3-0.6,0.6-0.6c0.4,0,0.6,0.3,0.6,0.6s-0.3,0.6-0.6,0.6C162.4,88.4,162.1,88.1,162.1,87.8
			L162.1,87.8z"/>
		<path class="st6" d="M162.7,80.8c0-0.4,0.3-0.6,0.6-0.6c0.4,0,0.6,0.3,0.6,0.6c0,0.4-0.3,0.6-0.6,0.6
			C163,81.4,162.7,81.1,162.7,80.8L162.7,80.8z"/>
		<path class="st6" d="M165.3,54.1c0-0.4,0.3-0.6,0.6-0.6c0.4,0,0.6,0.3,0.6,0.6s-0.3,0.6-0.6,0.6C165.6,54.7,165.3,54.4,165.3,54.1
			L165.3,54.1z"/>
		<path class="st6" d="M165.3,66.8c0-0.4,0.3-0.6,0.6-0.6c0.4,0,0.6,0.3,0.6,0.6c0,0.4-0.3,0.6-0.6,0.6
			C165.6,67.4,165.3,67.1,165.3,66.8L165.3,66.8z"/>
	</g>
</g>
</svg>
