<?xml version="1.0" encoding="utf-8"?>
<!-- Generator: Adobe Illustrator 20.0.0, SVG Export Plug-In . SVG Version: 6.00 Build 0)  -->
<svg version="1.1" id="Layer_1" xmlns="http://www.w3.org/2000/svg" xmlns:xlink="http://www.w3.org/1999/xlink" x="0px" y="0px"
	 viewBox="0 0 320 100" style="enable-background:new 0 0 320 100;" xml:space="preserve">
<style type="text/css">
	.st0{fill:none;stroke:#0F8140;stroke-width:0.6328;stroke-linecap:square;stroke-miterlimit:10;}
	.st1{fill:none;stroke:#0F8140;stroke-width:0.6328;stroke-linecap:square;stroke-miterlimit:10;stroke-dasharray:3,3;}
	
		.st2{fill-rule:evenodd;clip-rule:evenodd;fill:#ED2224;stroke:#010101;stroke-width:0;stroke-linecap:square;stroke-miterlimit:10;}
	.st3{enable-background:new    ;}
	.st4{clip-path:url(#SVGID_2_);}
	.st5{fill:#108140;}
	.st6{clip-path:url(#SVGID_4_);}
	.st7{clip-path:url(#SVGID_6_);}
	.st8{font-family:'Myriad-Roman';}
	.st9{font-size:15px;}
</style>
<g>
	<path class="st0" d="M60.3,41.5c5.2,2.1,10,5.1,13.9,9"/>
	<path class="st1" d="M30.8,40.7c4.3-1.4,8.8-2.2,13.6-2.2c5.6,0,10.9,1.1,15.8,3"/>
	<path class="st0" d="M14.5,50.6c4.6-4.4,10.1-7.8,16.3-9.9"/>
	<path class="st2" d="M43.1,38.5c0-0.7,0.6-1.3,1.3-1.3c0.7,0,1.3,0.6,1.3,1.3c0,0.7-0.6,1.3-1.3,1.3C43.7,39.8,43.1,39.2,43.1,38.5
		L43.1,38.5z"/>
	<g>
		<g>
			<g class="st3">
				<defs>
					<polygon id="SVGID_1_" class="st3" points="16.3,46.6 0.8,35.5 72.4,30.5 87.9,41.6 					"/>
				</defs>
				<clipPath id="SVGID_2_">
					<use xlink:href="#SVGID_1_"  style="overflow:visible;"/>
				</clipPath>
				<g class="st4">
					<g>
						<g>
							<g>
								<path class="st5" d="M33.8,41.5L2.6,35.7l52.3-0.1l31.2,5.8L33.8,41.5 M0.8,35.5l32.8,6.1l0.1,0l0-0.1l0,0.1l54.2-0.1
									l-32.8-6.1L0.8,35.5"/>
							</g>
						</g>
					</g>
				</g>
			</g>
		</g>
	</g>
	<path class="st0" d="M74,50.8c0,1.2-13.3,2.3-29.6,2.3s-29.6-1-29.6-2.3"/>
	<path class="st1" d="M14.7,50.8c0-1.2,13.3-2.3,29.6-2.3s29.6,1,29.6,2.3"/>
</g>
<g>
	<path class="st1" d="M154.3,44.1c0.2-6.6,1.7-11.7,3.5-11.7c1.9,0,3.5,5.9,3.5,13.2c0,1.3,0,2.6-0.1,3.7"/>
	<path class="st0" d="M117.1,15.7c0,0,19.9,16.5,40,16.5c20.4,0,41-16.5,41-16.5"/>
	<path class="st0" d="M189,52.9c0-21,5-38,11.2-38s11.2,17,11.2,38c0,5.1-0.3,9.9-0.8,14.4"/>
	<path class="st0" d="M124.3,33.7c0.9,5.5,1.4,11.9,1.4,18.7c0,5.1-0.3,9.9-0.8,14.4"/>
	<path class="st0" d="M124.1,32.4c0.1,0.4,0.2,0.9,0.2,1.3"/>
	<path class="st0" d="M103.5,52.4c0-21,5-38,11.2-38c4,0,7.5,7.2,9.5,18"/>
	<path class="st2" d="M156.4,32.4c0-0.7,0.6-1.3,1.3-1.3c0.7,0,1.3,0.6,1.3,1.3c0,0.7-0.6,1.3-1.3,1.3
		C156.9,33.7,156.4,33.1,156.4,32.4L156.4,32.4z"/>
	<g>
		<g>
			<g class="st3">
				<defs>
					<polygon id="SVGID_3_" class="st3" points="129.7,40.7 114.2,29.6 185.8,24.6 201.3,35.7 					"/>
				</defs>
				<clipPath id="SVGID_4_">
					<use xlink:href="#SVGID_3_"  style="overflow:visible;"/>
				</clipPath>
				<g class="st6">
					<g>
						<g>
							<g>
								<path class="st5" d="M147.2,35.6L116,29.8l52.3-0.1l31.2,5.8L147.2,35.6 M114.2,29.6l32.8,6.1l0.1,0l0-0.1l0,0.1l54.2-0.1
									l-32.8-6.1L114.2,29.6"/>
							</g>
						</g>
					</g>
				</g>
			</g>
		</g>
	</g>
</g>
<g>
	<path class="st1" d="M314.9,71.5c-2.3,0-4.1-9.5-4.1-21.3c0-11.8,1.8-21.3,4.1-21.3"/>
	<path class="st0" d="M314.9,28.9c2.3,0,4.1,9.5,4.1,21.3c0,11.8-1.8,21.3-4.1,21.3"/>
	<g>
		<ellipse class="st0" cx="240.8" cy="50.2" rx="4.1" ry="21.3"/>
		<line class="st0" x1="240.9" y1="28.9" x2="315" y2="28.9"/>
		<line class="st0" x1="240.9" y1="71.4" x2="315" y2="71.4"/>
		<g>
			<g>
				<g class="st3">
					<defs>
						<polygon id="SVGID_5_" class="st3" points="249.3,36.5 233.8,25.5 305.4,20.5 320.9,31.5 						"/>
					</defs>
					<clipPath id="SVGID_6_">
						<use xlink:href="#SVGID_5_"  style="overflow:visible;"/>
					</clipPath>
					<g class="st7">
						<g>
							<g>
								<g>
									<path class="st5" d="M266.8,31.4l-31.2-5.8l52.3-0.1l31.2,5.8L266.8,31.4 M233.8,25.5l32.8,6.1l0.1,0l0-0.1l0,0.1l54.2-0.1
										l-32.8-6.1L233.8,25.5"/>
								</g>
							</g>
						</g>
					</g>
				</g>
			</g>
		</g>
		<path class="st2" d="M277.1,29.2c0-0.7,0.6-1.3,1.3-1.3c0.7,0,1.3,0.6,1.3,1.3c0,0.7-0.6,1.3-1.3,1.3
			C277.6,30.4,277.1,29.9,277.1,29.2L277.1,29.2z"/>
	</g>
</g>
<text transform="matrix(1 0 0 1 36.4951 92.667)" class="st8 st9">(a)</text>
<text transform="matrix(1 0 0 1 148.8438 92.667)" class="st8 st9">(b)</text>
<text transform="matrix(1 0 0 1 270.2373 92.667)" class="st8 st9">(c)</text>
</svg>
