<?xml version="1.0" encoding="UTF-8"?>
<svg xmlns="http://www.w3.org/2000/svg" xmlns:xlink="http://www.w3.org/1999/xlink" width="159pt" height="65pt" viewBox="0 0 159 65" version="1.1">
<g id="surface1">
<path style="fill:none;stroke-width:0.3985;stroke-linecap:butt;stroke-linejoin:miter;stroke:rgb(0%,0%,0%);stroke-opacity:1;stroke-miterlimit:10;" d="M -63.786719 -21.263156 L -63.786719 21.264187 " transform="matrix(1,0,0,-1,64.4,43.522)"/>
<path style="fill:none;stroke-width:0.3985;stroke-linecap:butt;stroke-linejoin:miter;stroke:rgb(0%,0%,0%);stroke-opacity:1;stroke-miterlimit:10;" d="M -63.786719 21.264187 L -29.767188 42.525906 " transform="matrix(1,0,0,-1,64.4,43.522)"/>
<path style="fill:none;stroke-width:0.3985;stroke-linecap:butt;stroke-linejoin:miter;stroke:rgb(0%,0%,0%);stroke-opacity:1;stroke-miterlimit:10;" d="M 63.7875 -21.263156 L -63.786719 -21.263156 " transform="matrix(1,0,0,-1,64.4,43.522)"/>
<path style="fill:none;stroke-width:0.3985;stroke-linecap:butt;stroke-linejoin:miter;stroke:rgb(0%,0%,0%);stroke-opacity:1;stroke-miterlimit:10;" d="M -63.786719 21.264187 L 63.7875 21.264187 L 63.7875 -21.263156 " transform="matrix(1,0,0,-1,64.4,43.522)"/>
<path style="fill:none;stroke-width:0.3985;stroke-linecap:butt;stroke-linejoin:miter;stroke:rgb(0%,0%,0%);stroke-opacity:1;stroke-miterlimit:10;" d="M -63.786719 21.264187 L -29.767188 42.525906 L 93.557031 42.525906 L 93.557031 -0.0014375 L 63.7875 -21.263156 M 63.7875 21.264187 L 93.557031 42.525906 " transform="matrix(1,0,0,-1,64.4,43.522)"/>
<path style="fill:none;stroke-width:0.3985;stroke-linecap:butt;stroke-linejoin:miter;stroke:rgb(0%,0%,0%);stroke-opacity:1;stroke-dasharray:2.98883,2.98883;stroke-miterlimit:10;" d="M -63.786719 -21.263156 L -29.767188 -0.0014375 L 93.557031 -0.0014375 M -29.767188 -0.0014375 L -29.767188 42.525906 " transform="matrix(1,0,0,-1,64.4,43.522)"/>
<path style="fill:none;stroke-width:0.3985;stroke-linecap:butt;stroke-linejoin:miter;stroke:rgb(0%,0%,0%);stroke-opacity:1;stroke-miterlimit:10;" d="M 51.025781 -14.88425 L 51.025781 -10.630344 L 57.400781 -10.630344 L 57.400781 -14.88425 Z M 51.025781 -14.88425 " transform="matrix(1,0,0,-1,64.4,43.522)"/>
<path style="fill:none;stroke-width:0.3985;stroke-linecap:butt;stroke-linejoin:miter;stroke:rgb(0%,0%,0%);stroke-opacity:1;stroke-miterlimit:10;" d="M 80.7875 6.377469 L 80.7875 10.631375 L 87.166406 10.631375 L 87.166406 6.377469 Z M 80.7875 6.377469 " transform="matrix(1,0,0,-1,64.4,43.522)"/>
<path style="fill:none;stroke-width:0.3985;stroke-linecap:butt;stroke-linejoin:miter;stroke:rgb(0%,0%,0%);stroke-opacity:1;stroke-miterlimit:10;" d="M -59.528906 12.756375 L -59.528906 17.006375 L -56.126563 19.135281 Z M -59.528906 12.756375 " transform="matrix(1,0,0,-1,64.4,43.522)"/>
<path style="fill:none;stroke-width:0.3985;stroke-linecap:butt;stroke-linejoin:miter;stroke:rgb(0%,0%,0%);stroke-opacity:1;stroke-miterlimit:10;" d="M 68.033594 12.756375 L 68.033594 17.006375 L 71.432031 19.135281 Z M 68.033594 12.756375 " transform="matrix(1,0,0,-1,64.4,43.522)"/>
<path style="fill:none;stroke-width:0.3985;stroke-linecap:butt;stroke-linejoin:miter;stroke:rgb(0%,0%,0%);stroke-opacity:1;stroke-miterlimit:10;" d="M -17.857031 40.393094 C -19.61875 40.674344 -22.571875 39.951687 -24.450781 38.779812 C -26.325781 37.604031 -26.423438 36.424344 -24.661719 36.143094 C -22.9 35.861844 -19.950781 36.5845 -18.071875 37.756375 C -16.192969 38.932156 -16.095313 40.111844 -17.857031 40.393094 Z M -17.857031 40.393094 " transform="matrix(1,0,0,-1,64.4,43.522)"/>
<path style="fill:none;stroke-width:0.3985;stroke-linecap:butt;stroke-linejoin:miter;stroke:rgb(0%,0%,0%);stroke-opacity:1;stroke-miterlimit:10;" d="M -17.857031 -2.126438 C -19.61875 -1.845188 -22.571875 -2.567844 -24.450781 -3.743625 C -26.325781 -4.9155 -26.423438 -6.095188 -24.661719 -6.376438 C -22.9 -6.661594 -19.950781 -5.935031 -18.071875 -4.763156 C -16.192969 -3.587375 -16.095313 -2.407688 -17.857031 -2.126438 Z M -17.857031 -2.126438 " transform="matrix(1,0,0,-1,64.4,43.522)"/>
</g>
</svg>
