<?xml version="1.0" encoding="UTF-8"?>
<svg xmlns="http://www.w3.org/2000/svg" xmlns:xlink="http://www.w3.org/1999/xlink" width="129pt" height="78pt" viewBox="0 0 129 78" version="1.1">
<g id="surface1">
<path style="fill:none;stroke-width:0.3985;stroke-linecap:butt;stroke-linejoin:miter;stroke:rgb(0%,0%,0%);stroke-opacity:1;stroke-miterlimit:10;" d="M 0.00028125 0.00075 L 0.00028125 76.535906 L 127.558875 76.535906 L 127.558875 0.00075 Z M 0.00028125 0.00075 " transform="matrix(1,0,0,-1,0.613,77.532)"/>
<path style="fill:none;stroke-width:0.3985;stroke-linecap:butt;stroke-linejoin:miter;stroke:rgb(0%,0%,0%);stroke-opacity:1;stroke-miterlimit:10;" d="M 63.781531 0.00075 L 66.332313 3.824969 L 73.984656 2.551531 L 73.984656 0.00075 " transform="matrix(1,0,0,-1,0.613,77.532)"/>
<path style="fill:none;stroke-width:0.3985;stroke-linecap:butt;stroke-linejoin:miter;stroke:rgb(0%,0%,0%);stroke-opacity:1;stroke-miterlimit:10;" d="M 63.781531 76.535906 L 63.781531 73.985125 L 71.433875 71.434344 L 73.984656 76.535906 " transform="matrix(1,0,0,-1,0.613,77.532)"/>
<path style="fill:none;stroke-width:0.3985;stroke-linecap:butt;stroke-linejoin:miter;stroke:rgb(0%,0%,0%);stroke-opacity:1;stroke-miterlimit:10;" d="M 51.023719 42.0945 L 52.301063 44.645281 L 51.023719 47.196063 L 58.676063 44.645281 Z M 51.023719 42.0945 " transform="matrix(1,0,0,-1,0.613,77.532)"/>
<path style="fill:none;stroke-width:0.3985;stroke-linecap:butt;stroke-linejoin:miter;stroke:rgb(0%,0%,0%);stroke-opacity:1;stroke-dasharray:0.3985,1.99255;stroke-miterlimit:10;" d="M 59.953406 44.645281 L 80.363563 44.645281 " transform="matrix(1,0,0,-1,0.613,77.532)"/>
<path style="fill:none;stroke-width:0.3985;stroke-linecap:butt;stroke-linejoin:miter;stroke:rgb(0%,0%,0%);stroke-opacity:1;stroke-miterlimit:10;" d="M 81.637 44.645281 L 84.187781 40.821063 L 89.29325 38.266375 L 91.844031 45.922625 L 89.29325 48.473406 L 86.738563 48.473406 Z M 81.637 44.645281 " transform="matrix(1,0,0,-1,0.613,77.532)"/>
<path style="fill:none;stroke-width:0.3985;stroke-linecap:butt;stroke-linejoin:miter;stroke:rgb(0%,0%,0%);stroke-opacity:1;stroke-miterlimit:10;" d="M 102.047156 17.860125 L 104.597938 20.410906 L 102.047156 22.961688 L 96.945594 21.684344 L 99.496375 19.133563 Z M 102.047156 17.860125 " transform="matrix(1,0,0,-1,0.613,77.532)"/>
<path style="fill:none;stroke-width:0.3985;stroke-linecap:butt;stroke-linejoin:miter;stroke:rgb(0%,0%,0%);stroke-opacity:1;stroke-miterlimit:10;" d="M 22.961219 33.164813 L 26.785438 31.891375 L 29.340125 35.715594 L 25.512 38.266375 L 21.683875 35.715594 Z M 22.961219 33.164813 " transform="matrix(1,0,0,-1,0.613,77.532)"/>
<path style="fill:none;stroke-width:0.3985;stroke-linecap:butt;stroke-linejoin:miter;stroke:rgb(0%,0%,0%);stroke-opacity:1;stroke-miterlimit:10;" d="M 0.00028125 68.883563 L 2.551063 68.883563 L 3.828406 71.434344 L 2.551063 72.707781 L 0.00028125 73.985125 " transform="matrix(1,0,0,-1,0.613,77.532)"/>
<path style="fill:none;stroke-width:0.3985;stroke-linecap:butt;stroke-linejoin:miter;stroke:rgb(0%,0%,0%);stroke-opacity:1;stroke-miterlimit:10;" d="M 127.558875 68.883563 L 126.285438 68.883563 L 123.734656 72.707781 L 127.558875 73.985125 " transform="matrix(1,0,0,-1,0.613,77.532)"/>
</g>
</svg>
