<?xml version="1.0" encoding="UTF-8"?>
<svg xmlns="http://www.w3.org/2000/svg" xmlns:xlink="http://www.w3.org/1999/xlink" width="81pt" height="82pt" viewBox="0 0 81 82" version="1.1">
<g id="surface1">
<path style="fill:none;stroke-width:0.3985;stroke-linecap:butt;stroke-linejoin:miter;stroke:rgb(0%,0%,0%);stroke-opacity:1;stroke-miterlimit:10;" d="M 39.683469 0.00009375 C 39.683469 21.918063 21.917844 39.683688 -0.000125 39.683688 C -21.918094 39.683688 -39.683719 21.918063 -39.683719 0.00009375 C -39.683719 -21.917875 -21.918094 -39.6835 -0.000125 -39.6835 C 21.917844 -39.6835 39.683469 -21.917875 39.683469 0.00009375 Z M -39.683719 0.00009375 C -39.683719 -3.288969 -21.918094 -5.953031 -0.000125 -5.953031 C 21.917844 -5.953031 39.683469 -3.288969 39.683469 0.00009375 " transform="matrix(1,0,0,-1,40.297,41.879)"/>
<path style="fill-rule:nonzero;fill:rgb(89.99939%,89.99939%,100%);fill-opacity:1;stroke-width:0.79701;stroke-linecap:butt;stroke-linejoin:miter;stroke:rgb(0%,0%,0%);stroke-opacity:1;stroke-miterlimit:10;" d="M -0.000125 39.683688 C -9.214969 39.683688 -17.730594 32.082125 -22.339969 19.742281 C -25.062625 12.449313 -26.222781 4.007906 -25.652469 -4.367094 C -14.550906 -6.222562 0.742063 -6.730375 14.277219 -5.695219 C 16.062375 14.664156 9.804563 34.402438 -0.129031 39.754 " transform="matrix(1,0,0,-1,40.297,41.879)"/>
<path style="fill:none;stroke-width:0.3985;stroke-linecap:butt;stroke-linejoin:miter;stroke:rgb(0%,0%,0%);stroke-opacity:1;stroke-dasharray:2.98883,2.98883;stroke-miterlimit:10;" d="M 39.683469 0.00009375 C 39.683469 4.382906 21.917844 7.937594 -0.000125 7.937594 C -21.918094 7.937594 -39.683719 4.382906 -39.683719 0.00009375 " transform="matrix(1,0,0,-1,40.297,41.879)"/>
<path style="fill-rule:nonzero;fill:rgb(100%,0%,0%);fill-opacity:1;stroke-width:0.3985;stroke-linecap:butt;stroke-linejoin:miter;stroke:rgb(0%,0%,0%);stroke-opacity:1;stroke-miterlimit:10;" d="M 1.195188 39.687594 C 1.195188 40.34775 0.660031 40.882906 -0.000125 40.882906 C -0.660281 40.882906 -1.195437 40.34775 -1.195437 39.687594 C -1.195437 39.027438 -0.660281 38.492281 -0.000125 38.492281 C 0.660031 38.492281 1.195188 39.027438 1.195188 39.687594 Z M 1.195188 39.687594 " transform="matrix(1,0,0,-1,40.297,41.879)"/>
<path style="fill-rule:nonzero;fill:rgb(100%,0%,0%);fill-opacity:1;stroke-width:0.3985;stroke-linecap:butt;stroke-linejoin:miter;stroke:rgb(0%,0%,0%);stroke-opacity:1;stroke-miterlimit:10;" d="M -24.207156 -4.480375 C -24.207156 -3.820219 -24.742312 -3.285062 -25.402469 -3.285062 C -26.066531 -3.285062 -26.601687 -3.820219 -26.601687 -4.480375 C -26.601687 -5.140531 -26.066531 -5.675687 -25.402469 -5.675687 C -24.742312 -5.675687 -24.207156 -5.140531 -24.207156 -4.480375 Z M -24.207156 -4.480375 " transform="matrix(1,0,0,-1,40.297,41.879)"/>
<path style="fill-rule:nonzero;fill:rgb(100%,0%,0%);fill-opacity:1;stroke-width:0.3985;stroke-linecap:butt;stroke-linejoin:miter;stroke:rgb(0%,0%,0%);stroke-opacity:1;stroke-miterlimit:10;" d="M 15.54675 -5.796781 C 15.54675 -5.136625 15.011594 -4.601469 14.351438 -4.601469 C 13.691281 -4.601469 13.156125 -5.136625 13.156125 -5.796781 C 13.156125 -6.456937 13.691281 -6.992094 14.351438 -6.992094 C 15.011594 -6.992094 15.54675 -6.456937 15.54675 -5.796781 Z M 15.54675 -5.796781 " transform="matrix(1,0,0,-1,40.297,41.879)"/>
</g>
</svg>
