<?xml version="1.0" encoding="UTF-8"?>
<svg xmlns="http://www.w3.org/2000/svg" xmlns:xlink="http://www.w3.org/1999/xlink" width="217pt" height="92pt" viewBox="0 0 217 92" version="1.1">
<g id="surface1">
<path style="fill:none;stroke-width:0.3985;stroke-linecap:butt;stroke-linejoin:miter;stroke:rgb(0%,0%,0%);stroke-opacity:1;stroke-miterlimit:10;" d="M 45.353312 0.0004375 C 45.353312 25.047312 25.048625 45.355906 0.00175 45.355906 C -25.049031 45.355906 -45.353719 25.047312 -45.353719 0.0004375 C -45.353719 -25.050344 -25.049031 -45.355031 0.00175 -45.355031 C 25.048625 -45.355031 45.353312 -25.050344 45.353312 0.0004375 Z M -45.353719 0.0004375 C -45.353719 -5.011281 -25.049031 -9.069875 0.00175 -9.069875 C 25.048625 -9.069875 45.353312 -5.011281 45.353312 0.0004375 " transform="matrix(1,0,0,-1,45.967,46.352)"/>
<path style="fill:none;stroke-width:0.3985;stroke-linecap:butt;stroke-linejoin:miter;stroke:rgb(0%,0%,0%);stroke-opacity:1;stroke-dasharray:2.98883,2.98883;stroke-miterlimit:10;" d="M 45.353312 0.0004375 C 45.353312 5.00825 25.048625 9.07075 0.00175 9.07075 C -25.049031 9.07075 -45.353719 5.00825 -45.353719 0.0004375 " transform="matrix(1,0,0,-1,45.967,46.352)"/>
<path style="fill-rule:nonzero;fill:rgb(94.999695%,94.999695%,94.999695%);fill-opacity:1;stroke-width:0.3985;stroke-linecap:butt;stroke-linejoin:miter;stroke:rgb(0%,0%,0%);stroke-opacity:1;stroke-miterlimit:10;" d="M -4.283406 12.269969 C -3.416219 17.203562 -5.908406 21.766062 -9.857625 22.461375 C -13.802938 23.156687 -17.709188 19.723094 -18.576375 14.7895 C -19.447469 9.855906 -16.951375 5.293406 -13.006063 4.594187 C -9.06075 3.898875 -5.1545 7.336375 -4.283406 12.269969 Z M -4.283406 12.269969 " transform="matrix(1,0,0,-1,45.967,46.352)"/>
<path style="fill:none;stroke-width:0.3985;stroke-linecap:butt;stroke-linejoin:miter;stroke:rgb(0%,0%,0%);stroke-opacity:1;stroke-miterlimit:10;" d="M 170.079875 0.0004375 C 170.079875 12.523875 144.700969 22.676219 113.388469 22.676219 C 82.075969 22.676219 56.693156 12.523875 56.693156 0.0004375 C 56.693156 -12.523 82.075969 -22.67925 113.388469 -22.67925 C 144.700969 -22.67925 170.079875 -12.523 170.079875 0.0004375 Z M 170.079875 0.0004375 " transform="matrix(1,0,0,-1,45.967,46.352)"/>
<path style="fill:none;stroke-width:0.3985;stroke-linecap:butt;stroke-linejoin:miter;stroke:rgb(0%,0%,0%);stroke-opacity:1;stroke-miterlimit:10;" d="M 79.372844 1.586375 C 79.372844 -2.171438 94.599406 -5.214406 113.388469 -5.214406 C 132.173625 -5.214406 147.404094 -2.171438 147.404094 1.586375 " transform="matrix(1,0,0,-1,45.967,46.352)"/>
<path style="fill:none;stroke-width:0.3985;stroke-linecap:butt;stroke-linejoin:miter;stroke:rgb(0%,0%,0%);stroke-opacity:1;stroke-miterlimit:10;" d="M 140.599406 -2.269094 C 140.599406 1.488719 128.415812 4.535594 113.388469 4.535594 C 98.357219 4.535594 86.173625 1.488719 86.173625 -2.269094 " transform="matrix(1,0,0,-1,45.967,46.352)"/>
<path style="fill:none;stroke-width:0.3985;stroke-linecap:butt;stroke-linejoin:miter;stroke:rgb(0%,0%,0%);stroke-opacity:1;stroke-miterlimit:10;" d="M 113.388469 -5.214406 C 112.134562 -5.214406 111.118937 -9.073781 111.118937 -13.831594 C 111.118937 -18.593313 112.134562 -22.452688 113.388469 -22.452688 " transform="matrix(1,0,0,-1,45.967,46.352)"/>
<path style="fill:none;stroke-width:0.3985;stroke-linecap:butt;stroke-linejoin:miter;stroke:rgb(0%,0%,0%);stroke-opacity:1;stroke-dasharray:2.98883,2.98883;stroke-miterlimit:10;" d="M 113.388469 -5.214406 C 114.638469 -5.214406 115.654094 -9.073781 115.654094 -13.831594 C 115.654094 -18.593313 114.638469 -22.452688 113.388469 -22.452688 " transform="matrix(1,0,0,-1,45.967,46.352)"/>
</g>
</svg>
