<?xml version="1.0" encoding="UTF-8"?>
<svg xmlns="http://www.w3.org/2000/svg" xmlns:xlink="http://www.w3.org/1999/xlink" width="180pt" height="82pt" viewBox="0 0 180 82" version="1.1">
<g id="surface1">
<path style="fill:none;stroke-width:0.59776;stroke-linecap:butt;stroke-linejoin:miter;stroke:rgb(0%,0%,0%);stroke-opacity:1;stroke-miterlimit:10;" d="M 39.687937 0.00009375 C 39.687937 21.918063 21.918406 39.687594 0.0004375 39.687594 C -21.917531 39.687594 -39.687063 21.918063 -39.687063 0.00009375 C -39.687063 -21.917875 -21.917531 -39.687406 0.0004375 -39.687406 C 21.918406 -39.687406 39.687937 -21.917875 39.687937 0.00009375 Z M 39.687937 0.00009375 " transform="matrix(1,0,0,-1,40.398,41.879)"/>
<path style="fill-rule:nonzero;fill:rgb(50%,50%,50%);fill-opacity:1;stroke-width:0.3985;stroke-linecap:butt;stroke-linejoin:miter;stroke:rgb(0%,0%,0%);stroke-opacity:1;stroke-miterlimit:10;" d="M 1.19575 39.687594 C 1.19575 40.34775 0.660594 40.882906 0.0004375 40.882906 C -0.659719 40.882906 -1.194875 40.34775 -1.194875 39.687594 C -1.194875 39.027438 -0.659719 38.492281 0.0004375 38.492281 C 0.660594 38.492281 1.19575 39.027438 1.19575 39.687594 Z M 1.19575 39.687594 " transform="matrix(1,0,0,-1,40.398,41.879)"/>
<path style="fill:none;stroke-width:0.3985;stroke-linecap:butt;stroke-linejoin:miter;stroke:rgb(0%,0%,0%);stroke-opacity:1;stroke-miterlimit:10;" d="M 11.906687 25.796969 C 11.906687 27.988375 10.129344 29.765719 7.937937 29.765719 C 5.746531 29.765719 3.969187 27.988375 3.969187 25.796969 C 3.969187 23.605563 5.746531 21.828219 7.937937 21.828219 C 10.129344 21.828219 11.906687 23.605563 11.906687 25.796969 Z M 11.906687 25.796969 " transform="matrix(1,0,0,-1,40.398,41.879)"/>
<path style="fill:none;stroke-width:0.3985;stroke-linecap:butt;stroke-linejoin:miter;stroke:rgb(0%,0%,0%);stroke-opacity:1;stroke-miterlimit:10;" d="M -3.968313 25.796969 C -3.968313 27.988375 -5.745656 29.765719 -7.937063 29.765719 C -10.128469 29.765719 -11.905813 27.988375 -11.905813 25.796969 C -11.905813 23.605563 -10.128469 21.828219 -7.937063 21.828219 C -5.745656 21.828219 -3.968313 23.605563 -3.968313 25.796969 Z M -3.968313 25.796969 " transform="matrix(1,0,0,-1,40.398,41.879)"/>
<path style="fill:none;stroke-width:0.3985;stroke-linecap:butt;stroke-linejoin:miter;stroke:rgb(0%,0%,0%);stroke-opacity:1;stroke-miterlimit:10;" d="M -3.968313 9.921969 C -3.523 6.351656 -1.983938 -5.953031 0.0004375 -5.953031 C 2.977 -5.953031 5.281687 -4.413969 5.953562 -3.968656 " transform="matrix(1,0,0,-1,40.398,41.879)"/>
<path style="fill:none;stroke-width:0.3985;stroke-linecap:butt;stroke-linejoin:miter;stroke:rgb(0%,0%,0%);stroke-opacity:1;stroke-miterlimit:10;" d="M -13.890188 -19.843656 C -4.507375 -25.261625 4.50825 -25.261625 13.891062 -19.843656 " transform="matrix(1,0,0,-1,40.398,41.879)"/>
<path style="fill-rule:nonzero;fill:rgb(50%,50%,50%);fill-opacity:1;stroke-width:0.3985;stroke-linecap:butt;stroke-linejoin:miter;stroke:rgb(0%,0%,0%);stroke-opacity:1;stroke-miterlimit:10;" d="M 1.19575 39.687594 C 1.19575 40.34775 0.660594 40.882906 0.0004375 40.882906 C -0.659719 40.882906 -1.194875 40.34775 -1.194875 39.687594 C -1.194875 39.027438 -0.659719 38.492281 0.0004375 38.492281 C 0.660594 38.492281 1.19575 39.027438 1.19575 39.687594 Z M 1.19575 39.687594 " transform="matrix(1,0,0,-1,40.398,41.879)"/>
<path style="fill-rule:nonzero;fill:rgb(50%,50%,50%);fill-opacity:1;stroke-width:0.3985;stroke-linecap:butt;stroke-linejoin:miter;stroke:rgb(0%,0%,0%);stroke-opacity:1;stroke-miterlimit:10;" d="M 9.13325 29.765719 C 9.13325 30.425875 8.598094 30.961031 7.937937 30.961031 C 7.277781 30.961031 6.742625 30.425875 6.742625 29.765719 C 6.742625 29.105563 7.277781 28.570406 7.937937 28.570406 C 8.598094 28.570406 9.13325 29.105563 9.13325 29.765719 Z M 9.13325 29.765719 " transform="matrix(1,0,0,-1,40.398,41.879)"/>
<path style="fill-rule:nonzero;fill:rgb(50%,50%,50%);fill-opacity:1;stroke-width:0.3985;stroke-linecap:butt;stroke-linejoin:miter;stroke:rgb(0%,0%,0%);stroke-opacity:1;stroke-miterlimit:10;" d="M -6.74175 29.765719 C -6.74175 30.425875 -7.276906 30.961031 -7.937063 30.961031 C -8.597219 30.961031 -9.132375 30.425875 -9.132375 29.765719 C -9.132375 29.105563 -8.597219 28.570406 -7.937063 28.570406 C -7.276906 28.570406 -6.74175 29.105563 -6.74175 29.765719 Z M -6.74175 29.765719 " transform="matrix(1,0,0,-1,40.398,41.879)"/>
<path style="fill-rule:nonzero;fill:rgb(50%,50%,50%);fill-opacity:1;stroke-width:0.3985;stroke-linecap:butt;stroke-linejoin:miter;stroke:rgb(0%,0%,0%);stroke-opacity:1;stroke-miterlimit:10;" d="M -2.773 9.921969 C -2.773 10.582125 -3.308156 11.117281 -3.968313 11.117281 C -4.628469 11.117281 -5.163625 10.582125 -5.163625 9.921969 C -5.163625 9.261813 -4.628469 8.726656 -3.968313 8.726656 C -3.308156 8.726656 -2.773 9.261813 -2.773 9.921969 Z M -2.773 9.921969 " transform="matrix(1,0,0,-1,40.398,41.879)"/>
<path style="fill-rule:nonzero;fill:rgb(50%,50%,50%);fill-opacity:1;stroke-width:0.3985;stroke-linecap:butt;stroke-linejoin:miter;stroke:rgb(0%,0%,0%);stroke-opacity:1;stroke-miterlimit:10;" d="M 7.148875 -3.968656 C 7.148875 -3.3085 6.613719 -2.773344 5.953562 -2.773344 C 5.293406 -2.773344 4.75825 -3.3085 4.75825 -3.968656 C 4.75825 -4.628812 5.293406 -5.163969 5.953562 -5.163969 C 6.613719 -5.163969 7.148875 -4.628812 7.148875 -3.968656 Z M 7.148875 -3.968656 " transform="matrix(1,0,0,-1,40.398,41.879)"/>
<path style="fill-rule:nonzero;fill:rgb(50%,50%,50%);fill-opacity:1;stroke-width:0.3985;stroke-linecap:butt;stroke-linejoin:miter;stroke:rgb(0%,0%,0%);stroke-opacity:1;stroke-miterlimit:10;" d="M -12.694875 -19.843656 C -12.694875 -19.1835 -13.230031 -18.648344 -13.890188 -18.648344 C -14.550344 -18.648344 -15.0855 -19.1835 -15.0855 -19.843656 C -15.0855 -20.503812 -14.550344 -21.038969 -13.890188 -21.038969 C -13.230031 -21.038969 -12.694875 -20.503812 -12.694875 -19.843656 Z M -12.694875 -19.843656 " transform="matrix(1,0,0,-1,40.398,41.879)"/>
<path style="fill-rule:nonzero;fill:rgb(50%,50%,50%);fill-opacity:1;stroke-width:0.3985;stroke-linecap:butt;stroke-linejoin:miter;stroke:rgb(0%,0%,0%);stroke-opacity:1;stroke-miterlimit:10;" d="M 15.086375 -19.843656 C 15.086375 -19.1835 14.551219 -18.648344 13.891062 -18.648344 C 13.230906 -18.648344 12.69575 -19.1835 12.69575 -19.843656 C 12.69575 -20.503812 13.230906 -21.038969 13.891062 -21.038969 C 14.551219 -21.038969 15.086375 -20.503812 15.086375 -19.843656 Z M 15.086375 -19.843656 " transform="matrix(1,0,0,-1,40.398,41.879)"/>
<path style="fill:none;stroke-width:0.3985;stroke-linecap:butt;stroke-linejoin:miter;stroke:rgb(0%,0%,0%);stroke-opacity:1;stroke-miterlimit:10;" d="M 138.898875 0.00009375 C 138.898875 21.918063 121.13325 39.683688 99.215281 39.683688 C 77.297312 39.683688 59.527781 21.918063 59.527781 0.00009375 C 59.527781 -21.917875 77.297312 -39.6835 99.215281 -39.6835 C 121.13325 -39.6835 138.898875 -21.917875 138.898875 0.00009375 Z M 59.527781 0.00009375 C 59.527781 -4.382719 77.297312 -7.937406 99.215281 -7.937406 C 121.13325 -7.937406 138.898875 -4.382719 138.898875 0.00009375 " transform="matrix(1,0,0,-1,40.398,41.879)"/>
<path style="fill:none;stroke-width:0.3985;stroke-linecap:butt;stroke-linejoin:miter;stroke:rgb(0%,0%,0%);stroke-opacity:1;stroke-dasharray:2.98883,2.98883;stroke-miterlimit:10;" d="M 138.898875 0.00009375 C 138.898875 4.382906 121.13325 7.937594 99.215281 7.937594 C 77.297312 7.937594 59.527781 4.382906 59.527781 0.00009375 " transform="matrix(1,0,0,-1,40.398,41.879)"/>
<path style="fill-rule:nonzero;fill:rgb(50%,50%,50%);fill-opacity:1;stroke-width:0.3985;stroke-linecap:butt;stroke-linejoin:miter;stroke:rgb(0%,0%,0%);stroke-opacity:1;stroke-miterlimit:10;" d="M 100.410594 39.687594 C 100.410594 40.34775 99.875437 40.882906 99.215281 40.882906 C 98.551219 40.882906 98.016062 40.34775 98.016062 39.687594 C 98.016062 39.027438 98.551219 38.492281 99.215281 38.492281 C 99.875437 38.492281 100.410594 39.027438 100.410594 39.687594 Z M 100.410594 39.687594 " transform="matrix(1,0,0,-1,40.398,41.879)"/>
</g>
</svg>
