<?xml version="1.0" encoding="UTF-8"?>
<svg xmlns="http://www.w3.org/2000/svg" xmlns:xlink="http://www.w3.org/1999/xlink" width="176pt" height="105pt" viewBox="0 0 176 105" version="1.1">
<g id="surface1">
<path style="fill:none;stroke-width:0.3985;stroke-linecap:butt;stroke-linejoin:miter;stroke:rgb(0%,0%,0%);stroke-opacity:1;stroke-miterlimit:10;" d="M 51.592375 59.527156 C 51.592375 70.488094 33.822844 79.370906 11.904875 79.370906 C -10.013094 79.370906 -27.778719 70.488094 -27.778719 59.527156 C -27.778719 48.570125 -10.013094 39.687312 11.904875 39.687312 C 33.822844 39.687312 51.592375 48.570125 51.592375 59.527156 Z M 51.592375 59.527156 " transform="matrix(1,0,0,-1,28.392,80.367)"/>
<path style="fill:none;stroke-width:0.3985;stroke-linecap:butt;stroke-linejoin:miter;stroke:rgb(0%,0%,0%);stroke-opacity:1;stroke-miterlimit:10;" d="M -11.903719 60.917781 C -11.903719 57.628719 -1.243563 54.964656 11.904875 54.964656 C 25.057219 54.964656 35.717375 57.628719 35.717375 60.917781 " transform="matrix(1,0,0,-1,28.392,80.367)"/>
<path style="fill:none;stroke-width:0.3985;stroke-linecap:butt;stroke-linejoin:miter;stroke:rgb(0%,0%,0%);stroke-opacity:1;stroke-miterlimit:10;" d="M 30.955656 57.542781 C 30.955656 60.831844 22.424406 63.495906 11.904875 63.495906 C 1.385344 63.495906 -7.142 60.831844 -7.142 57.542781 " transform="matrix(1,0,0,-1,28.392,80.367)"/>
<path style="fill:none;stroke-width:0.3985;stroke-linecap:butt;stroke-linejoin:miter;stroke:rgb(0%,0%,0%);stroke-opacity:1;stroke-miterlimit:10;" d="M 146.834562 59.527156 C 146.834562 70.488094 129.068937 79.370906 107.150969 79.370906 C 85.233 79.370906 67.463469 70.488094 67.463469 59.527156 C 67.463469 48.570125 85.233 39.687312 107.150969 39.687312 C 129.068937 39.687312 146.834562 48.570125 146.834562 59.527156 Z M 146.834562 59.527156 " transform="matrix(1,0,0,-1,28.392,80.367)"/>
<path style="fill:none;stroke-width:0.3985;stroke-linecap:butt;stroke-linejoin:miter;stroke:rgb(0%,0%,0%);stroke-opacity:1;stroke-miterlimit:10;" d="M 83.338469 60.917781 C 83.338469 57.628719 93.998625 54.964656 107.150969 54.964656 C 120.299406 54.964656 130.963469 57.628719 130.963469 60.917781 " transform="matrix(1,0,0,-1,28.392,80.367)"/>
<path style="fill:none;stroke-width:0.3985;stroke-linecap:butt;stroke-linejoin:miter;stroke:rgb(0%,0%,0%);stroke-opacity:1;stroke-miterlimit:10;" d="M 126.197844 57.542781 C 126.197844 60.831844 117.6705 63.495906 107.150969 63.495906 C 96.631437 63.495906 88.100187 60.831844 88.100187 57.542781 " transform="matrix(1,0,0,-1,28.392,80.367)"/>
<path style="fill-rule:nonzero;fill:rgb(100%,100%,100%);fill-opacity:1;stroke-width:0.3985;stroke-linecap:butt;stroke-linejoin:miter;stroke:rgb(0%,0%,0%);stroke-opacity:1;stroke-miterlimit:10;" d="M 46.033781 69.449031 C 43.916594 62.1795 43.916594 56.878719 46.033781 49.605281 C 55.924406 54.105281 63.131437 54.105281 73.022062 49.605281 C 76.115812 56.308406 76.115812 62.749812 73.022062 69.449031 C 63.131437 64.949031 55.924406 64.949031 46.033781 69.449031 " transform="matrix(1,0,0,-1,28.392,80.367)"/>
<path style="fill:none;stroke-width:0.3985;stroke-linecap:butt;stroke-linejoin:miter;stroke:rgb(0%,0%,0%);stroke-opacity:1;stroke-dasharray:2.98883,2.98883;stroke-miterlimit:10;" d="M 46.033781 69.449031 C 47.350187 69.449031 48.416594 65.007625 48.416594 59.527156 C 48.416594 54.046687 47.350187 49.605281 46.033781 49.605281 " transform="matrix(1,0,0,-1,28.392,80.367)"/>
<path style="fill:none;stroke-width:0.3985;stroke-linecap:butt;stroke-linejoin:miter;stroke:rgb(0%,0%,0%);stroke-opacity:1;stroke-dasharray:2.98883,2.98883;stroke-miterlimit:10;" d="M 73.022062 69.449031 C 71.705656 69.449031 70.63925 65.007625 70.63925 59.527156 C 70.63925 54.046687 71.705656 49.605281 73.022062 49.605281 " transform="matrix(1,0,0,-1,28.392,80.367)"/>
<path style="fill:none;stroke-width:0.3985;stroke-linecap:butt;stroke-linejoin:miter;stroke:rgb(0%,0%,0%);stroke-opacity:1;stroke-miterlimit:10;" d="M 59.529875 65.480281 C 58.912687 65.480281 58.416594 62.816219 58.416594 59.527156 C 58.416594 56.242 58.912687 53.574031 59.529875 53.574031 " transform="matrix(1,0,0,-1,28.392,80.367)"/>
<path style="fill:none;stroke-width:0.3985;stroke-linecap:butt;stroke-linejoin:miter;stroke:rgb(0%,0%,0%);stroke-opacity:1;stroke-dasharray:2.98883,2.98883;stroke-miterlimit:10;" d="M 59.529875 65.480281 C 60.143156 65.480281 60.63925 62.816219 60.63925 59.527156 C 60.63925 56.242 60.143156 53.574031 59.529875 53.574031 " transform="matrix(1,0,0,-1,28.392,80.367)"/>
<path style="fill:none;stroke-width:0.3985;stroke-linecap:butt;stroke-linejoin:miter;stroke:rgb(0%,0%,0%);stroke-opacity:1;stroke-miterlimit:10;" d="M 36.709562 -0.0001875 C 36.709562 13.152156 26.049406 23.812312 12.897062 23.812312 C -0.251375 23.812312 -10.915438 13.152156 -10.915438 -0.0001875 C -10.915438 -13.152531 -0.251375 -23.812688 12.897062 -23.812688 C 26.049406 -23.812688 36.709562 -13.152531 36.709562 -0.0001875 Z M 36.709562 -0.0001875 " transform="matrix(1,0,0,-1,28.392,80.367)"/>
<path style="fill:none;stroke-width:0.3985;stroke-linecap:butt;stroke-linejoin:miter;stroke:rgb(0%,0%,0%);stroke-opacity:1;stroke-miterlimit:10;" d="M -10.915438 -0.0001875 C -10.915438 -3.28925 -0.251375 -5.953313 12.897062 -5.953313 C 26.049406 -5.953313 36.709562 -3.28925 36.709562 -0.0001875 " transform="matrix(1,0,0,-1,28.392,80.367)"/>
<path style="fill:none;stroke-width:0.3985;stroke-linecap:butt;stroke-linejoin:miter;stroke:rgb(0%,0%,0%);stroke-opacity:1;stroke-dasharray:2.98883,2.98883;stroke-miterlimit:10;" d="M 38.693937 -0.0001875 C 38.693937 3.288875 28.033781 5.952937 14.881437 5.952937 C 1.733 5.952937 -8.931063 3.288875 -8.931063 -0.0001875 " transform="matrix(1,0,0,-1,28.392,80.367)"/>
<path style="fill:none;stroke-width:0.3985;stroke-linecap:butt;stroke-linejoin:miter;stroke:rgb(0%,0%,0%);stroke-opacity:1;stroke-miterlimit:10;" d="M 134.928312 -0.0001875 C 134.928312 10.96075 117.162687 19.843562 95.244719 19.843562 C 73.32675 19.843562 55.561125 10.96075 55.561125 -0.0001875 C 55.561125 -10.957219 73.32675 -19.843938 95.244719 -19.843938 C 117.162687 -19.843938 134.928312 -10.957219 134.928312 -0.0001875 Z M 134.928312 -0.0001875 " transform="matrix(1,0,0,-1,28.392,80.367)"/>
<path style="fill:none;stroke-width:0.3985;stroke-linecap:butt;stroke-linejoin:miter;stroke:rgb(0%,0%,0%);stroke-opacity:1;stroke-miterlimit:10;" d="M 71.432219 1.390437 C 71.432219 -1.898625 82.092375 -4.562688 95.244719 -4.562688 C 108.397062 -4.562688 119.057219 -1.898625 119.057219 1.390437 " transform="matrix(1,0,0,-1,28.392,80.367)"/>
<path style="fill:none;stroke-width:0.3985;stroke-linecap:butt;stroke-linejoin:miter;stroke:rgb(0%,0%,0%);stroke-opacity:1;stroke-miterlimit:10;" d="M 114.2955 -1.984563 C 114.2955 1.3045 105.76425 3.968562 95.244719 3.968562 C 84.725187 3.968562 76.197844 1.3045 76.197844 -1.984563 " transform="matrix(1,0,0,-1,28.392,80.367)"/>
<path style="fill-rule:nonzero;fill:rgb(100%,100%,100%);fill-opacity:1;stroke-width:0.3985;stroke-linecap:butt;stroke-linejoin:miter;stroke:rgb(0%,0%,0%);stroke-opacity:1;stroke-miterlimit:10;" d="M 34.127531 9.921687 C 32.010344 2.64825 32.010344 -2.648625 34.127531 -9.922063 C 44.018156 -5.422063 51.225187 -5.422063 61.115812 -9.922063 C 64.209562 -3.218938 64.209562 3.218562 61.115812 9.921687 C 51.225187 5.421687 44.018156 5.421687 34.127531 9.921687 " transform="matrix(1,0,0,-1,28.392,80.367)"/>
<path style="fill:none;stroke-width:0.3985;stroke-linecap:butt;stroke-linejoin:miter;stroke:rgb(0%,0%,0%);stroke-opacity:1;stroke-dasharray:2.98883,2.98883;stroke-miterlimit:10;" d="M 34.127531 9.921687 C 35.443937 9.921687 36.510344 5.480281 36.510344 -0.0001875 C 36.510344 -5.480656 35.443937 -9.922063 34.127531 -9.922063 " transform="matrix(1,0,0,-1,28.392,80.367)"/>
<path style="fill:none;stroke-width:0.3985;stroke-linecap:butt;stroke-linejoin:miter;stroke:rgb(0%,0%,0%);stroke-opacity:1;stroke-dasharray:2.98883,2.98883;stroke-miterlimit:10;" d="M 61.115812 9.921687 C 59.799406 9.921687 58.733 5.480281 58.733 -0.0001875 C 58.733 -5.480656 59.799406 -9.922063 61.115812 -9.922063 " transform="matrix(1,0,0,-1,28.392,80.367)"/>
<path style="fill:none;stroke-width:0.3985;stroke-linecap:butt;stroke-linejoin:miter;stroke:rgb(0%,0%,0%);stroke-opacity:1;stroke-miterlimit:10;" d="M 47.623625 5.952937 C 47.010344 5.952937 46.510344 3.288875 46.510344 -0.0001875 C 46.510344 -3.28925 47.010344 -5.953313 47.623625 -5.953313 " transform="matrix(1,0,0,-1,28.392,80.367)"/>
<path style="fill:none;stroke-width:0.3985;stroke-linecap:butt;stroke-linejoin:miter;stroke:rgb(0%,0%,0%);stroke-opacity:1;stroke-dasharray:2.98883,2.98883;stroke-miterlimit:10;" d="M 47.623625 5.952937 C 48.236906 5.952937 48.733 3.288875 48.733 -0.0001875 C 48.733 -3.28925 48.236906 -5.953313 47.623625 -5.953313 " transform="matrix(1,0,0,-1,28.392,80.367)"/>
</g>
</svg>
