<?xml version="1.0" encoding="UTF-8"?>
<svg xmlns="http://www.w3.org/2000/svg" xmlns:xlink="http://www.w3.org/1999/xlink" width="143pt" height="86pt" viewBox="0 0 143 86" version="1.1">
<g id="surface1">
<path style="fill:none;stroke-width:0.3985;stroke-linecap:butt;stroke-linejoin:miter;stroke:rgb(0%,0%,0%);stroke-opacity:1;stroke-miterlimit:10;" d="M -0.00190625 0.000125 L -0.00190625 85.039188 L 141.732469 85.039188 L 141.732469 0.000125 Z M -0.00190625 0.000125 " transform="matrix(1,0,0,-1,0.248,85.672)"/>
<path style="fill:none;stroke-width:0.3985;stroke-linecap:butt;stroke-linejoin:miter;stroke:rgb(0%,0%,0%);stroke-opacity:1;stroke-miterlimit:10;" d="M 48.1895 31.179813 L 48.1895 36.851688 L 51.025438 39.683719 L 53.857469 36.851688 L 53.857469 31.179813 Z M 48.1895 31.179813 " transform="matrix(1,0,0,-1,0.248,85.672)"/>
<path style="fill:none;stroke-width:0.3985;stroke-linecap:butt;stroke-linejoin:miter;stroke:rgb(0%,0%,0%);stroke-opacity:1;stroke-miterlimit:10;" d="M 48.1895 36.851688 L 53.857469 36.851688 " transform="matrix(1,0,0,-1,0.248,85.672)"/>
<path style="fill:none;stroke-width:0.3985;stroke-linecap:butt;stroke-linejoin:miter;stroke:rgb(0%,0%,0%);stroke-opacity:1;stroke-miterlimit:10;" d="M 50.459031 31.179813 L 50.459031 34.01575 L 51.591844 34.01575 L 51.591844 31.179813 " transform="matrix(1,0,0,-1,0.248,85.672)"/>
<path style="fill:none;stroke-width:0.3985;stroke-linecap:butt;stroke-linejoin:miter;stroke:rgb(0%,0%,0%);stroke-opacity:1;stroke-dasharray:2.98883,2.98883;stroke-miterlimit:10;" d="M 56.693406 0.000125 L 56.693406 85.039188 M -0.00190625 28.347781 L 141.732469 28.347781 " transform="matrix(1,0,0,-1,0.248,85.672)"/>
<path style="fill:none;stroke-width:0.3985;stroke-linecap:butt;stroke-linejoin:miter;stroke:rgb(0%,0%,0%);stroke-opacity:1;stroke-dasharray:2.98883,2.98883;stroke-miterlimit:10;" d="M 56.693406 28.347781 L 141.732469 79.371219 " transform="matrix(1,0,0,-1,0.248,85.672)"/>
<path style="fill:none;stroke-width:0.3985;stroke-linecap:butt;stroke-linejoin:miter;stroke:rgb(0%,0%,0%);stroke-opacity:1;stroke-dasharray:2.98883,2.98883;stroke-miterlimit:10;" d="M -0.00190625 79.371219 L 9.447313 85.039188 " transform="matrix(1,0,0,-1,0.248,85.672)"/>
<path style="fill:none;stroke-width:0.3985;stroke-linecap:butt;stroke-linejoin:miter;stroke:rgb(0%,0%,0%);stroke-opacity:1;stroke-dasharray:2.98883,2.98883;stroke-miterlimit:10;" d="M 5.669969 0.000125 L 56.693406 28.347781 " transform="matrix(1,0,0,-1,0.248,85.672)"/>
<path style="fill-rule:nonzero;fill:rgb(100%,0%,0%);fill-opacity:1;stroke-width:0.3985;stroke-linecap:butt;stroke-linejoin:miter;stroke:rgb(0%,0%,0%);stroke-opacity:1;stroke-miterlimit:10;" d="M 57.888719 28.347781 C 57.888719 29.007938 57.353563 29.543094 56.693406 29.543094 C 56.03325 29.543094 55.498094 29.007938 55.498094 28.347781 C 55.498094 27.687625 56.03325 27.152469 56.693406 27.152469 C 57.353563 27.152469 57.888719 27.687625 57.888719 28.347781 Z M 57.888719 28.347781 " transform="matrix(1,0,0,-1,0.248,85.672)"/>
</g>
</svg>
