<?xml version="1.0" encoding="UTF-8"?>
<svg xmlns="http://www.w3.org/2000/svg" xmlns:xlink="http://www.w3.org/1999/xlink" width="68pt" height="119pt" viewBox="0 0 68 119" version="1.1">
<g id="surface1">
<path style="fill:none;stroke-width:0.3985;stroke-linecap:butt;stroke-linejoin:miter;stroke:rgb(0%,0%,0%);stroke-opacity:1;stroke-miterlimit:10;" d="M 0.00028125 -0.0005625 L 51.023719 -0.0005625 L 66.332313 15.308031 " transform="matrix(1,0,0,-1,0.613,118.351)"/>
<path style="fill:none;stroke-width:0.3985;stroke-linecap:butt;stroke-linejoin:miter;stroke:rgb(0%,0%,0%);stroke-opacity:1;stroke-miterlimit:10;" d="M 0.00028125 51.022875 L 51.023719 51.022875 L 66.332313 66.331469 " transform="matrix(1,0,0,-1,0.613,118.351)"/>
<path style="fill:none;stroke-width:0.3985;stroke-linecap:butt;stroke-linejoin:miter;stroke:rgb(0%,0%,0%);stroke-opacity:1;stroke-miterlimit:10;" d="M 0.00028125 102.046313 L 51.023719 102.046313 L 66.332313 117.354906 " transform="matrix(1,0,0,-1,0.613,118.351)"/>
<path style="fill:none;stroke-width:0.3985;stroke-linecap:butt;stroke-linejoin:miter;stroke:rgb(0%,0%,0%);stroke-opacity:1;stroke-dasharray:2.98883,2.98883;stroke-miterlimit:10;" d="M 0.00028125 -0.0005625 L 15.308875 15.308031 L 66.332313 15.308031 " transform="matrix(1,0,0,-1,0.613,118.351)"/>
<path style="fill:none;stroke-width:0.3985;stroke-linecap:butt;stroke-linejoin:miter;stroke:rgb(0%,0%,0%);stroke-opacity:1;stroke-dasharray:2.98883,2.98883;stroke-miterlimit:10;" d="M 0.00028125 51.022875 L 15.308875 66.331469 L 66.332313 66.331469 " transform="matrix(1,0,0,-1,0.613,118.351)"/>
<path style="fill:none;stroke-width:0.3985;stroke-linecap:butt;stroke-linejoin:miter;stroke:rgb(0%,0%,0%);stroke-opacity:1;stroke-miterlimit:10;" d="M 15.308875 117.354906 L 66.332313 117.354906 " transform="matrix(1,0,0,-1,0.613,118.351)"/>
<path style="fill:none;stroke-width:0.3985;stroke-linecap:butt;stroke-linejoin:miter;stroke:rgb(0%,0%,0%);stroke-opacity:1;stroke-dasharray:2.98883,2.98883;stroke-miterlimit:10;" d="M 15.308875 15.308031 L 15.308875 117.354906 " transform="matrix(1,0,0,-1,0.613,118.351)"/>
<path style="fill:none;stroke-width:0.3985;stroke-linecap:butt;stroke-linejoin:miter;stroke:rgb(0%,0%,0%);stroke-opacity:1;stroke-miterlimit:10;" d="M 0.00028125 -0.0005625 L 0.00028125 102.046313 L 15.308875 117.354906 " transform="matrix(1,0,0,-1,0.613,118.351)"/>
<path style="fill:none;stroke-width:0.3985;stroke-linecap:butt;stroke-linejoin:miter;stroke:rgb(0%,0%,0%);stroke-opacity:1;stroke-miterlimit:10;" d="M 51.023719 -0.0005625 L 51.023719 102.046313 M 66.332313 15.308031 L 66.332313 117.354906 " transform="matrix(1,0,0,-1,0.613,118.351)"/>
<path style="fill:none;stroke-width:0.3985;stroke-linecap:butt;stroke-linejoin:miter;stroke:rgb(0%,0%,0%);stroke-opacity:1;stroke-miterlimit:10;" d="M 43.371375 43.370531 L 43.371375 48.472094 L 48.472938 48.472094 L 48.472938 43.370531 Z M 43.371375 43.370531 " transform="matrix(1,0,0,-1,0.613,118.351)"/>
<path style="fill:none;stroke-width:0.3985;stroke-linecap:butt;stroke-linejoin:miter;stroke:rgb(0%,0%,0%);stroke-opacity:1;stroke-miterlimit:10;" d="M 2.551063 94.393969 L 2.551063 99.495531 L 7.652625 99.495531 L 7.652625 94.393969 Z M 2.551063 94.393969 " transform="matrix(1,0,0,-1,0.613,118.351)"/>
<path style="fill:none;stroke-width:0.3985;stroke-linecap:butt;stroke-linejoin:miter;stroke:rgb(0%,0%,0%);stroke-opacity:1;stroke-miterlimit:10;" d="M 2.551063 43.370531 L 2.551063 48.472094 L 5.101844 51.022875 Z M 2.551063 43.370531 " transform="matrix(1,0,0,-1,0.613,118.351)"/>
<path style="fill:none;stroke-width:0.3985;stroke-linecap:butt;stroke-linejoin:miter;stroke:rgb(0%,0%,0%);stroke-opacity:1;stroke-miterlimit:10;" d="M 63.781531 68.88225 L 63.781531 73.983812 L 61.226844 66.331469 Z M 63.781531 68.88225 " transform="matrix(1,0,0,-1,0.613,118.351)"/>
<path style="fill:none;stroke-width:0.3985;stroke-linecap:butt;stroke-linejoin:miter;stroke:rgb(0%,0%,0%);stroke-opacity:1;stroke-miterlimit:10;" d="M 28.062781 61.229906 C 28.062781 62.636156 26.922156 63.780687 25.512 63.780687 C 24.101844 63.780687 22.961219 62.636156 22.961219 61.229906 C 22.961219 59.81975 24.101844 58.679125 25.512 58.679125 C 26.922156 58.679125 28.062781 59.81975 28.062781 61.229906 Z M 28.062781 61.229906 " transform="matrix(1,0,0,-1,0.613,118.351)"/>
<path style="fill:none;stroke-width:0.3985;stroke-linecap:butt;stroke-linejoin:miter;stroke:rgb(0%,0%,0%);stroke-opacity:1;stroke-miterlimit:10;" d="M 58.676063 112.253344 C 58.676063 113.659594 57.535438 114.804125 56.125281 114.804125 C 54.719031 114.804125 53.5745 113.659594 53.5745 112.253344 C 53.5745 110.843188 54.719031 109.702563 56.125281 109.702563 C 57.535438 109.702563 58.676063 110.843188 58.676063 112.253344 Z M 58.676063 112.253344 " transform="matrix(1,0,0,-1,0.613,118.351)"/>
<path style="fill:none;stroke-width:0.3985;stroke-linecap:butt;stroke-linejoin:miter;stroke:rgb(0%,0%,0%);stroke-opacity:1;stroke-miterlimit:10;" d="M 56.125281 10.206469 C 56.125281 11.612719 55.554969 12.75725 54.851844 12.75725 C 54.144813 12.75725 53.5745 11.612719 53.5745 10.206469 C 53.5745 8.796312 54.144813 7.651781 54.851844 7.651781 C 55.554969 7.651781 56.125281 8.796312 56.125281 10.206469 Z M 56.125281 10.206469 " transform="matrix(1,0,0,-1,0.613,118.351)"/>
<path style="fill:none;stroke-width:0.3985;stroke-linecap:butt;stroke-linejoin:miter;stroke:rgb(0%,0%,0%);stroke-opacity:1;stroke-miterlimit:10;" d="M 12.754188 107.151781 C 12.754188 108.558031 12.183875 109.702563 11.48075 109.702563 C 10.777625 109.702563 10.203406 108.558031 10.203406 107.151781 C 10.203406 105.741625 10.777625 104.597094 11.48075 104.597094 C 12.183875 104.597094 12.754188 105.741625 12.754188 107.151781 Z M 12.754188 107.151781 " transform="matrix(1,0,0,-1,0.613,118.351)"/>
</g>
</svg>
