<?xml version="1.0" encoding="UTF-8"?>
<svg xmlns="http://www.w3.org/2000/svg" xmlns:xlink="http://www.w3.org/1999/xlink" width="115pt" height="115pt" viewBox="0 0 115 115" version="1.1">
<defs>
<clipPath id="clip1">
  <path d="M 122.808594 57.996094 C 122.808594 21.988281 93.617188 -7.203125 57.609375 -7.203125 C 21.601563 -7.203125 -7.585938 21.988281 -7.585938 57.996094 C -7.585938 94.003906 21.601563 123.191406 57.609375 123.191406 C 93.617188 123.191406 122.808594 94.003906 122.808594 57.996094 Z M 122.808594 57.996094 "/>
</clipPath>
<clipPath id="clip2">
  <path d="M 0 47 L 115 47 L 115 115 L 0 115 Z M 0 47 "/>
</clipPath>
<clipPath id="clip3">
  <path d="M 122.808594 57.996094 C 122.808594 21.988281 93.617188 -7.203125 57.609375 -7.203125 C 21.601563 -7.203125 -7.585938 21.988281 -7.585938 57.996094 C -7.585938 94.003906 21.601563 123.191406 57.609375 123.191406 C 93.617188 123.191406 122.808594 94.003906 122.808594 57.996094 Z M 122.808594 57.996094 "/>
</clipPath>
<clipPath id="clip4">
  <path d="M 114.304688 57.996094 C 114.304688 26.683594 88.921875 1.300781 57.609375 1.300781 C 26.296875 1.300781 0.917969 26.683594 0.917969 57.996094 C 0.917969 89.304688 26.296875 114.6875 57.609375 114.6875 C 88.921875 114.6875 114.304688 89.304688 114.304688 57.996094 Z M 114.304688 57.996094 "/>
</clipPath>
<clipPath id="clip5">
  <path d="M 60 1 L 115 1 L 115 115 L 60 115 Z M 60 1 "/>
</clipPath>
<clipPath id="clip6">
  <path d="M 122.808594 57.996094 C 122.808594 21.988281 93.617188 -7.203125 57.609375 -7.203125 C 21.601563 -7.203125 -7.585938 21.988281 -7.585938 57.996094 C -7.585938 94.003906 21.601563 123.191406 57.609375 123.191406 C 93.617188 123.191406 122.808594 94.003906 122.808594 57.996094 Z M 122.808594 57.996094 "/>
</clipPath>
<clipPath id="clip7">
  <path d="M 114.304688 57.996094 C 114.304688 26.683594 88.921875 1.300781 57.609375 1.300781 C 26.296875 1.300781 0.917969 26.683594 0.917969 57.996094 C 0.917969 89.304688 26.296875 114.6875 57.609375 114.6875 C 88.921875 114.6875 114.304688 89.304688 114.304688 57.996094 Z M 114.304688 57.996094 "/>
</clipPath>
<clipPath id="clip8">
  <path d="M 57 1 L 58 1 L 58 115 L 57 115 Z M 57 1 "/>
</clipPath>
<clipPath id="clip9">
  <path d="M 122.808594 57.996094 C 122.808594 21.988281 93.617188 -7.203125 57.609375 -7.203125 C 21.601563 -7.203125 -7.585938 21.988281 -7.585938 57.996094 C -7.585938 94.003906 21.601563 123.191406 57.609375 123.191406 C 93.617188 123.191406 122.808594 94.003906 122.808594 57.996094 Z M 122.808594 57.996094 "/>
</clipPath>
<clipPath id="clip10">
  <path d="M 114.304688 57.996094 C 114.304688 26.683594 88.921875 1.300781 57.609375 1.300781 C 26.296875 1.300781 0.917969 26.683594 0.917969 57.996094 C 0.917969 89.304688 26.296875 114.6875 57.609375 114.6875 C 88.921875 114.6875 114.304688 89.304688 114.304688 57.996094 Z M 114.304688 57.996094 "/>
</clipPath>
<clipPath id="clip11">
  <path d="M 56 56 L 60 56 L 60 60 L 56 60 Z M 56 56 "/>
</clipPath>
<clipPath id="clip12">
  <path d="M 122.808594 57.996094 C 122.808594 21.988281 93.617188 -7.203125 57.609375 -7.203125 C 21.601563 -7.203125 -7.585938 21.988281 -7.585938 57.996094 C -7.585938 94.003906 21.601563 123.191406 57.609375 123.191406 C 93.617188 123.191406 122.808594 94.003906 122.808594 57.996094 Z M 122.808594 57.996094 "/>
</clipPath>
<clipPath id="clip13">
  <path d="M 114.304688 57.996094 C 114.304688 26.683594 88.921875 1.300781 57.609375 1.300781 C 26.296875 1.300781 0.917969 26.683594 0.917969 57.996094 C 0.917969 89.304688 26.296875 114.6875 57.609375 114.6875 C 88.921875 114.6875 114.304688 89.304688 114.304688 57.996094 Z M 114.304688 57.996094 "/>
</clipPath>
<clipPath id="clip14">
  <path d="M 50 50 L 65 50 L 65 66 L 50 66 Z M 50 50 "/>
</clipPath>
<clipPath id="clip15">
  <path d="M 122.808594 57.996094 C 122.808594 21.988281 93.617188 -7.203125 57.609375 -7.203125 C 21.601563 -7.203125 -7.585938 21.988281 -7.585938 57.996094 C -7.585938 94.003906 21.601563 123.191406 57.609375 123.191406 C 93.617188 123.191406 122.808594 94.003906 122.808594 57.996094 Z M 122.808594 57.996094 "/>
</clipPath>
<clipPath id="clip16">
  <path d="M 114.304688 57.996094 C 114.304688 26.683594 88.921875 1.300781 57.609375 1.300781 C 26.296875 1.300781 0.917969 26.683594 0.917969 57.996094 C 0.917969 89.304688 26.296875 114.6875 57.609375 114.6875 C 88.921875 114.6875 114.304688 89.304688 114.304688 57.996094 Z M 114.304688 57.996094 "/>
</clipPath>
</defs>
<g id="surface1">
<g clip-path="url(#clip1)" clip-rule="nonzero">
<path style="fill:none;stroke-width:0.59776;stroke-linecap:butt;stroke-linejoin:miter;stroke:rgb(0%,0%,100%);stroke-opacity:1;stroke-dasharray:2.98883,2.98883;stroke-miterlimit:10;" d="M 56.694688 -0.00109375 C 56.694688 31.311406 31.311875 56.694219 -0.000625 56.694219 C -31.313125 56.694219 -56.692031 31.311406 -56.692031 -0.00109375 C -56.692031 -31.309687 -31.313125 -56.6925 -0.000625 -56.6925 C 31.311875 -56.6925 56.694688 -31.309687 56.694688 -0.00109375 Z M 56.694688 -0.00109375 " transform="matrix(1,0,0,-1,57.61,57.995)"/>
</g>
<g clip-path="url(#clip2)" clip-rule="nonzero">
<g clip-path="url(#clip3)" clip-rule="nonzero">
<g clip-path="url(#clip4)" clip-rule="nonzero">
<path style="fill:none;stroke-width:0.59776;stroke-linecap:butt;stroke-linejoin:miter;stroke:rgb(0%,0%,0%);stroke-opacity:1;stroke-miterlimit:10;" d="M 100.425156 -160.66125 C 100.425156 -70.790156 27.573594 2.061406 -62.2975 2.061406 C -152.1725 2.061406 -225.024062 -70.790156 -225.024062 -160.66125 C -225.024062 -250.532344 -152.1725 -323.387813 -62.2975 -323.387813 C 27.573594 -323.387813 100.425156 -250.532344 100.425156 -160.66125 Z M 100.425156 -160.66125 " transform="matrix(1,0,0,-1,57.61,57.995)"/>
</g>
</g>
</g>
<g clip-path="url(#clip5)" clip-rule="nonzero">
<g clip-path="url(#clip6)" clip-rule="nonzero">
<g clip-path="url(#clip7)" clip-rule="nonzero">
<path style="fill:none;stroke-width:0.59776;stroke-linecap:butt;stroke-linejoin:miter;stroke:rgb(0%,0%,0%);stroke-opacity:1;stroke-miterlimit:10;" d="M 198.909531 -29.446406 C 198.909531 22.221563 157.022813 64.108281 105.354844 64.108281 C 53.682969 64.108281 11.800156 22.221563 11.800156 -29.446406 C 11.800156 -81.118281 53.682969 -123.005 105.354844 -123.005 C 157.022813 -123.005 198.909531 -81.118281 198.909531 -29.446406 Z M 198.909531 -29.446406 " transform="matrix(1,0,0,-1,57.61,57.995)"/>
</g>
</g>
</g>
<g clip-path="url(#clip8)" clip-rule="nonzero">
<g clip-path="url(#clip9)" clip-rule="nonzero">
<g clip-path="url(#clip10)" clip-rule="nonzero">
<path style="fill:none;stroke-width:0.3985;stroke-linecap:butt;stroke-linejoin:miter;stroke:rgb(0%,0%,0%);stroke-opacity:1;stroke-miterlimit:10;" d="M -0.000625 -56.6925 L -0.000625 56.694219 " transform="matrix(1,0,0,-1,57.61,57.995)"/>
</g>
</g>
</g>
<g clip-path="url(#clip11)" clip-rule="nonzero">
<g clip-path="url(#clip12)" clip-rule="nonzero">
<g clip-path="url(#clip13)" clip-rule="nonzero">
<path style=" stroke:none;fill-rule:nonzero;fill:rgb(100%,0%,0%);fill-opacity:1;" d="M 59.203125 57.996094 C 59.203125 57.113281 58.492188 56.402344 57.609375 56.402344 C 56.730469 56.402344 56.015625 57.113281 56.015625 57.996094 C 56.015625 58.875 56.730469 59.589844 57.609375 59.589844 C 58.492188 59.589844 59.203125 58.875 59.203125 57.996094 Z M 59.203125 57.996094 "/>
</g>
</g>
</g>
<g clip-path="url(#clip14)" clip-rule="nonzero">
<g clip-path="url(#clip15)" clip-rule="nonzero">
<g clip-path="url(#clip16)" clip-rule="nonzero">
<path style="fill:none;stroke-width:0.3985;stroke-linecap:butt;stroke-linejoin:miter;stroke:rgb(0%,0%,0%);stroke-opacity:1;stroke-miterlimit:10;" d="M 1.593125 -0.00109375 C 1.593125 0.881719 0.882188 1.592656 -0.000625 1.592656 C -0.879531 1.592656 -1.594375 0.881719 -1.594375 -0.00109375 C -1.594375 -0.88 -0.879531 -1.594844 -0.000625 -1.594844 C 0.882188 -1.594844 1.593125 -0.88 1.593125 -0.00109375 Z M 1.593125 -0.00109375 " transform="matrix(1,0,0,-1,57.61,57.995)"/>
</g>
</g>
</g>
</g>
</svg>
