<?xml version="1.0" encoding="UTF-8"?>
<svg xmlns="http://www.w3.org/2000/svg" xmlns:xlink="http://www.w3.org/1999/xlink" width="143pt" height="58pt" viewBox="0 0 143 58" version="1.1">
<g id="surface1">
<path style="fill:none;stroke-width:0.3985;stroke-linecap:butt;stroke-linejoin:miter;stroke:rgb(0%,0%,0%);stroke-opacity:1;stroke-miterlimit:10;" d="M 70.868656 0.00025 C 70.868656 15.6565 39.138188 28.347906 0.00146875 28.347906 C -39.139156 28.347906 -70.865719 15.6565 -70.865719 0.00025 C -70.865719 -15.656 -39.139156 -28.347406 0.00146875 -28.347406 C 39.138188 -28.347406 70.868656 -15.656 70.868656 0.00025 Z M 70.868656 0.00025 " transform="matrix(1,0,0,-1,71.479,29.344)"/>
<path style="fill:none;stroke-width:0.3985;stroke-linecap:butt;stroke-linejoin:miter;stroke:rgb(0%,0%,0%);stroke-opacity:1;stroke-miterlimit:10;" d="M -42.521969 1.984625 C -42.521969 -2.710687 -23.482906 -6.519281 0.00146875 -6.519281 C 23.481938 -6.519281 42.521 -2.710687 42.521 1.984625 " transform="matrix(1,0,0,-1,71.479,29.344)"/>
<path style="fill:none;stroke-width:0.3985;stroke-linecap:butt;stroke-linejoin:miter;stroke:rgb(0%,0%,0%);stroke-opacity:1;stroke-miterlimit:10;" d="M 34.017094 -2.835687 C 34.017094 1.863531 18.786625 5.668219 0.00146875 5.668219 C -18.787594 5.668219 -34.018062 1.863531 -34.018062 -2.835687 " transform="matrix(1,0,0,-1,71.479,29.344)"/>
<path style="fill:none;stroke-width:0.3985;stroke-linecap:butt;stroke-linejoin:miter;stroke:rgb(0%,0%,0%);stroke-opacity:1;stroke-miterlimit:10;" d="M 28.345219 -14.171625 C 34.017094 -17.859125 34.017094 -17.859125 39.685063 -19.8435 " transform="matrix(1,0,0,-1,71.479,29.344)"/>
<path style="fill:none;stroke-width:0.3985;stroke-linecap:butt;stroke-linejoin:miter;stroke:rgb(0%,0%,0%);stroke-opacity:1;stroke-miterlimit:10;" d="M 28.345219 -14.171625 C 34.017094 -10.488031 34.017094 -10.488031 39.685063 -8.503656 " transform="matrix(1,0,0,-1,71.479,29.344)"/>
<path style="fill:none;stroke-width:0.3985;stroke-linecap:butt;stroke-linejoin:miter;stroke:rgb(0%,0%,0%);stroke-opacity:1;stroke-miterlimit:10;" d="M 39.685063 -8.503656 C 40.536625 -14.171625 40.536625 -14.171625 39.685063 -19.8435 " transform="matrix(1,0,0,-1,71.479,29.344)"/>
<path style=" stroke:none;fill-rule:nonzero;fill:rgb(100%,0%,0%);fill-opacity:1;" d="M 101.371094 43.515625 C 101.371094 42.664063 100.679688 41.972656 99.824219 41.972656 C 98.972656 41.972656 98.28125 42.664063 98.28125 43.515625 C 98.28125 44.371094 98.972656 45.0625 99.824219 45.0625 C 100.679688 45.0625 101.371094 44.371094 101.371094 43.515625 Z M 101.371094 43.515625 "/>
<path style=" stroke:none;fill-rule:nonzero;fill:rgb(100%,0%,0%);fill-opacity:1;" d="M 112.707031 37.847656 C 112.707031 36.996094 112.015625 36.304688 111.164063 36.304688 C 110.3125 36.304688 109.621094 36.996094 109.621094 37.847656 C 109.621094 38.699219 110.3125 39.390625 111.164063 39.390625 C 112.015625 39.390625 112.707031 38.699219 112.707031 37.847656 Z M 112.707031 37.847656 "/>
<path style=" stroke:none;fill-rule:nonzero;fill:rgb(100%,0%,0%);fill-opacity:1;" d="M 112.707031 49.1875 C 112.707031 48.332031 112.015625 47.640625 111.164063 47.640625 C 110.3125 47.640625 109.621094 48.332031 109.621094 49.1875 C 109.621094 50.039063 110.3125 50.730469 111.164063 50.730469 C 112.015625 50.730469 112.707031 50.039063 112.707031 49.1875 Z M 112.707031 49.1875 "/>
<path style="fill:none;stroke-width:0.3985;stroke-linecap:butt;stroke-linejoin:miter;stroke:rgb(0%,0%,0%);stroke-opacity:1;stroke-miterlimit:10;" d="M 0.00146875 14.172125 C 5.669438 12.18775 5.669438 12.18775 11.337406 8.504156 " transform="matrix(1,0,0,-1,71.479,29.344)"/>
<path style="fill:none;stroke-width:0.3985;stroke-linecap:butt;stroke-linejoin:miter;stroke:rgb(0%,0%,0%);stroke-opacity:1;stroke-miterlimit:10;" d="M 0.00146875 14.172125 C 5.669438 16.1565 5.669438 16.1565 11.337406 19.844 " transform="matrix(1,0,0,-1,71.479,29.344)"/>
<path style="fill:none;stroke-width:0.3985;stroke-linecap:butt;stroke-linejoin:miter;stroke:rgb(0%,0%,0%);stroke-opacity:1;stroke-miterlimit:10;" d="M 11.337406 8.504156 C 10.48975 14.172125 10.48975 14.172125 11.337406 19.844 " transform="matrix(1,0,0,-1,71.479,29.344)"/>
<path style=" stroke:none;fill-rule:nonzero;fill:rgb(100%,0%,0%);fill-opacity:1;" d="M 73.023438 15.171875 C 73.023438 14.316406 72.332031 13.625 71.480469 13.625 C 70.625 13.625 69.933594 14.316406 69.933594 15.171875 C 69.933594 16.023438 70.625 16.714844 71.480469 16.714844 C 72.332031 16.714844 73.023438 16.023438 73.023438 15.171875 Z M 73.023438 15.171875 "/>
<path style=" stroke:none;fill-rule:nonzero;fill:rgb(100%,0%,0%);fill-opacity:1;" d="M 84.363281 20.839844 C 84.363281 19.988281 83.671875 19.296875 82.816406 19.296875 C 81.964844 19.296875 81.273438 19.988281 81.273438 20.839844 C 81.273438 21.691406 81.964844 22.382813 82.816406 22.382813 C 83.671875 22.382813 84.363281 21.691406 84.363281 20.839844 Z M 84.363281 20.839844 "/>
<path style=" stroke:none;fill-rule:nonzero;fill:rgb(100%,0%,0%);fill-opacity:1;" d="M 84.363281 9.5 C 84.363281 8.648438 83.671875 7.957031 82.816406 7.957031 C 81.964844 7.957031 81.273438 8.648438 81.273438 9.5 C 81.273438 10.355469 81.964844 11.046875 82.816406 11.046875 C 83.671875 11.046875 84.363281 10.355469 84.363281 9.5 Z M 84.363281 9.5 "/>
</g>
</svg>
