<?xml version="1.0" encoding="UTF-8"?>
<svg xmlns="http://www.w3.org/2000/svg" xmlns:xlink="http://www.w3.org/1999/xlink" width="58pt" height="75pt" viewBox="0 0 58 75" version="1.1">
<g id="surface1">
<path style="fill:none;stroke-width:0.3985;stroke-linecap:butt;stroke-linejoin:miter;stroke:rgb(0%,0%,0%);stroke-opacity:1;stroke-miterlimit:10;" d="M -9.673219 26.646125 C -24.388062 21.302375 -31.985719 5.044563 -26.645875 -9.670281 C -21.302125 -24.389031 -5.044312 -31.986687 9.670531 -26.646844 C 24.389281 -21.303094 31.986938 -5.045281 26.647094 9.673469 C 23.779906 17.564094 17.561156 23.782844 9.670531 26.646125 " transform="matrix(1,0,0,-1,28.599,46.068)"/>
<path style="fill:none;stroke-width:0.3985;stroke-linecap:butt;stroke-linejoin:miter;stroke:rgb(0%,0%,0%);stroke-opacity:1;stroke-miterlimit:10;" d="M -28.345094 0.00159375 C -28.345094 -4.697625 -15.657594 -8.502312 -0.00134375 -8.502312 C 15.654906 -8.502312 28.346313 -4.697625 28.346313 0.00159375 " transform="matrix(1,0,0,-1,28.599,46.068)"/>
<path style="fill:none;stroke-width:0.3985;stroke-linecap:butt;stroke-linejoin:miter;stroke:rgb(0%,0%,0%);stroke-opacity:1;stroke-dasharray:2.98883,2.98883;stroke-miterlimit:10;" d="M 28.346313 0.00159375 C 28.346313 4.696906 15.654906 8.5055 -0.00134375 8.5055 C -15.657594 8.5055 -28.345094 4.696906 -28.345094 0.00159375 " transform="matrix(1,0,0,-1,28.599,46.068)"/>
<path style="fill:none;stroke-width:0.3985;stroke-linecap:butt;stroke-linejoin:miter;stroke:rgb(0%,0%,0%);stroke-opacity:1;stroke-dasharray:2.98883,2.98883;stroke-miterlimit:10;" d="M 9.693969 26.638313 C 9.693969 27.419563 5.354125 28.056281 0.0025625 28.056281 C -5.352906 28.056281 -9.69275 27.419563 -9.69275 26.638313 " transform="matrix(1,0,0,-1,28.599,46.068)"/>
<path style="fill:none;stroke-width:0.3985;stroke-linecap:butt;stroke-linejoin:miter;stroke:rgb(0%,0%,0%);stroke-opacity:1;stroke-miterlimit:10;" d="M -9.696656 26.638313 C -9.696656 25.853156 -5.356812 25.220344 -0.00134375 25.220344 C 5.354125 25.220344 9.693969 25.853156 9.693969 26.638313 " transform="matrix(1,0,0,-1,28.599,46.068)"/>
<path style="fill-rule:nonzero;fill:rgb(79.998779%,79.998779%,100%);fill-opacity:1;stroke-width:0.3985;stroke-linecap:butt;stroke-linejoin:miter;stroke:rgb(0%,0%,0%);stroke-opacity:1;stroke-miterlimit:10;" d="M 9.693969 43.653938 C 9.693969 44.435188 5.354125 45.071906 -0.00134375 45.071906 C -5.352906 45.071906 -9.69275 44.435188 -9.69275 43.653938 C -9.69275 42.872688 -5.352906 42.235969 -0.00134375 42.235969 C 5.354125 42.235969 9.693969 42.872688 9.693969 43.653938 Z M 9.693969 43.653938 " transform="matrix(1,0,0,-1,28.599,46.068)"/>
<path style="fill:none;stroke-width:0.3985;stroke-linecap:butt;stroke-linejoin:miter;stroke:rgb(0%,0%,0%);stroke-opacity:1;stroke-miterlimit:10;" d="M 9.693969 26.638313 L 9.693969 43.646125 M -9.696656 26.638313 L -9.696656 43.646125 " transform="matrix(1,0,0,-1,28.599,46.068)"/>
</g>
</svg>
