<?xml version="1.0" encoding="utf-8"?>
<!-- Generator: Adobe Illustrator 20.0.0, SVG Export Plug-In . SVG Version: 6.00 Build 0)  -->
<svg version="1.1" id="Layer_1" xmlns="http://www.w3.org/2000/svg" xmlns:xlink="http://www.w3.org/1999/xlink" x="0px" y="0px"
	 viewBox="0 0 200 110" style="enable-background:new 0 0 200 110;" xml:space="preserve">
<style type="text/css">
	.st0{fill:none;stroke:#000000;}
	.st1{font-family:'TimesNewRomanPSMT';}
	.st2{font-size:12px;}
</style>
<line class="st0" x1="3" y1="18" x2="3" y2="53"/>
<path class="st0" d="M3,53c0,0,10.8,10.4,24.8,15.5c21.9,8,61.9,23.3,87.2,29c36.2,8.2,48,0.5,48,0.5"/>
<path class="st0" d="M192,86"/>
<path class="st0" d="M3,18c0,0,11,13.1,27.3,20.2c21.8,9.5,53.5,23.4,83.2,32.4c21.6,6.6,42.1,10.8,57,13.4"/>
<path class="st0" d="M163,98c0,0,20.1-5.1,27.5-14c7.1-8.6,1.5-21,1.5-21"/>
<path class="st0" d="M163,98c0,0,10.7-15,8.5-27.3c-1.1-6.2-6.6-11.5-11-14.9"/>
<path class="st0" d="M14.5,5C2.5,8.8,3,18,3,18"/>
<path class="st0" d="M27,3.4C22.3,3.5,17.7,4,14.5,5"/>
<path class="st0" d="M120.4,25.5c-12.2-7-26.1-14-42.8-17.8C62.1,4.1,44,3.5,26,3.5"/>
<path class="st0" d="M161.3,56.4c0,0-11.5-10.7-23.8-20c-7.2-5.5-17.1-10.7-17.1-10.7"/>
<g>
	<g>
		<path class="st0" d="M19.3,46.7c0,4.5-2.1,8.2-4.7,8.2c-2.6,0-4.7-3.7-4.7-8.2c0-4.5,2.1-8.2,4.7-8.2
			C17.2,38.5,19.3,42.2,19.3,46.7"/>
		<path d="M19.3,47.1c-1,1-3.1,1.5-4.5,1.6c1.9-1.4,3.6-3.3,4.5-5.5c0.9,2.3,2.7,4,4.5,5.5C22.3,48.5,20.5,48.2,19.3,47.1z"/>
	</g>
</g>
<g>
	<g>
		<path class="st0" d="M47.6,60.3C47.2,64.1,45.3,67,43,67c-2.6,0-4.7-3.7-4.7-8.2c0-4.5,2.1-8.2,4.7-8.2c2.6,0,4.7,3.7,4.7,8.2
			C47.7,59.3,47.6,59.8,47.6,60.3"/>
		<path d="M47.5,60.7c-1.1,0.9-3.3,1.2-4.7,1.1c2.1-1.2,3.9-2.9,5.1-5c0.7,2.3,2.2,4.3,3.9,6C50.4,62.5,48.6,61.9,47.5,60.7z"/>
	</g>
</g>
<g>
	<g>
		<path class="st0" d="M111.8,84c-1.3,4.3-4.3,7.3-6.8,6.5c-2.5-0.7-3.5-4.8-2.2-9.1c1.3-4.3,4.3-7.3,6.8-6.5
			C112.1,75.5,113.1,79.6,111.8,84"/>
		<path d="M111.9,83.6c1.3-0.7,3.4-0.6,4.8-0.2c-2.2,0.8-4.4,2.2-5.9,4.1c-0.2-2.4-1.4-4.6-2.8-6.6
			C109.4,81.3,111.1,82.2,111.9,83.6z"/>
	</g>
</g>
<g>
	<g>
		<path class="st0" d="M150.6,90.7c-0.8,4.4-3.5,7.7-6,7.2c-2.5-0.5-4-4.4-3.2-8.9c0.8-4.4,3.5-7.7,6-7.2
			C150,82.2,151.4,86.2,150.6,90.7"/>
		<path d="M150.7,90.3c1.2-0.8,3.3-1,4.8-0.8c-2.1,1.1-4.1,2.6-5.5,4.7c-0.5-2.4-1.9-4.4-3.5-6.3C148,88.3,149.7,89,150.7,90.3z"/>
	</g>
</g>
<g>
	<g>
		<path class="st0" d="M180.8,75.5c-4.5,0.6-7.8,3.1-7.5,5.6c0.3,2.6,4.2,4.2,8.7,3.6c4.5-0.6,7.8-3.1,7.5-5.6
			C189.1,76.6,185.2,75,180.8,75.5"/>
		<path d="M181.2,75.5c1.2,0.9,1.9,2.9,2.1,4.3c-1.7-1.7-3.7-3.2-6.1-3.8c2.1-1.2,3.7-3.2,4.9-5.2C182.2,72.3,182.1,74.2,181.2,75.5
			z"/>
	</g>
</g>
<g>
	<g>
		<path class="st0" d="M160.6,39.8c-4.2,1.7-6.8,5-5.8,7.4c1,2.4,5.1,3,9.3,1.3c4.2-1.7,6.8-5,5.8-7.4
			C168.9,38.7,164.8,38.1,160.6,39.8"/>
		<path d="M161,39.7c1.4,0.6,2.6,2.3,3.2,3.6c-2-1.2-4.4-2.1-6.8-2.1c1.7-1.7,2.7-4,3.4-6.3C161.2,36.4,161.5,38.2,161,39.7z"/>
	</g>
</g>
<g>
	<g>
		<path class="st0" d="M55.1,12.6c-0.2-3.4,1.3-6.3,3.3-6.4c2-0.1,3.7,2.6,3.8,6c0.2,3.4-1.3,6.3-3.3,6.3C57,18.7,55.2,16,55.1,12.6
			"/>
		<path d="M55.1,13c-1,1.1-3,1.7-4.5,1.8c1.9-1.5,3.4-3.5,4.3-5.7c1,2.2,2.9,3.9,4.8,5.3C58.2,14.3,56.3,14,55.1,13z"/>
	</g>
</g>
<g>
	<g>
		<path class="st0" d="M13.6,20.7c-0.5-4.5,1.2-8.3,3.7-8.6c2.6-0.3,5,3.1,5.5,7.6c0.5,4.5-1.2,8.3-3.7,8.6
			C16.5,28.6,14,25.2,13.6,20.7"/>
		<path d="M13.6,21.1c-0.9,1.2-2.9,1.9-4.3,2.1c1.8-1.6,3.2-3.7,3.9-6c1.1,2.1,3.1,3.7,5.1,5C16.7,22.2,14.9,22,13.6,21.1z"/>
	</g>
</g>
<path class="st0" d="M192,63c0,0-10-22.6-34.4-34.4c-28-13.6-68.9-19.2-77-20.2"/>
<path class="st0" d="M111.3,20.7c0,0-30.7-3.7-46.7-1.7c-26.9,3.4-45,13.4-45,13.4"/>
<g>
	<g>
		<path class="st0" d="M128.6,21c-3.1,1.2-5,3.6-4.2,5.4c0.7,1.7,3.8,2.2,6.8,0.9c3.1-1.2,5-3.6,4.2-5.4
			C134.7,20.2,131.7,19.8,128.6,21"/>
		<path d="M129,20.9c1.4,0.6,2.6,2.3,3.2,3.6c-2-1.2-4.4-2.1-6.8-2.1c1.7-1.7,2.7-4,3.4-6.3C129.2,17.5,129.6,19.4,129,20.9z"/>
	</g>
</g>
<text transform="matrix(0.9559 0.2938 -0.2938 0.9559 92.1509 98.1703)" class="st1 st2">start</text>
<text transform="matrix(0.9428 0.3332 -0.3332 0.9428 23.7695 78.302)" class="st1 st2">finish</text>
</svg>
