<?xml version="1.0" encoding="utf-8"?>
<!-- Generator: Adobe Illustrator 20.0.0, SVG Export Plug-In . SVG Version: 6.00 Build 0)  -->
<svg version="1.1" id="Layer_1" xmlns="http://www.w3.org/2000/svg" xmlns:xlink="http://www.w3.org/1999/xlink" x="0px" y="0px"
	 viewBox="0 0 475 320" style="enable-background:new 0 0 475 320;" xml:space="preserve">
<style type="text/css">
	.st0{fill:none;stroke:#000000;stroke-width:2;}
	.st1{fill:none;stroke:#000000;stroke-dasharray:3,3;}
	.st2{font-family:'TimesNewRomanPSMT';}
	.st3{font-size:12px;}
</style>
<g>
	<line class="st0" x1="397.9" y1="3.1" x2="439.6" y2="109.8"/>
	<line class="st0" x1="439.6" y1="109.8" x2="328" y2="92.1"/>
	<line class="st0" x1="328" y1="92.1" x2="397.9" y2="3.1"/>
	<line class="st0" x1="397.9" y1="3.1" x2="358.8" y2="36.5"/>
	<line class="st0" x1="358.8" y1="36.5" x2="328" y2="92.1"/>
	<line class="st1" x1="358.8" y1="36.5" x2="460.2" y2="49.9"/>
	<line class="st0" x1="460.2" y1="49.9" x2="397.9" y2="3.1"/>
	<line class="st0" x1="460.2" y1="49.9" x2="439.6" y2="109.8"/>
	<line class="st0" x1="439.6" y1="109.8" x2="395.1" y2="132.7"/>
	<line class="st1" x1="395.1" y1="132.7" x2="459.3" y2="50.2"/>
	<line class="st1" x1="395.1" y1="132.7" x2="358.8" y2="36.5"/>
	<line class="st0" x1="395.1" y1="132.7" x2="328" y2="92.1"/>
</g>
<g>
	<line class="st0" x1="64.6" y1="5.5" x2="121" y2="94.2"/>
	<g>
		<line class="st0" x1="64.6" y1="5.5" x2="41.2" y2="127.2"/>
		<line class="st0" x1="41.2" y1="127.2" x2="7.9" y2="77.1"/>
		<line class="st0" x1="7.9" y1="77.1" x2="64.6" y2="5.5"/>
		<line class="st0" x1="121" y1="94.2" x2="41.2" y2="127.2"/>
		<line class="st1" x1="7.9" y1="77.1" x2="121" y2="94.2"/>
	</g>
</g>
<g>
	<rect x="165" y="47.5" class="st0" width="74.1" height="74.1"/>
	<polyline class="st0" points="204.6,19.7 204.6,19 278.7,19 278.7,93.2 	"/>
	<polyline class="st1" points="278.7,93.2 204.6,93.2 204.6,19.7 	"/>
	<line class="st0" x1="165" y1="47.5" x2="204.6" y2="19"/>
	<line class="st0" x1="239.2" y1="47.5" x2="278.7" y2="19"/>
	<line class="st0" x1="239.2" y1="121.7" x2="278.7" y2="93.2"/>
	<line class="st1" x1="165" y1="121.7" x2="204.6" y2="93.2"/>
</g>
<g>
	<g>
		<line class="st0" x1="140.6" y1="149.2" x2="176.9" y2="169.4"/>
		<line class="st0" x1="176.9" y1="169.4" x2="197.4" y2="198.6"/>
		<line class="st0" x1="197.4" y1="198.6" x2="193.8" y2="242.8"/>
		<line class="st0" x1="193.8" y1="242.8" x2="170.1" y2="244.2"/>
		<line class="st0" x1="109.6" y1="192.4" x2="90.9" y2="235.6"/>
		<line class="st0" x1="90.9" y1="235.6" x2="128" y2="268"/>
		<line class="st0" x1="128" y1="268" x2="170.1" y2="244.2"/>
		<line class="st0" x1="170.1" y1="244.2" x2="159.7" y2="197.1"/>
		<line class="st0" x1="159.7" y1="197.1" x2="109.6" y2="192.4"/>
		<line class="st0" x1="109.6" y1="192.4" x2="100.3" y2="162.5"/>
		<line class="st0" x1="100.3" y1="162.5" x2="140.6" y2="149.2"/>
		<line class="st0" x1="140.6" y1="149.2" x2="176.9" y2="169.4"/>
		<line class="st0" x1="159.7" y1="197.1" x2="176.9" y2="169.4"/>
		<line class="st0" x1="128" y1="268" x2="128.8" y2="278.5"/>
		<line class="st0" x1="128.8" y1="278.5" x2="167.2" y2="263.4"/>
		<line class="st0" x1="167.2" y1="263.4" x2="193.8" y2="242.8"/>
		<line class="st0" x1="128.8" y1="278.5" x2="95" y2="256.2"/>
		<line class="st0" x1="95" y1="256.2" x2="71.9" y2="230.8"/>
		<line class="st0" x1="71.9" y1="230.8" x2="90.9" y2="235.6"/>
		<line class="st0" x1="71.9" y1="230.8" x2="77.7" y2="186.4"/>
		<line class="st0" x1="77.7" y1="186.4" x2="100.3" y2="162.5"/>
		<line class="st1" x1="77.7" y1="186.4" x2="103.4" y2="187.6"/>
		<line class="st1" x1="103.4" y1="187.6" x2="140.6" y2="165.5"/>
		<line class="st1" x1="113.7" y1="228.9" x2="103.4" y2="187.6"/>
		<line class="st1" x1="113.7" y1="228.9" x2="156.9" y2="232.9"/>
		<line class="st1" x1="156.9" y1="232.9" x2="173.7" y2="194.3"/>
		<line class="st1" x1="173.7" y1="194.3" x2="140.6" y2="165.5"/>
		<line class="st1" x1="173.7" y1="194.3" x2="197.2" y2="197.9"/>
		<line class="st1" x1="113.7" y1="228.9" x2="95" y2="256.2"/>
		<line class="st1" x1="156.9" y1="232.9" x2="167.8" y2="263.1"/>
		<line class="st1" x1="140.6" y1="165.5" x2="140.4" y2="149.7"/>
	</g>
	<g>
		<line class="st0" x1="320.1" y1="137.9" x2="283.8" y2="187.7"/>
		<line class="st0" x1="283.8" y1="187.7" x2="369.6" y2="187.1"/>
		<line class="st0" x1="369.6" y1="187.1" x2="320.6" y2="137.4"/>
		<line class="st0" x1="320.6" y1="137.4" x2="381.3" y2="178"/>
		<line class="st0" x1="381.3" y1="178" x2="369.6" y2="187.1"/>
		<line class="st0" x1="388.1" y1="252.3" x2="381.3" y2="178"/>
		<line class="st0" x1="369.6" y1="187.1" x2="388.1" y2="252.3"/>
		<line class="st0" x1="388.1" y1="252.3" x2="328.1" y2="262.9"/>
		<line class="st0" x1="328.1" y1="262.9" x2="369.6" y2="187.1"/>
		<line class="st0" x1="328.1" y1="262.9" x2="283.8" y2="187.7"/>
		<line class="st0" x1="283.8" y1="187.7" x2="252" y2="178.5"/>
		<line class="st0" x1="252" y1="178.5" x2="320.6" y2="137.4"/>
		<line class="st0" x1="252" y1="178.5" x2="254.3" y2="254"/>
		<line class="st0" x1="254.3" y1="254" x2="328.1" y2="262.9"/>
		<line class="st0" x1="328.1" y1="262.9" x2="318.6" y2="290.4"/>
		<line class="st0" x1="318.6" y1="290.4" x2="254.3" y2="254"/>
		<line class="st0" x1="318.6" y1="290.4" x2="388.1" y2="252.3"/>
		<line class="st1" x1="320.6" y1="137.4" x2="311.2" y2="173.7"/>
		<line class="st1" x1="311.2" y1="173.7" x2="381.3" y2="178"/>
		<line class="st1" x1="381.3" y1="178" x2="349.5" y2="239.5"/>
		<line class="st1" x1="349.5" y1="239.5" x2="388.1" y2="252.3"/>
		<line class="st1" x1="349.5" y1="239.5" x2="318.6" y2="290.4"/>
		<line class="st1" x1="274.3" y1="240" x2="318.6" y2="290.4"/>
		<line class="st1" x1="274.3" y1="240" x2="254.3" y2="254"/>
		<line class="st1" x1="274.3" y1="240" x2="349.5" y2="239.5"/>
		<line class="st1" x1="350.1" y1="238.6" x2="311.2" y2="173.7"/>
		<line class="st1" x1="311.2" y1="173.7" x2="274.3" y2="240"/>
		<line class="st1" x1="274.3" y1="240" x2="252" y2="178.5"/>
		<line class="st1" x1="252" y1="178.5" x2="311.2" y2="173.7"/>
		<line class="st0" x1="283.8" y1="187.7" x2="254.3" y2="254"/>
	</g>
</g>
<text transform="matrix(1 0 0 1 28 148)" class="st2 st3">v=4, e=6, f=4</text>
<text transform="matrix(1 0 0 1 182 140)" class="st2 st3">v=8,e=12,f=6</text>
<text transform="matrix(1 0 0 1 368 149)" class="st2 st3">v=6, e=12,f=8</text>
<text transform="matrix(1 0 0 1 95 300)" class="st2 st3">v=20,e=30,f=12</text>
<text transform="matrix(1 0 0 1 285 307)" class="st2 st3">v=12,e=30,f=20</text>
</svg>
