<?xml version="1.0" encoding="utf-8"?>
<!-- Generator: Adobe Illustrator 20.0.0, SVG Export Plug-In . SVG Version: 6.00 Build 0)  -->
<svg version="1.1" id="Layer_1" xmlns="http://www.w3.org/2000/svg" xmlns:xlink="http://www.w3.org/1999/xlink" x="0px" y="0px"
	 viewBox="0 0 575 265" style="enable-background:new 0 0 575 265;" xml:space="preserve">
<style type="text/css">
	.st0{fill:none;stroke:#000000;stroke-dasharray:3,3;}
	.st1{fill:none;stroke:#000000;stroke-width:0.5;}
	.st2{fill:none;stroke:#000000;stroke-width:2;}
	.st3{fill:none;stroke:#000000;stroke-width:1.5;}
	.st4{fill:none;stroke:#000000;stroke-width:1.5;stroke-dasharray:3,3;}
	
		.st5{fill-rule:evenodd;clip-rule:evenodd;fill:#ED2224;stroke:#010101;stroke-width:0;stroke-linecap:square;stroke-miterlimit:10;}
</style>
<g>
	<path class="st0" d="M314.3,140.4c-1-9.1,1.3-15.8,1.3-15.8"/>
	<g>
		<circle class="st1" cx="442.8" cy="132.5" r="129"/>
		<path class="st2" d="M463,37.3c0,0,8.3-14.2,15.1-21.7c4.3-4.8,8.5-4.3,8.5-4.3"/>
		<path class="st0" d="M315.6,135.1c0,0-2.1-22.3,4.3-41.9c7.3-22.5,23.1-42.7,23.1-42.7"/>
		<path class="st2" d="M540,214.5c0,0,5.3-6,10.9-17c4.1-8.2,8.4-18.4,11-28.1c5.4-20.5,1.3-38,1.3-38"/>
		<path class="st0" d="M561.8,84.1c-4.1-7.3-9-11.4-9-11.4"/>
		<path class="st2" d="M563.2,131.3c0,0,2.8-5.4,3.8-15.6c0.5-5.7,0.6-12.3-0.4-18.3c-0.9-5.1-2.7-9.6-4.7-13.3"/>
		<path class="st2" d="M398.3,251.8c0,0-11.4-5.6-23.6-14.7c-4.7-3.5-9.4-7.4-13.7-11.8c-14.8-15-23.2-35-23.2-35"/>
		<path class="st2" d="M463,37.3c0,0,14.4,13.2,25,29.3c12.4,18.7,21.3,40.6,21.3,40.6"/>
		<path class="st2" d="M463,37.3c0,0-22.3,0.2-45.5,6.4c-17.9,4.8-38.1,15.8-38.1,15.8"/>
		<path class="st2" d="M379.4,59.5c0,0-5.6,22.4-6.6,42.5c-1.1,21.2,2.4,40.2,2.4,40.2"/>
		<path class="st2" d="M375.2,142.2c0,0,19,9.5,38.7,16.5c19.9,7.1,40.6,11.8,40.6,11.8"/>
		<path class="st2" d="M454.5,170.5c0,0,16.5-16.7,30.7-33.5c12.4-14.7,22.7-29.8,22.7-29.8"/>
		<path class="st2" d="M507.9,107.2c0,0,15.8,3.3,29.8,9c13.9,5.6,26,13.7,26,13.7"/>
		<path class="st2" d="M379.4,59.5c0,0-12.9-7.3-23.6-9.9c-5.9-1.5-12.8,0.9-12.8,0.9"/>
		<line class="st2" x1="454.5" y1="170.5" x2="471.1" y2="237.1"/>
		<path class="st2" d="M398.3,251.8c0,0,20.3,3.9,37.3,0.5c19.2-3.9,35.4-15.1,35.4-15.1"/>
		<path class="st2" d="M471.1,237.1c0,0,20.7,1.1,38.3-4.7c16.9-5.6,30.7-18,30.7-18"/>
		<path class="st2" d="M375.2,142.2c0,0-14.3,11.9-24.1,24.6c-8.8,11.4-13.2,23.6-13.2,23.6"/>
		<path class="st2" d="M337.8,190.4c0,0-6.2-4.4-12.3-13.2c-3.4-4.9-6.8-10.9-9-16.7c-1.3-3.3-1.9-6.6-2.3-9.6"/>
		<g>
			<path class="st0" d="M366.2,161.5c0,0,13.5-19.3,28.8-37.3c15.6-18.3,33.1-35.4,33.1-35.4"/>
			<path class="st0" d="M428.1,88.8c0,0,23.8,5.8,46.3,13.7c23.8,8.4,46.3,18.9,46.3,18.9"/>
			<path class="st0" d="M520.7,121.4c0,0,3.5,23.1,1.4,46.3c-2.1,23.3-9.9,46.8-9.9,46.8"/>
			<path class="st0" d="M418.6,238.1c0,0,8.8,0.2,20.8-0.7c8.7-0.7,19-2,28.8-4.5c23.4-5.9,43.9-18.4,43.9-18.4"/>
			<path class="st0" d="M418.6,238.1c0,0-17.4-14.7-30.2-33.5c-12.6-18.5-20.8-41.1-20.8-41.1"/>
			<line class="st0" x1="428.1" y1="88.8" x2="412" y2="20.3"/>
			<path class="st0" d="M412,20.3c0,0-18.7-0.6-34.4,6.2c-6.3,2.7-12.3,5.9-17.1,8.9C347.8,43.3,344,49.1,344,49.1"/>
			<path class="st0" d="M412,20.3c0,0,19.7-10.5,35-12.3c21.1-2.5,39.7,3.3,39.7,3.3"/>
			<path class="st0" d="M520.7,121.4c0,0,15.3-14.8,23.6-27.4c7.7-11.7,8.5-21.3,8.5-21.3"/>
			<path class="st0" d="M486.7,11.3c0,0,21.1,8.4,38.4,24.2c6.1,5.5,11.5,11.9,16,17.8c8.1,10.8,11.8,19.4,11.8,19.4"/>
			<path class="st0" d="M366.2,161.5c0,0-20.3-5.1-35-12.8c-9.5-4.9-15.6-13.7-15.6-13.7"/>
			<path class="st0" d="M418.6,238.1c0,0-2.8,6.5-7.6,11.3c-3.4,3.4-9.1,5.7-9.1,5.7"/>
		</g>
		<path class="st2" d="M401.9,255.1c0,0-1.6-0.2-2.3-1c-0.7-0.8-0.5-2.2-0.5-2.2"/>
		<path class="st0" d="M512.2,214.5c0,0,7.9,3.3,14.8,4.7c5.5,1.2,10.4,0.6,10.4,0.6"/>
		<path class="st2" d="M537.4,219.8c0,0,1.9-1.1,2.6-2.5c0.6-1.3,0.1-2.9,0.1-2.9"/>
	</g>
	<g>
		<g>
			<g>
				<line class="st3" x1="211.2" y1="49" x2="232.3" y2="26.8"/>
				<path d="M231.8,27.4c-2.7,0.1-6-1.8-7.9-3.6c4.3,0.5,8.8,0.2,12.8-1.6c-1.6,4.1-1.5,8.6-1,12.9C233.9,33,231.9,30.2,231.8,27.4z
					"/>
			</g>
		</g>
		<line class="st3" x1="131.7" y1="132.5" x2="211.2" y2="49"/>
		<g>
			<line class="st2" x1="59.9" y1="72.1" x2="86.3" y2="78.4"/>
			<line class="st2" x1="86.3" y1="78.4" x2="83.5" y2="140.4"/>
			<line class="st2" x1="83.5" y1="140.4" x2="56.1" y2="176.6"/>
			<line class="st2" x1="56.1" y1="176.6" x2="40" y2="135.7"/>
			<line class="st2" x1="40" y1="135.7" x2="60.2" y2="72.7"/>
			<line class="st2" x1="60.2" y1="72.7" x2="110" y2="49.7"/>
			<line class="st2" x1="110" y1="49.7" x2="166.3" y2="43.7"/>
			<line class="st2" x1="166.3" y1="43.7" x2="149.3" y2="62.3"/>
			<line class="st2" x1="149.3" y1="62.3" x2="86.3" y2="78.4"/>
			<line class="st2" x1="149.3" y1="62.3" x2="182.4" y2="113.3"/>
			<line class="st2" x1="182.4" y1="113.3" x2="141.8" y2="161.2"/>
			<line class="st2" x1="141.8" y1="161.2" x2="83.5" y2="140.4"/>
			<line class="st2" x1="182.4" y1="113.3" x2="223.4" y2="131.3"/>
			<line class="st2" x1="223.4" y1="131.3" x2="215.2" y2="87.8"/>
			<line class="st2" x1="215.2" y1="87.8" x2="167.3" y2="44"/>
			<line class="st2" x1="223.4" y1="131.3" x2="206.7" y2="194"/>
			<line class="st2" x1="206" y1="194" x2="154.4" y2="210.6"/>
			<line class="st2" x1="154.4" y1="210.6" x2="141.8" y2="161.2"/>
			<line class="st2" x1="154.4" y1="210.6" x2="100.8" y2="221.4"/>
			<line class="st2" x1="100.8" y1="221.4" x2="56.1" y2="176.6"/>
			<line class="st0" x1="110" y1="49.7" x2="123.2" y2="101"/>
			<line class="st0" x1="123.2" y1="101" x2="191.2" y2="125"/>
			<line class="st0" x1="191.2" y1="125" x2="215.2" y2="88.8"/>
			<line class="st0" x1="191.2" y1="125" x2="185.6" y2="193.6"/>
			<line class="st0" x1="185.6" y1="193.6" x2="206" y2="194"/>
			<line class="st0" x1="185.6" y1="193.6" x2="116.3" y2="211.9"/>
			<line class="st0" x1="116.3" y1="211.9" x2="100.8" y2="221.4"/>
			<line class="st0" x1="116.3" y1="211.9" x2="77.5" y2="155.8"/>
			<line class="st0" x1="77.5" y1="155.8" x2="123.2" y2="101"/>
			<line class="st0" x1="77.5" y1="155.2" x2="41.3" y2="135.1"/>
		</g>
		<circle class="st3" cx="131.7" cy="132.5" r="129"/>
		<path class="st3" d="M260,132.5c0,15-57.4,27.1-128.3,27.1c-70.8,0-128.3-12.1-128.3-27.1"/>
		<path class="st4" d="M3.4,132.5c0-15,57.4-27.1,128.3-27.1c70.8,0,128.3,12.1,128.3,27.1"/>
		<path class="st5" d="M128.2,132.5c0-1.9,1.5-3.5,3.5-3.5c1.9,0,3.5,1.5,3.5,3.5c0,1.9-1.5,3.5-3.5,3.5
			C129.8,136,128.2,134.5,128.2,132.5L128.2,132.5z"/>
		<path class="st5" d="M177.7,82.1c0-1.2,1-2.2,2.2-2.2c1.2,0,2.2,1,2.2,2.2c0,1.2-1,2.2-2.2,2.2C178.6,84.3,177.7,83.3,177.7,82.1
			L177.7,82.1z"/>
		<path class="st5" d="M208.8,48.7c0-1.2,1-2.2,2.2-2.2c1.2,0,2.2,1,2.2,2.2c0,1.2-1,2.2-2.2,2.2C209.8,50.9,208.8,49.9,208.8,48.7
			L208.8,48.7z"/>
	</g>
</g>
</svg>
