<?xml version="1.0" encoding="utf-8"?>
<!-- Generator: Adobe Illustrator 20.0.0, SVG Export Plug-In . SVG Version: 6.00 Build 0)  -->
<svg version="1.1" id="Layer_1" xmlns="http://www.w3.org/2000/svg" xmlns:xlink="http://www.w3.org/1999/xlink" x="0px" y="0px"
	 viewBox="0 0 240 260" style="enable-background:new 0 0 240 260;" xml:space="preserve">
<style type="text/css">
	.st0{fill:none;stroke:#000000;stroke-width:2;}
	.st1{fill:none;stroke:#000000;stroke-dasharray:3,3;}
	.st2{font-family:'TimesNewRomanPSMT';}
	.st3{font-size:12px;}
	.st4{fill:none;stroke:#000000;}
	
		.st5{fill-rule:evenodd;clip-rule:evenodd;fill:#ED2224;stroke:#010101;stroke-width:0;stroke-linecap:square;stroke-miterlimit:10;}
	.st6{font-size:9px;}
</style>
<g>
	<line class="st0" x1="130.4" y1="14" x2="190.8" y2="47.5"/>
	<line class="st0" x1="190.8" y1="47.5" x2="224.9" y2="96.2"/>
	<line class="st0" x1="224.9" y1="96.2" x2="219" y2="169.6"/>
	<line class="st0" x1="219" y1="169.6" x2="179.5" y2="172.1"/>
	<line class="st0" x1="78.9" y1="85.8" x2="47.7" y2="157.7"/>
	<line class="st0" x1="47.7" y1="157.7" x2="109.4" y2="211.6"/>
	<line class="st0" x1="109.4" y1="211.6" x2="179.5" y2="172.1"/>
	<line class="st0" x1="179.5" y1="172.1" x2="162.1" y2="93.6"/>
	<line class="st0" x1="162.1" y1="93.6" x2="78.9" y2="85.8"/>
	<line class="st0" x1="78.9" y1="85.8" x2="63.3" y2="36.1"/>
	<line class="st0" x1="63.3" y1="36.1" x2="130.4" y2="14"/>
	<line class="st0" x1="130.4" y1="14" x2="190.8" y2="47.5"/>
	<line class="st0" x1="162.1" y1="93.6" x2="190.8" y2="47.5"/>
	<line class="st0" x1="109.4" y1="211.6" x2="110.8" y2="229.1"/>
	<line class="st0" x1="110.8" y1="229.1" x2="174.6" y2="204"/>
	<line class="st0" x1="174.6" y1="204" x2="219" y2="169.6"/>
	<line class="st0" x1="110.8" y1="229.1" x2="54.5" y2="192"/>
	<line class="st0" x1="54.5" y1="192" x2="16.1" y2="149.7"/>
	<line class="st0" x1="16.1" y1="149.7" x2="47.7" y2="157.7"/>
	<line class="st0" x1="16.1" y1="149.7" x2="25.7" y2="75.8"/>
	<line class="st0" x1="25.7" y1="75.8" x2="63.3" y2="36.1"/>
	<line class="st1" x1="25.7" y1="75.8" x2="68.4" y2="77.8"/>
	<line class="st1" x1="68.4" y1="77.8" x2="130.3" y2="41.1"/>
	<line class="st1" x1="85.6" y1="146.5" x2="68.4" y2="77.8"/>
	<line class="st1" x1="85.6" y1="146.5" x2="157.5" y2="153.3"/>
	<line class="st1" x1="157.5" y1="153.3" x2="185.4" y2="89"/>
	<line class="st1" x1="185.4" y1="89" x2="130.3" y2="41.1"/>
	<line class="st1" x1="185.4" y1="89" x2="224.5" y2="95"/>
	<line class="st1" x1="85.6" y1="146.5" x2="54.5" y2="192"/>
	<line class="st1" x1="157.5" y1="153.3" x2="175.6" y2="203.5"/>
	<line class="st1" x1="130.3" y1="41.1" x2="130" y2="14.9"/>
</g>
<text transform="matrix(1 0 0 1 80.8843 99.3701)" class="st2 st3">1</text>
<text transform="matrix(1 0 0 1 126.9751 52.9243)" class="st2 st3">1</text>
<text transform="matrix(1 0 0 1 154.6108 104.5728)" class="st2 st3">2</text>
<text transform="matrix(1 0 0 1 175.2979 93.8511)" class="st2 st3">2</text>
<text transform="matrix(1 0 0 1 170.2393 170.9639)" class="st2 st3">3</text>
<text transform="matrix(1 0 0 1 151.1177 149.1416)" class="st2 st3">3</text>
<text transform="matrix(1 0 0 1 109.4556 204.9414)" class="st2 st3">4</text>
<text transform="matrix(1 0 0 1 85.4292 145.0693)" class="st2 st3">4</text>
<text transform="matrix(1 0 0 1 53.8574 157.4512)" class="st2 st3">5</text>
<text transform="matrix(1 0 0 1 70.2388 85.4697)" class="st2 st3">5</text>
<circle class="st4" cx="120.5" cy="121.6" r="118.2"/>
<g>
	<g>
		<path class="st4" d="M145.9,98.5c0.5,1.7,0.8,3.6,0.8,5.5c0,10.8-8.7,19.5-19.5,19.5c-10.8,0-19.5-8.7-19.5-19.5
			s8.7-19.5,19.5-19.5C136.1,84.5,143.5,90.4,145.9,98.5"/>
		<path d="M145.8,98.1c0.7-1.3,2.6-2.4,3.9-2.8c-1.4,1.9-2.5,4.2-2.8,6.6c-1.5-1.9-3.7-3.1-5.9-4.1
			C142.5,97.6,144.4,97.4,145.8,98.1z"/>
	</g>
	<path class="st5" d="M125.9,84.6c0-0.7,0.6-1.3,1.3-1.3c0.7,0,1.3,0.6,1.3,1.3c0,0.7-0.6,1.3-1.3,1.3
		C126.5,85.9,125.9,85.3,125.9,84.6L125.9,84.6z"/>
</g>
<g>
	<g>
		<path class="st4" d="M126.6,130.4c0.4,0.5,0.9,1,1.3,1.6c6.3,8.7,4.4,20.9-4.3,27.2c-8.7,6.3-20.9,4.4-27.2-4.3
			c-6.3-8.7-4.4-20.9,4.3-27.2C108.8,121.7,120.1,123,126.6,130.4"/>
		<path d="M126.4,130.1c0.1-1.5,1.3-3.2,2.3-4.2c-0.5,2.4-0.5,4.9,0.3,7.2c-2.2-1.1-4.7-1.2-7.1-1.1
			C123.2,131,124.8,130,126.4,130.1z"/>
	</g>
	<path class="st5" d="M99.7,128.5c-0.4-0.6-0.3-1.4,0.3-1.8c0.6-0.4,1.4-0.3,1.8,0.3c0.4,0.6,0.3,1.4-0.3,1.8
		C100.9,129.2,100.1,129,99.7,128.5L99.7,128.5z"/>
</g>
<text transform="matrix(1 0 0 1 103.5 254)" class="st2 st3">LSS</text>
<text transform="matrix(1 0 0 1 131.5 137)"><tspan x="0" y="0" class="st2 st3">c</tspan><tspan x="5.3" y="3" class="st2 st6">1</tspan></text>
<text transform="matrix(1 0 0 1 134 105.5)"><tspan x="0" y="0" class="st2 st3">c</tspan><tspan x="5.3" y="3" class="st2 st6">2</tspan></text>
</svg>
