<?xml version="1.0" encoding="utf-8"?>
<!-- Generator: Adobe Illustrator 20.0.0, SVG Export Plug-In . SVG Version: 6.00 Build 0)  -->
<svg version="1.1" id="Layer_1" xmlns="http://www.w3.org/2000/svg" xmlns:xlink="http://www.w3.org/1999/xlink" x="0px" y="0px"
	 viewBox="0 0 200 100" style="enable-background:new 0 0 200 100;" xml:space="preserve">
<style type="text/css">
	.st0{fill:none;stroke:#010101;stroke-width:0.6334;stroke-linecap:square;stroke-miterlimit:10;}
	.st1{fill:#010101;}
	.st2{font-family:'TimesNewRomanPSMT';}
	.st3{font-size:7.601px;}
	.st4{fill:none;stroke:#ED2224;stroke-width:0.6334;stroke-linecap:square;stroke-miterlimit:10;}
	.st5{font-size:8.2345px;}
	.st6{font-size:6px;}
</style>
<g>
	<line class="st0" x1="28.6" y1="73.5" x2="28.6" y2="78.6"/>
	<line class="st0" x1="28.6" y1="78.6" x2="33.7" y2="78.6"/>
	<line class="st0" x1="184.3" y1="78.6" x2="189.4" y2="78.6"/>
	<text transform="matrix(1.0033 0 0 1 182.8642 87.7124)" class="st1 st2 st3">2R</text>
	<text transform="matrix(1.0033 0 0 1 23.5377 82.3801)" class="st1 st2 st3">0</text>
	<line class="st0" x1="189.4" y1="78.6" x2="28.6" y2="78.6"/>
	<line class="st0" x1="28.6" y1="78.6" x2="28.6" y2="15.2"/>
	<g>
		<line class="st4" x1="28.6" y1="78.6" x2="29.3" y2="77.3"/>
		<line class="st4" x1="29.3" y1="77.3" x2="29.9" y2="77.3"/>
		<line class="st4" x1="29.9" y1="77.3" x2="29.9" y2="76"/>
		<line class="st4" x1="29.9" y1="76" x2="30.5" y2="74.8"/>
		<line class="st4" x1="30.5" y1="74.8" x2="31.2" y2="75.4"/>
		<line class="st4" x1="31.2" y1="75.4" x2="31.8" y2="74.8"/>
		<line class="st4" x1="31.8" y1="74.8" x2="32.4" y2="74.1"/>
		<line class="st4" x1="32.4" y1="74.1" x2="33.1" y2="72.9"/>
		<line class="st4" x1="33.1" y1="72.9" x2="33.7" y2="71"/>
		<line class="st4" x1="33.7" y1="71" x2="33.7" y2="72.2"/>
		<line class="st4" x1="33.7" y1="72.2" x2="34.3" y2="72.2"/>
		<line class="st4" x1="34.3" y1="72.2" x2="35" y2="69.7"/>
		<line class="st4" x1="35" y1="69.7" x2="35.6" y2="69.7"/>
		<line class="st4" x1="35.6" y1="69.7" x2="36.2" y2="67.8"/>
		<line class="st4" x1="36.2" y1="67.8" x2="36.9" y2="69.1"/>
		<line class="st4" x1="36.9" y1="69.1" x2="36.9" y2="65.9"/>
		<line class="st4" x1="36.9" y1="65.9" x2="37.5" y2="67.2"/>
		<line class="st4" x1="37.5" y1="67.2" x2="38.2" y2="65.9"/>
		<line class="st4" x1="38.2" y1="65.9" x2="38.8" y2="68.4"/>
		<line class="st4" x1="38.8" y1="68.4" x2="39.4" y2="64"/>
		<line class="st4" x1="39.4" y1="64" x2="40.1" y2="64"/>
		<line class="st4" x1="40.1" y1="64" x2="40.7" y2="65.3"/>
		<line class="st4" x1="40.7" y1="65.3" x2="41.3" y2="63.4"/>
		<line class="st4" x1="41.3" y1="63.4" x2="42" y2="62.7"/>
		<line class="st4" x1="42" y1="62.7" x2="42.6" y2="62.1"/>
		<line class="st4" x1="42.6" y1="62.1" x2="43.2" y2="62.7"/>
		<line class="st4" x1="43.2" y1="62.7" x2="43.9" y2="60.2"/>
		<line class="st4" x1="43.9" y1="60.2" x2="43.9" y2="60.8"/>
		<line class="st4" x1="43.9" y1="60.8" x2="44.5" y2="58.9"/>
		<line class="st4" x1="44.5" y1="58.9" x2="45.1" y2="58.3"/>
		<line class="st4" x1="45.1" y1="58.3" x2="45.8" y2="56.4"/>
		<line class="st4" x1="45.8" y1="56.4" x2="46.4" y2="55.1"/>
		<line class="st4" x1="46.4" y1="55.1" x2="47.1" y2="58.3"/>
		<line class="st4" x1="47.1" y1="58.3" x2="47.1" y2="55.8"/>
		<line class="st4" x1="47.1" y1="55.8" x2="47.7" y2="57.7"/>
		<line class="st4" x1="47.7" y1="57.7" x2="48.3" y2="56.4"/>
		<line class="st4" x1="48.3" y1="56.4" x2="49" y2="57.7"/>
		<line class="st4" x1="49" y1="57.7" x2="49.6" y2="53.2"/>
		<line class="st4" x1="49.6" y1="53.2" x2="50.2" y2="54.5"/>
		<line class="st4" x1="50.2" y1="54.5" x2="50.2" y2="56.4"/>
		<line class="st4" x1="50.2" y1="56.4" x2="50.9" y2="55.1"/>
		<line class="st4" x1="50.9" y1="55.1" x2="51.5" y2="57"/>
		<line class="st4" x1="51.5" y1="57" x2="52.1" y2="52.6"/>
		<line class="st4" x1="52.1" y1="52.6" x2="52.8" y2="53.2"/>
		<line class="st4" x1="52.8" y1="53.2" x2="53.4" y2="52"/>
		<line class="st4" x1="53.4" y1="52" x2="54" y2="52.6"/>
		<line class="st4" x1="54" y1="52.6" x2="54" y2="52"/>
		<line class="st4" x1="54" y1="52" x2="54.7" y2="49.4"/>
		<line class="st4" x1="54.7" y1="49.4" x2="55.3" y2="50.1"/>
		<line class="st4" x1="55.3" y1="50.1" x2="55.9" y2="53.9"/>
		<line class="st4" x1="55.9" y1="53.9" x2="56.6" y2="48.8"/>
		<line class="st4" x1="56.6" y1="48.8" x2="57.2" y2="50.1"/>
		<line class="st4" x1="57.2" y1="50.1" x2="57.2" y2="50.7"/>
		<line class="st4" x1="57.2" y1="50.7" x2="57.9" y2="48.2"/>
		<line class="st4" x1="57.9" y1="48.2" x2="58.5" y2="50.1"/>
		<line class="st4" x1="58.5" y1="50.1" x2="59.1" y2="52"/>
		<line class="st4" x1="59.1" y1="52" x2="59.8" y2="48.2"/>
		<line class="st4" x1="59.8" y1="48.2" x2="60.4" y2="47.5"/>
		<line class="st4" x1="60.4" y1="47.5" x2="61" y2="46.3"/>
		<line class="st4" x1="61" y1="46.3" x2="61.7" y2="47.5"/>
		<line class="st4" x1="61.7" y1="47.5" x2="62.3" y2="45.6"/>
		<line class="st4" x1="62.3" y1="45.6" x2="62.9" y2="43.7"/>
		<line class="st4" x1="62.9" y1="43.7" x2="63.6" y2="43.1"/>
		<line class="st4" x1="63.6" y1="43.1" x2="64.2" y2="48.2"/>
		<line class="st4" x1="64.2" y1="48.2" x2="64.2" y2="47.5"/>
		<line class="st4" x1="64.2" y1="47.5" x2="64.8" y2="42.5"/>
		<line class="st4" x1="64.8" y1="42.5" x2="65.5" y2="40.6"/>
		<line class="st4" x1="65.5" y1="40.6" x2="66.1" y2="42.5"/>
		<line class="st4" x1="66.1" y1="42.5" x2="66.8" y2="43.1"/>
		<line class="st4" x1="66.8" y1="43.1" x2="67.4" y2="42.5"/>
		<line class="st4" x1="67.4" y1="42.5" x2="67.4" y2="38"/>
		<line class="st4" x1="67.4" y1="38" x2="68" y2="41.8"/>
		<line class="st4" x1="68" y1="41.8" x2="68.7" y2="44.4"/>
		<line class="st4" x1="68.7" y1="44.4" x2="69.3" y2="40.6"/>
		<line class="st4" x1="69.3" y1="40.6" x2="69.9" y2="40.6"/>
		<line class="st4" x1="69.9" y1="40.6" x2="70.6" y2="43.1"/>
		<line class="st4" x1="70.6" y1="43.1" x2="71.2" y2="42.5"/>
		<line class="st4" x1="71.2" y1="42.5" x2="71.2" y2="43.7"/>
		<line class="st4" x1="71.2" y1="43.7" x2="71.8" y2="41.8"/>
		<line class="st4" x1="71.8" y1="41.8" x2="72.5" y2="42.5"/>
		<line class="st4" x1="72.5" y1="42.5" x2="73.1" y2="41.8"/>
		<line class="st4" x1="73.1" y1="41.8" x2="73.7" y2="43.7"/>
		<line class="st4" x1="73.7" y1="43.7" x2="74.4" y2="38.7"/>
		<line class="st4" x1="74.4" y1="38.7" x2="74.4" y2="39.9"/>
		<line class="st4" x1="74.4" y1="39.9" x2="75" y2="36.8"/>
		<line class="st4" x1="75" y1="36.8" x2="75.6" y2="38"/>
		<line class="st4" x1="75.6" y1="38" x2="76.3" y2="40.6"/>
		<line class="st4" x1="76.3" y1="40.6" x2="76.9" y2="35.5"/>
		<line class="st4" x1="76.9" y1="35.5" x2="77.6" y2="40.6"/>
		<line class="st4" x1="77.6" y1="40.6" x2="78.2" y2="38.7"/>
		<line class="st4" x1="78.2" y1="38.7" x2="78.2" y2="40.6"/>
		<line class="st4" x1="78.2" y1="40.6" x2="78.8" y2="39.3"/>
		<line class="st4" x1="78.8" y1="39.3" x2="79.5" y2="40.6"/>
		<line class="st4" x1="79.5" y1="40.6" x2="80.1" y2="39.9"/>
		<line class="st4" x1="80.1" y1="39.9" x2="80.7" y2="36.1"/>
		<line class="st4" x1="80.7" y1="36.1" x2="81.4" y2="38"/>
		<line class="st4" x1="81.4" y1="38" x2="81.4" y2="39.9"/>
		<line class="st4" x1="81.4" y1="39.9" x2="82" y2="39.3"/>
		<line class="st4" x1="82" y1="39.3" x2="82.6" y2="38"/>
		<line class="st4" x1="82.6" y1="38" x2="83.3" y2="36.1"/>
		<line class="st4" x1="83.3" y1="36.1" x2="83.9" y2="38"/>
		<line class="st4" x1="83.9" y1="38" x2="84.5" y2="38"/>
		<line class="st4" x1="84.5" y1="38" x2="84.5" y2="37.4"/>
		<line class="st4" x1="84.5" y1="37.4" x2="85.2" y2="35.5"/>
		<line class="st4" x1="85.2" y1="35.5" x2="85.8" y2="35.5"/>
		<line class="st4" x1="85.8" y1="35.5" x2="86.5" y2="35.5"/>
		<line class="st4" x1="86.5" y1="35.5" x2="87.1" y2="36.8"/>
		<line class="st4" x1="87.1" y1="36.8" x2="87.7" y2="38.7"/>
		<line class="st4" x1="87.7" y1="38.7" x2="88.4" y2="34.9"/>
		<line class="st4" x1="88.4" y1="34.9" x2="88.4" y2="37.4"/>
		<line class="st4" x1="88.4" y1="37.4" x2="89" y2="37.4"/>
		<line class="st4" x1="89" y1="37.4" x2="89.6" y2="35.5"/>
		<line class="st4" x1="89.6" y1="35.5" x2="90.3" y2="35.5"/>
		<line class="st4" x1="90.3" y1="35.5" x2="90.9" y2="35.5"/>
		<line class="st4" x1="90.9" y1="35.5" x2="91.5" y2="34.2"/>
		<line class="st4" x1="91.5" y1="34.2" x2="91.5" y2="35.5"/>
		<line class="st4" x1="91.5" y1="35.5" x2="92.2" y2="34.9"/>
		<line class="st4" x1="92.2" y1="34.9" x2="92.8" y2="36.1"/>
		<line class="st4" x1="92.8" y1="36.1" x2="93.4" y2="34.9"/>
		<line class="st4" x1="93.4" y1="34.9" x2="94.1" y2="34.9"/>
		<line class="st4" x1="94.1" y1="34.9" x2="94.7" y2="38.7"/>
		<line class="st4" x1="94.7" y1="38.7" x2="94.7" y2="36.8"/>
		<line class="st4" x1="94.7" y1="36.8" x2="95.4" y2="38.7"/>
		<line class="st4" x1="95.4" y1="38.7" x2="96" y2="37.4"/>
		<line class="st4" x1="96" y1="37.4" x2="96.6" y2="38"/>
		<line class="st4" x1="96.6" y1="38" x2="97.3" y2="33.6"/>
		<line class="st4" x1="97.3" y1="33.6" x2="97.9" y2="37.4"/>
		<line class="st4" x1="97.9" y1="37.4" x2="98.5" y2="35.5"/>
		<line class="st4" x1="98.5" y1="35.5" x2="98.5" y2="36.1"/>
		<line class="st4" x1="98.5" y1="36.1" x2="99.2" y2="38"/>
		<line class="st4" x1="99.2" y1="38" x2="99.8" y2="38.7"/>
		<line class="st4" x1="99.8" y1="38.7" x2="100.4" y2="38"/>
		<line class="st4" x1="100.4" y1="38" x2="101.1" y2="38"/>
		<line class="st4" x1="101.1" y1="38" x2="101.7" y2="38"/>
		<line class="st4" x1="101.7" y1="38" x2="101.7" y2="36.8"/>
		<line class="st4" x1="101.7" y1="36.8" x2="102.3" y2="34.9"/>
		<line class="st4" x1="102.3" y1="34.9" x2="103" y2="41.2"/>
		<line class="st4" x1="103" y1="41.2" x2="103.6" y2="41.2"/>
		<line class="st4" x1="103.6" y1="41.2" x2="104.2" y2="41.2"/>
		<line class="st4" x1="104.2" y1="41.2" x2="104.9" y2="36.8"/>
		<line class="st4" x1="104.9" y1="36.8" x2="105.5" y2="36.1"/>
		<line class="st4" x1="105.5" y1="36.1" x2="105.5" y2="38"/>
		<line class="st4" x1="105.5" y1="38" x2="106.2" y2="33.6"/>
		<line class="st4" x1="106.2" y1="33.6" x2="106.8" y2="37.4"/>
		<line class="st4" x1="106.8" y1="37.4" x2="107.4" y2="34.9"/>
		<line class="st4" x1="107.4" y1="34.9" x2="108.1" y2="41.2"/>
		<line class="st4" x1="108.1" y1="41.2" x2="108.7" y2="38.7"/>
		<line class="st4" x1="108.7" y1="38.7" x2="108.7" y2="34.2"/>
		<line class="st4" x1="108.7" y1="34.2" x2="109.3" y2="36.1"/>
		<line class="st4" x1="109.3" y1="36.1" x2="110" y2="38"/>
		<line class="st4" x1="110" y1="38" x2="110.6" y2="37.4"/>
		<line class="st4" x1="110.6" y1="37.4" x2="111.2" y2="41.2"/>
		<line class="st4" x1="111.2" y1="41.2" x2="111.9" y2="41.2"/>
		<line class="st4" x1="111.9" y1="41.2" x2="111.9" y2="43.7"/>
		<line class="st4" x1="111.9" y1="43.7" x2="112.5" y2="39.3"/>
		<line class="st4" x1="112.5" y1="39.3" x2="113.1" y2="41.2"/>
		<line class="st4" x1="113.1" y1="41.2" x2="113.8" y2="37.4"/>
		<line class="st4" x1="113.8" y1="37.4" x2="114.4" y2="39.9"/>
		<line class="st4" x1="114.4" y1="39.9" x2="115.1" y2="37.4"/>
		<line class="st4" x1="115.1" y1="37.4" x2="115.7" y2="43.7"/>
		<line class="st4" x1="115.7" y1="43.7" x2="116.3" y2="39.9"/>
		<line class="st4" x1="116.3" y1="39.9" x2="117" y2="40.6"/>
		<line class="st4" x1="117" y1="40.6" x2="117.6" y2="39.9"/>
		<line class="st4" x1="117.6" y1="39.9" x2="118.2" y2="39.3"/>
		<line class="st4" x1="118.2" y1="39.3" x2="118.9" y2="38.7"/>
		<line class="st4" x1="118.9" y1="38.7" x2="118.9" y2="43.1"/>
		<line class="st4" x1="118.9" y1="43.1" x2="119.5" y2="41.2"/>
		<line class="st4" x1="119.5" y1="41.2" x2="120.1" y2="42.5"/>
		<line class="st4" x1="120.1" y1="42.5" x2="120.8" y2="43.1"/>
		<line class="st4" x1="120.8" y1="43.1" x2="121.4" y2="43.1"/>
		<line class="st4" x1="121.4" y1="43.1" x2="122" y2="43.7"/>
		<line class="st4" x1="122" y1="43.7" x2="122.7" y2="42.5"/>
		<line class="st4" x1="122.7" y1="42.5" x2="122.7" y2="41.2"/>
		<line class="st4" x1="122.7" y1="41.2" x2="123.3" y2="39.3"/>
		<line class="st4" x1="123.3" y1="39.3" x2="123.9" y2="42.5"/>
		<line class="st4" x1="123.9" y1="42.5" x2="124.6" y2="43.1"/>
		<line class="st4" x1="124.6" y1="43.1" x2="125.2" y2="45"/>
		<line class="st4" x1="125.2" y1="45" x2="125.9" y2="42.5"/>
		<line class="st4" x1="125.9" y1="42.5" x2="125.9" y2="41.8"/>
		<line class="st4" x1="125.9" y1="41.8" x2="126.5" y2="46.9"/>
		<line class="st4" x1="126.5" y1="46.9" x2="127.1" y2="46.3"/>
		<line class="st4" x1="127.1" y1="46.3" x2="127.8" y2="46.3"/>
		<line class="st4" x1="127.8" y1="46.3" x2="128.4" y2="43.7"/>
		<line class="st4" x1="128.4" y1="43.7" x2="129" y2="48.2"/>
		<line class="st4" x1="129" y1="48.2" x2="129" y2="46.3"/>
		<line class="st4" x1="129" y1="46.3" x2="129.7" y2="45.6"/>
		<line class="st4" x1="129.7" y1="45.6" x2="130.3" y2="46.3"/>
		<line class="st4" x1="130.3" y1="46.3" x2="130.9" y2="48.2"/>
		<line class="st4" x1="130.9" y1="48.2" x2="131.6" y2="45.6"/>
		<line class="st4" x1="131.6" y1="45.6" x2="132.2" y2="46.3"/>
		<line class="st4" x1="132.2" y1="46.3" x2="132.8" y2="46.3"/>
		<line class="st4" x1="132.8" y1="46.3" x2="132.8" y2="48.8"/>
		<line class="st4" x1="132.8" y1="48.8" x2="133.5" y2="50.7"/>
		<line class="st4" x1="133.5" y1="50.7" x2="134.1" y2="47.5"/>
		<line class="st4" x1="134.1" y1="47.5" x2="134.8" y2="50.1"/>
		<line class="st4" x1="134.8" y1="50.1" x2="135.4" y2="50.7"/>
		<line class="st4" x1="135.4" y1="50.7" x2="136" y2="49.4"/>
		<line class="st4" x1="136" y1="49.4" x2="136" y2="53.2"/>
		<line class="st4" x1="136" y1="53.2" x2="136.7" y2="50.7"/>
		<line class="st4" x1="136.7" y1="50.7" x2="137.3" y2="52.6"/>
		<line class="st4" x1="137.3" y1="52.6" x2="137.9" y2="52"/>
		<line class="st4" x1="137.9" y1="52" x2="138.6" y2="51.3"/>
		<line class="st4" x1="138.6" y1="51.3" x2="139.2" y2="52.6"/>
		<line class="st4" x1="139.2" y1="52.6" x2="139.8" y2="51.3"/>
		<line class="st4" x1="139.8" y1="51.3" x2="140.5" y2="52.6"/>
		<line class="st4" x1="140.5" y1="52.6" x2="141.1" y2="54.5"/>
		<line class="st4" x1="141.1" y1="54.5" x2="141.7" y2="52"/>
		<line class="st4" x1="141.7" y1="52" x2="142.4" y2="53.9"/>
		<line class="st4" x1="142.4" y1="53.9" x2="143" y2="54.5"/>
		<line class="st4" x1="143" y1="54.5" x2="143" y2="52.6"/>
		<line class="st4" x1="143" y1="52.6" x2="143.6" y2="54.5"/>
		<line class="st4" x1="143.6" y1="54.5" x2="144.3" y2="55.1"/>
		<line class="st4" x1="144.3" y1="55.1" x2="144.9" y2="52.6"/>
		<line class="st4" x1="144.9" y1="52.6" x2="145.6" y2="53.9"/>
		<line class="st4" x1="145.6" y1="53.9" x2="146.2" y2="55.8"/>
		<line class="st4" x1="146.2" y1="55.8" x2="146.2" y2="54.5"/>
		<line class="st4" x1="146.2" y1="54.5" x2="146.8" y2="56.4"/>
		<line class="st4" x1="146.8" y1="56.4" x2="147.5" y2="57"/>
		<line class="st4" x1="147.5" y1="57" x2="148.1" y2="57"/>
		<line class="st4" x1="148.1" y1="57" x2="148.7" y2="56.4"/>
		<line class="st4" x1="148.7" y1="56.4" x2="149.4" y2="58.9"/>
		<line class="st4" x1="149.4" y1="58.9" x2="150" y2="58.3"/>
		<line class="st4" x1="150" y1="58.3" x2="150" y2="57.7"/>
		<line class="st4" x1="150" y1="57.7" x2="150.6" y2="58.9"/>
		<line class="st4" x1="150.6" y1="58.9" x2="151.3" y2="59.6"/>
		<line class="st4" x1="151.3" y1="59.6" x2="151.9" y2="60.2"/>
		<line class="st4" x1="151.9" y1="60.2" x2="152.5" y2="56.4"/>
		<line class="st4" x1="152.5" y1="56.4" x2="153.2" y2="60.2"/>
		<line class="st4" x1="153.2" y1="60.2" x2="153.2" y2="60.8"/>
		<line class="st4" x1="153.2" y1="60.8" x2="153.8" y2="60.8"/>
		<line class="st4" x1="153.8" y1="60.8" x2="154.5" y2="62.1"/>
		<line class="st4" x1="154.5" y1="62.1" x2="155.1" y2="60.8"/>
		<line class="st4" x1="155.1" y1="60.8" x2="155.7" y2="60.2"/>
		<line class="st4" x1="155.7" y1="60.2" x2="156.4" y2="58.3"/>
		<line class="st4" x1="156.4" y1="58.3" x2="156.4" y2="61.5"/>
		<line class="st4" x1="156.4" y1="61.5" x2="157" y2="62.1"/>
		<line class="st4" x1="157" y1="62.1" x2="157.6" y2="62.1"/>
		<line class="st4" x1="157.6" y1="62.1" x2="158.3" y2="62.7"/>
		<line class="st4" x1="158.3" y1="62.7" x2="158.9" y2="65.3"/>
		<line class="st4" x1="158.9" y1="65.3" x2="159.5" y2="64.6"/>
		<line class="st4" x1="159.5" y1="64.6" x2="160.2" y2="65.3"/>
		<line class="st4" x1="160.2" y1="65.3" x2="160.2" y2="64"/>
		<line class="st4" x1="160.2" y1="64" x2="160.8" y2="65.3"/>
		<line class="st4" x1="160.8" y1="65.3" x2="161.4" y2="65.9"/>
		<line class="st4" x1="161.4" y1="65.9" x2="162.1" y2="66.5"/>
		<line class="st4" x1="162.1" y1="66.5" x2="162.7" y2="64.6"/>
		<line class="st4" x1="162.7" y1="64.6" x2="163.3" y2="65.9"/>
		<line class="st4" x1="163.3" y1="65.9" x2="163.3" y2="67.2"/>
		<line class="st4" x1="163.3" y1="67.2" x2="164" y2="67.2"/>
		<line class="st4" x1="164" y1="67.2" x2="164.6" y2="67.2"/>
		<line class="st4" x1="164.6" y1="67.2" x2="165.3" y2="68.4"/>
		<line class="st4" x1="165.3" y1="68.4" x2="165.9" y2="69.1"/>
		<line class="st4" x1="165.9" y1="69.1" x2="166.5" y2="68.4"/>
		<line class="st4" x1="166.5" y1="68.4" x2="167.2" y2="68.4"/>
		<line class="st4" x1="167.2" y1="68.4" x2="167.8" y2="71"/>
		<line class="st4" x1="167.8" y1="71" x2="168.4" y2="70.3"/>
		<line class="st4" x1="168.4" y1="70.3" x2="169.1" y2="69.1"/>
		<line class="st4" x1="169.1" y1="69.1" x2="169.7" y2="69.1"/>
		<line class="st4" x1="169.7" y1="69.1" x2="170.3" y2="70.3"/>
		<line class="st4" x1="170.3" y1="70.3" x2="170.3" y2="71.6"/>
		<line class="st4" x1="170.3" y1="71.6" x2="171" y2="70.3"/>
		<line class="st4" x1="171" y1="70.3" x2="171.6" y2="71"/>
		<line class="st4" x1="171.6" y1="71" x2="172.2" y2="72.2"/>
		<line class="st4" x1="172.2" y1="72.2" x2="172.9" y2="70.3"/>
		<line class="st4" x1="172.9" y1="70.3" x2="173.5" y2="72.2"/>
		<line class="st4" x1="173.5" y1="72.2" x2="173.5" y2="72.9"/>
		<line class="st4" x1="173.5" y1="72.9" x2="174.2" y2="73.5"/>
		<line class="st4" x1="174.2" y1="73.5" x2="174.8" y2="73.5"/>
		<line class="st4" x1="174.8" y1="73.5" x2="175.4" y2="73.5"/>
		<line class="st4" x1="175.4" y1="73.5" x2="176.1" y2="73.5"/>
		<line class="st4" x1="176.1" y1="73.5" x2="176.7" y2="73.5"/>
		<line class="st4" x1="176.7" y1="73.5" x2="177.3" y2="75.4"/>
		<line class="st4" x1="177.3" y1="75.4" x2="178" y2="73.5"/>
		<line class="st4" x1="178" y1="73.5" x2="178.6" y2="75.4"/>
		<line class="st4" x1="178.6" y1="75.4" x2="179.2" y2="76"/>
		<line class="st4" x1="179.2" y1="76" x2="179.9" y2="76.7"/>
		<line class="st4" x1="179.9" y1="76.7" x2="180.5" y2="75.4"/>
		<line class="st4" x1="180.5" y1="75.4" x2="180.5" y2="76.7"/>
		<line class="st4" x1="180.5" y1="76.7" x2="181.1" y2="76"/>
		<line class="st4" x1="181.1" y1="76" x2="181.8" y2="76.7"/>
		<line class="st4" x1="181.8" y1="76.7" x2="182.4" y2="76.7"/>
		<line class="st4" x1="182.4" y1="76.7" x2="183.1" y2="77.3"/>
		<line class="st4" x1="183.1" y1="77.3" x2="183.7" y2="77.3"/>
		<line class="st4" x1="183.7" y1="77.3" x2="183.7" y2="77.9"/>
		<line class="st4" x1="183.7" y1="77.9" x2="184.3" y2="77.9"/>
		<line class="st4" x1="184.3" y1="77.9" x2="185" y2="77.9"/>
		<line class="st4" x1="185" y1="77.9" x2="185.6" y2="77.9"/>
		<line class="st4" x1="185.6" y1="77.9" x2="186.2" y2="77.9"/>
		<line class="st4" x1="186.2" y1="77.9" x2="186.9" y2="77.9"/>
		<line class="st4" x1="186.9" y1="77.9" x2="187.5" y2="77.9"/>
		<line class="st4" x1="187.5" y1="77.9" x2="188.1" y2="77.9"/>
		<line class="st4" x1="188.1" y1="77.9" x2="188.8" y2="78.6"/>
	</g>
	<text transform="matrix(1.0033 0 0 1 54.9845 12.5586)" class="st1 st2 st5">Pair Separation Histogram</text>
	<text transform="matrix(1 0 0 1 4.5 18.5)"><tspan x="0" y="0" class="st2 st6">relative</tspan><tspan x="0" y="7.2" class="st2 st6">frequency</tspan></text>
	<text transform="matrix(1 0 0 1 176.5 94.5)" class="st2 st6">distance</text>
</g>
</svg>
