<?xml version="1.0" encoding="utf-8"?>
<!-- Generator: Adobe Illustrator 20.0.0, SVG Export Plug-In . SVG Version: 6.00 Build 0)  -->
<svg version="1.1" id="Layer_1" xmlns="http://www.w3.org/2000/svg" xmlns:xlink="http://www.w3.org/1999/xlink" x="0px" y="0px"
	 viewBox="0 0 320 180" style="enable-background:new 0 0 320 180;" xml:space="preserve">
<style type="text/css">
	.st0{fill:none;stroke:#010101;stroke-width:0.6344;stroke-linecap:square;stroke-miterlimit:10;}
	.st1{fill:#010101;}
	.st2{font-family:'TimesNewRomanPSMT';}
	.st3{font-size:7.6131px;}
	.st4{clip-path:url(#SVGID_2_);fill:none;stroke:#3A53A4;stroke-width:0.6344;stroke-linecap:square;stroke-miterlimit:10;}
	.st5{fill:none;stroke:#ED2224;stroke-width:0;stroke-linecap:square;stroke-miterlimit:10;}
	.st6{font-size:8.2475px;}
</style>
<g>
	<line class="st0" x1="20.4" y1="17.4" x2="20.4" y2="22.4"/>
	<line class="st0" x1="20.4" y1="159.5" x2="20.4" y2="164.6"/>
	<line class="st0" x1="92.2" y1="17.4" x2="92.2" y2="22.4"/>
	<line class="st0" x1="92.2" y1="159.5" x2="92.2" y2="164.6"/>
	<line class="st0" x1="163.9" y1="17.4" x2="163.9" y2="22.4"/>
	<line class="st0" x1="163.9" y1="159.5" x2="163.9" y2="164.6"/>
	<line class="st0" x1="235.6" y1="17.4" x2="235.6" y2="22.4"/>
	<line class="st0" x1="235.6" y1="159.5" x2="235.6" y2="164.6"/>
	<line class="st0" x1="307.4" y1="17.4" x2="307.4" y2="22.4"/>
	<line class="st0" x1="307.4" y1="159.5" x2="307.4" y2="164.6"/>
	<line class="st0" x1="20.4" y1="164.6" x2="25.5" y2="164.6"/>
	<line class="st0" x1="302.9" y1="164.6" x2="308" y2="164.6"/>
	<line class="st0" x1="20.4" y1="127.8" x2="25.5" y2="127.8"/>
	<line class="st0" x1="302.9" y1="127.8" x2="308" y2="127.8"/>
	<line class="st0" x1="20.4" y1="91" x2="25.5" y2="91"/>
	<line class="st0" x1="302.9" y1="91" x2="308" y2="91"/>
	<line class="st0" x1="20.4" y1="53.5" x2="25.5" y2="53.5"/>
	<line class="st0" x1="302.9" y1="53.5" x2="308" y2="53.5"/>
	<line class="st0" x1="20.4" y1="17.4" x2="25.5" y2="17.4"/>
	<line class="st0" x1="302.9" y1="17.4" x2="308" y2="17.4"/>
	<text transform="matrix(1.0007 0 0 1 19.7836 174.7031)" class="st1 st2 st3">0</text>
	<text transform="matrix(1.0007 0 0 1 91.517 174.7031)" class="st1 st2 st3">5</text>
	<text transform="matrix(1.0007 0 0 1 161.3502 174.7031)" class="st1 st2 st3">10</text>
	<text transform="matrix(1.0007 0 0 1 233.0878 174.7031)" class="st1 st2 st3">15</text>
	<text transform="matrix(1.0007 0 0 1 304.8249 174.7031)" class="st1 st2 st3">20</text>
	<line class="st0" x1="20.4" y1="17.4" x2="308" y2="17.4"/>
	<line class="st0" x1="308" y1="17.4" x2="308" y2="164.6"/>
	<line class="st0" x1="308" y1="164.6" x2="20.4" y2="164.6"/>
	<line class="st0" x1="20.4" y1="164.6" x2="20.4" y2="17.4"/>
	<g>
		<defs>
			<polygon id="SVGID_1_" points="20.4,17.4 308.6,17.4 308.6,165.2 20.4,165.2 20.4,17.4 			"/>
		</defs>
		<clipPath id="SVGID_2_">
			<use xlink:href="#SVGID_1_"  style="overflow:visible;"/>
		</clipPath>
		<line class="st4" x1="20.4" y1="164.6" x2="21.1" y2="164.6"/>
		<line class="st4" x1="21.1" y1="164.6" x2="21.7" y2="164.6"/>
		<line class="st4" x1="21.7" y1="164.6" x2="22.3" y2="162"/>
		<line class="st4" x1="22.3" y1="162" x2="23" y2="164.6"/>
		<line class="st4" x1="23" y1="164.6" x2="23" y2="162.6"/>
		<line class="st4" x1="23" y1="162.6" x2="23.6" y2="158.2"/>
		<line class="st4" x1="23.6" y1="158.2" x2="24.2" y2="161.4"/>
		<line class="st4" x1="24.2" y1="161.4" x2="24.9" y2="164.6"/>
		<line class="st4" x1="24.9" y1="164.6" x2="25.5" y2="162.6"/>
		<line class="st4" x1="25.5" y1="162.6" x2="26.1" y2="156.9"/>
		<line class="st4" x1="26.1" y1="156.9" x2="26.8" y2="156.3"/>
		<line class="st4" x1="26.8" y1="156.3" x2="27.4" y2="152.5"/>
		<line class="st4" x1="27.4" y1="152.5" x2="28" y2="156.9"/>
		<line class="st4" x1="28" y1="156.9" x2="28.7" y2="162.6"/>
		<line class="st4" x1="28.7" y1="162.6" x2="29.3" y2="150.6"/>
		<line class="st4" x1="29.3" y1="150.6" x2="29.3" y2="156.3"/>
		<line class="st4" x1="29.3" y1="156.3" x2="29.9" y2="156.9"/>
		<line class="st4" x1="29.9" y1="156.9" x2="30.6" y2="146.2"/>
		<line class="st4" x1="30.6" y1="146.2" x2="31.2" y2="156.3"/>
		<line class="st4" x1="31.2" y1="156.3" x2="31.8" y2="158.2"/>
		<line class="st4" x1="31.8" y1="158.2" x2="32.5" y2="144.9"/>
		<line class="st4" x1="32.5" y1="144.9" x2="33.1" y2="148.1"/>
		<line class="st4" x1="33.1" y1="148.1" x2="33.7" y2="156.9"/>
		<line class="st4" x1="33.7" y1="156.9" x2="34.4" y2="154.4"/>
		<line class="st4" x1="34.4" y1="154.4" x2="35" y2="137.9"/>
		<line class="st4" x1="35" y1="137.9" x2="35.7" y2="151.9"/>
		<line class="st4" x1="35.7" y1="151.9" x2="35.7" y2="152.5"/>
		<line class="st4" x1="35.7" y1="152.5" x2="36.3" y2="143"/>
		<line class="st4" x1="36.3" y1="143" x2="36.9" y2="149.3"/>
		<line class="st4" x1="36.9" y1="149.3" x2="37.6" y2="140.4"/>
		<line class="st4" x1="37.6" y1="140.4" x2="38.2" y2="141.1"/>
		<line class="st4" x1="38.2" y1="141.1" x2="38.8" y2="148.1"/>
		<line class="st4" x1="38.8" y1="148.1" x2="39.5" y2="147.4"/>
		<line class="st4" x1="39.5" y1="147.4" x2="40.1" y2="152.5"/>
		<line class="st4" x1="40.1" y1="152.5" x2="40.7" y2="144.9"/>
		<line class="st4" x1="40.7" y1="144.9" x2="41.4" y2="143"/>
		<line class="st4" x1="41.4" y1="143" x2="41.4" y2="132.8"/>
		<line class="st4" x1="41.4" y1="132.8" x2="42" y2="143"/>
		<line class="st4" x1="42" y1="143" x2="42.6" y2="141.1"/>
		<line class="st4" x1="42.6" y1="141.1" x2="43.3" y2="148.1"/>
		<line class="st4" x1="43.3" y1="148.1" x2="43.9" y2="143"/>
		<line class="st4" x1="43.9" y1="143" x2="44.5" y2="147.4"/>
		<line class="st4" x1="44.5" y1="147.4" x2="45.2" y2="149.3"/>
		<line class="st4" x1="45.2" y1="149.3" x2="45.8" y2="143.6"/>
		<line class="st4" x1="45.8" y1="143.6" x2="46.4" y2="143"/>
		<line class="st4" x1="46.4" y1="143" x2="47.1" y2="137.3"/>
		<line class="st4" x1="47.1" y1="137.3" x2="47.7" y2="146.2"/>
		<line class="st4" x1="47.7" y1="146.2" x2="47.7" y2="139.2"/>
		<line class="st4" x1="47.7" y1="139.2" x2="48.4" y2="141.7"/>
		<line class="st4" x1="48.4" y1="141.7" x2="49" y2="122"/>
		<line class="st4" x1="49" y1="122" x2="49.6" y2="143.6"/>
		<line class="st4" x1="49.6" y1="143.6" x2="50.3" y2="137.9"/>
		<line class="st4" x1="50.3" y1="137.9" x2="50.9" y2="145.5"/>
		<line class="st4" x1="50.9" y1="145.5" x2="51.5" y2="144.3"/>
		<line class="st4" x1="51.5" y1="144.3" x2="52.2" y2="137.9"/>
		<line class="st4" x1="52.2" y1="137.9" x2="52.8" y2="150"/>
		<line class="st4" x1="52.8" y1="150" x2="53.4" y2="146.2"/>
		<line class="st4" x1="53.4" y1="146.2" x2="54.1" y2="147.4"/>
		<line class="st4" x1="54.1" y1="147.4" x2="54.1" y2="137.3"/>
		<line class="st4" x1="54.1" y1="137.3" x2="54.7" y2="130.3"/>
		<line class="st4" x1="54.7" y1="130.3" x2="55.3" y2="143.6"/>
		<line class="st4" x1="55.3" y1="143.6" x2="56" y2="132.2"/>
		<line class="st4" x1="56" y1="132.2" x2="56.6" y2="127.1"/>
		<line class="st4" x1="56.6" y1="127.1" x2="57.2" y2="130.9"/>
		<line class="st4" x1="57.2" y1="130.9" x2="57.9" y2="124.6"/>
		<line class="st4" x1="57.9" y1="124.6" x2="58.5" y2="129"/>
		<line class="st4" x1="58.5" y1="129" x2="59.1" y2="130.9"/>
		<line class="st4" x1="59.1" y1="130.9" x2="59.8" y2="127.8"/>
		<line class="st4" x1="59.8" y1="127.8" x2="59.8" y2="123.3"/>
		<line class="st4" x1="59.8" y1="123.3" x2="60.4" y2="140.4"/>
		<line class="st4" x1="60.4" y1="140.4" x2="61" y2="137.3"/>
		<line class="st4" x1="61" y1="137.3" x2="61.7" y2="122.7"/>
		<line class="st4" x1="61.7" y1="122.7" x2="62.3" y2="126.5"/>
		<line class="st4" x1="62.3" y1="126.5" x2="63" y2="132.2"/>
		<line class="st4" x1="63" y1="132.2" x2="63.6" y2="139.8"/>
		<line class="st4" x1="63.6" y1="139.8" x2="64.2" y2="132.2"/>
		<line class="st4" x1="64.2" y1="132.2" x2="64.9" y2="119.5"/>
		<line class="st4" x1="64.9" y1="119.5" x2="65.5" y2="120.1"/>
		<line class="st4" x1="65.5" y1="120.1" x2="66.1" y2="130.9"/>
		<line class="st4" x1="66.1" y1="130.9" x2="66.1" y2="122"/>
		<line class="st4" x1="66.1" y1="122" x2="66.8" y2="110.6"/>
		<line class="st4" x1="66.8" y1="110.6" x2="67.4" y2="128.4"/>
		<line class="st4" x1="67.4" y1="128.4" x2="68" y2="132.8"/>
		<line class="st4" x1="68" y1="132.8" x2="68.7" y2="130.9"/>
		<line class="st4" x1="68.7" y1="130.9" x2="69.3" y2="127.8"/>
		<line class="st4" x1="69.3" y1="127.8" x2="69.9" y2="127.8"/>
		<line class="st4" x1="69.9" y1="127.8" x2="70.6" y2="130.9"/>
		<line class="st4" x1="70.6" y1="130.9" x2="71.2" y2="132.2"/>
		<line class="st4" x1="71.2" y1="132.2" x2="71.8" y2="127.8"/>
		<line class="st4" x1="71.8" y1="127.8" x2="71.8" y2="111.3"/>
		<line class="st4" x1="71.8" y1="111.3" x2="72.5" y2="125.9"/>
		<line class="st4" x1="72.5" y1="125.9" x2="73.1" y2="123.9"/>
		<line class="st4" x1="73.1" y1="123.9" x2="73.7" y2="127.8"/>
		<line class="st4" x1="73.7" y1="127.8" x2="74.4" y2="115.7"/>
		<line class="st4" x1="74.4" y1="115.7" x2="75" y2="117"/>
		<line class="st4" x1="75" y1="117" x2="75.6" y2="127.8"/>
		<line class="st4" x1="75.6" y1="127.8" x2="76.3" y2="109.4"/>
		<line class="st4" x1="76.3" y1="109.4" x2="76.9" y2="127.8"/>
		<line class="st4" x1="76.9" y1="127.8" x2="77.6" y2="122.7"/>
		<line class="st4" x1="77.6" y1="122.7" x2="78.2" y2="110.6"/>
		<line class="st4" x1="78.2" y1="110.6" x2="78.2" y2="119.5"/>
		<line class="st4" x1="78.2" y1="119.5" x2="78.8" y2="134.7"/>
		<line class="st4" x1="78.8" y1="134.7" x2="79.5" y2="118.9"/>
		<line class="st4" x1="79.5" y1="118.9" x2="80.1" y2="118.2"/>
		<line class="st4" x1="80.1" y1="118.2" x2="80.7" y2="119.5"/>
		<line class="st4" x1="80.7" y1="119.5" x2="81.4" y2="105.5"/>
		<line class="st4" x1="81.4" y1="105.5" x2="82" y2="119.5"/>
		<line class="st4" x1="82" y1="119.5" x2="82.6" y2="130.9"/>
		<line class="st4" x1="82.6" y1="130.9" x2="83.3" y2="109.4"/>
		<line class="st4" x1="83.3" y1="109.4" x2="83.9" y2="111.3"/>
		<line class="st4" x1="83.9" y1="111.3" x2="84.5" y2="121.4"/>
		<line class="st4" x1="84.5" y1="121.4" x2="84.5" y2="123.9"/>
		<line class="st4" x1="84.5" y1="123.9" x2="85.2" y2="117"/>
		<line class="st4" x1="85.2" y1="117" x2="85.8" y2="117"/>
		<line class="st4" x1="85.8" y1="117" x2="86.4" y2="114.4"/>
		<line class="st4" x1="86.4" y1="114.4" x2="87.1" y2="105.5"/>
		<line class="st4" x1="87.1" y1="105.5" x2="87.7" y2="110"/>
		<line class="st4" x1="87.7" y1="110" x2="88.3" y2="117"/>
		<line class="st4" x1="88.3" y1="117" x2="89" y2="122"/>
		<line class="st4" x1="89" y1="122" x2="89.6" y2="111.3"/>
		<line class="st4" x1="89.6" y1="111.3" x2="90.2" y2="124.6"/>
		<line class="st4" x1="90.2" y1="124.6" x2="90.2" y2="110.6"/>
		<line class="st4" x1="90.2" y1="110.6" x2="90.9" y2="120.1"/>
		<line class="st4" x1="90.9" y1="120.1" x2="91.5" y2="117"/>
		<line class="st4" x1="91.5" y1="117" x2="92.2" y2="108.7"/>
		<line class="st4" x1="92.2" y1="108.7" x2="92.8" y2="124.6"/>
		<line class="st4" x1="92.8" y1="124.6" x2="93.4" y2="101.7"/>
		<line class="st4" x1="93.4" y1="101.7" x2="94.1" y2="97.9"/>
		<line class="st4" x1="94.1" y1="97.9" x2="94.7" y2="117"/>
		<line class="st4" x1="94.7" y1="117" x2="95.3" y2="122.7"/>
		<line class="st4" x1="95.3" y1="122.7" x2="96" y2="103"/>
		<line class="st4" x1="96" y1="103" x2="96.6" y2="117"/>
		<line class="st4" x1="96.6" y1="117" x2="96.6" y2="115.1"/>
		<line class="st4" x1="96.6" y1="115.1" x2="97.2" y2="122"/>
		<line class="st4" x1="97.2" y1="122" x2="97.9" y2="114.4"/>
		<line class="st4" x1="97.9" y1="114.4" x2="98.5" y2="104.9"/>
		<line class="st4" x1="98.5" y1="104.9" x2="99.1" y2="118.9"/>
		<line class="st4" x1="99.1" y1="118.9" x2="99.8" y2="113.2"/>
		<line class="st4" x1="99.8" y1="113.2" x2="100.4" y2="102.4"/>
		<line class="st4" x1="100.4" y1="102.4" x2="101" y2="101.1"/>
		<line class="st4" x1="101" y1="101.1" x2="101.7" y2="92.9"/>
		<line class="st4" x1="101.7" y1="92.9" x2="102.3" y2="108.7"/>
		<line class="st4" x1="102.3" y1="108.7" x2="102.9" y2="119.5"/>
		<line class="st4" x1="102.9" y1="119.5" x2="102.9" y2="121.4"/>
		<line class="st4" x1="102.9" y1="121.4" x2="103.6" y2="101.7"/>
		<line class="st4" x1="103.6" y1="101.7" x2="104.2" y2="114.4"/>
		<line class="st4" x1="104.2" y1="114.4" x2="104.9" y2="97.3"/>
		<line class="st4" x1="104.9" y1="97.3" x2="105.5" y2="119.5"/>
		<line class="st4" x1="105.5" y1="119.5" x2="106.1" y2="106.8"/>
		<line class="st4" x1="106.1" y1="106.8" x2="106.8" y2="106.2"/>
		<line class="st4" x1="106.8" y1="106.2" x2="107.4" y2="107.5"/>
		<line class="st4" x1="107.4" y1="107.5" x2="108" y2="110.6"/>
		<line class="st4" x1="108" y1="110.6" x2="108.7" y2="107.5"/>
		<line class="st4" x1="108.7" y1="107.5" x2="108.7" y2="113.8"/>
		<line class="st4" x1="108.7" y1="113.8" x2="109.3" y2="120.1"/>
		<line class="st4" x1="109.3" y1="120.1" x2="109.9" y2="108.7"/>
		<line class="st4" x1="109.9" y1="108.7" x2="110.6" y2="113.2"/>
		<line class="st4" x1="110.6" y1="113.2" x2="111.2" y2="97.3"/>
		<line class="st4" x1="111.2" y1="97.3" x2="111.8" y2="85.9"/>
		<line class="st4" x1="111.8" y1="85.9" x2="112.5" y2="106.2"/>
		<line class="st4" x1="112.5" y1="106.2" x2="113.1" y2="105.5"/>
		<line class="st4" x1="113.1" y1="105.5" x2="113.7" y2="104.9"/>
		<line class="st4" x1="113.7" y1="104.9" x2="114.4" y2="105.5"/>
		<line class="st4" x1="114.4" y1="105.5" x2="115" y2="101.7"/>
		<line class="st4" x1="115" y1="101.7" x2="115" y2="93.5"/>
		<line class="st4" x1="115" y1="93.5" x2="115.6" y2="115.1"/>
		<line class="st4" x1="115.6" y1="115.1" x2="116.3" y2="106.2"/>
		<line class="st4" x1="116.3" y1="106.2" x2="116.9" y2="115.7"/>
		<line class="st4" x1="116.9" y1="115.7" x2="117.5" y2="106.2"/>
		<line class="st4" x1="117.5" y1="106.2" x2="118.2" y2="104.9"/>
		<line class="st4" x1="118.2" y1="104.9" x2="118.8" y2="104.9"/>
		<line class="st4" x1="118.8" y1="104.9" x2="119.5" y2="113.8"/>
		<line class="st4" x1="119.5" y1="113.8" x2="120.1" y2="110"/>
		<line class="st4" x1="120.1" y1="110" x2="120.7" y2="99.8"/>
		<line class="st4" x1="120.7" y1="99.8" x2="121.4" y2="98.6"/>
		<line class="st4" x1="121.4" y1="98.6" x2="121.4" y2="93.5"/>
		<line class="st4" x1="121.4" y1="93.5" x2="122" y2="98.6"/>
		<line class="st4" x1="122" y1="98.6" x2="122.6" y2="110"/>
		<line class="st4" x1="122.6" y1="110" x2="123.3" y2="111.9"/>
		<line class="st4" x1="123.3" y1="111.9" x2="123.9" y2="110"/>
		<line class="st4" x1="123.9" y1="110" x2="124.5" y2="102.4"/>
		<line class="st4" x1="124.5" y1="102.4" x2="125.2" y2="99.8"/>
		<line class="st4" x1="125.2" y1="99.8" x2="125.8" y2="97.9"/>
		<line class="st4" x1="125.8" y1="97.9" x2="126.4" y2="101.1"/>
		<line class="st4" x1="126.4" y1="101.1" x2="127.1" y2="107.5"/>
		<line class="st4" x1="127.1" y1="107.5" x2="127.1" y2="110"/>
		<line class="st4" x1="127.1" y1="110" x2="127.7" y2="102.4"/>
		<line class="st4" x1="127.7" y1="102.4" x2="128.3" y2="108.7"/>
		<line class="st4" x1="128.3" y1="108.7" x2="129" y2="92.9"/>
		<line class="st4" x1="129" y1="92.9" x2="129.6" y2="108.7"/>
		<line class="st4" x1="129.6" y1="108.7" x2="130.2" y2="109.4"/>
		<line class="st4" x1="130.2" y1="109.4" x2="130.9" y2="106.8"/>
		<line class="st4" x1="130.9" y1="106.8" x2="131.5" y2="104.3"/>
		<line class="st4" x1="131.5" y1="104.3" x2="132.1" y2="100.5"/>
		<line class="st4" x1="132.1" y1="100.5" x2="132.8" y2="111.9"/>
		<line class="st4" x1="132.8" y1="111.9" x2="133.4" y2="97.9"/>
		<line class="st4" x1="133.4" y1="97.9" x2="133.4" y2="111.9"/>
		<line class="st4" x1="133.4" y1="111.9" x2="134.1" y2="118.2"/>
		<line class="st4" x1="134.1" y1="118.2" x2="134.7" y2="96"/>
		<line class="st4" x1="134.7" y1="96" x2="135.3" y2="108.7"/>
		<line class="st4" x1="135.3" y1="108.7" x2="136" y2="107.5"/>
		<line class="st4" x1="136" y1="107.5" x2="136.6" y2="115.1"/>
		<line class="st4" x1="136.6" y1="115.1" x2="137.2" y2="119.5"/>
		<line class="st4" x1="137.2" y1="119.5" x2="137.9" y2="110.6"/>
		<line class="st4" x1="137.9" y1="110.6" x2="138.5" y2="97.9"/>
		<line class="st4" x1="138.5" y1="97.9" x2="139.1" y2="103"/>
		<line class="st4" x1="139.1" y1="103" x2="139.8" y2="108.7"/>
		<line class="st4" x1="139.8" y1="108.7" x2="140.4" y2="104.9"/>
		<line class="st4" x1="140.4" y1="104.9" x2="141" y2="92.9"/>
		<line class="st4" x1="141" y1="92.9" x2="141.7" y2="93.5"/>
		<line class="st4" x1="141.7" y1="93.5" x2="142.3" y2="98.6"/>
		<line class="st4" x1="142.3" y1="98.6" x2="142.9" y2="87.8"/>
		<line class="st4" x1="142.9" y1="87.8" x2="143.6" y2="115.7"/>
		<line class="st4" x1="143.6" y1="115.7" x2="144.2" y2="95.4"/>
		<line class="st4" x1="144.2" y1="95.4" x2="144.8" y2="100.5"/>
		<line class="st4" x1="144.8" y1="100.5" x2="145.5" y2="108.7"/>
		<line class="st4" x1="145.5" y1="108.7" x2="145.5" y2="107.5"/>
		<line class="st4" x1="145.5" y1="107.5" x2="146.1" y2="111.9"/>
		<line class="st4" x1="146.1" y1="111.9" x2="146.8" y2="114.4"/>
		<line class="st4" x1="146.8" y1="114.4" x2="147.4" y2="106.8"/>
		<line class="st4" x1="147.4" y1="106.8" x2="148" y2="104.3"/>
		<line class="st4" x1="148" y1="104.3" x2="148.7" y2="97.3"/>
		<line class="st4" x1="148.7" y1="97.3" x2="149.3" y2="95.4"/>
		<line class="st4" x1="149.3" y1="95.4" x2="149.9" y2="100.5"/>
		<line class="st4" x1="149.9" y1="100.5" x2="150.6" y2="105.5"/>
		<line class="st4" x1="150.6" y1="105.5" x2="151.2" y2="110.6"/>
		<line class="st4" x1="151.2" y1="110.6" x2="151.8" y2="104.3"/>
		<line class="st4" x1="151.8" y1="104.3" x2="151.8" y2="87.8"/>
		<line class="st4" x1="151.8" y1="87.8" x2="152.5" y2="110"/>
		<line class="st4" x1="152.5" y1="110" x2="153.1" y2="87.8"/>
		<line class="st4" x1="153.1" y1="87.8" x2="153.7" y2="92.9"/>
		<line class="st4" x1="153.7" y1="92.9" x2="154.4" y2="104.9"/>
		<line class="st4" x1="154.4" y1="104.9" x2="155" y2="110.6"/>
		<line class="st4" x1="155" y1="110.6" x2="155.6" y2="111.9"/>
		<line class="st4" x1="155.6" y1="111.9" x2="156.3" y2="110"/>
		<line class="st4" x1="156.3" y1="110" x2="156.9" y2="100.5"/>
		<line class="st4" x1="156.9" y1="100.5" x2="157.5" y2="104.3"/>
		<line class="st4" x1="157.5" y1="104.3" x2="157.5" y2="109.4"/>
		<line class="st4" x1="157.5" y1="109.4" x2="158.2" y2="113.8"/>
		<line class="st4" x1="158.2" y1="113.8" x2="158.8" y2="118.2"/>
		<line class="st4" x1="158.8" y1="118.2" x2="159.4" y2="103"/>
		<line class="st4" x1="159.4" y1="103" x2="160.1" y2="97.3"/>
		<line class="st4" x1="160.1" y1="97.3" x2="160.7" y2="92.2"/>
		<line class="st4" x1="160.7" y1="92.2" x2="161.4" y2="117"/>
		<line class="st4" x1="161.4" y1="117" x2="162" y2="110"/>
		<line class="st4" x1="162" y1="110" x2="162.6" y2="106.2"/>
		<line class="st4" x1="162.6" y1="106.2" x2="163.3" y2="118.9"/>
		<line class="st4" x1="163.3" y1="118.9" x2="163.9" y2="110.6"/>
		<line class="st4" x1="163.9" y1="110.6" x2="163.9" y2="41.5"/>
		<line class="st4" x1="163.9" y1="41.5" x2="164.5" y2="111.3"/>
		<line class="st4" x1="164.5" y1="111.3" x2="165.2" y2="110"/>
		<line class="st4" x1="165.2" y1="110" x2="165.8" y2="92.9"/>
		<line class="st4" x1="165.8" y1="92.9" x2="166.4" y2="109.4"/>
		<line class="st4" x1="166.4" y1="109.4" x2="167.1" y2="101.1"/>
		<line class="st4" x1="167.1" y1="101.1" x2="167.7" y2="120.1"/>
		<line class="st4" x1="167.7" y1="120.1" x2="168.3" y2="110"/>
		<line class="st4" x1="168.3" y1="110" x2="169" y2="110"/>
		<line class="st4" x1="169" y1="110" x2="169.6" y2="99.8"/>
		<line class="st4" x1="169.6" y1="99.8" x2="170.2" y2="104.3"/>
		<line class="st4" x1="170.2" y1="104.3" x2="170.2" y2="113.8"/>
		<line class="st4" x1="170.2" y1="113.8" x2="170.9" y2="102.4"/>
		<line class="st4" x1="170.9" y1="102.4" x2="171.5" y2="111.9"/>
		<line class="st4" x1="171.5" y1="111.9" x2="172.1" y2="115.7"/>
		<line class="st4" x1="172.1" y1="115.7" x2="172.8" y2="96"/>
		<line class="st4" x1="172.8" y1="96" x2="173.4" y2="110"/>
		<line class="st4" x1="173.4" y1="110" x2="174" y2="111.9"/>
		<line class="st4" x1="174" y1="111.9" x2="174.7" y2="110"/>
		<line class="st4" x1="174.7" y1="110" x2="175.3" y2="106.2"/>
		<line class="st4" x1="175.3" y1="106.2" x2="176" y2="105.5"/>
		<line class="st4" x1="176" y1="105.5" x2="176" y2="117.6"/>
		<line class="st4" x1="176" y1="117.6" x2="176.6" y2="104.3"/>
		<line class="st4" x1="176.6" y1="104.3" x2="177.2" y2="114.4"/>
		<line class="st4" x1="177.2" y1="114.4" x2="177.9" y2="110"/>
		<line class="st4" x1="177.9" y1="110" x2="178.5" y2="107.5"/>
		<line class="st4" x1="178.5" y1="107.5" x2="179.1" y2="123.3"/>
		<line class="st4" x1="179.1" y1="123.3" x2="179.8" y2="114.4"/>
		<line class="st4" x1="179.8" y1="114.4" x2="180.4" y2="111.9"/>
		<line class="st4" x1="180.4" y1="111.9" x2="181" y2="106.8"/>
		<line class="st4" x1="181" y1="106.8" x2="181.7" y2="122.7"/>
		<line class="st4" x1="181.7" y1="122.7" x2="182.3" y2="109.4"/>
		<line class="st4" x1="182.3" y1="109.4" x2="182.3" y2="118.9"/>
		<line class="st4" x1="182.3" y1="118.9" x2="182.9" y2="113.2"/>
		<line class="st4" x1="182.9" y1="113.2" x2="183.6" y2="121.4"/>
		<line class="st4" x1="183.6" y1="121.4" x2="184.2" y2="107.5"/>
		<line class="st4" x1="184.2" y1="107.5" x2="184.8" y2="104.9"/>
		<line class="st4" x1="184.8" y1="104.9" x2="185.5" y2="115.1"/>
		<line class="st4" x1="185.5" y1="115.1" x2="186.1" y2="118.9"/>
		<line class="st4" x1="186.1" y1="118.9" x2="186.7" y2="115.1"/>
		<line class="st4" x1="186.7" y1="115.1" x2="187.4" y2="106.8"/>
		<line class="st4" x1="187.4" y1="106.8" x2="188" y2="108.7"/>
		<line class="st4" x1="188" y1="108.7" x2="188.6" y2="119.5"/>
		<line class="st4" x1="188.6" y1="119.5" x2="188.6" y2="117.6"/>
		<line class="st4" x1="188.6" y1="117.6" x2="189.3" y2="122.7"/>
		<line class="st4" x1="189.3" y1="122.7" x2="189.9" y2="118.9"/>
		<line class="st4" x1="189.9" y1="118.9" x2="190.6" y2="117"/>
		<line class="st4" x1="190.6" y1="117" x2="191.2" y2="115.7"/>
		<line class="st4" x1="191.2" y1="115.7" x2="191.8" y2="117"/>
		<line class="st4" x1="191.8" y1="117" x2="192.5" y2="115.7"/>
		<line class="st4" x1="192.5" y1="115.7" x2="193.1" y2="117.6"/>
		<line class="st4" x1="193.1" y1="117.6" x2="193.7" y2="123.9"/>
		<line class="st4" x1="193.7" y1="123.9" x2="194.4" y2="119.5"/>
		<line class="st4" x1="194.4" y1="119.5" x2="194.4" y2="108.7"/>
		<line class="st4" x1="194.4" y1="108.7" x2="195" y2="117.6"/>
		<line class="st4" x1="195" y1="117.6" x2="195.6" y2="126.5"/>
		<line class="st4" x1="195.6" y1="126.5" x2="196.3" y2="123.3"/>
		<line class="st4" x1="196.3" y1="123.3" x2="196.9" y2="119.5"/>
		<line class="st4" x1="196.9" y1="119.5" x2="197.5" y2="128.4"/>
		<line class="st4" x1="197.5" y1="128.4" x2="198.2" y2="110.6"/>
		<line class="st4" x1="198.2" y1="110.6" x2="198.8" y2="118.9"/>
		<line class="st4" x1="198.8" y1="118.9" x2="199.4" y2="115.7"/>
		<line class="st4" x1="199.4" y1="115.7" x2="200.1" y2="110.6"/>
		<line class="st4" x1="200.1" y1="110.6" x2="200.7" y2="117"/>
		<line class="st4" x1="200.7" y1="117" x2="200.7" y2="125.9"/>
		<line class="st4" x1="200.7" y1="125.9" x2="201.3" y2="117.6"/>
		<line class="st4" x1="201.3" y1="117.6" x2="202" y2="120.1"/>
		<line class="st4" x1="202" y1="120.1" x2="202.6" y2="118.9"/>
		<line class="st4" x1="202.6" y1="118.9" x2="203.3" y2="130.3"/>
		<line class="st4" x1="203.3" y1="130.3" x2="203.9" y2="114.4"/>
		<line class="st4" x1="203.9" y1="114.4" x2="204.5" y2="132.8"/>
		<line class="st4" x1="204.5" y1="132.8" x2="205.2" y2="117.6"/>
		<line class="st4" x1="205.2" y1="117.6" x2="205.8" y2="122.7"/>
		<line class="st4" x1="205.8" y1="122.7" x2="206.4" y2="120.1"/>
		<line class="st4" x1="206.4" y1="120.1" x2="206.4" y2="109.4"/>
		<line class="st4" x1="206.4" y1="109.4" x2="207.1" y2="125.9"/>
		<line class="st4" x1="207.1" y1="125.9" x2="207.7" y2="124.6"/>
		<line class="st4" x1="207.7" y1="124.6" x2="208.3" y2="113.2"/>
		<line class="st4" x1="208.3" y1="113.2" x2="209" y2="119.5"/>
		<line class="st4" x1="209" y1="119.5" x2="209.6" y2="114.4"/>
		<line class="st4" x1="209.6" y1="114.4" x2="210.2" y2="122"/>
		<line class="st4" x1="210.2" y1="122" x2="210.9" y2="122"/>
		<line class="st4" x1="210.9" y1="122" x2="211.5" y2="127.8"/>
		<line class="st4" x1="211.5" y1="127.8" x2="212.1" y2="123.9"/>
		<line class="st4" x1="212.1" y1="123.9" x2="212.8" y2="119.5"/>
		<line class="st4" x1="212.8" y1="119.5" x2="212.8" y2="121.4"/>
		<line class="st4" x1="212.8" y1="121.4" x2="213.4" y2="122.7"/>
		<line class="st4" x1="213.4" y1="122.7" x2="214" y2="117"/>
		<line class="st4" x1="214" y1="117" x2="214.7" y2="115.7"/>
		<line class="st4" x1="214.7" y1="115.7" x2="215.3" y2="123.9"/>
		<line class="st4" x1="215.3" y1="123.9" x2="215.9" y2="134.7"/>
		<line class="st4" x1="215.9" y1="134.7" x2="216.6" y2="129"/>
		<line class="st4" x1="216.6" y1="129" x2="217.2" y2="129"/>
		<line class="st4" x1="217.2" y1="129" x2="217.9" y2="124.6"/>
		<line class="st4" x1="217.9" y1="124.6" x2="218.5" y2="125.9"/>
		<line class="st4" x1="218.5" y1="125.9" x2="219.1" y2="123.3"/>
		<line class="st4" x1="219.1" y1="123.3" x2="219.8" y2="122"/>
		<line class="st4" x1="219.8" y1="122" x2="220.4" y2="123.3"/>
		<line class="st4" x1="220.4" y1="123.3" x2="221" y2="122.7"/>
		<line class="st4" x1="221" y1="122.7" x2="221.7" y2="95.4"/>
		<line class="st4" x1="221.7" y1="95.4" x2="222.3" y2="132.2"/>
		<line class="st4" x1="222.3" y1="132.2" x2="222.9" y2="118.2"/>
		<line class="st4" x1="222.9" y1="118.2" x2="223.6" y2="125.9"/>
		<line class="st4" x1="223.6" y1="125.9" x2="224.2" y2="127.8"/>
		<line class="st4" x1="224.2" y1="127.8" x2="224.8" y2="129"/>
		<line class="st4" x1="224.8" y1="129" x2="224.8" y2="123.3"/>
		<line class="st4" x1="224.8" y1="123.3" x2="225.5" y2="123.3"/>
		<line class="st4" x1="225.5" y1="123.3" x2="226.1" y2="125.9"/>
		<line class="st4" x1="226.1" y1="125.9" x2="226.7" y2="123.9"/>
		<line class="st4" x1="226.7" y1="123.9" x2="227.4" y2="123.9"/>
		<line class="st4" x1="227.4" y1="123.9" x2="228" y2="136"/>
		<line class="st4" x1="228" y1="136" x2="228.6" y2="123.9"/>
		<line class="st4" x1="228.6" y1="123.9" x2="229.3" y2="123.9"/>
		<line class="st4" x1="229.3" y1="123.9" x2="229.9" y2="117"/>
		<line class="st4" x1="229.9" y1="117" x2="230.5" y2="123.9"/>
		<line class="st4" x1="230.5" y1="123.9" x2="231.2" y2="137.3"/>
		<line class="st4" x1="231.2" y1="137.3" x2="231.2" y2="128.4"/>
		<line class="st4" x1="231.2" y1="128.4" x2="231.8" y2="130.3"/>
		<line class="st4" x1="231.8" y1="130.3" x2="232.5" y2="136.6"/>
		<line class="st4" x1="232.5" y1="136.6" x2="233.1" y2="136.6"/>
		<line class="st4" x1="233.1" y1="136.6" x2="233.7" y2="132.2"/>
		<line class="st4" x1="233.7" y1="132.2" x2="234.4" y2="127.1"/>
		<line class="st4" x1="234.4" y1="127.1" x2="235" y2="130.9"/>
		<line class="st4" x1="235" y1="130.9" x2="235.6" y2="137.9"/>
		<line class="st4" x1="235.6" y1="137.9" x2="236.3" y2="127.8"/>
		<line class="st4" x1="236.3" y1="127.8" x2="236.9" y2="141.7"/>
		<line class="st4" x1="236.9" y1="141.7" x2="237.5" y2="130.3"/>
		<line class="st4" x1="237.5" y1="130.3" x2="238.2" y2="130.9"/>
		<line class="st4" x1="238.2" y1="130.9" x2="238.8" y2="127.1"/>
		<line class="st4" x1="238.8" y1="127.1" x2="239.4" y2="135.4"/>
		<line class="st4" x1="239.4" y1="135.4" x2="240.1" y2="126.5"/>
		<line class="st4" x1="240.1" y1="126.5" x2="240.7" y2="132.2"/>
		<line class="st4" x1="240.7" y1="132.2" x2="241.3" y2="132.2"/>
		<line class="st4" x1="241.3" y1="132.2" x2="242" y2="132.2"/>
		<line class="st4" x1="242" y1="132.2" x2="242.6" y2="132.2"/>
		<line class="st4" x1="242.6" y1="132.2" x2="243.2" y2="139.2"/>
		<line class="st4" x1="243.2" y1="139.2" x2="243.2" y2="137.3"/>
		<line class="st4" x1="243.2" y1="137.3" x2="243.9" y2="137.3"/>
		<line class="st4" x1="243.9" y1="137.3" x2="244.5" y2="139.8"/>
		<line class="st4" x1="244.5" y1="139.8" x2="245.1" y2="140.4"/>
		<line class="st4" x1="245.1" y1="140.4" x2="245.8" y2="139.8"/>
		<line class="st4" x1="245.8" y1="139.8" x2="246.4" y2="141.7"/>
		<line class="st4" x1="246.4" y1="141.7" x2="247.1" y2="141.7"/>
		<line class="st4" x1="247.1" y1="141.7" x2="247.7" y2="144.9"/>
		<line class="st4" x1="247.7" y1="144.9" x2="248.3" y2="139.2"/>
		<line class="st4" x1="248.3" y1="139.2" x2="249" y2="135.4"/>
		<line class="st4" x1="249" y1="135.4" x2="249.6" y2="143.6"/>
		<line class="st4" x1="249.6" y1="143.6" x2="250.2" y2="131.6"/>
		<line class="st4" x1="250.2" y1="131.6" x2="250.9" y2="137.3"/>
		<line class="st4" x1="250.9" y1="137.3" x2="251.5" y2="135.4"/>
		<line class="st4" x1="251.5" y1="135.4" x2="252.1" y2="141.1"/>
		<line class="st4" x1="252.1" y1="141.1" x2="252.8" y2="143.6"/>
		<line class="st4" x1="252.8" y1="143.6" x2="253.4" y2="141.7"/>
		<line class="st4" x1="253.4" y1="141.7" x2="254" y2="143.6"/>
		<line class="st4" x1="254" y1="143.6" x2="254.7" y2="141.7"/>
		<line class="st4" x1="254.7" y1="141.7" x2="255.3" y2="139.2"/>
		<line class="st4" x1="255.3" y1="139.2" x2="255.9" y2="148.7"/>
		<line class="st4" x1="255.9" y1="148.7" x2="255.9" y2="144.3"/>
		<line class="st4" x1="255.9" y1="144.3" x2="256.6" y2="137.3"/>
		<line class="st4" x1="256.6" y1="137.3" x2="257.2" y2="137.9"/>
		<line class="st4" x1="257.2" y1="137.9" x2="257.8" y2="143.6"/>
		<line class="st4" x1="257.8" y1="143.6" x2="258.5" y2="141.1"/>
		<line class="st4" x1="258.5" y1="141.1" x2="259.1" y2="145.5"/>
		<line class="st4" x1="259.1" y1="145.5" x2="259.8" y2="148.7"/>
		<line class="st4" x1="259.8" y1="148.7" x2="260.4" y2="141.7"/>
		<line class="st4" x1="260.4" y1="141.7" x2="261" y2="144.3"/>
		<line class="st4" x1="261" y1="144.3" x2="261.7" y2="146.2"/>
		<line class="st4" x1="261.7" y1="146.2" x2="261.7" y2="147.4"/>
		<line class="st4" x1="261.7" y1="147.4" x2="262.3" y2="147.4"/>
		<line class="st4" x1="262.3" y1="147.4" x2="262.9" y2="144.9"/>
		<line class="st4" x1="262.9" y1="144.9" x2="263.6" y2="146.2"/>
		<line class="st4" x1="263.6" y1="146.2" x2="264.2" y2="148.7"/>
		<line class="st4" x1="264.2" y1="148.7" x2="264.8" y2="150"/>
		<line class="st4" x1="264.8" y1="150" x2="265.5" y2="155"/>
		<line class="st4" x1="265.5" y1="155" x2="266.1" y2="146.2"/>
		<line class="st4" x1="266.1" y1="146.2" x2="266.7" y2="155"/>
		<line class="st4" x1="266.7" y1="155" x2="267.4" y2="148.7"/>
		<line class="st4" x1="267.4" y1="148.7" x2="268" y2="130.9"/>
		<line class="st4" x1="268" y1="130.9" x2="268" y2="151.9"/>
		<line class="st4" x1="268" y1="151.9" x2="268.6" y2="148.7"/>
		<line class="st4" x1="268.6" y1="148.7" x2="269.3" y2="148.1"/>
		<line class="st4" x1="269.3" y1="148.1" x2="269.9" y2="151.9"/>
		<line class="st4" x1="269.9" y1="151.9" x2="270.5" y2="149.3"/>
		<line class="st4" x1="270.5" y1="149.3" x2="271.2" y2="148.1"/>
		<line class="st4" x1="271.2" y1="148.1" x2="271.8" y2="153.1"/>
		<line class="st4" x1="271.8" y1="153.1" x2="272.4" y2="148.7"/>
		<line class="st4" x1="272.4" y1="148.7" x2="273.1" y2="148.1"/>
		<line class="st4" x1="273.1" y1="148.1" x2="273.7" y2="151.9"/>
		<line class="st4" x1="273.7" y1="151.9" x2="273.7" y2="154.4"/>
		<line class="st4" x1="273.7" y1="154.4" x2="274.4" y2="147.4"/>
		<line class="st4" x1="274.4" y1="147.4" x2="275" y2="152.5"/>
		<line class="st4" x1="275" y1="152.5" x2="275.6" y2="157.6"/>
		<line class="st4" x1="275.6" y1="157.6" x2="276.3" y2="152.5"/>
		<line class="st4" x1="276.3" y1="152.5" x2="276.9" y2="158.2"/>
		<line class="st4" x1="276.9" y1="158.2" x2="277.5" y2="155"/>
		<line class="st4" x1="277.5" y1="155" x2="278.2" y2="143"/>
		<line class="st4" x1="278.2" y1="143" x2="278.8" y2="155"/>
		<line class="st4" x1="278.8" y1="155" x2="279.4" y2="155"/>
		<line class="st4" x1="279.4" y1="155" x2="280.1" y2="154.4"/>
		<line class="st4" x1="280.1" y1="154.4" x2="280.1" y2="158.2"/>
		<line class="st4" x1="280.1" y1="158.2" x2="280.7" y2="152.5"/>
		<line class="st4" x1="280.7" y1="152.5" x2="281.3" y2="151.9"/>
		<line class="st4" x1="281.3" y1="151.9" x2="282" y2="150.6"/>
		<line class="st4" x1="282" y1="150.6" x2="282.6" y2="158.8"/>
		<line class="st4" x1="282.6" y1="158.8" x2="283.2" y2="157.6"/>
		<line class="st4" x1="283.2" y1="157.6" x2="283.9" y2="156.9"/>
		<line class="st4" x1="283.9" y1="156.9" x2="284.5" y2="154.4"/>
		<line class="st4" x1="284.5" y1="154.4" x2="285.1" y2="152.5"/>
		<line class="st4" x1="285.1" y1="152.5" x2="285.8" y2="156.9"/>
		<line class="st4" x1="285.8" y1="156.9" x2="286.4" y2="153.1"/>
		<line class="st4" x1="286.4" y1="153.1" x2="286.4" y2="156.9"/>
		<line class="st4" x1="286.4" y1="156.9" x2="287" y2="157.6"/>
		<line class="st4" x1="287" y1="157.6" x2="287.7" y2="156.3"/>
		<line class="st4" x1="287.7" y1="156.3" x2="288.3" y2="156.3"/>
		<line class="st4" x1="288.3" y1="156.3" x2="289" y2="155"/>
		<line class="st4" x1="289" y1="155" x2="289.6" y2="160.7"/>
		<line class="st4" x1="289.6" y1="160.7" x2="290.2" y2="159.5"/>
		<line class="st4" x1="290.2" y1="159.5" x2="290.9" y2="158.8"/>
		<line class="st4" x1="290.9" y1="158.8" x2="291.5" y2="156.9"/>
		<line class="st4" x1="291.5" y1="156.9" x2="292.1" y2="161.4"/>
		<line class="st4" x1="292.1" y1="161.4" x2="292.1" y2="159.5"/>
		<line class="st4" x1="292.1" y1="159.5" x2="292.8" y2="157.6"/>
		<line class="st4" x1="292.8" y1="157.6" x2="293.4" y2="159.5"/>
		<line class="st4" x1="293.4" y1="159.5" x2="294" y2="162"/>
		<line class="st4" x1="294" y1="162" x2="294.7" y2="162.6"/>
		<line class="st4" x1="294.7" y1="162.6" x2="295.3" y2="160.7"/>
		<line class="st4" x1="295.3" y1="160.7" x2="295.9" y2="162.6"/>
		<line class="st4" x1="295.9" y1="162.6" x2="296.6" y2="160.7"/>
		<line class="st4" x1="296.6" y1="160.7" x2="297.2" y2="164.6"/>
		<line class="st4" x1="297.2" y1="164.6" x2="297.8" y2="162"/>
		<line class="st4" x1="297.8" y1="162" x2="298.5" y2="164.6"/>
		<line class="st4" x1="298.5" y1="164.6" x2="298.5" y2="163.3"/>
		<line class="st4" x1="298.5" y1="163.3" x2="299.1" y2="162"/>
		<line class="st4" x1="299.1" y1="162" x2="299.7" y2="163.3"/>
		<line class="st4" x1="299.7" y1="163.3" x2="300.4" y2="162.6"/>
		<line class="st4" x1="300.4" y1="162.6" x2="301" y2="163.3"/>
		<line class="st4" x1="301" y1="163.3" x2="301.7" y2="162.6"/>
		<line class="st4" x1="301.7" y1="162.6" x2="302.3" y2="163.3"/>
		<line class="st4" x1="302.3" y1="163.3" x2="302.9" y2="162.6"/>
		<line class="st4" x1="302.9" y1="162.6" x2="303.6" y2="164.6"/>
		<line class="st4" x1="303.6" y1="164.6" x2="304.2" y2="162.6"/>
		<line class="st4" x1="304.2" y1="162.6" x2="304.8" y2="163.3"/>
		<line class="st4" x1="304.8" y1="163.3" x2="304.8" y2="164.6"/>
		<line class="st4" x1="304.8" y1="164.6" x2="305.5" y2="164.6"/>
		<line class="st4" x1="305.5" y1="164.6" x2="306.1" y2="164.6"/>
		<line class="st4" x1="306.1" y1="164.6" x2="306.7" y2="164.6"/>
		<line class="st4" x1="306.7" y1="164.6" x2="307.4" y2="164.6"/>
	</g>
	<line class="st5" x1="20.4" y1="164.6" x2="20.4" y2="17.4"/>
	<line class="st5" x1="308" y1="164.6" x2="308" y2="17.4"/>
	<text transform="matrix(1.0007 0 0 1 89.6871 11.6724)" class="st1 st2 st6">Pair Separation Histogram for a flat torus universe </text>
</g>
</svg>
