<?xml version="1.0" encoding="utf-8"?>
<!-- Generator: Adobe Illustrator 20.0.0, SVG Export Plug-In . SVG Version: 6.00 Build 0)  -->
<svg version="1.1" id="Layer_1" xmlns="http://www.w3.org/2000/svg" xmlns:xlink="http://www.w3.org/1999/xlink" x="0px" y="0px"
	 viewBox="0 0 400 120" style="enable-background:new 0 0 400 120;" xml:space="preserve">
<style type="text/css">
	.st0{fill:none;stroke:#0F8140;stroke-width:0.6328;stroke-linecap:square;stroke-miterlimit:10;}
	.st1{fill:#BCBEC0;}
	.st2{fill:none;stroke:#0F8140;stroke-width:0.6328;stroke-linecap:square;stroke-miterlimit:10;stroke-dasharray:3,3;}
	
		.st3{fill-rule:evenodd;clip-rule:evenodd;fill:#ED2224;stroke:#010101;stroke-width:0;stroke-linecap:square;stroke-miterlimit:10;}
</style>
<g>
	<path class="st0" d="M21.4,57.5c0-23.9,19.1-43,42.9-43c23.8,0,42.9,19.1,42.9,43c0,23.9-19.1,43-42.9,43
		C40.4,100.5,21.4,81.4,21.4,57.5L21.4,57.5z"/>
	<path class="st0" d="M38.7,62.5c-10.3-1.1-17-3-17-5"/>
	<g id="XMLID_1_">
		<g>
			<path class="st1" d="M87,57.5c0,1.7-0.1,3.3-0.2,5l-0.4,0.4c-6.4,0.6-14,0.9-22.1,0.9c-9.3,0-17.9-0.4-24.9-1.2v0
				c-0.2-1.9-0.3-3.7-0.3-5.7c0-18.4,9.8-34.3,24.4-42.8l0.3,0.3C77.7,23.4,87,39.3,87,57.5z"/>
		</g>
		<g>
			<path class="st0" d="M63.4,14C48.8,22.5,39,38.5,39,56.8c0,1.9,0.1,3.8,0.3,5.7"/>
			<path class="st0" d="M86.7,62.5c0.1-1.6,0.2-3.3,0.2-5c0-18.2-9.2-34.1-23.2-43.2"/>
			<path class="st0" d="M86.4,62.8c-6.4,0.6-14,0.9-22.1,0.9c-9.3,0-17.9-0.4-24.9-1.2c-0.2,0-0.4,0-0.6-0.1"/>
		</g>
	</g>
	<path class="st0" d="M106.8,57.5c0,2.3-8.2,4.2-20.4,5.3"/>
	<path class="st2" d="M21.8,57.5c0-3.5,19-6.3,42.5-6.3c23.5,0,42.5,2.8,42.5,6.3"/>
	<path class="st3" d="M86.3,62.5c0-0.7,0.6-1.3,1.3-1.3c0.7,0,1.3,0.6,1.3,1.3c0,0.7-0.6,1.3-1.3,1.3C86.9,63.8,86.3,63.2,86.3,62.5
		L86.3,62.5z"/>
	<path class="st3" d="M37.8,62.5c0-0.7,0.6-1.3,1.3-1.3c0.7,0,1.3,0.6,1.3,1.3c0,0.7-0.6,1.3-1.3,1.3C38.3,63.8,37.8,63.2,37.8,62.5
		L37.8,62.5z"/>
	<path class="st3" d="M62.4,14.4c0-0.7,0.6-1.3,1.3-1.3c0.7,0,1.3,0.6,1.3,1.3s-0.6,1.3-1.3,1.3C62.9,15.7,62.4,15.1,62.4,14.4
		L62.4,14.4z"/>
	<polygon class="st0" points="177.6,86.3 112.6,86.3 181.9,30.3 246.8,30.3 	"/>
	<g id="XMLID_2_">
		<g>
			<polygon class="st1" points="207.1,49.8 162,69 186.5,42.6 			"/>
		</g>
		<g>
			<line class="st0" x1="162" y1="69" x2="186.5" y2="42.6"/>
			<line class="st0" x1="186.5" y1="42.6" x2="207.1" y2="49.8"/>
			<line class="st0" x1="207.1" y1="49.8" x2="162" y2="69"/>
		</g>
	</g>
	<path class="st3" d="M185.5,42.8c0-0.7,0.6-1.3,1.3-1.3s1.3,0.6,1.3,1.3s-0.6,1.3-1.3,1.3S185.5,43.5,185.5,42.8L185.5,42.8z"/>
	<path class="st3" d="M161.4,68.9c0-0.7,0.6-1.3,1.3-1.3s1.3,0.6,1.3,1.3c0,0.7-0.6,1.3-1.3,1.3S161.4,69.6,161.4,68.9L161.4,68.9z"
		/>
	<path class="st3" d="M205.7,50c0-0.7,0.6-1.3,1.3-1.3c0.7,0,1.3,0.6,1.3,1.3s-0.6,1.3-1.3,1.3C206.3,51.3,205.7,50.7,205.7,50
		L205.7,50z"/>
	<path class="st0" d="M268.8,58c0-21,5-38,11.2-38s11.2,17,11.2,38c0,5.1-0.3,9.9-0.8,14.4"/>
	<path class="st0" d="M280,20c0,0,22.6,6.7,44.7,6.7c21.9,0,43.3-6.7,43.3-6.7"/>
	<path class="st0" d="M356.8,58c0-21,5-38,11.2-38c6.2,0,11.2,17,11.2,38c0,5.1-0.3,9.9-0.8,14.4"/>
	<path class="st0" d="M290.3,72.4c0,0,24.4-4,48.3-4c19.7,0,39.7,4,39.7,4"/>
	<path class="st2" d="M288.7,59.6c8.5,0.6,18.6,1,28,1c21.9,0,40.2-2.7,40.2-2.7"/>
	<path class="st0" d="M268.8,58c0,0,8.5,0.9,19.8,1.6"/>
	<g id="XMLID_3_">
		<g>
			<path class="st1" d="M344.3,54.7c2.8,4.7,6.7,9,7,9.3c-0.5-0.2-8.8-3.4-17.6-5.7c-9.4-2.5-19.3-4-19.3-4s8.5-1.9,15-4.7
				c6-2.6,10-6,10-6S341.2,49.4,344.3,54.7z"/>
		</g>
		<g>
			<path class="st0" d="M314.3,54.3c0,0,8.5-1.9,15-4.7c6-2.6,10-6,10-6"/>
			<path class="st0" d="M339.3,43.7c0,0,1.9,5.8,5,11c2.8,4.7,6.7,9,7,9.3"/>
			<path class="st0" d="M351.3,64C351.3,64,351.3,64,351.3,64c-0.5-0.2-8.8-3.4-17.6-5.7c-9.4-2.5-19.3-4-19.3-4"/>
		</g>
	</g>
	<path class="st3" d="M313.5,54.4c0-0.7,0.6-1.3,1.3-1.3s1.3,0.6,1.3,1.3c0,0.7-0.6,1.3-1.3,1.3S313.5,55.1,313.5,54.4L313.5,54.4z"
		/>
	<path class="st3" d="M338.1,43.8c0-0.7,0.6-1.3,1.3-1.3s1.3,0.6,1.3,1.3c0,0.7-0.6,1.3-1.3,1.3S338.1,44.5,338.1,43.8L338.1,43.8z"
		/>
	<path class="st3" d="M350.1,63.7c0-0.7,0.6-1.3,1.3-1.3s1.3,0.6,1.3,1.3c0,0.7-0.6,1.3-1.3,1.3S350.1,64.4,350.1,63.7L350.1,63.7z"
		/>
</g>
</svg>
