<?xml version="1.0" encoding="utf-8"?>
<!-- Generator: Adobe Illustrator 20.0.0, SVG Export Plug-In . SVG Version: 6.00 Build 0)  -->
<svg version="1.1" id="Layer_1" xmlns="http://www.w3.org/2000/svg" xmlns:xlink="http://www.w3.org/1999/xlink" x="0px" y="0px"
	 viewBox="0 0 350 350" style="enable-background:new 0 0 350 350;" xml:space="preserve">
<style type="text/css">
	.st0{fill:none;stroke:#0F8140;stroke-width:0.6346;stroke-linecap:square;stroke-miterlimit:10;}
	.st1{fill:#0F8140;}
	.st2{fill:none;stroke:#0F8140;stroke-width:0.6346;stroke-linecap:square;stroke-miterlimit:10;stroke-dasharray:3,3;}
	.st3{fill:none;stroke:#282A74;stroke-width:0.6346;stroke-linecap:square;stroke-miterlimit:10;}
	
		.st4{fill-rule:evenodd;clip-rule:evenodd;fill:#010101;stroke:#010101;stroke-width:0;stroke-linecap:square;stroke-miterlimit:10;}
	
		.st5{fill-rule:evenodd;clip-rule:evenodd;fill:#3A53A4;stroke:#010101;stroke-width:0;stroke-linecap:square;stroke-miterlimit:10;}
	
		.st6{fill-rule:evenodd;clip-rule:evenodd;fill:#F6EB16;stroke:#010101;stroke-width:0;stroke-linecap:square;stroke-miterlimit:10;}
	
		.st7{fill-rule:evenodd;clip-rule:evenodd;fill:#ED2224;stroke:#010101;stroke-width:0;stroke-linecap:square;stroke-miterlimit:10;}
	.st8{font-family:'TimesNewRomanPSMT';}
	.st9{font-size:16px;}
</style>
<g>
	<g>
		<g>
			<g>
				<path class="st0" d="M175.4,32.9c7.4,17.3,20.9,31.3,37.8,39.3"/>
				<path class="st1" d="M212.8,72.1c-0.4-1.1,0-2.9,0.4-3.9c0.4,1.9,1.2,3.9,2.5,5.4c-2-0.1-4,0.6-5.7,1.4
					C210.7,73.8,211.6,72.5,212.8,72.1z"/>
			</g>
		</g>
		<path class="st1" d="M212.8,72c-0.5-1.4-0.1-3.5,0.5-4.9c0.5,2.4,1.4,4.7,3.1,6.6c-2.5-0.2-4.9,0.7-7.1,1.7
			C210.1,74.2,211.3,72.6,212.8,72z"/>
	</g>
	<g>
		<g>
			<g>
				<g>
					<path class="st0" d="M276,218c-3.6,8.9-5.5,18.7-5.5,29c0,10.5,2,20.5,5.7,29.5"/>
					<path class="st1" d="M275.9,218.3c-1.1,0.5-2.9,0.2-4-0.2c1.9-0.5,3.8-1.4,5.2-2.9c0,2,0.8,3.9,1.8,5.6
						C277.7,220.3,276.4,219.5,275.9,218.3z"/>
				</g>
			</g>
			<path class="st1" d="M275.9,218.3c-1.4,0.6-3.5,0.3-4.9-0.2c2.4-0.6,4.6-1.8,6.4-3.5c0,2.5,1,4.8,2.2,6.9
				C278.1,220.9,276.5,219.8,275.9,218.3z"/>
		</g>
		<path class="st0" d="M317.9,175.3c-19.1,8-34.2,23.4-41.9,42.7"/>
		<g>
			<g>
				<g>
					<path class="st0" d="M213.9,278c-17.4,8.1-31.3,22.4-38.7,40.2"/>
					<path class="st1" d="M213.6,278.1c-1.1-0.4-2.2-1.8-2.8-2.9c1.7,0.9,3.7,1.6,5.7,1.5c-1.4,1.5-2.1,3.4-2.6,5.3
						C213.5,280.9,213.2,279.3,213.6,278.1z"/>
				</g>
			</g>
			<path class="st1" d="M213.5,278.1c-1.4-0.5-2.8-2.2-3.4-3.5c2.1,1.2,4.6,1.9,7.1,1.8c-1.7,1.8-2.6,4.2-3.2,6.6
				C213.5,281.5,213,279.6,213.5,278.1z"/>
		</g>
		<path class="st0" d="M276.2,276.5c-9.1-3.7-19-5.7-29.5-5.7c-11.8,0-22.9,2.6-32.8,7.2"/>
		<path class="st0" d="M135.2,277.4c-9.7-4.3-20.4-6.7-31.7-6.7c-10.3,0-20,2-29,5.5"/>
		<g>
			<g>
				<g>
					<path class="st0" d="M175.2,318.4c-7.6-18.3-22-33-40-41"/>
					<path class="st1" d="M135.5,277.6c0.4,1.1,0.1,2.9-0.3,4c-0.4-1.9-1.3-3.8-2.7-5.3c2,0.1,3.9-0.7,5.7-1.6
						C137.6,275.8,136.7,277.1,135.5,277.6z"/>
				</g>
			</g>
			<path class="st1" d="M135.6,277.6c0.5,1.4,0.2,3.5-0.4,4.9c-0.5-2.4-1.6-4.7-3.3-6.5c2.5,0.1,4.8-0.8,7-1.9
				C138.2,275.4,137,277,135.6,277.6z"/>
		</g>
		<path class="st0" d="M75.1,220.2c-7.3-20.2-22.6-36.3-42.2-44.7"/>
		<g>
			<g>
				<g>
					<path class="st0" d="M74.1,276.3c3.6-9,5.6-18.9,5.6-29.3c0-9.4-1.6-18.4-4.6-26.7"/>
					<path class="st1" d="M75.2,220.6c-0.5,1.1-2,2.1-3.1,2.5c1.1-1.7,1.9-3.6,2-5.6c1.3,1.5,3.2,2.4,5.1,3
						C78,220.8,76.4,221.1,75.2,220.6z"/>
				</g>
			</g>
			<path class="st1" d="M75.2,220.6c-0.6,1.4-2.4,2.5-3.8,3.1c1.3-2,2.3-4.4,2.4-6.9c1.6,1.8,4,2.9,6.3,3.7
				C78.6,221,76.7,221.3,75.2,220.6z"/>
		</g>
		<g>
			<g>
				<g>
					<path class="st0" d="M74.4,132c3.4-8.8,5.3-18.4,5.3-28.5c0-10.2-1.9-19.9-5.4-28.8"/>
					<path class="st1" d="M74.6,131.7c1.1-0.5,2.9-0.3,4,0.1c-1.9,0.5-3.8,1.5-5.2,2.9c0-2-0.9-3.9-1.8-5.6
						C72.7,129.7,74,130.6,74.6,131.7z"/>
				</g>
			</g>
			<path class="st1" d="M74.6,131.7c1.4-0.6,3.5-0.3,4.9,0.2c-2.3,0.6-4.6,1.8-6.3,3.6c0-2.5-1.1-4.8-2.3-6.9
				C72.3,129.2,73.9,130.2,74.6,131.7z"/>
		</g>
		<path class="st0" d="M32.7,175.1c19.1-8.1,34.2-23.6,41.7-43.1"/>
		<g>
			<g>
				<g>
					<path class="st0" d="M135,73.2c18-7.9,32.3-22.4,40-40.5"/>
					<path class="st1" d="M135.3,73c1.1,0.4,2.2,1.8,2.7,2.9c-1.7-1-3.7-1.6-5.7-1.6c1.4-1.4,2.2-3.4,2.7-5.3
						C135.4,70.3,135.7,71.8,135.3,73z"/>
				</g>
			</g>
			<path class="st1" d="M135.4,73c1.4,0.5,2.7,2.3,3.3,3.6c-2.1-1.2-4.5-2-7-2c1.7-1.8,2.6-4.1,3.3-6.5
				C135.5,69.6,135.9,71.5,135.4,73z"/>
		</g>
		<path class="st0" d="M74.8,74.3c8.9,3.5,18.6,5.4,28.7,5.4c11.2,0,21.9-2.3,31.5-6.6"/>
		<path class="st0" d="M213.1,72.2c10.1,4.8,21.5,7.5,33.6,7.5c10.4,0,20.3-2,29.3-5.6"/>
		<path class="st0" d="M274.8,129.2c7.2,20.9,23,37.7,43.3,46.1"/>
		<g>
			<g>
				<g>
					<path class="st0" d="M276,74.6c-3.6,8.9-5.5,18.7-5.5,29c0,9,1.5,17.6,4.3,25.6"/>
					<path class="st1" d="M274.6,128.9c0.5-1.1,2-2,3.1-2.5c-1.1,1.6-1.9,3.5-2.1,5.5c-1.3-1.5-3.2-2.4-5-3.1
						C271.9,128.5,273.5,128.3,274.6,128.9z"/>
				</g>
			</g>
			<path class="st1" d="M274.6,128.8c0.7-1.3,2.5-2.5,3.8-3c-1.4,2-2.4,4.4-2.5,6.8c-1.6-1.9-3.9-3-6.2-3.8
				C271.3,128.4,273.2,128.1,274.6,128.8z"/>
		</g>
	</g>
</g>
<path class="st0" d="M324.9,218.1c-1.2,2.2-1.8,4.7-1.8,7.3c0,4.6,2,8.8,5.2,11.6"/>
<path class="st0" d="M28.7,247.2c0.2-0.9,0.4-1.8,0.4-2.7c0-4.4-2.9-8.2-6.9-9.4"/>
<path class="st0" d="M40.3,254.4c-2.3-3.9-6.4-6.6-11.3-7"/>
<path class="st0" d="M39.8,254.2c0-0.4,0-0.8,0-1.2c0-9.9-7.9-17.8-17.7-17.8c0,0,0,0,0,0"/>
<path class="st0" d="M22,110c2.1-0.6,3.7-2.3,4.3-4.4"/>
<path class="st0" d="M27.3,105.5c9.4,4,19.1,7.2,29.2,9.7"/>
<path class="st0" d="M22.2,110.1c9.1,3.4,19,5.2,29.4,5.2c1.6,0,3.2,0,4.7-0.1"/>
<path class="st0" d="M108,23.6c3.2,3.7,7.9,6.1,13.2,6.1c3.7,0,7.2-1.2,10-3.2"/>
<path class="st0" d="M107.8,23.1c0.4,0.1,0.9,0.2,1.4,0.2c1.6,0,3.1-0.7,4.1-1.9"/>
<path class="st0" d="M114.1,21.9c3,3.6,7.5,5.8,12.5,5.8c1.8,0,3.4-0.3,5-0.8"/>
<path class="st0" d="M251.3,32.7c-2.4,6.4-4,13.2-4.6,20.3"/>
<path class="st0" d="M223.1,23.9c2.8,7.1,9.6,12.1,17.7,12.1c4,0,7.7-1.2,10.7-3.3"/>
<path class="st0" d="M223.1,23.9c1.2,13.9,11,25.3,24.1,28.7"/>
<path class="st0" d="M300.1,105.8c3.4,12.5,14.2,21.8,27.4,22.7"/>
<path class="st0" d="M300.3,105.8c5.4,8.1,14.6,13.3,25,13.3c1.8,0,3.6-0.2,5.3-0.5"/>
<path class="st0" d="M330.9,119.3c-2.1,2.1-3.3,4.9-3.3,8.1c0,0.4,0,0.8,0.1,1.3"/>
<polyline class="st0" points="325,218.1 322.5,217.5 319.9,216.8 317.4,216.2 314.2,214.9 311.7,214.3 309.2,213.7 306.6,212.4 
	304.1,211.8 301.6,211.1 299,210.5 296.5,209.2 293.3,208.6 "/>
<path class="st0" d="M293.7,208.4c9,12.1,20.9,21.8,34.7,28.3"/>
<path class="st0" d="M237.2,291.1c0.8,11.3,3.3,22.2,7.3,32.3"/>
<path class="st0" d="M236.8,290.8c-13.4,3.6-24.3,13.1-30,25.6"/>
<path class="st0" d="M244.3,323.6c-5.4-6.7-13.6-10.9-23-10.9c-5.2,0-10.1,1.3-14.3,3.7"/>
<path class="st0" d="M122.7,331.2c-1-6.2-6.3-10.9-12.8-10.9c-1.9,0-3.8,0.4-5.4,1.2"/>
<path class="st0" d="M123,331.4c-1.2-1.4-3-2.3-4.9-2.3c-0.8,0-1.6,0.1-2.3,0.4"/>
<path class="st0" d="M115.1,329.9c-0.7-4.8-4.8-8.4-9.7-8.4c-0.3,0-0.6,0-0.9,0"/>
<g id="XMLID_1_">
	<g>
	</g>
	<g>
		<path class="st0" d="M162.8,256.8c0,0,0.1-0.4,0.4-1.3c2.4-7.6,15.5-48.3,31.6-86.9c16.4-39.2,36.4-76.3,37.1-77.4c0,0,0,0,0,0"/>
		<path class="st0" d="M263.8,163.3c-40.1,22.9-74.4,54.5-100.7,92.3c-0.3,0.4-0.5,0.7-0.8,1.1"/>
		<path class="st0" d="M231.8,91.2c3.7,27.4,15.2,52.1,32.1,71.9c0.1,0.1,0.2,0.2,0.3,0.3"/>
	</g>
</g>
<path class="st0" d="M19.9,242.6c0.6-0.6,0.9-1.4,0.9-2.2c0-1.5-1.1-2.8-2.5-3.1"/>
<path class="st0" d="M113.3,333c0-1.8-1.4-3.2-3.2-3.2c-0.9,0-1.7,0.4-2.2,0.9"/>
<path class="st0" d="M242.6,331c-0.6-0.7-1.5-1.2-2.5-1.2c-1.8,0-3.2,1.4-3.2,3.2"/>
<path class="st0" d="M332.6,237.1c-1.8,0-3.2,1.4-3.2,3.2c0,1,0.5,1.9,1.2,2.5"/>
<path class="st0" d="M330.4,108c-0.6,0.6-0.9,1.4-0.9,2.2c0,1.8,1.4,3.2,3.2,3.2"/>
<path class="st0" d="M108.2,20c0.5,0.4,1.2,0.7,2,0.7c1.6,0,2.9-1.1,3.1-2.7"/>
<path class="st0" d="M18.2,113.3c1.5-0.2,2.6-1.5,2.6-3.1c0-0.8-0.3-1.4-0.7-2"/>
<path class="st0" d="M276.6,74.5c5,11,16.1,18.6,29.1,18.6c4.4,0,8.7-0.9,12.5-2.5"/>
<path class="st0" d="M318.3,91.7c-0.2,0.6-0.3,1.3-0.3,2c0,3.9,3.1,7,7,7c0.6,0,1.2-0.1,1.7-0.2"/>
<path class="st0" d="M326.4,100.9c-0.5,0.6-0.8,1.4-0.8,2.3c0,2.1,1.7,3.8,3.8,3.8c0.2,0,0.4,0,0.5,0"/>
<path class="st0" d="M332.4,113.9c-0.7,0.7-1.1,1.6-1.1,2.7c0,1.9,1.4,3.5,3.3,3.8"/>
<path class="st0" d="M334.4,120.9c-1.9,1.2-3.1,3.4-3.1,5.8c0,3,1.9,5.6,4.6,6.6"/>
<path class="st0" d="M335.7,133.6c-11.6,4.8-19.6,16.2-19.6,29.6c0,4.3,0.8,8.4,2.4,12.2"/>
<path class="st0" d="M318.3,175.7c-1.4,3.6-2.1,7.5-2.1,11.6c0,13.5,8.2,24.9,19.8,29.7"/>
<path class="st0" d="M335.7,217.3c-2.6,1-4.4,3.5-4.4,6.5c0,2.6,1.3,4.8,3.4,6"/>
<path class="st0" d="M334.5,230.2c-1.8,0.3-3.2,1.9-3.2,3.8c0,1.2,0.6,2.3,1.4,3"/>
<path class="st0" d="M330.1,243.5c-0.2,0-0.4-0.1-0.6-0.1c-2.1,0-3.8,1.7-3.8,3.8c0,1.1,0.4,2,1.1,2.7"/>
<path class="st0" d="M326.8,250.1c-0.6-0.2-1.2-0.2-1.8-0.2c-3.9,0-7,3.1-7,7c0,0.9,0.2,1.8,0.5,2.6"/>
<path class="st0" d="M318.4,260c-3.9-1.7-8.2-2.6-12.7-2.6c-13.2,0-24.4,7.8-29.3,19.1"/>
<path class="st0" d="M276.3,276.6c-11.3,4.9-19.1,16.2-19.1,29.4c0,4.5,0.9,8.8,2.6,12.7"/>
<path class="st0" d="M259.1,318.9c-0.8-0.3-1.7-0.5-2.6-0.5c-3.9,0-7,3.1-7,7c0,0.6,0.1,1.3,0.2,1.8"/>
<path class="st0" d="M249.7,327.1c-0.7-0.7-1.6-1.1-2.7-1.1c-2.1,0-3.8,1.7-3.8,3.8c0,0.2,0,0.4,0.1,0.6"/>
<path class="st0" d="M236.7,333.1c-0.7-0.9-1.8-1.4-3-1.4c-1.9,0-3.5,1.4-3.8,3.2"/>
<path class="st0" d="M229.6,335.1c-1.2-2-3.4-3.4-6-3.4c-3,0-5.5,1.8-6.5,4.4"/>
<path class="st0" d="M216.8,336.3c-4.8-11.7-16.2-19.9-29.6-19.9c-4.1,0-8,0.8-11.6,2.1"/>
<path class="st0" d="M175.2,318.8c-3.7-1.5-7.8-2.4-12.2-2.4c-13.4,0-24.7,8.1-29.5,19.6"/>
<path class="st0" d="M133.2,336.3c-1-2.7-3.5-4.6-6.6-4.6c-2.4,0-4.6,1.2-5.8,3.1"/>
<path class="st0" d="M120.3,335c-0.3-1.9-1.8-3.3-3.8-3.3c-1.1,0-2,0.4-2.7,1.1"/>
<path class="st0" d="M107,330.3c0-0.2,0-0.4,0-0.5c0-2.1-1.7-3.8-3.8-3.8c-0.9,0-1.7,0.3-2.3,0.8"/>
<path class="st0" d="M100.5,327c0.1-0.5,0.2-1.1,0.2-1.7c0-3.9-3.1-7-7-7c-0.7,0-1.4,0.1-2,0.3"/>
<path class="st0" d="M90.6,318.5c1.6-3.8,2.5-8.1,2.5-12.5c0-13-7.6-24.1-18.5-29.1"/>
<path class="st0" d="M74,276.8c-4.9-11.4-16.2-19.3-29.4-19.3c-4.3,0-8.4,0.8-12.2,2.4"/>
<path class="st0" d="M31.8,259.2c0.3-0.7,0.4-1.5,0.4-2.4c0-3.9-3.1-7-7-7c-0.4,0-0.8,0-1.2,0.1"/>
<path class="st0" d="M23.8,249.7c0.5-0.7,0.8-1.5,0.8-2.4c0-2.1-1.7-3.8-3.8-3.8c0,0,0,0,0,0"/>
<path class="st0" d="M17.8,236.7c0.7-0.7,1.1-1.6,1.1-2.7c0-1.7-1.1-3.1-2.6-3.6"/>
<path class="st0" d="M16,229.5c1.8-1.3,3-3.3,3-5.7c0-2.8-1.6-5.1-3.8-6.3"/>
<path class="st0" d="M14.8,216.8c11.4-4.9,19.3-16.2,19.3-29.5c0-4-0.7-7.9-2.1-11.5"/>
<path class="st0" d="M31.9,175.2c1.5-3.7,2.3-7.7,2.3-12c0-13.2-7.8-24.4-19.1-29.4"/>
<path class="st0" d="M14.8,133.1c2.4-1.1,4.1-3.5,4.1-6.4c0-2.3-1-4.2-2.7-5.5"/>
<path class="st0" d="M16.2,120.2c1.6-0.5,2.8-1.9,2.8-3.7c0-0.9-0.3-1.7-0.8-2.4"/>
<path class="st0" d="M20.8,107C20.8,107,20.8,107,20.8,107c2.1,0,3.8-1.7,3.8-3.8c0-0.7-0.2-1.4-0.5-2"/>
<path class="st0" d="M24.1,100.6c0.4,0.1,0.8,0.1,1.1,0.1c3.9,0,7-3.1,7-7c0-0.6-0.1-1.3-0.2-1.8"/>
<path class="st0" d="M32.6,90.8c3.7,1.5,7.7,2.3,11.9,2.3c13,0,24.2-7.7,29.2-18.8"/>
<path class="st0" d="M74.3,73.8c11.1-5,18.8-16.2,18.8-29.2c0-4.2-0.8-8.3-2.3-12"/>
<path class="st0" d="M91.9,31.9c0.6,0.2,1.2,0.2,1.8,0.2c3.9,0,7-3.1,7-7c0-0.4,0-0.8-0.1-1.1"/>
<path class="st0" d="M101.2,24c0.6,0.3,1.2,0.5,2,0.5c2.1,0,3.8-1.7,3.8-3.8c0,0,0,0,0,0"/>
<path class="st0" d="M114.1,18c0.6,0.5,1.5,0.8,2.4,0.8c1.7,0,3.2-1.2,3.7-2.8"/>
<path class="st0" d="M121.1,16.1c1.3,1.6,3.3,2.7,5.5,2.7c2.8,0,5.3-1.7,6.4-4.1"/>
<path class="st0" d="M133.8,15c4.9,11.3,16.2,19.1,29.3,19.1c4.2,0,8.3-0.8,11.9-2.3"/>
<path class="st0" d="M175.7,32c3.5,1.3,7.4,2.1,11.4,2.1c13.3,0,24.5-7.9,29.4-19.3"/>
<path class="st0" d="M217.4,15c1.1,2.3,3.5,3.9,6.2,3.9c2.4,0,4.5-1.2,5.7-3"/>
<path class="st0" d="M230.1,16.2c0.5,1.5,1.9,2.6,3.6,2.6c1.1,0,2-0.4,2.7-1.1"/>
<path class="st0" d="M237,18.2c0.3,1.5,1.6,2.5,3.1,2.5c0.9,0,1.7-0.4,2.2-0.9"/>
<path class="st0" d="M243.2,20.7C243.2,20.7,243.2,20.7,243.2,20.7c0,2.1,1.7,3.8,3.8,3.8c0.9,0,1.7-0.3,2.4-0.8"/>
<path class="st0" d="M249.7,23.9c-0.1,0.4-0.1,0.8-0.1,1.2c0,3.9,3.1,7,7,7c0.8,0,1.6-0.1,2.4-0.4"/>
<path class="st0" d="M259.6,32.3c-1.5,3.7-2.4,7.9-2.4,12.2c0,13.3,7.9,24.6,19.3,29.5"/>
<path class="st2" d="M5,175.6C5,80.7,80.7,4.9,175.4,4.9s170.5,75.9,170.5,170.7c0,94.8-75.8,170.7-170.5,170.7S5,270.4,5,175.6
	L5,175.6z"/>
<line class="st3" x1="175.4" y1="32.8" x2="175.4" y2="32.8"/>
<path class="st4" d="M221.7,23.9c0-0.7,0.6-1.3,1.3-1.3c0.7,0,1.3,0.6,1.3,1.3c0,0.7-0.6,1.3-1.3,1.3
	C222.3,25.2,221.7,24.6,221.7,23.9L221.7,23.9z"/>
<path class="st4" d="M20.8,235.2c0-0.7,0.6-1.3,1.3-1.3s1.3,0.6,1.3,1.3c0,0.7-0.6,1.3-1.3,1.3S20.8,235.9,20.8,235.2L20.8,235.2z"
	/>
<path class="st4" d="M103.2,321.5c0-0.7,0.6-1.3,1.3-1.3c0.7,0,1.3,0.6,1.3,1.3c0,0.7-0.6,1.3-1.3,1.3
	C103.8,322.8,103.2,322.2,103.2,321.5L103.2,321.5z"/>
<path class="st4" d="M130.4,27.1c0-0.7,0.6-1.3,1.3-1.3c0.7,0,1.3,0.6,1.3,1.3c0,0.7-0.6,1.3-1.3,1.3
	C131,28.3,130.4,27.8,130.4,27.1L130.4,27.1z"/>
<path class="st4" d="M55,115.9c0-0.7,0.6-1.3,1.3-1.3c0.7,0,1.3,0.6,1.3,1.3s-0.6,1.3-1.3,1.3C55.6,117.2,55,116.6,55,115.9
	L55,115.9z"/>
<path class="st4" d="M299,105.8c0-0.7,0.6-1.3,1.3-1.3s1.3,0.6,1.3,1.3c0,0.7-0.6,1.3-1.3,1.3S299,106.5,299,105.8L299,105.8z"/>
<path class="st4" d="M243.2,323.4c0-0.7,0.6-1.3,1.3-1.3c0.7,0,1.3,0.6,1.3,1.3c0,0.7-0.6,1.3-1.3,1.3
	C243.8,324.7,243.2,324.1,243.2,323.4L243.2,323.4z"/>
<path class="st4" d="M326.9,237.1c0-0.7,0.6-1.3,1.3-1.3s1.3,0.6,1.3,1.3c0,0.7-0.6,1.3-1.3,1.3S326.9,237.8,326.9,237.1
	L326.9,237.1z"/>
<path class="st5" d="M245.8,53.1c0-0.7,0.6-1.3,1.3-1.3s1.3,0.6,1.3,1.3c0,0.7-0.6,1.3-1.3,1.3S245.8,53.8,245.8,53.1L245.8,53.1z"
	/>
<path class="st5" d="M27.8,247.3c0-0.7,0.6-1.3,1.3-1.3c0.7,0,1.3,0.6,1.3,1.3c0,0.7-0.6,1.3-1.3,1.3
	C28.4,248.6,27.8,248,27.8,247.3L27.8,247.3z"/>
<path class="st5" d="M114.6,329.8c0-0.7,0.6-1.3,1.3-1.3c0.7,0,1.3,0.6,1.3,1.3c0,0.7-0.6,1.3-1.3,1.3
	C115.2,331.1,114.6,330.5,114.6,329.8L114.6,329.8z"/>
<path class="st5" d="M112.7,22c0-0.7,0.6-1.3,1.3-1.3s1.3,0.6,1.3,1.3c0,0.7-0.6,1.3-1.3,1.3S112.7,22.7,112.7,22L112.7,22z"/>
<path class="st5" d="M25.9,105.8c0-0.7,0.6-1.3,1.3-1.3c0.7,0,1.3,0.6,1.3,1.3c0,0.7-0.6,1.3-1.3,1.3
	C26.4,107,25.9,106.5,25.9,105.8L25.9,105.8z"/>
<path class="st5" d="M326.3,128.6c0-0.7,0.6-1.3,1.3-1.3c0.7,0,1.3,0.6,1.3,1.3c0,0.7-0.6,1.3-1.3,1.3
	C326.8,129.9,326.3,129.3,326.3,128.6L326.3,128.6z"/>
<path class="st5" d="M235.6,291.1c0-0.7,0.6-1.3,1.3-1.3s1.3,0.6,1.3,1.3s-0.6,1.3-1.3,1.3S235.6,291.8,235.6,291.1L235.6,291.1z"/>
<path class="st5" d="M323.7,218.1c0-0.7,0.6-1.3,1.3-1.3s1.3,0.6,1.3,1.3c0,0.7-0.6,1.3-1.3,1.3S323.7,218.8,323.7,218.1
	L323.7,218.1z"/>
<path class="st6" d="M250.2,32.8c0-0.7,0.6-1.3,1.3-1.3s1.3,0.6,1.3,1.3c0,0.7-0.6,1.3-1.3,1.3S250.2,33.5,250.2,32.8L250.2,32.8z"
	/>
<path class="st6" d="M329.4,119.1c0-0.7,0.6-1.3,1.3-1.3s1.3,0.6,1.3,1.3c0,0.7-0.6,1.3-1.3,1.3S329.4,119.8,329.4,119.1
	L329.4,119.1z"/>
<path class="st6" d="M20.8,110.2c0-0.7,0.6-1.3,1.3-1.3s1.3,0.6,1.3,1.3c0,0.7-0.6,1.3-1.3,1.3S20.8,110.9,20.8,110.2L20.8,110.2z"
	/>
<path class="st6" d="M106.4,23.9c0-0.7,0.6-1.3,1.3-1.3c0.7,0,1.3,0.6,1.3,1.3c0,0.7-0.6,1.3-1.3,1.3
	C106.9,25.2,106.4,24.6,106.4,23.9L106.4,23.9z"/>
<path class="st6" d="M122.2,331.1c0-0.7,0.6-1.3,1.3-1.3s1.3,0.6,1.3,1.3s-0.6,1.3-1.3,1.3S122.2,331.8,122.2,331.1L122.2,331.1z"/>
<path class="st6" d="M39.2,254.3c0-0.7,0.6-1.3,1.3-1.3c0.7,0,1.3,0.6,1.3,1.3c0,0.7-0.6,1.3-1.3,1.3
	C39.8,255.5,39.2,255,39.2,254.3L39.2,254.3z"/>
<path class="st6" d="M205.9,316.5c0-0.7,0.6-1.3,1.3-1.3s1.3,0.6,1.3,1.3c0,0.7-0.6,1.3-1.3,1.3S205.9,317.2,205.9,316.5
	L205.9,316.5z"/>
<path class="st6" d="M292,208.6c0-0.7,0.6-1.3,1.3-1.3s1.3,0.6,1.3,1.3c0,0.7-0.6,1.3-1.3,1.3S292,209.3,292,208.6L292,208.6z"/>
<path class="st7" d="M174.2,32.8c0-0.7,0.6-1.3,1.3-1.3c0.7,0,1.3,0.6,1.3,1.3c0,0.7-0.6,1.3-1.3,1.3
	C174.7,34.1,174.2,33.5,174.2,32.8L174.2,32.8z"/>
<path class="st7" d="M274.9,276.5c0-0.7,0.6-1.3,1.3-1.3c0.7,0,1.3,0.6,1.3,1.3c0,0.7-0.6,1.3-1.3,1.3
	C275.5,277.8,274.9,277.2,274.9,276.5L274.9,276.5z"/>
<path class="st7" d="M174.2,318.4c0-0.7,0.6-1.3,1.3-1.3c0.7,0,1.3,0.6,1.3,1.3c0,0.7-0.6,1.3-1.3,1.3
	C174.7,319.6,174.2,319.1,174.2,318.4L174.2,318.4z"/>
<path class="st7" d="M73.4,276.5c0-0.7,0.6-1.3,1.3-1.3s1.3,0.6,1.3,1.3c0,0.7-0.6,1.3-1.3,1.3S73.4,277.2,73.4,276.5L73.4,276.5z"
	/>
<path class="st7" d="M31.6,175.6c0-0.7,0.6-1.3,1.3-1.3c0.7,0,1.3,0.6,1.3,1.3c0,0.7-0.6,1.3-1.3,1.3
	C32.2,176.8,31.6,176.3,31.6,175.6L31.6,175.6z"/>
<path class="st7" d="M73.4,74.7c0-0.7,0.6-1.3,1.3-1.3s1.3,0.6,1.3,1.3s-0.6,1.3-1.3,1.3S73.4,75.4,73.4,74.7L73.4,74.7z"/>
<path class="st7" d="M174.2,32.8c0-0.7,0.6-1.3,1.3-1.3c0.7,0,1.3,0.6,1.3,1.3c0,0.7-0.6,1.3-1.3,1.3
	C174.7,34.1,174.2,33.5,174.2,32.8L174.2,32.8z"/>
<path class="st7" d="M274.9,74.7c0-0.7,0.6-1.3,1.3-1.3c0.7,0,1.3,0.6,1.3,1.3s-0.6,1.3-1.3,1.3C275.5,75.9,274.9,75.4,274.9,74.7
	L274.9,74.7z"/>
<path class="st6" d="M230.6,91.2c0-0.7,0.6-1.3,1.3-1.3s1.3,0.6,1.3,1.3s-0.6,1.3-1.3,1.3S230.6,91.9,230.6,91.2L230.6,91.2z"/>
<path class="st5" d="M262.9,163.5c0-0.7,0.6-1.3,1.3-1.3c0.7,0,1.3,0.6,1.3,1.3s-0.6,1.3-1.3,1.3
	C263.5,164.8,262.9,164.2,262.9,163.5L262.9,163.5z"/>
<path class="st4" d="M161.5,256.8c0-0.7,0.6-1.3,1.3-1.3s1.3,0.6,1.3,1.3s-0.6,1.3-1.3,1.3S161.5,257.5,161.5,256.8L161.5,256.8z"/>
<path class="st7" d="M316.8,175.6c0-0.7,0.6-1.3,1.3-1.3s1.3,0.6,1.3,1.3c0,0.7-0.6,1.3-1.3,1.3S316.8,176.3,316.8,175.6
	L316.8,175.6z"/>
<text transform="matrix(1 0 0 1 213.5161 290.3877)" class="st8 st9">a</text>
<text transform="matrix(1 0 0 1 279.7109 130.1289)" class="st8 st9">a</text>
<text transform="matrix(1 0 0 1 217.8853 70.6543)" class="st8 st9">b</text>
<text transform="matrix(1 0 0 1 281.3062 222.9365)" class="st8 st9">b</text>
<text transform="matrix(1 0 0 1 127.438 68.3008)" class="st8 st9">c</text>
<text transform="matrix(1 0 0 1 64.1851 226.8838)" class="st8 st9">c</text>
<text transform="matrix(1 0 0 1 62.8394 130.9653)" class="st8 st9">d</text>
<text transform="matrix(1 0 0 1 126.0933 290.6445)" class="st8 st9">d</text>
</svg>
