<?xml version="1.0" encoding="utf-8"?>
<!-- Generator: Adobe Illustrator 20.0.0, SVG Export Plug-In . SVG Version: 6.00 Build 0)  -->
<svg version="1.1" id="Layer_1" xmlns="http://www.w3.org/2000/svg" xmlns:xlink="http://www.w3.org/1999/xlink" x="0px" y="0px"
	 viewBox="0 0 230 230" style="enable-background:new 0 0 230 230;" xml:space="preserve">
<style type="text/css">
	.st0{fill:none;stroke:#000000;stroke-width:2;}
	.st1{fill:none;stroke:#000000;stroke-dasharray:3,3;}
	.st2{font-family:'TimesNewRomanPSMT';}
	.st3{font-size:12px;}
	
		.st4{fill-rule:evenodd;clip-rule:evenodd;fill:#ED2224;stroke:#010101;stroke-width:0;stroke-linecap:square;stroke-miterlimit:10;}
</style>
<g>
	<line class="st0" x1="123.8" y1="8" x2="184.3" y2="41.6"/>
	<line class="st0" x1="184.3" y1="41.6" x2="218.4" y2="90.2"/>
	<line class="st0" x1="218.4" y1="90.2" x2="212.4" y2="163.7"/>
	<line class="st0" x1="212.4" y1="163.7" x2="172.9" y2="166.1"/>
	<line class="st0" x1="72.3" y1="79.9" x2="41.1" y2="151.7"/>
	<line class="st0" x1="41.1" y1="151.7" x2="102.8" y2="205.6"/>
	<line class="st0" x1="102.8" y1="205.6" x2="172.9" y2="166.1"/>
	<line class="st0" x1="172.9" y1="166.1" x2="155.5" y2="87.7"/>
	<line class="st0" x1="155.5" y1="87.7" x2="72.3" y2="79.9"/>
	<line class="st0" x1="72.3" y1="79.9" x2="56.7" y2="30.2"/>
	<line class="st0" x1="56.7" y1="30.2" x2="123.8" y2="8"/>
	<line class="st0" x1="123.8" y1="8" x2="184.3" y2="41.6"/>
	<line class="st0" x1="155.5" y1="87.7" x2="184.3" y2="41.6"/>
	<line class="st0" x1="102.8" y1="205.6" x2="104.2" y2="223.2"/>
	<line class="st0" x1="104.2" y1="223.2" x2="168.1" y2="198"/>
	<line class="st0" x1="168.1" y1="198" x2="212.4" y2="163.7"/>
	<line class="st0" x1="104.2" y1="223.2" x2="47.9" y2="186"/>
	<line class="st0" x1="47.9" y1="186" x2="9.6" y2="143.7"/>
	<line class="st0" x1="9.6" y1="143.7" x2="41.1" y2="151.7"/>
	<line class="st0" x1="9.6" y1="143.7" x2="19.1" y2="69.9"/>
	<line class="st0" x1="19.1" y1="69.9" x2="56.7" y2="30.2"/>
	<line class="st1" x1="19.1" y1="69.9" x2="61.9" y2="71.9"/>
	<line class="st1" x1="61.9" y1="71.9" x2="123.8" y2="35.1"/>
	<line class="st1" x1="79" y1="140.5" x2="61.9" y2="71.9"/>
	<line class="st1" x1="79" y1="140.5" x2="150.9" y2="147.3"/>
	<line class="st1" x1="150.9" y1="147.3" x2="178.8" y2="83"/>
	<line class="st1" x1="178.8" y1="83" x2="123.8" y2="35.1"/>
	<line class="st1" x1="178.8" y1="83" x2="218" y2="89"/>
	<line class="st1" x1="79" y1="140.5" x2="47.9" y2="186"/>
	<line class="st1" x1="150.9" y1="147.3" x2="169" y2="197.5"/>
	<line class="st1" x1="123.8" y1="35.1" x2="123.4" y2="8.9"/>
</g>
<text transform="matrix(1 0 0 1 72.6489 92.6641)" class="st2 st3">1</text>
<text transform="matrix(1 0 0 1 121.0933 48.5713)" class="st2 st3">1</text>
<text transform="matrix(1 0 0 1 147.5522 98.4551)" class="st2 st3">2</text>
<text transform="matrix(1 0 0 1 168.2393 89.498)" class="st2 st3">2</text>
<text transform="matrix(1 0 0 1 163.7686 166.0225)" class="st2 st3">3</text>
<text transform="matrix(1 0 0 1 145.2358 144.7881)" class="st2 st3">3</text>
<text transform="matrix(1 0 0 1 101.2202 200)" class="st2 st3">4</text>
<text transform="matrix(1 0 0 1 80.3706 137.4521)" class="st2 st3">4</text>
<text transform="matrix(1 0 0 1 45.6221 152.5107)" class="st2 st3">5</text>
<text transform="matrix(1 0 0 1 63.7686 78.7637)" class="st2 st3">5</text>
<g>
	<path class="st4" d="M69.7,79.6c0-1.3,1.1-2.4,2.4-2.4c1.3,0,2.4,1.1,2.4,2.4c0,1.3-1.1,2.4-2.4,2.4C70.8,82,69.7,81,69.7,79.6
		L69.7,79.6z"/>
</g>
<g>
	<path class="st4" d="M120.8,36.6c0-1.3,1.1-2.4,2.4-2.4c1.3,0,2.4,1.1,2.4,2.4c0,1.3-1.1,2.4-2.4,2.4C121.9,39,120.8,38,120.8,36.6
		L120.8,36.6z"/>
</g>
<g>
	<path class="st4" d="M45.2,185.7c0-1.3,1.1-2.4,2.4-2.4c1.3,0,2.4,1.1,2.4,2.4s-1.1,2.4-2.4,2.4C46.3,188.1,45.2,187,45.2,185.7
		L45.2,185.7z"/>
</g>
<g>
	<path class="st4" d="M209.3,164c0-1.3,1.1-2.4,2.4-2.4c1.3,0,2.4,1.1,2.4,2.4c0,1.3-1.1,2.4-2.4,2.4
		C210.4,166.5,209.3,165.4,209.3,164L209.3,164z"/>
</g>
</svg>
