<?xml version="1.0" encoding="utf-8"?>
<!-- Generator: Adobe Illustrator 20.0.0, SVG Export Plug-In . SVG Version: 6.00 Build 0)  -->
<svg version="1.1" id="Layer_1" xmlns="http://www.w3.org/2000/svg" xmlns:xlink="http://www.w3.org/1999/xlink" x="0px" y="0px"
	 viewBox="0 0 230 230" style="enable-background:new 0 0 230 230;" xml:space="preserve">
<style type="text/css">
	.st0{fill:none;stroke:#000000;stroke-width:2;}
	.st1{fill:none;stroke:#000000;stroke-dasharray:3,3;}
	.st2{font-family:'TimesNewRomanPSMT';}
	.st3{font-size:12px;}
</style>
<g>
	<line class="st0" x1="123.8" y1="8" x2="184.3" y2="41.6"/>
	<line class="st0" x1="184.3" y1="41.6" x2="218.4" y2="90.2"/>
	<line class="st0" x1="218.4" y1="90.2" x2="212.4" y2="163.7"/>
	<line class="st0" x1="212.4" y1="163.7" x2="172.9" y2="166.1"/>
	<line class="st0" x1="72.3" y1="79.9" x2="41.1" y2="151.7"/>
	<line class="st0" x1="41.1" y1="151.7" x2="102.8" y2="205.6"/>
	<line class="st0" x1="102.8" y1="205.6" x2="172.9" y2="166.1"/>
	<line class="st0" x1="172.9" y1="166.1" x2="155.5" y2="87.7"/>
	<line class="st0" x1="155.5" y1="87.7" x2="72.3" y2="79.9"/>
	<line class="st0" x1="72.3" y1="79.9" x2="56.7" y2="30.2"/>
	<line class="st0" x1="56.7" y1="30.2" x2="123.8" y2="8"/>
	<line class="st0" x1="123.8" y1="8" x2="184.3" y2="41.6"/>
	<line class="st0" x1="155.5" y1="87.7" x2="184.3" y2="41.6"/>
	<line class="st0" x1="102.8" y1="205.6" x2="104.2" y2="223.2"/>
	<line class="st0" x1="104.2" y1="223.2" x2="168.1" y2="198"/>
	<line class="st0" x1="168.1" y1="198" x2="212.4" y2="163.7"/>
	<line class="st0" x1="104.2" y1="223.2" x2="47.9" y2="186"/>
	<line class="st0" x1="47.9" y1="186" x2="9.6" y2="143.7"/>
	<line class="st0" x1="9.6" y1="143.7" x2="41.1" y2="151.7"/>
	<line class="st0" x1="9.6" y1="143.7" x2="19.1" y2="69.9"/>
	<line class="st0" x1="19.1" y1="69.9" x2="56.7" y2="30.2"/>
	<line class="st1" x1="19.1" y1="69.9" x2="61.9" y2="71.9"/>
	<line class="st1" x1="61.9" y1="71.9" x2="123.8" y2="35.1"/>
	<line class="st1" x1="79" y1="140.5" x2="61.9" y2="71.9"/>
	<line class="st1" x1="79" y1="140.5" x2="150.9" y2="147.3"/>
	<line class="st1" x1="150.9" y1="147.3" x2="178.8" y2="83"/>
	<line class="st1" x1="178.8" y1="83" x2="123.8" y2="35.1"/>
	<line class="st1" x1="178.8" y1="83" x2="218" y2="89"/>
	<line class="st1" x1="79" y1="140.5" x2="47.9" y2="186"/>
	<line class="st1" x1="150.9" y1="147.3" x2="169" y2="197.5"/>
	<line class="st1" x1="123.8" y1="35.1" x2="123.4" y2="8.9"/>
</g>
<text transform="matrix(1 0 0 1 72.6489 92.6636)" class="st2 st3">1</text>
<text transform="matrix(1 0 0 1 168.9702 88.7256)" class="st2 st3">1</text>
<text transform="matrix(1 0 0 1 147.5522 98.4556)" class="st2 st3">2</text>
<text transform="matrix(1 0 0 1 144.6875 144.3242)" class="st2 st3">2</text>
<text transform="matrix(1 0 0 1 163.7686 166.0229)" class="st2 st3">3</text>
<text transform="matrix(1 0 0 1 80.3706 138.6099)" class="st2 st3">3</text>
<text transform="matrix(1 0 0 1 101.2202 200)" class="st2 st3">4</text>
<text transform="matrix(1 0 0 1 63.3823 77.9927)" class="st2 st3">4</text>
<text transform="matrix(1 0 0 1 45.6221 152.5107)" class="st2 st3">5</text>
<text transform="matrix(1 0 0 1 120.1396 47.4893)" class="st2 st3">5</text>
</svg>
